<?xml version="1.0" standalone="no"?>
<!DOCTYPE svg PUBLIC "-//W3C//DTD SVG 20010904//EN"
 "http://www.w3.org/TR/2001/REC-SVG-20010904/DTD/svg10.dtd">
<svg version="1.0" xmlns="http://www.w3.org/2000/svg"
 viewBox="0 0 512.000000 512.000000"
 preserveAspectRatio="xMidYMid meet">
<metadata>
Created by potrace 1.16, written by Peter Selinger 2001-2019
</metadata>
<g transform="translate(0.000000,512.000000) scale(0.100000,-0.100000)"
fill="#000" stroke="none">
<path d="M0 2560 l0 -2560 2560 0 2560 0 0 2560 0 2560 -2560 0 -2560 0 0
-2560z m2583 2423 c-7 -2 -21 -2 -30 0 -10 3 -4 5 12 5 17 0 24 -2 18 -5z
m244 -9 c-3 -3 -12 -4 -19 -1 -8 3 -5 6 6 6 11 1 17 -2 13 -5z m70 -10 c-3 -3
-12 -4 -19 -1 -8 3 -5 6 6 6 11 1 17 -2 13 -5z m78 -4 c25 -11 -1 -11 -35 0
-20 6 -21 8 -5 8 11 0 29 -3 40 -8z m242 -56 c-3 -3 -12 -4 -19 -1 -8 3 -5 6
6 6 11 1 17 -2 13 -5z m70 -20 c-3 -3 -12 -4 -19 -1 -8 3 -5 6 6 6 11 1 17 -2
13 -5z m38 -14 c3 -6 -1 -7 -9 -4 -18 7 -21 14 -7 14 6 0 13 -4 16 -10z m70
-28 c-3 -3 -11 0 -18 7 -9 10 -8 11 6 5 10 -3 15 -9 12 -12z m140 -52 c3 -6
-1 -7 -9 -4 -18 7 -21 14 -7 14 6 0 13 -4 16 -10z m-2625 -453 c0 -2 -10 -12
-22 -23 l-23 -19 19 23 c18 21 26 27 26 19z m3271 -190 c24 -13 58 -43 74 -66
40 -57 43 -145 6 -204 -51 -82 -159 -119 -241 -82 l-40 18 -77 -50 c-43 -27
-151 -96 -240 -154 l-163 -104 0 -38 c0 -143 -167 -215 -279 -121 l-30 25
-257 -84 c-159 -52 -257 -80 -260 -73 -2 6 -5 28 -7 50 l-2 38 250 82 250 82
6 37 c18 111 138 169 243 116 l42 -21 231 149 230 148 -10 28 c-5 16 -7 50 -5
77 13 135 158 211 279 147z m-1726 -270 c8 -13 35 -124 59 -247 25 -124 91
-448 146 -720 56 -272 108 -534 118 -582 9 -49 19 -88 22 -88 3 0 15 37 28 83
53 192 203 652 219 669 16 18 68 24 89 10 18 -12 30 -41 115 -278 44 -126 85
-237 90 -246 9 -17 39 -18 408 -18 l398 0 24 38 c54 84 185 108 264 48 76 -58
101 -142 65 -223 -27 -62 -53 -89 -106 -109 -91 -35 -198 7 -235 92 l-20 44
-434 0 c-407 0 -436 1 -453 18 -10 10 -47 90 -82 178 -35 87 -66 163 -70 167
-4 4 -14 -16 -22 -45 -9 -29 -50 -165 -91 -303 -41 -137 -94 -318 -117 -402
-23 -84 -47 -159 -54 -168 -20 -27 -45 -7 -61 49 -41 141 -134 570 -260 1191
-58 284 -95 450 -99 435 -3 -14 -71 -351 -150 -750 -80 -399 -148 -733 -151
-742 -4 -9 -20 -22 -36 -29 -58 -23 -71 -3 -198 316 l-114 288 -45 -89 c-24
-49 -52 -94 -61 -101 -12 -9 -101 -12 -353 -13 -323 0 -337 -1 -343 -19 -10
-32 -81 -89 -120 -97 -103 -19 -207 67 -207 171 0 174 222 240 318 95 l27 -40
294 0 294 0 71 148 c76 158 99 192 133 192 51 0 67 -29 160 -289 50 -138 92
-251 95 -251 3 0 24 96 47 213 41 207 67 336 213 1046 46 225 76 351 87 363
24 26 79 24 98 -5z m-635 -569 c25 -13 54 -37 66 -55 12 -18 23 -30 25 -28 4
3 224 55 235 55 4 0 -7 -93 -12 -98 -1 -2 -42 -12 -91 -23 -48 -10 -97 -21
-109 -24 -12 -3 -28 -21 -39 -45 -34 -76 -134 -112 -208 -73 l-32 16 -171 -89
-172 -89 -5 -39 c-6 -43 -29 -79 -71 -110 -39 -30 -133 -29 -173 0 -66 49 -89
154 -47 212 56 75 155 96 226 47 l36 -24 161 82 161 82 -6 45 c-7 62 26 127
81 157 51 29 89 29 145 1z m3107 -630 c-2 -13 -4 -5 -4 17 -1 22 1 32 4 23 2
-10 2 -28 0 -40z m-787 -520 c0 -4 -28 -22 -62 -41 -106 -58 -740 -377 -975
-490 l-223 -107 0 -37 c0 -75 -65 -146 -152 -167 -41 -9 -105 9 -153 43 -23
16 -46 26 -51 22 -12 -11 -406 -163 -410 -158 -2 2 91 41 206 86 116 46 210
84 210 86 0 1 -7 19 -15 38 -41 99 3 214 100 258 70 33 143 19 207 -39 l40
-36 616 310 617 310 22 -35 c13 -20 23 -39 23 -43z m-1662 -698 c-45 -27 -507
-204 -514 -197 -2 2 83 36 189 77 106 40 221 86 257 101 65 28 100 37 68 19z
m-699 -213 c51 -34 72 -75 76 -146 1 -31 1 -42 -2 -25 -5 36 -14 40 -148 54
-114 11 -165 27 -165 50 0 22 -22 8 -35 -22 -8 -18 -14 -27 -15 -20 -1 36 62
111 110 131 45 19 134 8 179 -22z m161 3 c-8 -5 -19 -10 -25 -10 -5 0 -3 5 5
10 8 5 20 10 25 10 6 0 3 -5 -5 -10z m-50 -20 c-8 -5 -19 -10 -25 -10 -5 0 -3
5 5 10 8 5 20 10 25 10 6 0 3 -5 -5 -10z m200 -20 c-8 -5 -19 -10 -25 -10 -5
0 -3 5 5 10 8 5 20 10 25 10 6 0 3 -5 -5 -10z m-50 -20 c-8 -5 -19 -10 -25
-10 -5 0 -3 5 5 10 8 5 20 10 25 10 6 0 3 -5 -5 -10z m2240 -43 c0 -2 -17 -19
-37 -38 l-38 -34 34 38 c33 34 41 42 41 34z m-2793 -49 c-3 -8 -6 -5 -6 6 -1
11 2 17 5 13 3 -3 4 -12 1 -19z m990 -674 c-3 -3 -12 -4 -19 -1 -8 3 -5 6 6 6
11 1 17 -2 13 -5z m226 -1 c-7 -2 -19 -2 -25 0 -7 3 -2 5 12 5 14 0 19 -2 13
-5z"/>
<path d="M2871 1603 c-1 -6 3 -23 9 -38 9 -23 12 -24 31 -14 17 9 19 13 8 20
-9 5 -15 4 -18 -3 -2 -6 -9 2 -17 18 -7 16 -13 24 -13 17z"/>
</g>
</svg>
