<?plantuml 1.2026.2?><svg xmlns="http://www.w3.org/2000/svg" xmlns:xlink="http://www.w3.org/1999/xlink" contentStyleType="text/css" data-diagram-type="STATE" height="688px" preserveAspectRatio="none" style="width:376px;height:688px;background:#FFFFFF;" version="1.1" viewBox="0 0 376 688" width="376px" zoomAndPan="magnify"><title>Case Lifecycle &#8212; State Diagram</title><defs/><g><g class="title" data-source-line="1"><text fill="#000000" font-family="sans-serif" font-size="14" font-weight="bold" lengthAdjust="spacing" textLength="249.6074" x="56.2454" y="22.9951">Case Lifecycle &#8212; State Diagram</text></g><g class="entity" data-qualified-name="NEW" id="ent0002"><rect fill="#F1F1F1" height="50" rx="12.5" ry="12.5" style="stroke:#181818;stroke-width:0.5;" width="53.1611" x="45.32" y="124.2969"/><line style="stroke:#181818;stroke-width:0.5;" x1="45.32" x2="98.4811" y1="150.5938" y2="150.5938"/><text fill="#000000" font-family="sans-serif" font-size="14" lengthAdjust="spacing" textLength="33.1611" x="55.32" y="142.292">NEW</text></g><g class="entity" data-qualified-name="NEEDS_REVIEW" id="ent0003"><rect fill="#F1F1F1" height="50" rx="12.5" ry="12.5" style="stroke:#181818;stroke-width:0.5;" width="129.7988" x="7" y="251.2969"/><line style="stroke:#181818;stroke-width:0.5;" x1="7" x2="136.7988" y1="277.5938" y2="277.5938"/><text fill="#000000" font-family="sans-serif" font-size="14" lengthAdjust="spacing" textLength="109.7988" x="17" y="269.292">NEEDS_REVIEW</text></g><g class="entity" data-qualified-name="TRIAGED" id="ent0004"><rect fill="#F1F1F1" height="50" rx="12.5" ry="12.5" style="stroke:#181818;stroke-width:0.5;" width="82.46" x="30.67" y="378.2969"/><line style="stroke:#181818;stroke-width:0.5;" x1="30.67" x2="113.13" y1="404.5938" y2="404.5938"/><text fill="#000000" font-family="sans-serif" font-size="14" lengthAdjust="spacing" textLength="62.46" x="40.67" y="396.292">TRIAGED</text></g><g class="entity" data-qualified-name="FOLLOWING_UP" id="ent0005"><rect fill="#F1F1F1" height="50" rx="12.5" ry="12.5" style="stroke:#181818;stroke-width:0.5;" width="130.6738" x="174.56" y="505.2969"/><line style="stroke:#181818;stroke-width:0.5;" x1="174.56" x2="305.2338" y1="531.5938" y2="531.5938"/><text fill="#000000" font-family="sans-serif" font-size="14" lengthAdjust="spacing" textLength="110.6738" x="184.56" y="523.292">FOLLOWING_UP</text></g><g class="entity" data-qualified-name="CLOSED" id="ent0006"><rect fill="#F1F1F1" height="50" rx="12.5" ry="12.5" style="stroke:#181818;stroke-width:0.5;" width="77.1074" x="33.35" y="632.2969"/><line style="stroke:#181818;stroke-width:0.5;" x1="33.35" x2="110.4574" y1="658.5938" y2="658.5938"/><text fill="#000000" font-family="sans-serif" font-size="14" lengthAdjust="spacing" textLength="57.1074" x="43.35" y="650.292">CLOSED</text></g><g class="start_entity" data-qualified-name=".start." data-source-line="9" id="ent0002"><ellipse cx="71.9" cy="53.2969" fill="#222222" rx="10" ry="10" style="stroke:#222222;stroke-width:1;"/></g><g class="entity" data-qualified-name="GMN2" data-source-line="17" id="ent0003"><path d="M145.67,637.1669 L145.67,653.2969 L110.65,657.2969 L145.67,661.2969 L145.67,677.4325 A0,0 0 0 0 145.67,677.4325 L318.1314,677.4325 A0,0 0 0 0 318.1314,677.4325 L318.1314,647.1669 L308.1314,637.1669 L145.67,637.1669 A0,0 0 0 0 145.67,637.1669" fill="#FEFFDD" style="stroke:#181818;stroke-width:0.5;"/><path d="M308.1314,637.1669 L308.1314,647.1669 L318.1314,647.1669 L308.1314,637.1669" fill="#FEFFDD" style="stroke:#181818;stroke-width:0.5;"/><text fill="#000000" font-family="sans-serif" font-size="13" lengthAdjust="spacing" textLength="149.1763" x="151.67" y="654.2338">Transitions enforced in</text><text fill="#000000" font-family="sans-serif" font-size="13" lengthAdjust="spacing" textLength="151.4614" x="151.67" y="669.3666">src/api/service/cases.ts</text></g><!--link *start* to NEW--><g class="link" data-entity-1="ent0002" data-entity-2="ent0002" data-link-type="dependency" data-source-line="9" id="lnk3"><path d="M71.9,63.6569 C71.9,77.5869 71.9,98.2469 71.9,117.9469" fill="none" id="*start*-to-NEW" style="stroke:#181818;stroke-width:1;"/><polygon fill="#181818" points="71.9,123.9469,75.9,114.9469,71.9,118.9469,67.9,114.9469,71.9,123.9469" style="stroke:#181818;stroke-width:1;"/></g><!--link NEW to NEEDS_REVIEW--><g class="link" data-entity-1="ent0002" data-entity-2="ent0003" data-link-type="dependency" data-source-line="10" id="lnk4"><path d="M71.9,174.6969 C71.9,196.7169 71.9,222.9569 71.9,244.9569" fill="none" id="NEW-to-NEEDS_REVIEW" style="stroke:#181818;stroke-width:1;"/><polygon fill="#181818" points="71.9,250.9569,75.9,241.9569,71.9,245.9569,67.9,241.9569,71.9,250.9569" style="stroke:#181818;stroke-width:1;"/><text fill="#000000" font-family="sans-serif" font-size="13" lengthAdjust="spacing" textLength="124.3379" x="72.9" y="217.3638">"submitForReview"</text></g><!--link NEEDS_REVIEW to TRIAGED--><g class="link" data-entity-1="ent0003" data-entity-2="ent0004" data-link-type="dependency" data-source-line="11" id="lnk5"><path d="M71.9,301.6969 C71.9,323.7169 71.9,349.9569 71.9,371.9569" fill="none" id="NEEDS_REVIEW-to-TRIAGED" style="stroke:#181818;stroke-width:1;"/><polygon fill="#181818" points="71.9,377.9569,75.9,368.9569,71.9,372.9569,67.9,368.9569,71.9,377.9569" style="stroke:#181818;stroke-width:1;"/><text fill="#000000" font-family="sans-serif" font-size="13" lengthAdjust="spacing" textLength="82.0435" x="72.9" y="344.3638">"triageCase"</text></g><!--link TRIAGED to FOLLOWING_UP--><g class="link" data-entity-1="ent0004" data-entity-2="ent0005" data-link-type="dependency" data-source-line="12" id="lnk6"><path d="M104.69,428.6969 C134.29,450.7169 172.7956,479.3762 202.3756,501.3762" fill="none" id="TRIAGED-to-FOLLOWING_UP" style="stroke:#181818;stroke-width:1;"/><polygon fill="#181818" points="207.19,504.9569,202.3555,496.3762,203.178,501.973,197.5812,502.7954,207.19,504.9569" style="stroke:#181818;stroke-width:1;"/><text fill="#000000" font-family="sans-serif" font-size="13" lengthAdjust="spacing" textLength="201.1382" x="166.96" y="471.3638">"setFollowingUp / setDeadline"</text></g><!--link TRIAGED to CLOSED--><g class="link" data-entity-1="ent0004" data-entity-2="ent0006" data-link-type="dependency" data-source-line="13" id="lnk7"><path d="M68.18,428.7169 C65.26,449.1269 61.45,479.0369 59.9,505.2969 C58.59,527.4769 58.59,533.1169 59.9,555.2969 C61.45,581.5569 64.4102,605.5274 67.3302,625.9374" fill="none" id="TRIAGED-to-CLOSED" style="stroke:#181818;stroke-width:1;"/><polygon fill="#181818" points="68.18,631.8769,70.8651,622.4011,67.4719,626.9273,62.9457,623.5341,68.18,631.8769" style="stroke:#181818;stroke-width:1;"/><text fill="#000000" font-family="sans-serif" font-size="13" lengthAdjust="spacing" textLength="95.9575" x="60.9" y="534.8638">"closeDirectly"</text></g><!--link FOLLOWING_UP to CLOSED--><g class="link" data-entity-1="ent0005" data-entity-2="ent0006" data-link-type="dependency" data-source-line="14" id="lnk8"><path d="M207.11,555.6969 C177.51,577.7169 138.9938,606.3754 109.4238,628.3754" fill="none" id="FOLLOWING_UP-to-CLOSED" style="stroke:#181818;stroke-width:1;"/><polygon fill="#181818" points="104.61,631.9569,114.2184,629.7939,108.6215,628.9723,109.4431,623.3754,104.61,631.9569" style="stroke:#181818;stroke-width:1;"/><text fill="#000000" font-family="sans-serif" font-size="13" lengthAdjust="spacing" textLength="111.7314" x="166.96" y="598.3638">"followUpClosed"</text></g><?plantuml-src NOz1QiCm44NtEiNWPI3rlej0iPrWC76nusPHIb3biJkWI4PI4xBh8Nh2dgIIwwPr5eAPF_y_pJXo4Y7X5g6W3iL5-FRhunDgnnr2Ihmt_CYO7TjjjhzMMLeVgkmflqgxAd_OPEdKhSkYAFVvTdDe7YSfAShQpzdpuWMMozL8ys-g_tXm3v5zVpsIMsjJuOdm7B6P8IIcxuBP6RycXYCYzYi7o_yTHYXwefJwJAfl1eZ12odoLfAwIVwi6Z92Qeif6HHENY8sGywTtOXkXYGaseWnfVtHXletnm1sXYjBZhIoWAhJHc0BfFp46X7pWMABvaG2O-7li7VECbGj10Rx1W00?></g></svg>