<?plantuml 1.2026.2?><svg xmlns="http://www.w3.org/2000/svg" xmlns:xlink="http://www.w3.org/1999/xlink" contentStyleType="text/css" data-diagram-type="STATE" height="815px" preserveAspectRatio="none" style="width:865px;height:815px;background:#FFFFFF;" version="1.1" viewBox="0 0 865 815" width="865px" zoomAndPan="magnify"><title>Case Lifecycle - State Diagram</title><defs/><g><g class="title" data-source-line="6"><text fill="#000000" font-family="sans-serif" font-size="14" font-weight="bold" lengthAdjust="spacing" textLength="241.418" x="305.0851" y="22.9951">Case Lifecycle - State Diagram</text></g><g class="entity" data-qualified-name="NEW" id="ent0002"><rect fill="#F1F1F1" height="50" rx="12.5" ry="12.5" style="stroke:#181818;stroke-width:0.5;" width="53.1611" x="310.42" y="124.2969"/><line style="stroke:#181818;stroke-width:0.5;" x1="310.42" x2="363.5811" y1="150.5938" y2="150.5938"/><text fill="#000000" font-family="sans-serif" font-size="14" lengthAdjust="spacing" textLength="33.1611" x="320.42" y="142.292">NEW</text></g><g class="entity" data-qualified-name="NEEDS_REVIEW" id="ent0003"><rect fill="#F1F1F1" height="50" rx="12.5" ry="12.5" style="stroke:#181818;stroke-width:0.5;" width="129.7988" x="272.1" y="266.2969"/><line style="stroke:#181818;stroke-width:0.5;" x1="272.1" x2="401.8988" y1="292.5938" y2="292.5938"/><text fill="#000000" font-family="sans-serif" font-size="14" lengthAdjust="spacing" textLength="109.7988" x="282.1" y="284.292">NEEDS_REVIEW</text></g><g class="entity" data-qualified-name="TRIAGED" id="ent0004"><rect fill="#F1F1F1" height="50" rx="12.5" ry="12.5" style="stroke:#181818;stroke-width:0.5;" width="82.46" x="497.77" y="393.2969"/><line style="stroke:#181818;stroke-width:0.5;" x1="497.77" x2="580.23" y1="419.5938" y2="419.5938"/><text fill="#000000" font-family="sans-serif" font-size="14" lengthAdjust="spacing" textLength="62.46" x="507.77" y="411.292">TRIAGED</text></g><g class="entity" data-qualified-name="FOLLOWING_UP" id="ent0005"><rect fill="#F1F1F1" height="50" rx="12.5" ry="12.5" style="stroke:#181818;stroke-width:0.5;" width="130.6738" x="681.66" y="520.2969"/><line style="stroke:#181818;stroke-width:0.5;" x1="681.66" x2="812.3338" y1="546.5938" y2="546.5938"/><text fill="#000000" font-family="sans-serif" font-size="14" lengthAdjust="spacing" textLength="110.6738" x="691.66" y="538.292">FOLLOWING_UP</text></g><g class="entity" data-qualified-name="CLOSED" id="ent0006"><rect fill="#F1F1F1" height="50" rx="12.5" ry="12.5" style="stroke:#181818;stroke-width:0.5;" width="77.1074" x="382.45" y="702.9669"/><line style="stroke:#181818;stroke-width:0.5;" x1="382.45" x2="459.5574" y1="729.2638" y2="729.2638"/><text fill="#000000" font-family="sans-serif" font-size="14" lengthAdjust="spacing" textLength="57.1074" x="392.45" y="720.962">CLOSED</text></g><g class="start_entity" data-qualified-name=".start." data-source-line="14" id="ent0002"><ellipse cx="337" cy="53.2969" fill="#222222" rx="10" ry="10" style="stroke:#222222;stroke-width:1;"/></g><g class="entity" data-qualified-name="GMN2" data-source-line="25" id="ent0003"><path d="M494.21,647.2969 L494.21,723.9669 L459.74,727.9669 L494.21,731.9669 L494.21,808.625 A0,0 0 0 0 494.21,808.625 L803.7871,808.625 A0,0 0 0 0 803.7871,808.625 L803.7871,657.2969 L793.7871,647.2969 L494.21,647.2969 A0,0 0 0 0 494.21,647.2969" fill="#FEFFDD" style="stroke:#181818;stroke-width:0.5;"/><path d="M793.7871,647.2969 L793.7871,657.2969 L803.7871,657.2969 L793.7871,647.2969" fill="#FEFFDD" style="stroke:#181818;stroke-width:0.5;"/><text fill="#000000" font-family="sans-serif" font-size="13" lengthAdjust="spacing" textLength="149.1763" x="500.21" y="664.3638">Transitions enforced in</text><text fill="#000000" font-family="sans-serif" font-size="13" lengthAdjust="spacing" textLength="151.4614" x="500.21" y="679.4966">src/api/service/cases.ts</text><text fill="#000000" font-family="sans-serif" font-size="13" lengthAdjust="spacing" textLength="4.1323" x="500.21" y="694.6294">&#160;</text><text fill="#000000" font-family="sans-serif" font-size="13" lengthAdjust="spacing" textLength="288.5771" x="500.21" y="709.7622">NEEDS_REVIEW is the patient-initiated path:</text><text fill="#000000" font-family="sans-serif" font-size="13" lengthAdjust="spacing" textLength="260.2539" x="500.21" y="724.895">the patient opened the app and flagged</text><text fill="#000000" font-family="sans-serif" font-size="13" lengthAdjust="spacing" textLength="240.7158" x="500.21" y="740.0278">something requiring clinician review.</text><text fill="#000000" font-family="sans-serif" font-size="13" lengthAdjust="spacing" textLength="4.1323" x="500.21" y="755.1606">&#160;</text><text fill="#000000" font-family="sans-serif" font-size="13" lengthAdjust="spacing" textLength="275.6152" x="500.21" y="770.2935">NEW &#8594; TRIAGED / CLOSED is the clinician-</text><text fill="#000000" font-family="sans-serif" font-size="13" lengthAdjust="spacing" textLength="250.5039" x="500.21" y="785.4263">initiated path for passive patients who</text><text fill="#000000" font-family="sans-serif" font-size="13" lengthAdjust="spacing" textLength="193.2671" x="500.21" y="800.5591">have not yet opened the app.</text></g><!--link *start* to NEW--><g class="link" data-entity-1="ent0002" data-entity-2="ent0002" data-link-type="dependency" data-source-line="14" id="lnk3"><path d="M337,63.6569 C337,77.5869 337,98.2569 337,117.9469" fill="none" id="*start*-to-NEW" style="stroke:#181818;stroke-width:1;"/><polygon fill="#181818" points="337,123.9469,341,114.9469,337,118.9469,333,114.9469,337,123.9469" style="stroke:#181818;stroke-width:1;"/></g><!--link NEW to NEEDS_REVIEW--><g class="link" data-entity-1="ent0002" data-entity-2="ent0003" data-link-type="dependency" data-source-line="15" id="lnk4"><path d="M337,174.6869 C337,200.3769 337,234.6069 337,260.1969" fill="none" id="NEW-to-NEEDS_REVIEW" style="stroke:#181818;stroke-width:1;"/><polygon fill="#181818" points="337,266.1969,341,257.1969,337,261.1969,333,257.1969,337,266.1969" style="stroke:#181818;stroke-width:1;"/><text fill="#000000" font-family="sans-serif" font-size="13" lengthAdjust="spacing" textLength="118.3584" x="350.7271" y="217.3638">"submitForReview</text><text fill="#000000" font-family="sans-serif" font-size="13" lengthAdjust="spacing" textLength="143.8125" x="338" y="232.4966">(patient opened app)"</text></g><!--link NEW to TRIAGED--><g class="link" data-entity-1="ent0002" data-entity-2="ent0004" data-link-type="dependency" data-source-line="16" id="lnk5"><path d="M363.99,152.1169 C398.41,155.9269 457.36,167.7369 490,204.2969 C538.01,258.0769 541.9251,343.3594 540.6551,386.8494" fill="none" id="NEW-to-TRIAGED" style="stroke:#181818;stroke-width:1;"/><polygon fill="#181818" points="540.48,392.8469,544.741,383.9675,540.6259,387.849,536.7444,383.734,540.48,392.8469" style="stroke:#181818;stroke-width:1;"/><text fill="#000000" font-family="sans-serif" font-size="13" lengthAdjust="spacing" textLength="76.064" x="576.8653" y="288.3638">"triageCase</text><text fill="#000000" font-family="sans-serif" font-size="13" lengthAdjust="spacing" textLength="156.3745" x="536.71" y="303.4966">(patient not yet active)"</text></g><!--link NEW to CLOSED--><g class="link" data-entity-1="ent0002" data-entity-2="ent0006" data-link-type="dependency" data-source-line="17" id="lnk6"><path d="M310.19,149.5569 C231.39,148.8869 6,158.4869 6,290.2969 C6,290.2969 6,290.2969 6,546.2969 C6,709.3469 272.6502,726.7333 375.9602,727.4833" fill="none" id="NEW-to-CLOSED" style="stroke:#181818;stroke-width:1;"/><polygon fill="#181818" points="381.96,727.5269,372.9893,723.4616,376.9601,727.4906,372.9312,731.4614,381.96,727.5269" style="stroke:#181818;stroke-width:1;"/><text fill="#000000" font-family="sans-serif" font-size="13" lengthAdjust="spacing" textLength="232.667" x="7" y="422.8638">"triageCase / contactMode=CLOSE"</text></g><!--link NEEDS_REVIEW to TRIAGED--><g class="link" data-entity-1="ent0003" data-entity-2="ent0004" data-link-type="dependency" data-source-line="18" id="lnk7"><path d="M360.27,316.4669 C375.44,331.3069 396.22,349.9469 417,363.2969 C442.14,379.4569 467.3311,390.8541 491.6811,400.3641" fill="none" id="NEEDS_REVIEW-to-TRIAGED" style="stroke:#181818;stroke-width:1;"/><polygon fill="#181818" points="497.27,402.5469,490.3419,395.5468,492.6126,400.7279,487.4315,402.9987,497.27,402.5469" style="stroke:#181818;stroke-width:1;"/><text fill="#000000" font-family="sans-serif" font-size="13" lengthAdjust="spacing" textLength="82.0435" x="418" y="359.3638">"triageCase"</text></g><!--link NEEDS_REVIEW to CLOSED--><g class="link" data-entity-1="ent0003" data-entity-2="ent0006" data-link-type="dependency" data-source-line="19" id="lnk8"><path d="M322.53,316.7169 C302.2,354.1169 269.44,427.8569 286,490.2969 C308.55,575.3469 365.9238,656.995 397.6238,697.885" fill="none" id="NEEDS_REVIEW-to-CLOSED" style="stroke:#181818;stroke-width:1;"/><polygon fill="#181818" points="401.3,702.6269,398.947,693.0632,398.2365,698.6753,392.6245,697.9648,401.3,702.6269" style="stroke:#181818;stroke-width:1;"/><text fill="#000000" font-family="sans-serif" font-size="13" lengthAdjust="spacing" textLength="232.667" x="287" y="486.3638">"triageCase / contactMode=CLOSE"</text></g><!--link TRIAGED to FOLLOWING_UP--><g class="link" data-entity-1="ent0004" data-entity-2="ent0005" data-link-type="dependency" data-source-line="20" id="lnk9"><path d="M579.6,443.6969 C616.25,465.7269 664.7478,494.8654 701.3578,516.8754" fill="none" id="TRIAGED-to-FOLLOWING_UP" style="stroke:#181818;stroke-width:1;"/><polygon fill="#181818" points="706.5,519.9669,700.8477,511.9014,702.2148,517.3906,696.7256,518.7578,706.5,519.9669" style="stroke:#181818;stroke-width:1;"/><text fill="#000000" font-family="sans-serif" font-size="13" lengthAdjust="spacing" textLength="201.1382" x="656.45" y="486.3638">"setFollowingUp / setDeadline"</text></g><!--link TRIAGED to CLOSED--><g class="link" data-entity-1="ent0004" data-entity-2="ent0006" data-link-type="dependency" data-source-line="21" id="lnk10"><path d="M536.88,443.6469 C535.26,457.5269 532.52,475.1169 528,490.2969 C503.89,571.3369 460.5829,655.3649 437.5829,697.3449" fill="none" id="TRIAGED-to-CLOSED" style="stroke:#181818;stroke-width:1;"/><polygon fill="#181818" points="434.7,702.6069,442.5324,696.6358,437.1025,698.2219,435.5164,692.7919,434.7,702.6069" style="stroke:#181818;stroke-width:1;"/><text fill="#000000" font-family="sans-serif" font-size="13" lengthAdjust="spacing" textLength="95.9575" x="518.01" y="549.8638">"closeDirectly"</text></g><!--link FOLLOWING_UP to CLOSED--><g class="link" data-entity-1="ent0005" data-entity-2="ent0006" data-link-type="dependency" data-source-line="22" id="lnk11"><path d="M692.1,570.7269 C658.82,585.1169 615.34,603.2069 576,617.2969 C532.72,632.7969 514.25,620.3569 477,647.2969 C457.27,661.5669 444.865,679.7042 435.295,697.4742" fill="none" id="FOLLOWING_UP-to-CLOSED" style="stroke:#181818;stroke-width:1;"/><polygon fill="#181818" points="432.45,702.7569,440.2392,696.7296,434.8208,698.3547,433.1957,692.9363,432.45,702.7569" style="stroke:#181818;stroke-width:1;"/><text fill="#000000" font-family="sans-serif" font-size="13" lengthAdjust="spacing" textLength="111.7314" x="619.76" y="613.3638">"followUpClosed"</text></g><?plantuml-src ZLB1Yjim4BthAuPSjYqulWTQA75s2QIR9TaqXsrPjFBO7h0bLv8JyWFzW7vYlwGZh-tOq9Oz6EIdUVEUPjuDF3IsDWuNi9GEeQGCrKML2CvBZmwaJi5RgHrvCjg96zYRnYe4ap7U-6B1482pAfOrnKuLM4aNesugD_TkUedsH0fZnKhjfV3aMQfLtWpA4Uo3DYGaSoih8LehSByw3gTLid_UhRwk1-Xnj_vyjqgwlzljPhCzhk_ldWyF7RJSRFTyBvu-V8Se-jHsuwyxN_l10cQkUQd8tngxmnFX-Pj-LqjFg3sO6ZMc8Elw_MoWTzg1wIrxnl2U4KaR3nVq89Md4uw8hvwcF8X16Usvzej9yMDR4XWZX__K_4lTsoNwZe4rdbyx4EHfbAKvayuFDVCPI52c9McSCgzwgkHK9MHH-V8o4vEMqygiRNsebu6HpeJWWI5OoWil01wluGFKcU7ifK1Q_2zMC5qfEV05GhUFY3Ituqoa0U7ymlYsNt60UCrj_hDIvZccGT9Kw0kU0bZyqP0D9yLJ84LICnRYCd_LFyBldx-6FSNzUpil0odYugaXu3VomJaEI-_AmRamN5b8nleyJPtE1RBLC3hn1m00?></g></svg>