<?plantuml 1.2026.2?><svg xmlns="http://www.w3.org/2000/svg" xmlns:xlink="http://www.w3.org/1999/xlink" contentStyleType="text/css" data-diagram-type="CLASS" height="135px" preserveAspectRatio="none" style="width:611px;height:135px;background:#FFFFFF;" version="1.1" viewBox="0 0 611 135" width="611px" zoomAndPan="magnify"><title>Core Entity Relationship - Overview</title><defs/><g><g class="title" data-source-line="7"><text fill="#000000" font-family="sans-serif" font-size="14" font-weight="bold" lengthAdjust="spacing" textLength="280.9365" x="158.4121" y="22.9951">Core Entity Relationship - Overview</text></g><!--class Patient--><g class="entity" data-qualified-name="Patient" data-source-line="16" id="ent0002"><rect fill="#FFFFFF" height="40" rx="2.5" ry="2.5" style="stroke:#181818;stroke-width:0.5;" width="81.376" x="7" y="81.2969"/><ellipse cx="22" cy="97.2969" fill="#ADD1B2" rx="11" ry="11" style="stroke:#181818;stroke-width:1;"/><path d="M24.9688,102.9375 Q24.3906,103.2344 23.75,103.375 Q23.1094,103.5313 22.4063,103.5313 Q19.9063,103.5313 18.5781,101.8906 Q17.2656,100.2344 17.2656,97.1094 Q17.2656,93.9844 18.5781,92.3281 Q19.9063,90.6719 22.4063,90.6719 Q23.1094,90.6719 23.75,90.8281 Q24.4063,90.9844 24.9688,91.2813 L24.9688,94 Q24.3438,93.4219 23.75,93.1563 Q23.1563,92.875 22.5313,92.875 Q21.1875,92.875 20.5,93.9531 Q19.8125,95.0156 19.8125,97.1094 Q19.8125,99.2031 20.5,100.2813 Q21.1875,101.3438 22.5313,101.3438 Q23.1563,101.3438 23.75,101.0781 Q24.3438,100.7969 24.9688,100.2188 L24.9688,102.9375 Z " fill="#000000"/><text fill="#000000" font-family="sans-serif" font-size="14" lengthAdjust="spacing" textLength="49.376" x="36" y="102.1436">Patient</text><line style="stroke:#181818;stroke-width:0.5;" x1="8" x2="87.376" y1="113.2969" y2="113.2969"/></g><!--class Case--><g class="entity" data-qualified-name="Case" data-source-line="17" id="ent0003"><rect fill="#FFFFFF" height="40" rx="2.5" ry="2.5" style="stroke:#181818;stroke-width:0.5;" width="66.2617" x="148.38" y="44.2969"/><ellipse cx="163.38" cy="60.2969" fill="#ADD1B2" rx="11" ry="11" style="stroke:#181818;stroke-width:1;"/><path d="M166.3488,65.9375 Q165.7706,66.2344 165.13,66.375 Q164.4894,66.5313 163.7863,66.5313 Q161.2863,66.5313 159.9581,64.8906 Q158.6456,63.2344 158.6456,60.1094 Q158.6456,56.9844 159.9581,55.3281 Q161.2863,53.6719 163.7863,53.6719 Q164.4894,53.6719 165.13,53.8281 Q165.7863,53.9844 166.3488,54.2813 L166.3488,57 Q165.7238,56.4219 165.13,56.1563 Q164.5363,55.875 163.9113,55.875 Q162.5675,55.875 161.88,56.9531 Q161.1925,58.0156 161.1925,60.1094 Q161.1925,62.2031 161.88,63.2813 Q162.5675,64.3438 163.9113,64.3438 Q164.5363,64.3438 165.13,64.0781 Q165.7238,63.7969 166.3488,63.2188 L166.3488,65.9375 Z " fill="#000000"/><text fill="#000000" font-family="sans-serif" font-size="14" lengthAdjust="spacing" textLength="34.2617" x="177.38" y="65.1436">Case</text><line style="stroke:#181818;stroke-width:0.5;" x1="149.38" x2="213.6417" y1="76.2969" y2="76.2969"/></g><!--class EpisodeOfCare--><g class="entity" data-qualified-name="EpisodeOfCare" data-source-line="18" id="ent0004"><rect fill="#FFFFFF" height="40" rx="2.5" ry="2.5" style="stroke:#181818;stroke-width:0.5;" width="135.6533" x="274.64" y="81.2969"/><ellipse cx="289.64" cy="97.2969" fill="#ADD1B2" rx="11" ry="11" style="stroke:#181818;stroke-width:1;"/><path d="M292.6088,102.9375 Q292.0306,103.2344 291.39,103.375 Q290.7494,103.5313 290.0463,103.5313 Q287.5463,103.5313 286.2181,101.8906 Q284.9056,100.2344 284.9056,97.1094 Q284.9056,93.9844 286.2181,92.3281 Q287.5463,90.6719 290.0463,90.6719 Q290.7494,90.6719 291.39,90.8281 Q292.0463,90.9844 292.6088,91.2813 L292.6088,94 Q291.9838,93.4219 291.39,93.1563 Q290.7963,92.875 290.1713,92.875 Q288.8275,92.875 288.14,93.9531 Q287.4525,95.0156 287.4525,97.1094 Q287.4525,99.2031 288.14,100.2813 Q288.8275,101.3438 290.1713,101.3438 Q290.7963,101.3438 291.39,101.0781 Q291.9838,100.7969 292.6088,100.2188 L292.6088,102.9375 Z " fill="#000000"/><text fill="#000000" font-family="sans-serif" font-size="14" lengthAdjust="spacing" textLength="103.6533" x="303.64" y="102.1436">EpisodeOfCare</text><line style="stroke:#181818;stroke-width:0.5;" x1="275.64" x2="409.2933" y1="113.2969" y2="113.2969"/></g><!--class PatientJourney--><g class="entity" data-qualified-name="PatientJourney" data-source-line="19" id="ent0005"><rect fill="#FFFFFF" height="40" rx="2.5" ry="2.5" style="stroke:#181818;stroke-width:0.5;" width="134.4707" x="470.29" y="81.2969"/><ellipse cx="485.29" cy="97.2969" fill="#ADD1B2" rx="11" ry="11" style="stroke:#181818;stroke-width:1;"/><path d="M488.2588,102.9375 Q487.6806,103.2344 487.04,103.375 Q486.3994,103.5313 485.6963,103.5313 Q483.1963,103.5313 481.8681,101.8906 Q480.5556,100.2344 480.5556,97.1094 Q480.5556,93.9844 481.8681,92.3281 Q483.1963,90.6719 485.6963,90.6719 Q486.3994,90.6719 487.04,90.8281 Q487.6963,90.9844 488.2588,91.2813 L488.2588,94 Q487.6338,93.4219 487.04,93.1563 Q486.4463,92.875 485.8213,92.875 Q484.4775,92.875 483.79,93.9531 Q483.1025,95.0156 483.1025,97.1094 Q483.1025,99.2031 483.79,100.2813 Q484.4775,101.3438 485.8213,101.3438 Q486.4463,101.3438 487.04,101.0781 Q487.6338,100.7969 488.2588,100.2188 L488.2588,102.9375 Z " fill="#000000"/><text fill="#000000" font-family="sans-serif" font-size="14" lengthAdjust="spacing" textLength="102.4707" x="499.29" y="102.1436">PatientJourney</text><line style="stroke:#181818;stroke-width:0.5;" x1="471.29" x2="603.7607" y1="113.2969" y2="113.2969"/></g><!--link Patient to Case--><g class="link" data-entity-1="ent0002" data-entity-2="ent0003" data-link-type="association" data-source-line="21" id="lnk6"><path codeLine="21" d="M88.67,93.5469 C124.47,93.5469 170.76,93.5469 170.76,93.5469 C170.76,93.5469 170.76,89.6069 170.76,84.6169" fill="none" id="Patient-Case" style="stroke:#181818;stroke-width:1;"/><text fill="#000000" font-family="sans-serif" font-size="13" lengthAdjust="spacing" textLength="8.271" x="96.4246" y="105.5822">1</text><text fill="#000000" font-family="sans-serif" font-size="13" lengthAdjust="spacing" textLength="6.5" x="160.9629" y="104.5268">*</text></g><!--link Patient to EpisodeOfCare--><g class="link" data-entity-1="ent0002" data-entity-2="ent0004" data-link-type="association" data-source-line="22" id="lnk7"><path codeLine="22" d="M88.68,112.0469 C136.69,112.0469 216.96,112.0469 274.37,112.0469" fill="none" id="Patient-EpisodeOfCare" style="stroke:#181818;stroke-width:1;"/><text fill="#000000" font-family="sans-serif" font-size="13" lengthAdjust="spacing" textLength="8.271" x="96.4363" y="127.2619">1</text><text fill="#000000" font-family="sans-serif" font-size="13" lengthAdjust="spacing" textLength="6.5" x="260.1784" y="126.2316">*</text></g><!--link EpisodeOfCare to PatientJourney--><g class="link" data-entity-1="ent0004" data-entity-2="ent0005" data-link-type="association" data-source-line="23" id="lnk8"><path codeLine="23" d="M410.69,101.2969 C429.91,101.2969 450.82,101.2969 470,101.2969" fill="none" id="EpisodeOfCare-PatientJourney" style="stroke:#181818;stroke-width:1;"/><text fill="#000000" font-family="sans-serif" font-size="13" lengthAdjust="spacing" textLength="8.271" x="418.152" y="114.1441">1</text><text fill="#000000" font-family="sans-serif" font-size="13" lengthAdjust="spacing" textLength="6.5" x="455.8744" y="114.2386">*</text></g><!--link Case to EpisodeOfCare--><g class="link" data-entity-1="ent0003" data-entity-2="ent0004" data-link-type="association" data-source-line="24" id="lnk9"><path codeLine="24" d="M192.76,84.4469 C192.76,93.7669 192.76,102.7969 192.76,102.7969 C192.76,102.7969 234.7,102.7969 274.18,102.7969" fill="none" id="Case-EpisodeOfCare" style="stroke:#181818;stroke-width:1;"/><text fill="#000000" font-family="sans-serif" font-size="13" lengthAdjust="spacing" textLength="24.8066" x="199.4123" y="104.309">0..1</text><text fill="#000000" font-family="sans-serif" font-size="13" lengthAdjust="spacing" textLength="8.271" x="258.2885" y="99.2148">1</text></g><?plantuml-src TL31Ri8m3BtdAwnUa2O1uyfn5PTTG6m_4AKkyKYJo7P1_VkbQmy5iPkVt_FpirTmwZadmJryKnp0fUWmQsz3AHa1ev8Em1YiKehYAOjPmLVgsI6a5fHxzVlI0X1sMvjfAyvZPsMRoqYPtwYyf9qL_8_xAVuHXv4s9K10gCSqXodDUP46rd2y8Ty8xyO4R1Kq0TF5ApJ4w4QTaIl5RDbs42YY3hb4P_LfGOYtJRfJl41hW-22SS6AV5XtlN3gOrEda1ZkdXIDfmQXm-BKo0H4aJ6D6qholqauJM-OKLskdij39aaD7jlQCZwAFwVxZPanLBiArcketgh9uKN_qUu1BMLF6qOtgDutcrcnUpRw1G00?></g></svg>