<?plantuml 1.2026.1?><svg xmlns="http://www.w3.org/2000/svg" xmlns:xlink="http://www.w3.org/1999/xlink" contentStyleType="text/css" data-diagram-type="CLASS" height="658px" preserveAspectRatio="none" style="width:534px;height:658px;background:#FFFFFF;" version="1.1" viewBox="0 0 534 658" width="534px" zoomAndPan="magnify"><title>Core Data Model &#8212; ERD (simplified)</title><defs/><g><g class="title" data-source-line="1"><text fill="#000000" font-family="sans-serif" font-size="14" font-weight="bold" lengthAdjust="spacing" textLength="282.2422" x="119.0012" y="22.9951">Core Data Model &#8212; ERD (simplified)</text></g><!--class Patient--><g class="entity" data-qualified-name="Patient" data-source-line="3" id="ent0002"><rect fill="#F1F1F1" height="129.4844" rx="2.5" ry="2.5" style="stroke:#181818;stroke-width:0.5;" width="128.6963" x="174.59" y="44.2969"/><ellipse cx="210.8841" cy="60.2969" fill="#ADD1B2" rx="11" ry="11" style="stroke:#181818;stroke-width:1;"/><path d="M213.8529,65.9375 Q213.2748,66.2344 212.6341,66.375 Q211.9935,66.5313 211.2904,66.5313 Q208.7904,66.5313 207.4623,64.8906 Q206.1498,63.2344 206.1498,60.1094 Q206.1498,56.9844 207.4623,55.3281 Q208.7904,53.6719 211.2904,53.6719 Q211.9935,53.6719 212.6341,53.8281 Q213.2904,53.9844 213.8529,54.2813 L213.8529,57 Q213.2279,56.4219 212.6341,56.1563 Q212.0404,55.875 211.4154,55.875 Q210.0716,55.875 209.3841,56.9531 Q208.6966,58.0156 208.6966,60.1094 Q208.6966,62.2031 209.3841,63.2813 Q210.0716,64.3438 211.4154,64.3438 Q212.0404,64.3438 212.6341,64.0781 Q213.2279,63.7969 213.8529,63.2188 L213.8529,65.9375 Z " fill="#000000"/><text fill="#000000" font-family="sans-serif" font-size="14" lengthAdjust="spacing" textLength="49.376" x="229.6162" y="65.1436">Patient</text><line style="stroke:#181818;stroke-width:0.5;" x1="175.59" x2="302.2863" y1="76.2969" y2="76.2969"/><text fill="#000000" font-family="sans-serif" font-size="14" lengthAdjust="spacing" textLength="12.7764" x="180.59" y="93.292">id</text><text fill="#000000" font-family="sans-serif" font-size="14" lengthAdjust="spacing" textLength="91.0137" x="180.59" y="109.5889">displayName</text><text fill="#000000" font-family="sans-serif" font-size="14" lengthAdjust="spacing" textLength="116.6963" x="180.59" y="125.8857">personalNumber</text><text fill="#000000" font-family="sans-serif" font-size="14" lengthAdjust="spacing" textLength="34.3711" x="180.59" y="142.1826">palId</text><text fill="#000000" font-family="sans-serif" font-size="14" lengthAdjust="spacing" textLength="95.2109" x="180.59" y="158.4795">lastOpenedAt</text><line style="stroke:#181818;stroke-width:0.5;" x1="175.59" x2="302.2863" y1="165.7813" y2="165.7813"/></g><!--class Case--><g class="entity" data-qualified-name="Case" data-source-line="11" id="ent0003"><rect fill="#F1F1F1" height="178.375" rx="2.5" ry="2.5" style="stroke:#181818;stroke-width:0.5;" width="119.208" x="95.34" y="250.7769"/><ellipse cx="134.1658" cy="266.7769" fill="#ADD1B2" rx="11" ry="11" style="stroke:#181818;stroke-width:1;"/><path d="M137.1346,272.4175 Q136.5565,272.7144 135.9158,272.855 Q135.2752,273.0112 134.5721,273.0112 Q132.0721,273.0112 130.744,271.3706 Q129.4315,269.7144 129.4315,266.5894 Q129.4315,263.4644 130.744,261.8081 Q132.0721,260.1519 134.5721,260.1519 Q135.2752,260.1519 135.9158,260.3081 Q136.5721,260.4644 137.1346,260.7612 L137.1346,263.48 Q136.5096,262.9019 135.9158,262.6362 Q135.3221,262.355 134.6971,262.355 Q133.3533,262.355 132.6658,263.4331 Q131.9783,264.4956 131.9783,266.5894 Q131.9783,268.6831 132.6658,269.7612 Q133.3533,270.8237 134.6971,270.8237 Q135.3221,270.8237 135.9158,270.5581 Q136.5096,270.2769 137.1346,269.6987 L137.1346,272.4175 Z " fill="#000000"/><text fill="#000000" font-family="sans-serif" font-size="14" lengthAdjust="spacing" textLength="34.2617" x="153.4605" y="271.6236">Case</text><line style="stroke:#181818;stroke-width:0.5;" x1="96.34" x2="213.548" y1="282.7769" y2="282.7769"/><text fill="#000000" font-family="sans-serif" font-size="14" lengthAdjust="spacing" textLength="12.7764" x="101.34" y="299.772">id</text><text fill="#000000" font-family="sans-serif" font-size="14" lengthAdjust="spacing" textLength="62.8359" x="101.34" y="316.0689">patientId</text><text fill="#000000" font-family="sans-serif" font-size="14" lengthAdjust="spacing" textLength="43.0186" x="101.34" y="332.3657">status</text><text fill="#000000" font-family="sans-serif" font-size="14" lengthAdjust="spacing" textLength="61.8721" x="101.34" y="348.6626">category</text><text fill="#000000" font-family="sans-serif" font-size="14" lengthAdjust="spacing" textLength="54.5713" x="101.34" y="364.9595">triggers</text><text fill="#000000" font-family="sans-serif" font-size="14" lengthAdjust="spacing" textLength="107.208" x="101.34" y="381.2564">policyWarnings</text><text fill="#000000" font-family="sans-serif" font-size="14" lengthAdjust="spacing" textLength="93.1123" x="101.34" y="397.5532">assignedRole</text><text fill="#000000" font-family="sans-serif" font-size="14" lengthAdjust="spacing" textLength="60.2314" x="101.34" y="413.8501">deadline</text><line style="stroke:#181818;stroke-width:0.5;" x1="96.34" x2="213.548" y1="421.1519" y2="421.1519"/></g><!--class PatientJourney--><g class="entity" data-qualified-name="PatientJourney" data-source-line="22" id="ent0004"><rect fill="#F1F1F1" height="113.1875" rx="2.5" ry="2.5" style="stroke:#181818;stroke-width:0.5;" width="144.1318" x="249.87" y="283.3769"/><ellipse cx="269.2175" cy="299.3769" fill="#ADD1B2" rx="11" ry="11" style="stroke:#181818;stroke-width:1;"/><path d="M272.1863,305.0175 Q271.6081,305.3144 270.9675,305.455 Q270.3269,305.6113 269.6238,305.6113 Q267.1238,305.6113 265.7956,303.9706 Q264.4831,302.3144 264.4831,299.1894 Q264.4831,296.0644 265.7956,294.4081 Q267.1238,292.7519 269.6238,292.7519 Q270.3269,292.7519 270.9675,292.9081 Q271.6238,293.0644 272.1863,293.3613 L272.1863,296.08 Q271.5613,295.5019 270.9675,295.2363 Q270.3738,294.955 269.7488,294.955 Q268.405,294.955 267.7175,296.0331 Q267.03,297.0956 267.03,299.1894 Q267.03,301.2831 267.7175,302.3613 Q268.405,303.4238 269.7488,303.4238 Q270.3738,303.4238 270.9675,303.1581 Q271.5613,302.8769 272.1863,302.2988 L272.1863,305.0175 Z " fill="#000000"/><text fill="#000000" font-family="sans-serif" font-size="14" lengthAdjust="spacing" textLength="102.4707" x="284.1836" y="304.2236">PatientJourney</text><line style="stroke:#181818;stroke-width:0.5;" x1="250.87" x2="393.0018" y1="315.3769" y2="315.3769"/><text fill="#000000" font-family="sans-serif" font-size="14" lengthAdjust="spacing" textLength="12.7764" x="255.87" y="332.372">id</text><text fill="#000000" font-family="sans-serif" font-size="14" lengthAdjust="spacing" textLength="62.8359" x="255.87" y="348.6689">patientId</text><text fill="#000000" font-family="sans-serif" font-size="14" lengthAdjust="spacing" textLength="132.1318" x="255.87" y="364.9657">journeyTemplateId</text><text fill="#000000" font-family="sans-serif" font-size="14" lengthAdjust="spacing" textLength="66.0693" x="255.87" y="381.2626">startDate</text><line style="stroke:#181818;stroke-width:0.5;" x1="250.87" x2="393.0018" y1="388.5644" y2="388.5644"/></g><!--class JourneyTemplateEntry--><g class="entity" data-qualified-name="JourneyTemplateEntry" data-source-line="29" id="ent0005"><rect fill="#F1F1F1" height="113.1875" rx="2.5" ry="2.5" style="stroke:#181818;stroke-width:0.5;" width="188.6045" x="338.64" y="52.4469"/><ellipse cx="353.64" cy="68.4469" fill="#ADD1B2" rx="11" ry="11" style="stroke:#181818;stroke-width:1;"/><path d="M356.6088,74.0875 Q356.0306,74.3844 355.39,74.525 Q354.7494,74.6812 354.0463,74.6812 Q351.5463,74.6812 350.2181,73.0406 Q348.9056,71.3844 348.9056,68.2594 Q348.9056,65.1344 350.2181,63.4781 Q351.5463,61.8219 354.0463,61.8219 Q354.7494,61.8219 355.39,61.9781 Q356.0463,62.1344 356.6088,62.4312 L356.6088,65.15 Q355.9838,64.5719 355.39,64.3062 Q354.7963,64.025 354.1713,64.025 Q352.8275,64.025 352.14,65.1031 Q351.4525,66.1656 351.4525,68.2594 Q351.4525,70.3531 352.14,71.4312 Q352.8275,72.4937 354.1713,72.4937 Q354.7963,72.4937 355.39,72.2281 Q355.9838,71.9469 356.6088,71.3687 L356.6088,74.0875 Z " fill="#000000"/><text fill="#000000" font-family="sans-serif" font-size="14" lengthAdjust="spacing" textLength="156.6045" x="367.64" y="73.2936">JourneyTemplateEntry</text><line style="stroke:#181818;stroke-width:0.5;" x1="339.64" x2="526.2445" y1="84.4469" y2="84.4469"/><text fill="#000000" font-family="sans-serif" font-size="14" lengthAdjust="spacing" textLength="12.7764" x="344.64" y="101.442">id</text><text fill="#000000" font-family="sans-serif" font-size="14" lengthAdjust="spacing" textLength="74.7578" x="344.64" y="117.7389">offsetDays</text><text fill="#000000" font-family="sans-serif" font-size="14" lengthAdjust="spacing" textLength="88.0537" x="344.64" y="134.0357">windowDays</text><text fill="#000000" font-family="sans-serif" font-size="14" lengthAdjust="spacing" textLength="87.0625" x="344.64" y="150.3326">scoreAliases</text><line style="stroke:#181818;stroke-width:0.5;" x1="339.64" x2="526.2445" y1="157.6344" y2="157.6344"/></g><!--class FormResponse--><g class="entity" data-qualified-name="FormResponse" data-source-line="36" id="ent0006"><rect fill="#F1F1F1" height="145.7813" rx="2.5" ry="2.5" style="stroke:#181818;stroke-width:0.5;" width="135.8789" x="7" y="506.1569"/><ellipse cx="22" cy="522.1569" fill="#ADD1B2" rx="11" ry="11" style="stroke:#181818;stroke-width:1;"/><path d="M24.9688,527.7975 Q24.3906,528.0944 23.75,528.235 Q23.1094,528.3913 22.4063,528.3913 Q19.9063,528.3913 18.5781,526.7506 Q17.2656,525.0944 17.2656,521.9694 Q17.2656,518.8444 18.5781,517.1881 Q19.9063,515.5319 22.4063,515.5319 Q23.1094,515.5319 23.75,515.6881 Q24.4063,515.8444 24.9688,516.1413 L24.9688,518.86 Q24.3438,518.2819 23.75,518.0163 Q23.1563,517.735 22.5313,517.735 Q21.1875,517.735 20.5,518.8131 Q19.8125,519.8756 19.8125,521.9694 Q19.8125,524.0631 20.5,525.1413 Q21.1875,526.2038 22.5313,526.2038 Q23.1563,526.2038 23.75,525.9381 Q24.3438,525.6569 24.9688,525.0788 L24.9688,527.7975 Z " fill="#000000"/><text fill="#000000" font-family="sans-serif" font-size="14" lengthAdjust="spacing" textLength="103.8789" x="36" y="527.0036">FormResponse</text><line style="stroke:#181818;stroke-width:0.5;" x1="8" x2="141.8789" y1="538.1569" y2="538.1569"/><text fill="#000000" font-family="sans-serif" font-size="14" lengthAdjust="spacing" textLength="12.7764" x="13" y="555.152">id</text><text fill="#000000" font-family="sans-serif" font-size="14" lengthAdjust="spacing" textLength="62.8359" x="13" y="571.4489">patientId</text><text fill="#000000" font-family="sans-serif" font-size="14" lengthAdjust="spacing" textLength="45.1992" x="13" y="587.7457">caseId</text><text fill="#000000" font-family="sans-serif" font-size="14" lengthAdjust="spacing" textLength="76.2139" x="13" y="604.0426">templateId</text><text fill="#000000" font-family="sans-serif" font-size="14" lengthAdjust="spacing" textLength="57.8594" x="13" y="620.3395">answers</text><text fill="#000000" font-family="sans-serif" font-size="14" lengthAdjust="spacing" textLength="45.2197" x="13" y="636.6364">scores</text><line style="stroke:#181818;stroke-width:0.5;" x1="8" x2="141.8789" y1="643.9381" y2="643.9381"/></g><!--class JournalDraft--><g class="entity" data-qualified-name="JournalDraft" data-source-line="45" id="ent0007"><rect fill="#F1F1F1" height="129.4844" rx="2.5" ry="2.5" style="stroke:#181818;stroke-width:0.5;" width="116.1982" x="177.84" y="514.3069"/><ellipse cx="192.84" cy="530.3069" fill="#ADD1B2" rx="11" ry="11" style="stroke:#181818;stroke-width:1;"/><path d="M195.8088,535.9475 Q195.2306,536.2444 194.59,536.385 Q193.9494,536.5413 193.2463,536.5413 Q190.7463,536.5413 189.4181,534.9006 Q188.1056,533.2444 188.1056,530.1194 Q188.1056,526.9944 189.4181,525.3381 Q190.7463,523.6819 193.2463,523.6819 Q193.9494,523.6819 194.59,523.8381 Q195.2463,523.9944 195.8088,524.2913 L195.8088,527.01 Q195.1838,526.4319 194.59,526.1663 Q193.9963,525.885 193.3713,525.885 Q192.0275,525.885 191.34,526.9631 Q190.6525,528.0256 190.6525,530.1194 Q190.6525,532.2131 191.34,533.2913 Q192.0275,534.3538 193.3713,534.3538 Q193.9963,534.3538 194.59,534.0881 Q195.1838,533.8069 195.8088,533.2288 L195.8088,535.9475 Z " fill="#000000"/><text fill="#000000" font-family="sans-serif" font-size="14" lengthAdjust="spacing" textLength="84.1982" x="206.84" y="535.1536">JournalDraft</text><line style="stroke:#181818;stroke-width:0.5;" x1="178.84" x2="293.0382" y1="546.3069" y2="546.3069"/><text fill="#000000" font-family="sans-serif" font-size="14" lengthAdjust="spacing" textLength="12.7764" x="183.84" y="563.302">id</text><text fill="#000000" font-family="sans-serif" font-size="14" lengthAdjust="spacing" textLength="45.1992" x="183.84" y="579.5989">caseId</text><text fill="#000000" font-family="sans-serif" font-size="14" lengthAdjust="spacing" textLength="76.2139" x="183.84" y="595.8957">templateId</text><text fill="#000000" font-family="sans-serif" font-size="14" lengthAdjust="spacing" textLength="53.6006" x="183.84" y="612.1926">content</text><text fill="#000000" font-family="sans-serif" font-size="14" lengthAdjust="spacing" textLength="43.0186" x="183.84" y="628.4895">status</text><line style="stroke:#181818;stroke-width:0.5;" x1="178.84" x2="293.0382" y1="635.7913" y2="635.7913"/></g><!--link Patient to Case--><g class="link" data-entity-1="ent0002" data-entity-2="ent0003" data-link-type="association" data-source-line="53" id="lnk8"><path codeLine="53" d="M215.43,174.1169 C206.74,197.7869 196.73,225.0569 187.39,250.5169" fill="none" id="Patient-Case" style="stroke:#181818;stroke-width:1;"/><text fill="#000000" font-family="sans-serif" font-size="13" lengthAdjust="spacing" textLength="22.9785" x="205.46" y="216.8438">has</text><text fill="#000000" font-family="sans-serif" font-size="13" lengthAdjust="spacing" textLength="8.271" x="204.6072" y="193.6752">1</text><text fill="#000000" font-family="sans-serif" font-size="13" lengthAdjust="spacing" textLength="6.5" x="183.8492" y="239.5608">*</text></g><!--link Patient to PatientJourney--><g class="link" data-entity-1="ent0002" data-entity-2="ent0004" data-link-type="association" data-source-line="54" id="lnk9"><path codeLine="54" d="M262.17,174.1169 C274.59,208.3769 289.74,250.1569 301.68,283.0869" fill="none" id="Patient-PatientJourney" style="stroke:#181818;stroke-width:1;"/><text fill="#000000" font-family="sans-serif" font-size="13" lengthAdjust="spacing" textLength="55.853" x="278.95" y="216.8438">journeys</text><text fill="#000000" font-family="sans-serif" font-size="13" lengthAdjust="spacing" textLength="8.271" x="256.1673" y="193.6752">1</text><text fill="#000000" font-family="sans-serif" font-size="13" lengthAdjust="spacing" textLength="6.5" x="292.8762" y="272.3151">*</text></g><!--link Case to FormResponse--><g class="link" data-entity-1="ent0003" data-entity-2="ent0006" data-link-type="association" data-source-line="55" id="lnk10"><path codeLine="55" d="M125.04,429.5869 C116.56,454.7069 107.44,481.7469 99.33,505.7769" fill="none" id="Case-FormResponse" style="stroke:#181818;stroke-width:1;"/><text fill="#000000" font-family="sans-serif" font-size="13" lengthAdjust="spacing" textLength="66.1045" x="115.94" y="472.2238">responses</text><text fill="#000000" font-family="sans-serif" font-size="13" lengthAdjust="spacing" textLength="8.271" x="114.4546" y="449.0948">1</text><text fill="#000000" font-family="sans-serif" font-size="13" lengthAdjust="spacing" textLength="6.5" x="95.3926" y="495.1516">*</text></g><!--link Case to JournalDraft--><g class="link" data-entity-1="ent0003" data-entity-2="ent0007" data-link-type="association" data-source-line="56" id="lnk11"><path codeLine="56" d="M185.22,429.5869 C194.79,457.5969 205.17,487.9969 214.04,513.9469" fill="none" id="Case-JournalDraft" style="stroke:#181818;stroke-width:1;"/><text fill="#000000" font-family="sans-serif" font-size="13" lengthAdjust="spacing" textLength="38.0098" x="201.29" y="472.2238">drafts</text><text fill="#000000" font-family="sans-serif" font-size="13" lengthAdjust="spacing" textLength="8.271" x="179.2421" y="449.0948">1</text><text fill="#000000" font-family="sans-serif" font-size="13" lengthAdjust="spacing" textLength="6.5" x="205.344" y="503.0802">*</text></g><?plantuml-src TL71IiD04BtdAuQSLEZ1QswbhM31AaNmF6OdSMMp6tOcb2227-4N-YLEaeQajLwIsTqtxxrv8rOSmIf4WZKAmaCmvE3dwnis-pLSiQrgPmjBvZf9SeVCy8HYoGjy903MwCTOhXssEwn8JpL53XxThgbUANONwEuxc3RBOqsUp5AIpv5jXKmJLJrmztWMb8Qro56e3B7LKg8jInNeeC7Pl7t1wAqlkmjbiwMoxuFhV1X2uwodIUfeV1kQwAczBFe-F3wJZgsoev4e6iwCQdiAstY9Cy9G54pQqNQs3jQRS3WUEDUWbyxgq3ontOLOxOdhuF_B8jU6lf2vCVHy6CBeUVdC7xfrn6AsgCiiUV2YEbFYoZBkEBrDOR60z2OT5fN16_AbrxDiip58Jlg-6V9as0pYiVmBF9aX0zFzEVa5?></g></svg>