<?plantuml 1.2026.2?><svg xmlns="http://www.w3.org/2000/svg" xmlns:xlink="http://www.w3.org/1999/xlink" contentStyleType="text/css" data-diagram-type="CLASS" height="1267px" preserveAspectRatio="none" style="width:1267px;height:1267px;background:#FFFFFF;" version="1.1" viewBox="0 0 1267 1267" width="1267px" zoomAndPan="magnify"><title>Core Data Model &#8212; Entity Relationship Diagram</title><defs/><g><g class="title" data-source-line="1"><text fill="#000000" font-family="sans-serif" font-size="14" font-weight="bold" lengthAdjust="spacing" textLength="376.9951" x="438.2497" y="22.9951">Core Data Model &#8212; Entity Relationship Diagram</text></g><!--class Patient--><g class="entity" data-qualified-name="Patient" data-source-line="3" id="ent0002"><rect fill="#F1F1F1" height="145.7813" rx="2.5" ry="2.5" style="stroke:#181818;stroke-width:0.5;" width="128.6963" x="821.59" y="44.2969"/><ellipse cx="857.8841" cy="60.2969" fill="#ADD1B2" rx="11" ry="11" style="stroke:#181818;stroke-width:1;"/><path d="M860.8529,65.9375 Q860.2748,66.2344 859.6341,66.375 Q858.9935,66.5313 858.2904,66.5313 Q855.7904,66.5313 854.4623,64.8906 Q853.1498,63.2344 853.1498,60.1094 Q853.1498,56.9844 854.4623,55.3281 Q855.7904,53.6719 858.2904,53.6719 Q858.9935,53.6719 859.6341,53.8281 Q860.2904,53.9844 860.8529,54.2813 L860.8529,57 Q860.2279,56.4219 859.6341,56.1563 Q859.0404,55.875 858.4154,55.875 Q857.0716,55.875 856.3841,56.9531 Q855.6966,58.0156 855.6966,60.1094 Q855.6966,62.2031 856.3841,63.2813 Q857.0716,64.3438 858.4154,64.3438 Q859.0404,64.3438 859.6341,64.0781 Q860.2279,63.7969 860.8529,63.2188 L860.8529,65.9375 Z " fill="#000000"/><text fill="#000000" font-family="sans-serif" font-size="14" lengthAdjust="spacing" textLength="49.376" x="876.6162" y="65.1436">Patient</text><line style="stroke:#181818;stroke-width:0.5;" x1="822.59" x2="949.2863" y1="76.2969" y2="76.2969"/><text fill="#000000" font-family="sans-serif" font-size="14" lengthAdjust="spacing" textLength="12.7764" x="827.59" y="93.292">id</text><text fill="#000000" font-family="sans-serif" font-size="14" lengthAdjust="spacing" textLength="91.0137" x="827.59" y="109.5889">displayName</text><text fill="#000000" font-family="sans-serif" font-size="14" lengthAdjust="spacing" textLength="116.6963" x="827.59" y="125.8857">personalNumber</text><text fill="#000000" font-family="sans-serif" font-size="14" lengthAdjust="spacing" textLength="81.1289" x="827.59" y="142.1826">dateOfBirth</text><text fill="#000000" font-family="sans-serif" font-size="14" lengthAdjust="spacing" textLength="34.3711" x="827.59" y="158.4795">palId</text><text fill="#000000" font-family="sans-serif" font-size="14" lengthAdjust="spacing" textLength="95.2109" x="827.59" y="174.7764">lastOpenedAt</text><line style="stroke:#181818;stroke-width:0.5;" x1="822.59" x2="949.2863" y1="182.0781" y2="182.0781"/></g><!--class Case--><g class="entity" data-qualified-name="Case" data-source-line="12" id="ent0003"><rect fill="#F1F1F1" height="178.375" rx="2.5" ry="2.5" style="stroke:#181818;stroke-width:0.5;" width="119.208" x="176.34" y="275.2269"/><ellipse cx="215.1658" cy="291.2269" fill="#ADD1B2" rx="11" ry="11" style="stroke:#181818;stroke-width:1;"/><path d="M218.1346,296.8675 Q217.5565,297.1644 216.9158,297.305 Q216.2752,297.4613 215.5721,297.4613 Q213.0721,297.4613 211.744,295.8206 Q210.4315,294.1644 210.4315,291.0394 Q210.4315,287.9144 211.744,286.2581 Q213.0721,284.6019 215.5721,284.6019 Q216.2752,284.6019 216.9158,284.7581 Q217.5721,284.9144 218.1346,285.2113 L218.1346,287.93 Q217.5096,287.3519 216.9158,287.0863 Q216.3221,286.805 215.6971,286.805 Q214.3533,286.805 213.6658,287.8831 Q212.9783,288.9456 212.9783,291.0394 Q212.9783,293.1331 213.6658,294.2113 Q214.3533,295.2738 215.6971,295.2738 Q216.3221,295.2738 216.9158,295.0081 Q217.5096,294.7269 218.1346,294.1488 L218.1346,296.8675 Z " fill="#000000"/><text fill="#000000" font-family="sans-serif" font-size="14" lengthAdjust="spacing" textLength="34.2617" x="234.4605" y="296.0736">Case</text><line style="stroke:#181818;stroke-width:0.5;" x1="177.34" x2="294.548" y1="307.2269" y2="307.2269"/><text fill="#000000" font-family="sans-serif" font-size="14" lengthAdjust="spacing" textLength="12.7764" x="182.34" y="324.222">id</text><text fill="#000000" font-family="sans-serif" font-size="14" lengthAdjust="spacing" textLength="62.8359" x="182.34" y="340.5189">patientId</text><text fill="#000000" font-family="sans-serif" font-size="14" lengthAdjust="spacing" textLength="43.0186" x="182.34" y="356.8157">status</text><text fill="#000000" font-family="sans-serif" font-size="14" lengthAdjust="spacing" textLength="61.8721" x="182.34" y="373.1126">category</text><text fill="#000000" font-family="sans-serif" font-size="14" lengthAdjust="spacing" textLength="54.5713" x="182.34" y="389.4095">triggers</text><text fill="#000000" font-family="sans-serif" font-size="14" lengthAdjust="spacing" textLength="107.208" x="182.34" y="405.7064">policyWarnings</text><text fill="#000000" font-family="sans-serif" font-size="14" lengthAdjust="spacing" textLength="93.1123" x="182.34" y="422.0032">assignedRole</text><text fill="#000000" font-family="sans-serif" font-size="14" lengthAdjust="spacing" textLength="60.2314" x="182.34" y="438.3001">deadline</text><line style="stroke:#181818;stroke-width:0.5;" x1="177.34" x2="294.548" y1="445.6019" y2="445.6019"/></g><!--class PatientJourney--><g class="entity" data-qualified-name="PatientJourney" data-source-line="23" id="ent0004"><rect fill="#F1F1F1" height="194.6719" rx="2.5" ry="2.5" style="stroke:#181818;stroke-width:0.5;" width="144.3984" x="813.74" y="267.0769"/><ellipse cx="833.2075" cy="283.0769" fill="#ADD1B2" rx="11" ry="11" style="stroke:#181818;stroke-width:1;"/><path d="M836.1762,288.7175 Q835.5981,289.0144 834.9575,289.155 Q834.3169,289.3113 833.6137,289.3113 Q831.1137,289.3113 829.7856,287.6706 Q828.4731,286.0144 828.4731,282.8894 Q828.4731,279.7644 829.7856,278.1081 Q831.1137,276.4519 833.6137,276.4519 Q834.3169,276.4519 834.9575,276.6081 Q835.6137,276.7644 836.1762,277.0613 L836.1762,279.78 Q835.5512,279.2019 834.9575,278.9363 Q834.3637,278.655 833.7387,278.655 Q832.395,278.655 831.7075,279.7331 Q831.02,280.7956 831.02,282.8894 Q831.02,284.9831 831.7075,286.0613 Q832.395,287.1238 833.7387,287.1238 Q834.3637,287.1238 834.9575,286.8581 Q835.5512,286.5769 836.1762,285.9988 L836.1762,288.7175 Z " fill="#000000"/><text fill="#000000" font-family="sans-serif" font-size="14" lengthAdjust="spacing" textLength="102.4707" x="848.2003" y="287.9236">PatientJourney</text><line style="stroke:#181818;stroke-width:0.5;" x1="814.74" x2="957.1384" y1="299.0769" y2="299.0769"/><text fill="#000000" font-family="sans-serif" font-size="14" lengthAdjust="spacing" textLength="12.7764" x="819.74" y="316.072">id</text><text fill="#000000" font-family="sans-serif" font-size="14" lengthAdjust="spacing" textLength="62.8359" x="819.74" y="332.3689">patientId</text><text fill="#000000" font-family="sans-serif" font-size="14" lengthAdjust="spacing" textLength="132.1318" x="819.74" y="348.6657">journeyTemplateId</text><text fill="#000000" font-family="sans-serif" font-size="14" lengthAdjust="spacing" textLength="66.0693" x="819.74" y="364.9626">startDate</text><text fill="#000000" font-family="sans-serif" font-size="14" lengthAdjust="spacing" textLength="43.0186" x="819.74" y="381.2595">status</text><text fill="#000000" font-family="sans-serif" font-size="14" lengthAdjust="spacing" textLength="66.1992" x="819.74" y="397.5564">pausedAt</text><text fill="#000000" font-family="sans-serif" font-size="14" lengthAdjust="spacing" textLength="117.6396" x="819.74" y="413.8532">totalPausedDays</text><text fill="#000000" font-family="sans-serif" font-size="14" lengthAdjust="spacing" textLength="132.3984" x="819.74" y="430.1501">researchModuleIds</text><text fill="#000000" font-family="sans-serif" font-size="14" lengthAdjust="spacing" textLength="105.1094" x="819.74" y="446.447">modifications[]</text><line style="stroke:#181818;stroke-width:0.5;" x1="814.74" x2="957.1384" y1="453.7488" y2="453.7488"/></g><!--class JourneyTemplate--><g class="entity" data-qualified-name="JourneyTemplate" data-source-line="35" id="ent0005"><rect fill="#F1F1F1" height="145.7813" rx="2.5" ry="2.5" style="stroke:#181818;stroke-width:0.5;" width="151.3555" x="329.26" y="563.1969"/><ellipse cx="344.26" cy="579.1969" fill="#ADD1B2" rx="11" ry="11" style="stroke:#181818;stroke-width:1;"/><path d="M347.2288,584.8375 Q346.6506,585.1344 346.01,585.275 Q345.3694,585.4313 344.6663,585.4313 Q342.1663,585.4313 340.8381,583.7906 Q339.5256,582.1344 339.5256,579.0094 Q339.5256,575.8844 340.8381,574.2281 Q342.1663,572.5719 344.6663,572.5719 Q345.3694,572.5719 346.01,572.7281 Q346.6663,572.8844 347.2288,573.1813 L347.2288,575.9 Q346.6038,575.3219 346.01,575.0563 Q345.4163,574.775 344.7913,574.775 Q343.4475,574.775 342.76,575.8531 Q342.0725,576.9156 342.0725,579.0094 Q342.0725,581.1031 342.76,582.1813 Q343.4475,583.2438 344.7913,583.2438 Q345.4163,583.2438 346.01,582.9781 Q346.6038,582.6969 347.2288,582.1188 L347.2288,584.8375 Z " fill="#000000"/><text fill="#000000" font-family="sans-serif" font-size="14" lengthAdjust="spacing" textLength="119.3555" x="358.26" y="584.0436">JourneyTemplate</text><line style="stroke:#181818;stroke-width:0.5;" x1="330.26" x2="479.6155" y1="595.1969" y2="595.1969"/><text fill="#000000" font-family="sans-serif" font-size="14" lengthAdjust="spacing" textLength="12.7764" x="335.26" y="612.192">id</text><text fill="#000000" font-family="sans-serif" font-size="14" lengthAdjust="spacing" textLength="39.7031" x="335.26" y="628.4889">name</text><text fill="#000000" font-family="sans-serif" font-size="14" lengthAdjust="spacing" textLength="77.8408" x="335.26" y="644.7857">description</text><text fill="#000000" font-family="sans-serif" font-size="14" lengthAdjust="spacing" textLength="125.4736" x="335.26" y="661.0826">parentTemplateId</text><text fill="#000000" font-family="sans-serif" font-size="14" lengthAdjust="spacing" textLength="67.9971" x="335.26" y="677.3795">derivedAt</text><text fill="#000000" font-family="sans-serif" font-size="14" lengthAdjust="spacing" textLength="59.4521" x="335.26" y="693.6764">entries[]</text><line style="stroke:#181818;stroke-width:0.5;" x1="330.26" x2="479.6155" y1="700.9781" y2="700.9781"/></g><!--class JourneyTemplateEntry--><g class="entity" data-qualified-name="JourneyTemplateEntry" data-source-line="44" id="ent0006"><rect fill="#F1F1F1" height="227.2656" rx="2.5" ry="2.5" style="stroke:#181818;stroke-width:0.5;" width="188.6045" x="310.64" y="810.4169"/><ellipse cx="325.64" cy="826.4169" fill="#ADD1B2" rx="11" ry="11" style="stroke:#181818;stroke-width:1;"/><path d="M328.6088,832.0575 Q328.0306,832.3544 327.39,832.495 Q326.7494,832.6513 326.0463,832.6513 Q323.5463,832.6513 322.2181,831.0106 Q320.9056,829.3544 320.9056,826.2294 Q320.9056,823.1044 322.2181,821.4481 Q323.5463,819.7919 326.0463,819.7919 Q326.7494,819.7919 327.39,819.9481 Q328.0463,820.1044 328.6088,820.4013 L328.6088,823.12 Q327.9838,822.5419 327.39,822.2763 Q326.7963,821.995 326.1713,821.995 Q324.8275,821.995 324.14,823.0731 Q323.4525,824.1356 323.4525,826.2294 Q323.4525,828.3231 324.14,829.4013 Q324.8275,830.4638 326.1713,830.4638 Q326.7963,830.4638 327.39,830.1981 Q327.9838,829.9169 328.6088,829.3388 L328.6088,832.0575 Z " fill="#000000"/><text fill="#000000" font-family="sans-serif" font-size="14" lengthAdjust="spacing" textLength="156.6045" x="339.64" y="831.2636">JourneyTemplateEntry</text><line style="stroke:#181818;stroke-width:0.5;" x1="311.64" x2="498.2445" y1="842.4169" y2="842.4169"/><text fill="#000000" font-family="sans-serif" font-size="14" lengthAdjust="spacing" textLength="12.7764" x="316.64" y="859.412">id</text><text fill="#000000" font-family="sans-serif" font-size="14" lengthAdjust="spacing" textLength="33.8584" x="316.64" y="875.7089">label</text><text fill="#000000" font-family="sans-serif" font-size="14" lengthAdjust="spacing" textLength="74.7578" x="316.64" y="892.0057">offsetDays</text><text fill="#000000" font-family="sans-serif" font-size="14" lengthAdjust="spacing" textLength="88.0537" x="316.64" y="908.3026">windowDays</text><text fill="#000000" font-family="sans-serif" font-size="14" lengthAdjust="spacing" textLength="37.5771" x="316.64" y="924.5995">order</text><text fill="#000000" font-family="sans-serif" font-size="14" lengthAdjust="spacing" textLength="83.6445" x="316.64" y="940.8964">templateId?</text><text fill="#000000" font-family="sans-serif" font-size="14" lengthAdjust="spacing" textLength="87.0625" x="316.64" y="957.1932">scoreAliases</text><text fill="#000000" font-family="sans-serif" font-size="14" lengthAdjust="spacing" textLength="116.2178" x="316.64" y="973.4901">scoreAliasLabels</text><text fill="#000000" font-family="sans-serif" font-size="14" lengthAdjust="spacing" textLength="138.2568" x="316.64" y="989.787">dashboardCategory</text><text fill="#000000" font-family="sans-serif" font-size="14" lengthAdjust="spacing" textLength="113.0596" x="316.64" y="1006.0839">instructionText?</text><text fill="#000000" font-family="sans-serif" font-size="14" lengthAdjust="spacing" textLength="161.3965" x="316.64" y="1022.3807">instructionTemplateId?</text><line style="stroke:#181818;stroke-width:0.5;" x1="311.64" x2="498.2445" y1="1029.6825" y2="1029.6825"/></g><!--class InstructionTemplate--><g class="entity" data-qualified-name="InstructionTemplate" data-source-line="58" id="ent0007"><rect fill="#F1F1F1" height="145.7813" rx="2.5" ry="2.5" style="stroke:#181818;stroke-width:0.5;" width="173.1895" x="318.34" y="1114.6869"/><ellipse cx="333.34" cy="1130.6869" fill="#ADD1B2" rx="11" ry="11" style="stroke:#181818;stroke-width:1;"/><path d="M336.3088,1136.3275 Q335.7306,1136.6244 335.09,1136.765 Q334.4494,1136.9213 333.7463,1136.9213 Q331.2463,1136.9213 329.9181,1135.2806 Q328.6056,1133.6244 328.6056,1130.4994 Q328.6056,1127.3744 329.9181,1125.7181 Q331.2463,1124.0619 333.7463,1124.0619 Q334.4494,1124.0619 335.09,1124.2181 Q335.7463,1124.3744 336.3088,1124.6713 L336.3088,1127.39 Q335.6838,1126.8119 335.09,1126.5463 Q334.4963,1126.265 333.8713,1126.265 Q332.5275,1126.265 331.84,1127.3431 Q331.1525,1128.4056 331.1525,1130.4994 Q331.1525,1132.5931 331.84,1133.6713 Q332.5275,1134.7338 333.8713,1134.7338 Q334.4963,1134.7338 335.09,1134.4681 Q335.6838,1134.1869 336.3088,1133.6088 L336.3088,1136.3275 Z " fill="#000000"/><text fill="#000000" font-family="sans-serif" font-size="14" lengthAdjust="spacing" textLength="141.1895" x="347.34" y="1135.5336">InstructionTemplate</text><line style="stroke:#181818;stroke-width:0.5;" x1="319.34" x2="490.5295" y1="1146.6869" y2="1146.6869"/><text fill="#000000" font-family="sans-serif" font-size="14" lengthAdjust="spacing" textLength="12.7764" x="324.34" y="1163.682">id</text><text fill="#000000" font-family="sans-serif" font-size="14" lengthAdjust="spacing" textLength="39.7031" x="324.34" y="1179.9789">name</text><text fill="#000000" font-family="sans-serif" font-size="14" lengthAdjust="spacing" textLength="53.6006" x="324.34" y="1196.2757">content</text><text fill="#000000" font-family="sans-serif" font-size="14" lengthAdjust="spacing" textLength="41.1729" x="324.34" y="1212.5726">tags[]</text><text fill="#000000" font-family="sans-serif" font-size="14" lengthAdjust="spacing" textLength="68.7012" x="324.34" y="1228.8695">createdAt</text><text fill="#000000" font-family="sans-serif" font-size="14" lengthAdjust="spacing" textLength="73.2813" x="324.34" y="1245.1664">updatedAt</text><line style="stroke:#181818;stroke-width:0.5;" x1="319.34" x2="490.5295" y1="1252.4681" y2="1252.4681"/></g><!--class JourneyModification--><g class="entity" data-qualified-name="JourneyModification" data-source-line="67" id="ent0008"><rect fill="#F1F1F1" height="194.6719" rx="2.5" ry="2.5" style="stroke:#181818;stroke-width:0.5;" width="170.4277" x="723.73" y="538.7469"/><ellipse cx="738.73" cy="554.7469" fill="#ADD1B2" rx="11" ry="11" style="stroke:#181818;stroke-width:1;"/><path d="M741.6988,560.3875 Q741.1206,560.6844 740.48,560.825 Q739.8394,560.9813 739.1363,560.9813 Q736.6363,560.9813 735.3081,559.3406 Q733.9956,557.6844 733.9956,554.5594 Q733.9956,551.4344 735.3081,549.7781 Q736.6363,548.1219 739.1363,548.1219 Q739.8394,548.1219 740.48,548.2781 Q741.1363,548.4344 741.6988,548.7313 L741.6988,551.45 Q741.0738,550.8719 740.48,550.6063 Q739.8863,550.325 739.2613,550.325 Q737.9175,550.325 737.23,551.4031 Q736.5425,552.4656 736.5425,554.5594 Q736.5425,556.6531 737.23,557.7313 Q737.9175,558.7938 739.2613,558.7938 Q739.8863,558.7938 740.48,558.5281 Q741.0738,558.2469 741.6988,557.6688 L741.6988,560.3875 Z " fill="#000000"/><text fill="#000000" font-family="sans-serif" font-size="14" lengthAdjust="spacing" textLength="138.4277" x="752.73" y="559.5936">JourneyModification</text><line style="stroke:#181818;stroke-width:0.5;" x1="724.73" x2="893.1577" y1="570.7469" y2="570.7469"/><text fill="#000000" font-family="sans-serif" font-size="14" lengthAdjust="spacing" textLength="12.7764" x="729.73" y="587.742">id</text><text fill="#000000" font-family="sans-serif" font-size="14" lengthAdjust="spacing" textLength="31.2744" x="729.73" y="604.0389">type</text><text fill="#000000" font-family="sans-serif" font-size="14" lengthAdjust="spacing" textLength="106.668" x="729.73" y="620.3357">addedByUserId</text><text fill="#000000" font-family="sans-serif" font-size="14" lengthAdjust="spacing" textLength="47.6807" x="729.73" y="636.6326">reason</text><text fill="#000000" font-family="sans-serif" font-size="14" lengthAdjust="spacing" textLength="58.9189" x="729.73" y="652.9295">addedAt</text><text fill="#000000" font-family="sans-serif" font-size="14" lengthAdjust="spacing" textLength="146.8701" x="729.73" y="669.2264">previousTemplateId?</text><text fill="#000000" font-family="sans-serif" font-size="14" lengthAdjust="spacing" textLength="115.6436" x="729.73" y="685.5232">newTemplateId?</text><text fill="#000000" font-family="sans-serif" font-size="14" lengthAdjust="spacing" textLength="135.2559" x="729.73" y="701.8201">previousStartDate?</text><text fill="#000000" font-family="sans-serif" font-size="14" lengthAdjust="spacing" textLength="104.0293" x="729.73" y="718.117">newStartDate?</text><line style="stroke:#181818;stroke-width:0.5;" x1="724.73" x2="893.1577" y1="725.4188" y2="725.4188"/></g><!--class ResearchModule--><g class="entity" data-qualified-name="ResearchModule" data-source-line="79" id="ent0009"><rect fill="#F1F1F1" height="113.1875" rx="2.5" ry="2.5" style="stroke:#181818;stroke-width:0.5;" width="149.6211" x="961.13" y="867.4569"/><ellipse cx="976.8322" cy="883.4569" fill="#ADD1B2" rx="11" ry="11" style="stroke:#181818;stroke-width:1;"/><path d="M979.801,889.0975 Q979.2229,889.3944 978.5822,889.535 Q977.9416,889.6913 977.2385,889.6913 Q974.7385,889.6913 973.4104,888.0506 Q972.0979,886.3944 972.0979,883.2694 Q972.0979,880.1444 973.4104,878.4881 Q974.7385,876.8319 977.2385,876.8319 Q977.9416,876.8319 978.5822,876.9881 Q979.2385,877.1444 979.801,877.4413 L979.801,880.16 Q979.176,879.5819 978.5822,879.3163 Q977.9885,879.035 977.3635,879.035 Q976.0197,879.035 975.3322,880.1131 Q974.6447,881.1756 974.6447,883.2694 Q974.6447,885.3631 975.3322,886.4413 Q976.0197,887.5038 977.3635,887.5038 Q977.9885,887.5038 978.5822,887.2381 Q979.176,886.9569 979.801,886.3788 L979.801,889.0975 Z " fill="#000000"/><text fill="#000000" font-family="sans-serif" font-size="14" lengthAdjust="spacing" textLength="116.0605" x="990.9883" y="888.3036">ResearchModule</text><line style="stroke:#181818;stroke-width:0.5;" x1="962.13" x2="1109.7511" y1="899.4569" y2="899.4569"/><text fill="#000000" font-family="sans-serif" font-size="14" lengthAdjust="spacing" textLength="12.7764" x="967.13" y="916.452">id</text><text fill="#000000" font-family="sans-serif" font-size="14" lengthAdjust="spacing" textLength="39.7031" x="967.13" y="932.7489">name</text><text fill="#000000" font-family="sans-serif" font-size="14" lengthAdjust="spacing" textLength="137.6211" x="967.13" y="949.0457">studyInfoMarkdown</text><text fill="#000000" font-family="sans-serif" font-size="14" lengthAdjust="spacing" textLength="59.4521" x="967.13" y="965.3426">entries[]</text><line style="stroke:#181818;stroke-width:0.5;" x1="962.13" x2="1109.7511" y1="972.6444" y2="972.6444"/></g><!--class Consent--><g class="entity" data-qualified-name="Consent" data-source-line="86" id="ent0010"><rect fill="#F1F1F1" height="178.375" rx="2.5" ry="2.5" style="stroke:#181818;stroke-width:0.5;" width="137.1045" x="1123.39" y="546.8969"/><ellipse cx="1159.8195" cy="562.8969" fill="#ADD1B2" rx="11" ry="11" style="stroke:#181818;stroke-width:1;"/><path d="M1162.7882,568.5375 Q1162.2101,568.8344 1161.5695,568.975 Q1160.9289,569.1313 1160.2257,569.1313 Q1157.7257,569.1313 1156.3976,567.4906 Q1155.0851,565.8344 1155.0851,562.7094 Q1155.0851,559.5844 1156.3976,557.9281 Q1157.7257,556.2719 1160.2257,556.2719 Q1160.9289,556.2719 1161.5695,556.4281 Q1162.2257,556.5844 1162.7882,556.8813 L1162.7882,559.6 Q1162.1632,559.0219 1161.5695,558.7563 Q1160.9757,558.475 1160.3507,558.475 Q1159.007,558.475 1158.3195,559.5531 Q1157.632,560.6156 1157.632,562.7094 Q1157.632,564.8031 1158.3195,565.8813 Q1159.007,566.9438 1160.3507,566.9438 Q1160.9757,566.9438 1161.5695,566.6781 Q1162.1632,566.3969 1162.7882,565.8188 L1162.7882,568.5375 Z " fill="#000000"/><text fill="#000000" font-family="sans-serif" font-size="14" lengthAdjust="spacing" textLength="57.4834" x="1178.5816" y="567.7436">Consent</text><line style="stroke:#181818;stroke-width:0.5;" x1="1124.39" x2="1259.4945" y1="578.8969" y2="578.8969"/><text fill="#000000" font-family="sans-serif" font-size="14" lengthAdjust="spacing" textLength="12.7764" x="1129.39" y="595.892">id</text><text fill="#000000" font-family="sans-serif" font-size="14" lengthAdjust="spacing" textLength="62.8359" x="1129.39" y="612.1889">patientId</text><text fill="#000000" font-family="sans-serif" font-size="14" lengthAdjust="spacing" textLength="125.1045" x="1129.39" y="628.4857">researchModuleId</text><text fill="#000000" font-family="sans-serif" font-size="14" lengthAdjust="spacing" textLength="115.9307" x="1129.39" y="644.7826">patientJourneyId</text><text fill="#000000" font-family="sans-serif" font-size="14" lengthAdjust="spacing" textLength="70.1504" x="1129.39" y="661.0795">grantedAt</text><text fill="#000000" font-family="sans-serif" font-size="14" lengthAdjust="spacing" textLength="117.8994" x="1129.39" y="677.3764">grantedByUserId</text><text fill="#000000" font-family="sans-serif" font-size="14" lengthAdjust="spacing" textLength="71.8936" x="1129.39" y="693.6732">revokedAt</text><text fill="#000000" font-family="sans-serif" font-size="14" lengthAdjust="spacing" textLength="119.6426" x="1129.39" y="709.9701">revokedByUserId</text><line style="stroke:#181818;stroke-width:0.5;" x1="1124.39" x2="1259.4945" y1="717.2719" y2="717.2719"/></g><!--class FormResponse--><g class="entity" data-qualified-name="FormResponse" data-source-line="97" id="ent0011"><rect fill="#F1F1F1" height="145.7813" rx="2.5" ry="2.5" style="stroke:#181818;stroke-width:0.5;" width="135.8789" x="7" y="563.1969"/><ellipse cx="22" cy="579.1969" fill="#ADD1B2" rx="11" ry="11" style="stroke:#181818;stroke-width:1;"/><path d="M24.9688,584.8375 Q24.3906,585.1344 23.75,585.275 Q23.1094,585.4313 22.4063,585.4313 Q19.9063,585.4313 18.5781,583.7906 Q17.2656,582.1344 17.2656,579.0094 Q17.2656,575.8844 18.5781,574.2281 Q19.9063,572.5719 22.4063,572.5719 Q23.1094,572.5719 23.75,572.7281 Q24.4063,572.8844 24.9688,573.1813 L24.9688,575.9 Q24.3438,575.3219 23.75,575.0563 Q23.1563,574.775 22.5313,574.775 Q21.1875,574.775 20.5,575.8531 Q19.8125,576.9156 19.8125,579.0094 Q19.8125,581.1031 20.5,582.1813 Q21.1875,583.2438 22.5313,583.2438 Q23.1563,583.2438 23.75,582.9781 Q24.3438,582.6969 24.9688,582.1188 L24.9688,584.8375 Z " fill="#000000"/><text fill="#000000" font-family="sans-serif" font-size="14" lengthAdjust="spacing" textLength="103.8789" x="36" y="584.0436">FormResponse</text><line style="stroke:#181818;stroke-width:0.5;" x1="8" x2="141.8789" y1="595.1969" y2="595.1969"/><text fill="#000000" font-family="sans-serif" font-size="14" lengthAdjust="spacing" textLength="12.7764" x="13" y="612.192">id</text><text fill="#000000" font-family="sans-serif" font-size="14" lengthAdjust="spacing" textLength="62.8359" x="13" y="628.4889">patientId</text><text fill="#000000" font-family="sans-serif" font-size="14" lengthAdjust="spacing" textLength="45.1992" x="13" y="644.7857">caseId</text><text fill="#000000" font-family="sans-serif" font-size="14" lengthAdjust="spacing" textLength="76.2139" x="13" y="661.0826">templateId</text><text fill="#000000" font-family="sans-serif" font-size="14" lengthAdjust="spacing" textLength="57.8594" x="13" y="677.3795">answers</text><text fill="#000000" font-family="sans-serif" font-size="14" lengthAdjust="spacing" textLength="45.2197" x="13" y="693.6764">scores</text><line style="stroke:#181818;stroke-width:0.5;" x1="8" x2="141.8789" y1="700.9781" y2="700.9781"/></g><!--class JournalDraft--><g class="entity" data-qualified-name="JournalDraft" data-source-line="106" id="ent0012"><rect fill="#F1F1F1" height="129.4844" rx="2.5" ry="2.5" style="stroke:#181818;stroke-width:0.5;" width="116.1982" x="177.84" y="571.3369"/><ellipse cx="192.84" cy="587.3369" fill="#ADD1B2" rx="11" ry="11" style="stroke:#181818;stroke-width:1;"/><path d="M195.8088,592.9775 Q195.2306,593.2744 194.59,593.415 Q193.9494,593.5713 193.2463,593.5713 Q190.7463,593.5713 189.4181,591.9306 Q188.1056,590.2744 188.1056,587.1494 Q188.1056,584.0244 189.4181,582.3681 Q190.7463,580.7119 193.2463,580.7119 Q193.9494,580.7119 194.59,580.8681 Q195.2463,581.0244 195.8088,581.3213 L195.8088,584.04 Q195.1838,583.4619 194.59,583.1963 Q193.9963,582.915 193.3713,582.915 Q192.0275,582.915 191.34,583.9931 Q190.6525,585.0556 190.6525,587.1494 Q190.6525,589.2431 191.34,590.3213 Q192.0275,591.3838 193.3713,591.3838 Q193.9963,591.3838 194.59,591.1181 Q195.1838,590.8369 195.8088,590.2588 L195.8088,592.9775 Z " fill="#000000"/><text fill="#000000" font-family="sans-serif" font-size="14" lengthAdjust="spacing" textLength="84.1982" x="206.84" y="592.1836">JournalDraft</text><line style="stroke:#181818;stroke-width:0.5;" x1="178.84" x2="293.0382" y1="603.3369" y2="603.3369"/><text fill="#000000" font-family="sans-serif" font-size="14" lengthAdjust="spacing" textLength="12.7764" x="183.84" y="620.332">id</text><text fill="#000000" font-family="sans-serif" font-size="14" lengthAdjust="spacing" textLength="45.1992" x="183.84" y="636.6289">caseId</text><text fill="#000000" font-family="sans-serif" font-size="14" lengthAdjust="spacing" textLength="76.2139" x="183.84" y="652.9257">templateId</text><text fill="#000000" font-family="sans-serif" font-size="14" lengthAdjust="spacing" textLength="53.6006" x="183.84" y="669.2226">content</text><text fill="#000000" font-family="sans-serif" font-size="14" lengthAdjust="spacing" textLength="43.0186" x="183.84" y="685.5195">status</text><line style="stroke:#181818;stroke-width:0.5;" x1="178.84" x2="293.0382" y1="692.8213" y2="692.8213"/></g><!--link Patient to Case--><g class="link" data-entity-1="ent0002" data-entity-2="ent0003" data-link-type="association" data-source-line="114" id="lnk13"><path codeLine="114" d="M821.24,142.5969 C695.04,190.2069 417.73,294.8269 295.64,340.8869" fill="none" id="Patient-Case" style="stroke:#181818;stroke-width:1;"/><text fill="#000000" font-family="sans-serif" font-size="13" lengthAdjust="spacing" textLength="22.9785" x="600.86" y="233.1438">has</text><text fill="#000000" font-family="sans-serif" font-size="13" lengthAdjust="spacing" textLength="8.271" x="805.3124" y="141.7422">1</text><text fill="#000000" font-family="sans-serif" font-size="13" lengthAdjust="spacing" textLength="6.5" x="303.705" y="333.9869">*</text></g><!--link Patient to PatientJourney--><g class="link" data-entity-1="ent0002" data-entity-2="ent0004" data-link-type="association" data-source-line="115" id="lnk14"><path codeLine="115" d="M885.94,190.4369 C885.94,214.3069 885.94,241.2769 885.94,266.6769" fill="none" id="Patient-PatientJourney" style="stroke:#181818;stroke-width:1;"/><text fill="#000000" font-family="sans-serif" font-size="13" lengthAdjust="spacing" textLength="55.853" x="886.94" y="233.1438">journeys</text><text fill="#000000" font-family="sans-serif" font-size="13" lengthAdjust="spacing" textLength="8.271" x="877.5718" y="210.2065">1</text><text fill="#000000" font-family="sans-serif" font-size="13" lengthAdjust="spacing" textLength="6.5" x="879.7381" y="256.0204">*</text></g><!--link Patient to Consent--><g class="link" data-entity-1="ent0002" data-entity-2="ent0010" data-link-type="association" data-source-line="116" id="lnk15"><path codeLine="116" d="M950.6,186.8369 C1013.78,257.7369 1107.95,374.2969 1160.94,491.7469 C1168.63,508.8069 1174.47,527.8869 1178.87,546.4169" fill="none" id="Patient-Consent" style="stroke:#181818;stroke-width:1;"/><text fill="#000000" font-family="sans-serif" font-size="13" lengthAdjust="spacing" textLength="58.2207" x="1146.88" y="368.9838">consents</text><text fill="#000000" font-family="sans-serif" font-size="13" lengthAdjust="spacing" textLength="8.271" x="958.1247" y="190.7086">1</text><text fill="#000000" font-family="sans-serif" font-size="13" lengthAdjust="spacing" textLength="6.5" x="1171.6092" y="535.746">*</text></g><!--link Case to FormResponse--><g class="link" data-entity-1="ent0003" data-entity-2="ent0011" data-link-type="association" data-source-line="117" id="lnk16"><path codeLine="117" d="M182.51,454.0669 C174.92,466.7069 167.22,479.5569 159.94,491.7469 C146.14,514.8469 131.15,540.0769 117.66,562.8469" fill="none" id="Case-FormResponse" style="stroke:#181818;stroke-width:1;"/><text fill="#000000" font-family="sans-serif" font-size="13" lengthAdjust="spacing" textLength="66.1045" x="160.94" y="504.8138">responses</text><text fill="#000000" font-family="sans-serif" font-size="13" lengthAdjust="spacing" textLength="8.271" x="170.1231" y="473.5771">1</text><text fill="#000000" font-family="sans-serif" font-size="13" lengthAdjust="spacing" textLength="6.5" x="115.4697" y="552.2245">*</text></g><!--link Case to JournalDraft--><g class="link" data-entity-1="ent0003" data-entity-2="ent0012" data-link-type="association" data-source-line="118" id="lnk17"><path codeLine="118" d="M235.94,454.0869 C235.94,492.3069 235.94,536.1669 235.94,571.1369" fill="none" id="Case-JournalDraft" style="stroke:#181818;stroke-width:1;"/><text fill="#000000" font-family="sans-serif" font-size="13" lengthAdjust="spacing" textLength="38.0098" x="236.94" y="504.8138">drafts</text><text fill="#000000" font-family="sans-serif" font-size="13" lengthAdjust="spacing" textLength="8.271" x="227.6438" y="473.5986">1</text><text fill="#000000" font-family="sans-serif" font-size="13" lengthAdjust="spacing" textLength="6.5" x="229.6393" y="560.2877">*</text></g><!--link JourneyTemplate to JourneyTemplateEntry--><g class="link" data-entity-1="ent0005" data-entity-2="ent0006" data-link-type="association" data-source-line="119" id="lnk18"><path codeLine="119" d="M404.94,709.2469 C404.94,739.7769 404.94,776.0669 404.94,809.9969" fill="none" id="JourneyTemplate-JourneyTemplateEntry" style="stroke:#181818;stroke-width:1;"/><text fill="#000000" font-family="sans-serif" font-size="13" lengthAdjust="spacing" textLength="45.062" x="405.94" y="776.4838">entries</text><text fill="#000000" font-family="sans-serif" font-size="13" lengthAdjust="spacing" textLength="8.271" x="396.5719" y="729.0079">1</text><text fill="#000000" font-family="sans-serif" font-size="13" lengthAdjust="spacing" textLength="6.5" x="398.7637" y="799.281">*</text></g><!--link JourneyTemplate to JourneyTemplate--><g class="link" data-entity-1="ent0005" data-entity-2="ent0005" data-link-type="association" data-source-line="120" id="lnk19"><path codeLine="120" d="M480.98,610.8769 C500.73,612.4269 515.62,620.8269 515.62,636.0869 C515.62,651.3369 500.73,659.7369 480.98,661.2869" fill="none" id="JourneyTemplate-JourneyTemplate" style="stroke:#181818;stroke-width:1;"/><text fill="#000000" font-family="sans-serif" font-size="13" lengthAdjust="spacing" textLength="178.458" x="521.62" y="640.6538">parentTemplateId (derives)</text><text fill="#000000" font-family="sans-serif" font-size="13" lengthAdjust="spacing" textLength="24.8066" x="488.5808" y="605.1384">0..1</text><text fill="#000000" font-family="sans-serif" font-size="13" lengthAdjust="spacing" textLength="6.5" x="488.5375" y="660.0471">*</text></g><!--link PatientJourney to JourneyTemplate--><g class="link" data-entity-1="ent0004" data-entity-2="ent0005" data-link-type="association" data-source-line="121" id="lnk20"><path codeLine="121" d="M813.41,406.0769 C723.78,456.3269 572,541.4269 480.84,592.5269" fill="none" id="PatientJourney-JourneyTemplate" style="stroke:#181818;stroke-width:1;"/><text fill="#000000" font-family="sans-serif" font-size="13" lengthAdjust="spacing" textLength="122.6938" x="660.86" y="504.8138">journeyTemplateId</text><text fill="#000000" font-family="sans-serif" font-size="13" lengthAdjust="spacing" textLength="6.5" x="799.1763" y="406.8877">*</text><text fill="#000000" font-family="sans-serif" font-size="13" lengthAdjust="spacing" textLength="8.271" x="488.7187" y="584.574">1</text></g><!--link PatientJourney to JourneyModification--><g class="link" data-entity-1="ent0004" data-entity-2="ent0008" data-link-type="association" data-source-line="122" id="lnk21"><path codeLine="122" d="M857.53,461.9469 C854.61,472.0069 851.7,482.0769 848.94,491.7469 C844.64,506.7769 840.14,522.7069 835.77,538.2769" fill="none" id="PatientJourney-JourneyModification" style="stroke:#181818;stroke-width:1;"/><text fill="#000000" font-family="sans-serif" font-size="13" lengthAdjust="spacing" textLength="87.458" x="849.94" y="504.8138">modifications</text><text fill="#000000" font-family="sans-serif" font-size="13" lengthAdjust="spacing" textLength="8.271" x="847.1599" y="481.7321">1</text><text fill="#000000" font-family="sans-serif" font-size="13" lengthAdjust="spacing" textLength="6.5" x="831.5381" y="527.6152">*</text></g><!--link PatientJourney to Consent--><g class="link" data-entity-1="ent0004" data-entity-2="ent0010" data-link-type="association" data-source-line="123" id="lnk22"><path codeLine="123" d="M958.29,437.0069 C984.28,461.0769 1014.46,487.2569 1043.94,508.7469 C1065.5,524.4669 1074.78,522.4869 1095.94,538.7469 C1105.11,545.7969 1114.29,553.6769 1123.14,561.8169" fill="none" id="PatientJourney-Consent" style="stroke:#181818;stroke-width:1;"/><text fill="#000000" font-family="sans-serif" font-size="13" lengthAdjust="spacing" textLength="111.4331" x="1044.94" y="504.8138">journey consents</text><text fill="#000000" font-family="sans-serif" font-size="13" lengthAdjust="spacing" textLength="8.271" x="966.1776" y="440.7934">1</text><text fill="#000000" font-family="sans-serif" font-size="13" lengthAdjust="spacing" textLength="6.5" x="1108.8668" y="549.4371">*</text></g><!--link PatientJourney to ResearchModule--><g class="link" data-entity-1="ent0004" data-entity-2="ent0009" data-link-type="association" data-source-line="124" id="lnk23"><path codeLine="124" d="M931.72,462.0769 C935.52,471.9769 939.02,481.9769 941.94,491.7469 C973.14,596.0569 958.1,627.1869 981.94,733.4169 C992.13,778.8469 1006.74,829.5269 1018.19,867.0569" fill="none" id="PatientJourney-ResearchModule" style="stroke:#181818;stroke-width:1;"/><text fill="#000000" font-family="sans-serif" font-size="13" lengthAdjust="spacing" textLength="122.9414" x="982.94" y="640.6538">researchModuleIds</text><text fill="#000000" font-family="sans-serif" font-size="13" lengthAdjust="spacing" textLength="6.5" x="928.8801" y="481.8716">*</text><text fill="#000000" font-family="sans-serif" font-size="13" lengthAdjust="spacing" textLength="6.5" x="1009.6915" y="856.2717">*</text></g><!--link JourneyTemplateEntry to InstructionTemplate--><g class="link" data-entity-1="ent0006" data-entity-2="ent0007" data-link-type="association" data-source-line="125" id="lnk24"><path codeLine="125" d="M404.94,1037.8569 C404.94,1063.8469 404.94,1090.8069 404.94,1114.5069" fill="none" id="JourneyTemplateEntry-InstructionTemplate" style="stroke:#181818;stroke-width:1;"/><text fill="#000000" font-family="sans-serif" font-size="13" lengthAdjust="spacing" textLength="142.9683" x="405.94" y="1080.7538">instructionTemplateId</text><text fill="#000000" font-family="sans-serif" font-size="13" lengthAdjust="spacing" textLength="6.5" x="398.7637" y="1057.6993">*</text><text fill="#000000" font-family="sans-serif" font-size="13" lengthAdjust="spacing" textLength="24.8066" x="379.799" y="1103.6491">0..1</text></g><!--link Consent to ResearchModule--><g class="link" data-entity-1="ent0010" data-entity-2="ent0009" data-link-type="association" data-source-line="126" id="lnk25"><path codeLine="126" d="M1143.65,725.6069 C1118.41,771.8669 1088.3,827.0669 1066.34,867.3269" fill="none" id="Consent-ResearchModule" style="stroke:#181818;stroke-width:1;"/><text fill="#000000" font-family="sans-serif" font-size="13" lengthAdjust="spacing" textLength="116.1685" x="1119.62" y="776.4838">researchModuleId</text><text fill="#000000" font-family="sans-serif" font-size="13" lengthAdjust="spacing" textLength="6.5" x="1133.5826" y="745.4105">*</text><text fill="#000000" font-family="sans-serif" font-size="13" lengthAdjust="spacing" textLength="8.271" x="1061.5739" y="856.5746">1</text></g><?plantuml-src XLJDRjim3BxxAOISjW4jrgilHPjiG8kbBReEEmmzi1RZQ5KaGvIJ6SE0FSIUS4yoIhRZttONMnB5Zny_KlJAQnHBwr2im8DOMubQ_FtzHtmmNlbAtAC6hwoXhIh4Ia7kO9SacGOYSSSMD5xyJ8HGaZzIKQ6Xke4Tygv0HzQ0lYbtJ-Y26JpURYwLyzjW1dqLd1ZAtnPeK5xuv5UBlGJ23hYe8yNxvC6Nn8kCuNBhAbvwf_ASmuMhLgki-WhEA9E70qPJEQFVMnrOIGIfbS4kL9F6jIsTmMe-wFVQ-80xJj1ZIyHvLWtxf0eeAMR2fAm7VHVtAwY2qI4Xk6pBAfUQGSBPpagrKLajyhV7ZjRrC6J7ozJoIgJCgIBunRYEkGxuINHgtt1XcrFu6ZxNs_MIr_24clzsio7q3V-3Cj8UcerrCbRL7sEU1o4oxgKBhRXyDDX-2e0Kku2sJnQSN7RrKuQyAxEGomF-yEVZeox2aVxLr3wHABF6S-Q19EGXUJvoo3ThKSf2DkknAEjUKJfKNnK15QH4ULbz8NHHPqQaM8DeYCY5mxso9JqCj35u61wqrpwtdTJSwksFpEu7lJD9bNmfgokpiMjmprmaCr_q9JVPuCdsctpSdfsvaIKUyGGmhOBDUY36tZutrcPzj1vPVBHkn_aKWSmybOpx9ovylwF1qA5-vR6lQ5Gtq2i7crvoyoXTLpIlbb7QKROuMuYJ4x5ujwWdK2gsG7FMqT18smanUxbLFGsnmugIYDwxCf0a3QM8o-d5GQQfaE5FoNXOZ1t6xpnjcsFg-Vxqz4LdzXiF6l6cdZFqDXbf4lm3pDaSp7IWZhqd90QFCXqEpbUyE_6Rc5qHNY3Clz5hIsT6zwokBKGjujoCIkSdMzBIxAdsNnB9Fm00?></g></svg>