<?plantuml 1.2026.1?><svg xmlns="http://www.w3.org/2000/svg" xmlns:xlink="http://www.w3.org/1999/xlink" contentStyleType="text/css" data-diagram-type="CLASS" height="1251px" preserveAspectRatio="none" style="width:901px;height:1251px;background:#FFFFFF;" version="1.1" viewBox="0 0 901 1251" width="901px" zoomAndPan="magnify"><title>Core Data Model &#8212; ERD (simplified)</title><defs/><g><g class="title" data-source-line="1"><text fill="#000000" font-family="sans-serif" font-size="14" font-weight="bold" lengthAdjust="spacing" textLength="282.2422" x="302.4578" y="22.9951">Core Data Model &#8212; ERD (simplified)</text></g><!--class Patient--><g class="entity" data-qualified-name="Patient" data-source-line="3" id="ent0002"><rect fill="#F1F1F1" height="145.7813" rx="2.5" ry="2.5" style="stroke:#181818;stroke-width:0.5;" width="128.6963" x="255.59" y="44.2969"/><ellipse cx="291.8841" cy="60.2969" fill="#ADD1B2" rx="11" ry="11" style="stroke:#181818;stroke-width:1;"/><path d="M294.8529,65.9375 Q294.2748,66.2344 293.6341,66.375 Q292.9935,66.5313 292.2904,66.5313 Q289.7904,66.5313 288.4623,64.8906 Q287.1498,63.2344 287.1498,60.1094 Q287.1498,56.9844 288.4623,55.3281 Q289.7904,53.6719 292.2904,53.6719 Q292.9935,53.6719 293.6341,53.8281 Q294.2904,53.9844 294.8529,54.2813 L294.8529,57 Q294.2279,56.4219 293.6341,56.1563 Q293.0404,55.875 292.4154,55.875 Q291.0716,55.875 290.3841,56.9531 Q289.6966,58.0156 289.6966,60.1094 Q289.6966,62.2031 290.3841,63.2813 Q291.0716,64.3438 292.4154,64.3438 Q293.0404,64.3438 293.6341,64.0781 Q294.2279,63.7969 294.8529,63.2188 L294.8529,65.9375 Z " fill="#000000"/><text fill="#000000" font-family="sans-serif" font-size="14" lengthAdjust="spacing" textLength="49.376" x="310.6162" y="65.1436">Patient</text><line style="stroke:#181818;stroke-width:0.5;" x1="256.59" x2="383.2863" y1="76.2969" y2="76.2969"/><text fill="#000000" font-family="sans-serif" font-size="14" lengthAdjust="spacing" textLength="12.7764" x="261.59" y="93.292">id</text><text fill="#000000" font-family="sans-serif" font-size="14" lengthAdjust="spacing" textLength="91.0137" x="261.59" y="109.5889">displayName</text><text fill="#000000" font-family="sans-serif" font-size="14" lengthAdjust="spacing" textLength="116.6963" x="261.59" y="125.8857">personalNumber</text><text fill="#000000" font-family="sans-serif" font-size="14" lengthAdjust="spacing" textLength="81.1289" x="261.59" y="142.1826">dateOfBirth</text><text fill="#000000" font-family="sans-serif" font-size="14" lengthAdjust="spacing" textLength="34.3711" x="261.59" y="158.4795">palId</text><text fill="#000000" font-family="sans-serif" font-size="14" lengthAdjust="spacing" textLength="95.2109" x="261.59" y="174.7764">lastOpenedAt</text><line style="stroke:#181818;stroke-width:0.5;" x1="256.59" x2="383.2863" y1="182.0781" y2="182.0781"/></g><!--class Case--><g class="entity" data-qualified-name="Case" data-source-line="12" id="ent0003"><rect fill="#F1F1F1" height="178.375" rx="2.5" ry="2.5" style="stroke:#181818;stroke-width:0.5;" width="119.208" x="176.34" y="267.0869"/><ellipse cx="215.1658" cy="283.0869" fill="#ADD1B2" rx="11" ry="11" style="stroke:#181818;stroke-width:1;"/><path d="M218.1346,288.7275 Q217.5565,289.0244 216.9158,289.165 Q216.2752,289.3213 215.5721,289.3213 Q213.0721,289.3213 211.744,287.6806 Q210.4315,286.0244 210.4315,282.8994 Q210.4315,279.7744 211.744,278.1181 Q213.0721,276.4619 215.5721,276.4619 Q216.2752,276.4619 216.9158,276.6181 Q217.5721,276.7744 218.1346,277.0713 L218.1346,279.79 Q217.5096,279.2119 216.9158,278.9463 Q216.3221,278.665 215.6971,278.665 Q214.3533,278.665 213.6658,279.7431 Q212.9783,280.8056 212.9783,282.8994 Q212.9783,284.9931 213.6658,286.0713 Q214.3533,287.1338 215.6971,287.1338 Q216.3221,287.1338 216.9158,286.8681 Q217.5096,286.5869 218.1346,286.0088 L218.1346,288.7275 Z " fill="#000000"/><text fill="#000000" font-family="sans-serif" font-size="14" lengthAdjust="spacing" textLength="34.2617" x="234.4605" y="287.9336">Case</text><line style="stroke:#181818;stroke-width:0.5;" x1="177.34" x2="294.548" y1="299.0869" y2="299.0869"/><text fill="#000000" font-family="sans-serif" font-size="14" lengthAdjust="spacing" textLength="12.7764" x="182.34" y="316.082">id</text><text fill="#000000" font-family="sans-serif" font-size="14" lengthAdjust="spacing" textLength="62.8359" x="182.34" y="332.3789">patientId</text><text fill="#000000" font-family="sans-serif" font-size="14" lengthAdjust="spacing" textLength="43.0186" x="182.34" y="348.6757">status</text><text fill="#000000" font-family="sans-serif" font-size="14" lengthAdjust="spacing" textLength="61.8721" x="182.34" y="364.9726">category</text><text fill="#000000" font-family="sans-serif" font-size="14" lengthAdjust="spacing" textLength="54.5713" x="182.34" y="381.2695">triggers</text><text fill="#000000" font-family="sans-serif" font-size="14" lengthAdjust="spacing" textLength="107.208" x="182.34" y="397.5664">policyWarnings</text><text fill="#000000" font-family="sans-serif" font-size="14" lengthAdjust="spacing" textLength="93.1123" x="182.34" y="413.8632">assignedRole</text><text fill="#000000" font-family="sans-serif" font-size="14" lengthAdjust="spacing" textLength="60.2314" x="182.34" y="430.1601">deadline</text><line style="stroke:#181818;stroke-width:0.5;" x1="177.34" x2="294.548" y1="437.4619" y2="437.4619"/></g><!--class PatientJourney--><g class="entity" data-qualified-name="PatientJourney" data-source-line="23" id="ent0004"><rect fill="#F1F1F1" height="162.0781" rx="2.5" ry="2.5" style="stroke:#181818;stroke-width:0.5;" width="144.3984" x="332.74" y="275.2269"/><ellipse cx="352.2075" cy="291.2269" fill="#ADD1B2" rx="11" ry="11" style="stroke:#181818;stroke-width:1;"/><path d="M355.1762,296.8675 Q354.5981,297.1644 353.9575,297.305 Q353.3169,297.4613 352.6137,297.4613 Q350.1137,297.4613 348.7856,295.8206 Q347.4731,294.1644 347.4731,291.0394 Q347.4731,287.9144 348.7856,286.2581 Q350.1137,284.6019 352.6137,284.6019 Q353.3169,284.6019 353.9575,284.7581 Q354.6137,284.9144 355.1762,285.2113 L355.1762,287.93 Q354.5512,287.3519 353.9575,287.0863 Q353.3637,286.805 352.7387,286.805 Q351.395,286.805 350.7075,287.8831 Q350.02,288.9456 350.02,291.0394 Q350.02,293.1331 350.7075,294.2113 Q351.395,295.2738 352.7387,295.2738 Q353.3637,295.2738 353.9575,295.0081 Q354.5512,294.7269 355.1762,294.1488 L355.1762,296.8675 Z " fill="#000000"/><text fill="#000000" font-family="sans-serif" font-size="14" lengthAdjust="spacing" textLength="102.4707" x="367.2003" y="296.0736">PatientJourney</text><line style="stroke:#181818;stroke-width:0.5;" x1="333.74" x2="476.1384" y1="307.2269" y2="307.2269"/><text fill="#000000" font-family="sans-serif" font-size="14" lengthAdjust="spacing" textLength="12.7764" x="338.74" y="324.222">id</text><text fill="#000000" font-family="sans-serif" font-size="14" lengthAdjust="spacing" textLength="62.8359" x="338.74" y="340.5189">patientId</text><text fill="#000000" font-family="sans-serif" font-size="14" lengthAdjust="spacing" textLength="132.1318" x="338.74" y="356.8157">journeyTemplateId</text><text fill="#000000" font-family="sans-serif" font-size="14" lengthAdjust="spacing" textLength="66.0693" x="338.74" y="373.1126">startDate</text><text fill="#000000" font-family="sans-serif" font-size="14" lengthAdjust="spacing" textLength="43.0186" x="338.74" y="389.4095">status</text><text fill="#000000" font-family="sans-serif" font-size="14" lengthAdjust="spacing" textLength="132.3984" x="338.74" y="405.7064">researchModuleIds</text><text fill="#000000" font-family="sans-serif" font-size="14" lengthAdjust="spacing" textLength="105.1094" x="338.74" y="422.0032">modifications[]</text><line style="stroke:#181818;stroke-width:0.5;" x1="333.74" x2="476.1384" y1="429.305" y2="429.305"/></g><!--class JourneyTemplate--><g class="entity" data-qualified-name="JourneyTemplate" data-source-line="33" id="ent0005"><rect fill="#F1F1F1" height="145.7813" rx="2.5" ry="2.5" style="stroke:#181818;stroke-width:0.5;" width="151.3555" x="329.26" y="546.9069"/><ellipse cx="344.26" cy="562.9069" fill="#ADD1B2" rx="11" ry="11" style="stroke:#181818;stroke-width:1;"/><path d="M347.2288,568.5475 Q346.6506,568.8444 346.01,568.985 Q345.3694,569.1413 344.6663,569.1413 Q342.1663,569.1413 340.8381,567.5006 Q339.5256,565.8444 339.5256,562.7194 Q339.5256,559.5944 340.8381,557.9381 Q342.1663,556.2819 344.6663,556.2819 Q345.3694,556.2819 346.01,556.4381 Q346.6663,556.5944 347.2288,556.8913 L347.2288,559.61 Q346.6038,559.0319 346.01,558.7663 Q345.4163,558.485 344.7913,558.485 Q343.4475,558.485 342.76,559.5631 Q342.0725,560.6256 342.0725,562.7194 Q342.0725,564.8131 342.76,565.8913 Q343.4475,566.9538 344.7913,566.9538 Q345.4163,566.9538 346.01,566.6881 Q346.6038,566.4069 347.2288,565.8288 L347.2288,568.5475 Z " fill="#000000"/><text fill="#000000" font-family="sans-serif" font-size="14" lengthAdjust="spacing" textLength="119.3555" x="358.26" y="567.7536">JourneyTemplate</text><line style="stroke:#181818;stroke-width:0.5;" x1="330.26" x2="479.6155" y1="578.9069" y2="578.9069"/><text fill="#000000" font-family="sans-serif" font-size="14" lengthAdjust="spacing" textLength="12.7764" x="335.26" y="595.902">id</text><text fill="#000000" font-family="sans-serif" font-size="14" lengthAdjust="spacing" textLength="39.7031" x="335.26" y="612.1989">name</text><text fill="#000000" font-family="sans-serif" font-size="14" lengthAdjust="spacing" textLength="77.8408" x="335.26" y="628.4957">description</text><text fill="#000000" font-family="sans-serif" font-size="14" lengthAdjust="spacing" textLength="125.4736" x="335.26" y="644.7926">parentTemplateId</text><text fill="#000000" font-family="sans-serif" font-size="14" lengthAdjust="spacing" textLength="67.9971" x="335.26" y="661.0895">derivedAt</text><text fill="#000000" font-family="sans-serif" font-size="14" lengthAdjust="spacing" textLength="59.4521" x="335.26" y="677.3864">entries[]</text><line style="stroke:#181818;stroke-width:0.5;" x1="330.26" x2="479.6155" y1="684.6881" y2="684.6881"/></g><!--class JourneyTemplateEntry--><g class="entity" data-qualified-name="JourneyTemplateEntry" data-source-line="42" id="ent0006"><rect fill="#F1F1F1" height="227.2656" rx="2.5" ry="2.5" style="stroke:#181818;stroke-width:0.5;" width="188.6045" x="310.64" y="794.1269"/><ellipse cx="325.64" cy="810.1269" fill="#ADD1B2" rx="11" ry="11" style="stroke:#181818;stroke-width:1;"/><path d="M328.6088,815.7675 Q328.0306,816.0644 327.39,816.205 Q326.7494,816.3613 326.0463,816.3613 Q323.5463,816.3613 322.2181,814.7206 Q320.9056,813.0644 320.9056,809.9394 Q320.9056,806.8144 322.2181,805.1581 Q323.5463,803.5019 326.0463,803.5019 Q326.7494,803.5019 327.39,803.6581 Q328.0463,803.8144 328.6088,804.1113 L328.6088,806.83 Q327.9838,806.2519 327.39,805.9863 Q326.7963,805.705 326.1713,805.705 Q324.8275,805.705 324.14,806.7831 Q323.4525,807.8456 323.4525,809.9394 Q323.4525,812.0331 324.14,813.1113 Q324.8275,814.1738 326.1713,814.1738 Q326.7963,814.1738 327.39,813.9081 Q327.9838,813.6269 328.6088,813.0488 L328.6088,815.7675 Z " fill="#000000"/><text fill="#000000" font-family="sans-serif" font-size="14" lengthAdjust="spacing" textLength="156.6045" x="339.64" y="814.9736">JourneyTemplateEntry</text><line style="stroke:#181818;stroke-width:0.5;" x1="311.64" x2="498.2445" y1="826.1269" y2="826.1269"/><text fill="#000000" font-family="sans-serif" font-size="14" lengthAdjust="spacing" textLength="12.7764" x="316.64" y="843.122">id</text><text fill="#000000" font-family="sans-serif" font-size="14" lengthAdjust="spacing" textLength="33.8584" x="316.64" y="859.4189">label</text><text fill="#000000" font-family="sans-serif" font-size="14" lengthAdjust="spacing" textLength="74.7578" x="316.64" y="875.7157">offsetDays</text><text fill="#000000" font-family="sans-serif" font-size="14" lengthAdjust="spacing" textLength="88.0537" x="316.64" y="892.0126">windowDays</text><text fill="#000000" font-family="sans-serif" font-size="14" lengthAdjust="spacing" textLength="37.5771" x="316.64" y="908.3095">order</text><text fill="#000000" font-family="sans-serif" font-size="14" lengthAdjust="spacing" textLength="83.6445" x="316.64" y="924.6064">templateId?</text><text fill="#000000" font-family="sans-serif" font-size="14" lengthAdjust="spacing" textLength="87.0625" x="316.64" y="940.9032">scoreAliases</text><text fill="#000000" font-family="sans-serif" font-size="14" lengthAdjust="spacing" textLength="116.2178" x="316.64" y="957.2001">scoreAliasLabels</text><text fill="#000000" font-family="sans-serif" font-size="14" lengthAdjust="spacing" textLength="138.2568" x="316.64" y="973.497">dashboardCategory</text><text fill="#000000" font-family="sans-serif" font-size="14" lengthAdjust="spacing" textLength="113.0596" x="316.64" y="989.7939">instructionText?</text><text fill="#000000" font-family="sans-serif" font-size="14" lengthAdjust="spacing" textLength="161.3965" x="316.64" y="1006.0907">instructionTemplateId?</text><line style="stroke:#181818;stroke-width:0.5;" x1="311.64" x2="498.2445" y1="1013.3925" y2="1013.3925"/></g><!--class InstructionTemplate--><g class="entity" data-qualified-name="InstructionTemplate" data-source-line="56" id="ent0007"><rect fill="#F1F1F1" height="145.7813" rx="2.5" ry="2.5" style="stroke:#181818;stroke-width:0.5;" width="173.1895" x="318.34" y="1098.3969"/><ellipse cx="333.34" cy="1114.3969" fill="#ADD1B2" rx="11" ry="11" style="stroke:#181818;stroke-width:1;"/><path d="M336.3088,1120.0375 Q335.7306,1120.3344 335.09,1120.475 Q334.4494,1120.6313 333.7463,1120.6313 Q331.2463,1120.6313 329.9181,1118.9906 Q328.6056,1117.3344 328.6056,1114.2094 Q328.6056,1111.0844 329.9181,1109.4281 Q331.2463,1107.7719 333.7463,1107.7719 Q334.4494,1107.7719 335.09,1107.9281 Q335.7463,1108.0844 336.3088,1108.3813 L336.3088,1111.1 Q335.6838,1110.5219 335.09,1110.2563 Q334.4963,1109.975 333.8713,1109.975 Q332.5275,1109.975 331.84,1111.0531 Q331.1525,1112.1156 331.1525,1114.2094 Q331.1525,1116.3031 331.84,1117.3813 Q332.5275,1118.4438 333.8713,1118.4438 Q334.4963,1118.4438 335.09,1118.1781 Q335.6838,1117.8969 336.3088,1117.3188 L336.3088,1120.0375 Z " fill="#000000"/><text fill="#000000" font-family="sans-serif" font-size="14" lengthAdjust="spacing" textLength="141.1895" x="347.34" y="1119.2436">InstructionTemplate</text><line style="stroke:#181818;stroke-width:0.5;" x1="319.34" x2="490.5295" y1="1130.3969" y2="1130.3969"/><text fill="#000000" font-family="sans-serif" font-size="14" lengthAdjust="spacing" textLength="12.7764" x="324.34" y="1147.392">id</text><text fill="#000000" font-family="sans-serif" font-size="14" lengthAdjust="spacing" textLength="39.7031" x="324.34" y="1163.6889">name</text><text fill="#000000" font-family="sans-serif" font-size="14" lengthAdjust="spacing" textLength="53.6006" x="324.34" y="1179.9857">content</text><text fill="#000000" font-family="sans-serif" font-size="14" lengthAdjust="spacing" textLength="41.1729" x="324.34" y="1196.2826">tags[]</text><text fill="#000000" font-family="sans-serif" font-size="14" lengthAdjust="spacing" textLength="68.7012" x="324.34" y="1212.5795">createdAt</text><text fill="#000000" font-family="sans-serif" font-size="14" lengthAdjust="spacing" textLength="73.2813" x="324.34" y="1228.8764">updatedAt</text><line style="stroke:#181818;stroke-width:0.5;" x1="319.34" x2="490.5295" y1="1236.1781" y2="1236.1781"/></g><!--class JourneyModification--><g class="entity" data-qualified-name="JourneyModification" data-source-line="65" id="ent0008"><rect fill="#F1F1F1" height="194.6719" rx="2.5" ry="2.5" style="stroke:#181818;stroke-width:0.5;" width="170.4277" x="723.73" y="522.4569"/><ellipse cx="738.73" cy="538.4569" fill="#ADD1B2" rx="11" ry="11" style="stroke:#181818;stroke-width:1;"/><path d="M741.6988,544.0975 Q741.1206,544.3944 740.48,544.535 Q739.8394,544.6913 739.1363,544.6913 Q736.6363,544.6913 735.3081,543.0506 Q733.9956,541.3944 733.9956,538.2694 Q733.9956,535.1444 735.3081,533.4881 Q736.6363,531.8319 739.1363,531.8319 Q739.8394,531.8319 740.48,531.9881 Q741.1363,532.1444 741.6988,532.4413 L741.6988,535.16 Q741.0738,534.5819 740.48,534.3163 Q739.8863,534.035 739.2613,534.035 Q737.9175,534.035 737.23,535.1131 Q736.5425,536.1756 736.5425,538.2694 Q736.5425,540.3631 737.23,541.4413 Q737.9175,542.5038 739.2613,542.5038 Q739.8863,542.5038 740.48,542.2381 Q741.0738,541.9569 741.6988,541.3788 L741.6988,544.0975 Z " fill="#000000"/><text fill="#000000" font-family="sans-serif" font-size="14" lengthAdjust="spacing" textLength="138.4277" x="752.73" y="543.3036">JourneyModification</text><line style="stroke:#181818;stroke-width:0.5;" x1="724.73" x2="893.1577" y1="554.4569" y2="554.4569"/><text fill="#000000" font-family="sans-serif" font-size="14" lengthAdjust="spacing" textLength="12.7764" x="729.73" y="571.452">id</text><text fill="#000000" font-family="sans-serif" font-size="14" lengthAdjust="spacing" textLength="31.2744" x="729.73" y="587.7489">type</text><text fill="#000000" font-family="sans-serif" font-size="14" lengthAdjust="spacing" textLength="106.668" x="729.73" y="604.0457">addedByUserId</text><text fill="#000000" font-family="sans-serif" font-size="14" lengthAdjust="spacing" textLength="47.6807" x="729.73" y="620.3426">reason</text><text fill="#000000" font-family="sans-serif" font-size="14" lengthAdjust="spacing" textLength="58.9189" x="729.73" y="636.6395">addedAt</text><text fill="#000000" font-family="sans-serif" font-size="14" lengthAdjust="spacing" textLength="146.8701" x="729.73" y="652.9364">previousTemplateId?</text><text fill="#000000" font-family="sans-serif" font-size="14" lengthAdjust="spacing" textLength="115.6436" x="729.73" y="669.2332">newTemplateId?</text><text fill="#000000" font-family="sans-serif" font-size="14" lengthAdjust="spacing" textLength="135.2559" x="729.73" y="685.5301">previousStartDate?</text><text fill="#000000" font-family="sans-serif" font-size="14" lengthAdjust="spacing" textLength="104.0293" x="729.73" y="701.827">newStartDate?</text><line style="stroke:#181818;stroke-width:0.5;" x1="724.73" x2="893.1577" y1="709.1288" y2="709.1288"/></g><!--class FormResponse--><g class="entity" data-qualified-name="FormResponse" data-source-line="77" id="ent0009"><rect fill="#F1F1F1" height="145.7813" rx="2.5" ry="2.5" style="stroke:#181818;stroke-width:0.5;" width="135.8789" x="7" y="546.9069"/><ellipse cx="22" cy="562.9069" fill="#ADD1B2" rx="11" ry="11" style="stroke:#181818;stroke-width:1;"/><path d="M24.9688,568.5475 Q24.3906,568.8444 23.75,568.985 Q23.1094,569.1413 22.4063,569.1413 Q19.9063,569.1413 18.5781,567.5006 Q17.2656,565.8444 17.2656,562.7194 Q17.2656,559.5944 18.5781,557.9381 Q19.9063,556.2819 22.4063,556.2819 Q23.1094,556.2819 23.75,556.4381 Q24.4063,556.5944 24.9688,556.8913 L24.9688,559.61 Q24.3438,559.0319 23.75,558.7663 Q23.1563,558.485 22.5313,558.485 Q21.1875,558.485 20.5,559.5631 Q19.8125,560.6256 19.8125,562.7194 Q19.8125,564.8131 20.5,565.8913 Q21.1875,566.9538 22.5313,566.9538 Q23.1563,566.9538 23.75,566.6881 Q24.3438,566.4069 24.9688,565.8288 L24.9688,568.5475 Z " fill="#000000"/><text fill="#000000" font-family="sans-serif" font-size="14" lengthAdjust="spacing" textLength="103.8789" x="36" y="567.7536">FormResponse</text><line style="stroke:#181818;stroke-width:0.5;" x1="8" x2="141.8789" y1="578.9069" y2="578.9069"/><text fill="#000000" font-family="sans-serif" font-size="14" lengthAdjust="spacing" textLength="12.7764" x="13" y="595.902">id</text><text fill="#000000" font-family="sans-serif" font-size="14" lengthAdjust="spacing" textLength="62.8359" x="13" y="612.1989">patientId</text><text fill="#000000" font-family="sans-serif" font-size="14" lengthAdjust="spacing" textLength="45.1992" x="13" y="628.4957">caseId</text><text fill="#000000" font-family="sans-serif" font-size="14" lengthAdjust="spacing" textLength="76.2139" x="13" y="644.7926">templateId</text><text fill="#000000" font-family="sans-serif" font-size="14" lengthAdjust="spacing" textLength="57.8594" x="13" y="661.0895">answers</text><text fill="#000000" font-family="sans-serif" font-size="14" lengthAdjust="spacing" textLength="45.2197" x="13" y="677.3864">scores</text><line style="stroke:#181818;stroke-width:0.5;" x1="8" x2="141.8789" y1="684.6881" y2="684.6881"/></g><!--class JournalDraft--><g class="entity" data-qualified-name="JournalDraft" data-source-line="86" id="ent0010"><rect fill="#F1F1F1" height="129.4844" rx="2.5" ry="2.5" style="stroke:#181818;stroke-width:0.5;" width="116.1982" x="177.84" y="555.0469"/><ellipse cx="192.84" cy="571.0469" fill="#ADD1B2" rx="11" ry="11" style="stroke:#181818;stroke-width:1;"/><path d="M195.8088,576.6875 Q195.2306,576.9844 194.59,577.125 Q193.9494,577.2813 193.2463,577.2813 Q190.7463,577.2813 189.4181,575.6406 Q188.1056,573.9844 188.1056,570.8594 Q188.1056,567.7344 189.4181,566.0781 Q190.7463,564.4219 193.2463,564.4219 Q193.9494,564.4219 194.59,564.5781 Q195.2463,564.7344 195.8088,565.0313 L195.8088,567.75 Q195.1838,567.1719 194.59,566.9063 Q193.9963,566.625 193.3713,566.625 Q192.0275,566.625 191.34,567.7031 Q190.6525,568.7656 190.6525,570.8594 Q190.6525,572.9531 191.34,574.0313 Q192.0275,575.0938 193.3713,575.0938 Q193.9963,575.0938 194.59,574.8281 Q195.1838,574.5469 195.8088,573.9688 L195.8088,576.6875 Z " fill="#000000"/><text fill="#000000" font-family="sans-serif" font-size="14" lengthAdjust="spacing" textLength="84.1982" x="206.84" y="575.8936">JournalDraft</text><line style="stroke:#181818;stroke-width:0.5;" x1="178.84" x2="293.0382" y1="587.0469" y2="587.0469"/><text fill="#000000" font-family="sans-serif" font-size="14" lengthAdjust="spacing" textLength="12.7764" x="183.84" y="604.042">id</text><text fill="#000000" font-family="sans-serif" font-size="14" lengthAdjust="spacing" textLength="45.1992" x="183.84" y="620.3389">caseId</text><text fill="#000000" font-family="sans-serif" font-size="14" lengthAdjust="spacing" textLength="76.2139" x="183.84" y="636.6357">templateId</text><text fill="#000000" font-family="sans-serif" font-size="14" lengthAdjust="spacing" textLength="53.6006" x="183.84" y="652.9326">content</text><text fill="#000000" font-family="sans-serif" font-size="14" lengthAdjust="spacing" textLength="43.0186" x="183.84" y="669.2295">status</text><line style="stroke:#181818;stroke-width:0.5;" x1="178.84" x2="293.0382" y1="676.5313" y2="676.5313"/></g><!--link Patient to Case--><g class="link" data-entity-1="ent0002" data-entity-2="ent0003" data-link-type="association" data-source-line="94" id="lnk11"><path codeLine="94" d="M294.39,190.2869 C285.85,214.4069 276.23,241.5569 267.29,266.7769" fill="none" id="Patient-Case" style="stroke:#181818;stroke-width:1;"/><text fill="#000000" font-family="sans-serif" font-size="13" lengthAdjust="spacing" textLength="22.9785" x="283.97" y="233.1538">has</text><text fill="#000000" font-family="sans-serif" font-size="13" lengthAdjust="spacing" textLength="8.271" x="283.5866" y="210.0422">1</text><text fill="#000000" font-family="sans-serif" font-size="13" lengthAdjust="spacing" textLength="6.5" x="263.5687" y="256.1196">*</text></g><!--link Patient to PatientJourney--><g class="link" data-entity-1="ent0002" data-entity-2="ent0004" data-link-type="association" data-source-line="95" id="lnk12"><path codeLine="95" d="M345.79,190.2869 C355.36,216.9869 366.27,247.4269 376.1,274.8269" fill="none" id="Patient-PatientJourney" style="stroke:#181818;stroke-width:1;"/><text fill="#000000" font-family="sans-serif" font-size="13" lengthAdjust="spacing" textLength="55.853" x="363.44" y="233.1538">journeys</text><text fill="#000000" font-family="sans-serif" font-size="13" lengthAdjust="spacing" textLength="8.271" x="339.8857" y="210.0422">1</text><text fill="#000000" font-family="sans-serif" font-size="13" lengthAdjust="spacing" textLength="6.5" x="367.3853" y="264.2563">*</text></g><!--link Case to FormResponse--><g class="link" data-entity-1="ent0003" data-entity-2="ent0009" data-link-type="association" data-source-line="96" id="lnk13"><path codeLine="96" d="M178.53,445.7869 C172.2,455.7669 165.9,465.8069 159.94,475.4569 C145.72,498.4669 130.55,523.7969 117.02,546.6669" fill="none" id="Case-FormResponse" style="stroke:#181818;stroke-width:1;"/><text fill="#000000" font-family="sans-serif" font-size="13" lengthAdjust="spacing" textLength="66.1045" x="160.94" y="488.5238">responses</text><text fill="#000000" font-family="sans-serif" font-size="13" lengthAdjust="spacing" textLength="8.271" x="165.6469" y="465.5897">1</text><text fill="#000000" font-family="sans-serif" font-size="13" lengthAdjust="spacing" textLength="6.5" x="114.8916" y="535.8032">*</text></g><!--link Case to JournalDraft--><g class="link" data-entity-1="ent0003" data-entity-2="ent0010" data-link-type="association" data-source-line="97" id="lnk14"><path codeLine="97" d="M235.94,445.8069 C235.94,481.5269 235.94,521.9369 235.94,554.7269" fill="none" id="Case-JournalDraft" style="stroke:#181818;stroke-width:1;"/><text fill="#000000" font-family="sans-serif" font-size="13" lengthAdjust="spacing" textLength="38.0098" x="236.94" y="488.5238">drafts</text><text fill="#000000" font-family="sans-serif" font-size="13" lengthAdjust="spacing" textLength="8.271" x="227.6317" y="465.6113">1</text><text fill="#000000" font-family="sans-serif" font-size="13" lengthAdjust="spacing" textLength="6.5" x="229.6393" y="543.8645">*</text></g><!--link JourneyTemplate to JourneyTemplateEntry--><g class="link" data-entity-1="ent0005" data-entity-2="ent0006" data-link-type="association" data-source-line="98" id="lnk15"><path codeLine="98" d="M404.94,692.9569 C404.94,723.4869 404.94,759.7769 404.94,793.7069" fill="none" id="JourneyTemplate-JourneyTemplateEntry" style="stroke:#181818;stroke-width:1;"/><text fill="#000000" font-family="sans-serif" font-size="13" lengthAdjust="spacing" textLength="45.062" x="405.94" y="760.1938">entries</text><text fill="#000000" font-family="sans-serif" font-size="13" lengthAdjust="spacing" textLength="8.271" x="396.5719" y="712.7179">1</text><text fill="#000000" font-family="sans-serif" font-size="13" lengthAdjust="spacing" textLength="6.5" x="398.7637" y="782.991">*</text></g><!--link JourneyTemplate to JourneyTemplate--><g class="link" data-entity-1="ent0005" data-entity-2="ent0005" data-link-type="association" data-source-line="99" id="lnk16"><path codeLine="99" d="M480.98,594.5869 C500.73,596.1369 515.62,604.5369 515.62,619.7969 C515.62,635.0469 500.73,643.4469 480.98,644.9969" fill="none" id="JourneyTemplate-JourneyTemplate" style="stroke:#181818;stroke-width:1;"/><text fill="#000000" font-family="sans-serif" font-size="13" lengthAdjust="spacing" textLength="178.458" x="521.62" y="624.3638">parentTemplateId (derives)</text><text fill="#000000" font-family="sans-serif" font-size="13" lengthAdjust="spacing" textLength="24.8066" x="488.5808" y="588.8484">0..1</text><text fill="#000000" font-family="sans-serif" font-size="13" lengthAdjust="spacing" textLength="6.5" x="488.5375" y="643.7571">*</text></g><!--link PatientJourney to JourneyTemplate--><g class="link" data-entity-1="ent0004" data-entity-2="ent0005" data-link-type="association" data-source-line="100" id="lnk17"><path codeLine="100" d="M404.94,437.5169 C404.94,472.3469 404.94,512.8369 404.94,546.6969" fill="none" id="PatientJourney-JourneyTemplate" style="stroke:#181818;stroke-width:1;"/><text fill="#000000" font-family="sans-serif" font-size="13" lengthAdjust="spacing" textLength="122.6938" x="405.94" y="488.5238">journeyTemplateId</text><text fill="#000000" font-family="sans-serif" font-size="13" lengthAdjust="spacing" textLength="6.5" x="398.6951" y="457.4941">*</text><text fill="#000000" font-family="sans-serif" font-size="13" lengthAdjust="spacing" textLength="8.271" x="396.5598" y="535.8362">1</text></g><!--link PatientJourney to JourneyModification--><g class="link" data-entity-1="ent0004" data-entity-2="ent0008" data-link-type="association" data-source-line="101" id="lnk18"><path codeLine="101" d="M477.59,390.7369 C540.51,421.1969 632.69,469.3869 705.94,522.4569 C711.79,526.6969 717.66,531.2369 723.46,535.9569" fill="none" id="PatientJourney-JourneyModification" style="stroke:#181818;stroke-width:1;"/><text fill="#000000" font-family="sans-serif" font-size="13" lengthAdjust="spacing" textLength="87.458" x="660.52" y="488.5238">modifications</text><text fill="#000000" font-family="sans-serif" font-size="13" lengthAdjust="spacing" textLength="8.271" x="485.1486" y="390.4653">1</text><text fill="#000000" font-family="sans-serif" font-size="13" lengthAdjust="spacing" textLength="6.5" x="709.3259" y="524.6099">*</text></g><!--link JourneyTemplateEntry to InstructionTemplate--><g class="link" data-entity-1="ent0006" data-entity-2="ent0007" data-link-type="association" data-source-line="102" id="lnk19"><path codeLine="102" d="M404.94,1021.5669 C404.94,1047.5569 404.94,1074.5169 404.94,1098.2169" fill="none" id="JourneyTemplateEntry-InstructionTemplate" style="stroke:#181818;stroke-width:1;"/><text fill="#000000" font-family="sans-serif" font-size="13" lengthAdjust="spacing" textLength="142.9683" x="405.94" y="1064.4638">instructionTemplateId</text><text fill="#000000" font-family="sans-serif" font-size="13" lengthAdjust="spacing" textLength="6.5" x="398.7637" y="1041.4093">*</text><text fill="#000000" font-family="sans-serif" font-size="13" lengthAdjust="spacing" textLength="24.8066" x="379.799" y="1087.3591">0..1</text></g><?plantuml-src VLHBRjim4Dth58HNIO44pLQR8B5J846J5AwBBeeiQ74iiw19OOQAAnG5UeYUi2Vfa9AiRxgnISxCc_Vc8w-z0R5q268blHIFJe4HVt__4NVhbJWZVIYCtcbGvqcI6KaaFaclmNhnCn52A_vHcWeZgoTv0BuLWEIiD4_bOGiOpDB3y-vMezy7ipJt8OYX_7C15jIDJtwrs4j9q04NTQReJrxwalYGCLpkiEAZHvtdd2wuEgEpwgj4gsqU7XXDvuo-TYQmKY2LqHQwL8sC1rUYXMe-wVVQk04k0gTjYQ3dKa6V50A1n6pFrIiD-uMtWrDSEAQhdQLlBrtcXo5gbzhM5LH06UeYn4K-o7G651IWVes54u9jgE5_-7ViqTDdv1OC_xlTZe25L87hKLlbZit5eOgDywUSrq5hnZDoOpHtY0RNZm6GOgDfltKIrR9haRRaiSo2bWtyyDVZfox3YVxzr3ufKUQiP-M1fCo3U7v2OC-wA6MXclEuA8-zfdIelYe2gbGAr6trXG1ZdHcHOW-Y8I8N2A_QbRGPrCR2SVZGkdrkXwNnwjrFp3uuFAo12fwIDsO_uvh7W-zFWRHqh8S_ze96MgLPeTprrdGUfQjaCyoCqcxuuceXBYx4ujsYNinKx2NDMKUxbBQBGqcCwtaEnAPXR-9nwZZGa0eL_YaPhyuuO3prQRiVqyZtbvTl1dFSUEt4MRrrT9wCr8Ru07Cr1pFzWeoZ9oG68veEFoF9hCgMGIrfRd_I-QrB_W40?></g></svg>