<?plantuml 1.2026.2?><svg xmlns="http://www.w3.org/2000/svg" xmlns:xlink="http://www.w3.org/1999/xlink" contentStyleType="text/css" data-diagram-type="CLASS" height="816px" preserveAspectRatio="none" style="width:1059px;height:816px;background:#FFFFFF;" version="1.1" viewBox="0 0 1059 816" width="1059px" zoomAndPan="magnify"><title>Core Data Model - Overview</title><defs/><g><g class="title" data-source-line="10"><text fill="#000000" font-family="sans-serif" font-size="14" font-weight="bold" lengthAdjust="spacing" textLength="220.4521" x="412.2739" y="22.9951">Core Data Model - Overview</text></g><!--cluster Patient Core--><g class="cluster" data-qualified-name="Patient Core" data-source-line="21" id="ent0002"><path d="M8.5,43.2969 L108.0195,43.2969 A3.75,3.75 0 0 1 110.5195,45.7969 L117.5195,65.5938 L171.5,65.5938 A2.5,2.5 0 0 1 174,68.0938 L174,367.0669 A2.5,2.5 0 0 1 171.5,369.5669 L8.5,369.5669 A2.5,2.5 0 0 1 6,367.0669 L6,45.7969 A2.5,2.5 0 0 1 8.5,43.2969" fill="#E3F2FD" style="stroke:#000000;stroke-width:1.5;"/><line style="stroke:#000000;stroke-width:1.5;" x1="6" x2="117.5195" y1="65.5938" y2="65.5938"/><text fill="#000000" font-family="sans-serif" font-size="14" font-weight="bold" lengthAdjust="spacing" textLength="98.5195" x="10" y="58.292">Patient Core</text></g><!--cluster Runtime--><g class="cluster" data-qualified-name="Runtime" data-source-line="27" id="ent0006"><path d="M200.5,278.5669 L267.7881,278.5669 A3.75,3.75 0 0 1 270.2881,281.0669 L277.2881,300.8638 L529.5,300.8638 A2.5,2.5 0 0 1 532,303.3638 L532,587.0669 A2.5,2.5 0 0 1 529.5,589.5669 L200.5,589.5669 A2.5,2.5 0 0 1 198,587.0669 L198,281.0669 A2.5,2.5 0 0 1 200.5,278.5669" fill="#E8F5E9" style="stroke:#000000;stroke-width:1.5;"/><line style="stroke:#000000;stroke-width:1.5;" x1="198" x2="277.2881" y1="300.8638" y2="300.8638"/><text fill="#000000" font-family="sans-serif" font-size="14" font-weight="bold" lengthAdjust="spacing" textLength="66.2881" x="202" y="293.562">Runtime</text></g><!--cluster Templates--><g class="cluster" data-qualified-name="Templates" data-source-line="34" id="ent0011"><path d="M558.5,498.5669 L641.9209,498.5669 A3.75,3.75 0 0 1 644.4209,501.0669 L651.4209,520.8638 L1049.5,520.8638 A2.5,2.5 0 0 1 1052,523.3638 L1052,807.0669 A2.5,2.5 0 0 1 1049.5,809.5669 L558.5,809.5669 A2.5,2.5 0 0 1 556,807.0669 L556,501.0669 A2.5,2.5 0 0 1 558.5,498.5669" fill="#FFF8E1" style="stroke:#000000;stroke-width:1.5;"/><line style="stroke:#000000;stroke-width:1.5;" x1="556" x2="651.4209" y1="520.8638" y2="520.8638"/><text fill="#000000" font-family="sans-serif" font-size="14" font-weight="bold" lengthAdjust="spacing" textLength="82.4209" x="560" y="513.562">Templates</text></g><!--cluster Research--><g class="cluster" data-qualified-name="Research" data-source-line="41" id="ent0016"><path d="M558.5,168.5669 L632.2207,168.5669 A3.75,3.75 0 0 1 634.7207,171.0669 L641.7207,190.8637 L733.5,190.8637 A2.5,2.5 0 0 1 736,193.3637 L736,367.0669 A2.5,2.5 0 0 1 733.5,369.5669 L558.5,369.5669 A2.5,2.5 0 0 1 556,367.0669 L556,171.0669 A2.5,2.5 0 0 1 558.5,168.5669" fill="#F3E5F5" style="stroke:#000000;stroke-width:1.5;"/><line style="stroke:#000000;stroke-width:1.5;" x1="556" x2="641.7207" y1="190.8637" y2="190.8637"/><text fill="#000000" font-family="sans-serif" font-size="14" font-weight="bold" lengthAdjust="spacing" textLength="72.7207" x="560" y="183.562">Research</text></g><!--class Patient--><g class="entity" data-qualified-name="Patient Core.Patient" data-source-line="22" id="ent0003"><rect fill="#FFFFFF" height="40" rx="2.5" ry="2.5" style="stroke:#181818;stroke-width:0.5;" width="81.376" x="76.31" y="78.2969"/><ellipse cx="91.31" cy="94.2969" fill="#ADD1B2" rx="11" ry="11" style="stroke:#181818;stroke-width:1;"/><path d="M94.2788,99.9375 Q93.7006,100.2344 93.06,100.375 Q92.4194,100.5313 91.7163,100.5313 Q89.2163,100.5313 87.8881,98.8906 Q86.5756,97.2344 86.5756,94.1094 Q86.5756,90.9844 87.8881,89.3281 Q89.2163,87.6719 91.7163,87.6719 Q92.4194,87.6719 93.06,87.8281 Q93.7163,87.9844 94.2788,88.2813 L94.2788,91 Q93.6538,90.4219 93.06,90.1563 Q92.4663,89.875 91.8413,89.875 Q90.4975,89.875 89.81,90.9531 Q89.1225,92.0156 89.1225,94.1094 Q89.1225,96.2031 89.81,97.2813 Q90.4975,98.3438 91.8413,98.3438 Q92.4663,98.3438 93.06,98.0781 Q93.6538,97.7969 94.2788,97.2188 L94.2788,99.9375 Z " fill="#000000"/><text fill="#000000" font-family="sans-serif" font-size="14" lengthAdjust="spacing" textLength="49.376" x="105.31" y="99.1436">Patient</text><line style="stroke:#181818;stroke-width:0.5;" x1="77.31" x2="156.686" y1="110.2969" y2="110.2969"/></g><!--class Case--><g class="entity" data-qualified-name="Patient Core.Case" data-source-line="23" id="ent0004"><rect fill="#FFFFFF" height="40" rx="2.5" ry="2.5" style="stroke:#181818;stroke-width:0.5;" width="66.2617" x="91.87" y="203.5669"/><ellipse cx="106.87" cy="219.5669" fill="#ADD1B2" rx="11" ry="11" style="stroke:#181818;stroke-width:1;"/><path d="M109.8388,225.2075 Q109.2606,225.5044 108.62,225.645 Q107.9794,225.8012 107.2763,225.8012 Q104.7763,225.8012 103.4481,224.1606 Q102.1356,222.5044 102.1356,219.3794 Q102.1356,216.2544 103.4481,214.5981 Q104.7763,212.9419 107.2763,212.9419 Q107.9794,212.9419 108.62,213.0981 Q109.2763,213.2544 109.8388,213.5512 L109.8388,216.27 Q109.2138,215.6919 108.62,215.4262 Q108.0263,215.145 107.4013,215.145 Q106.0575,215.145 105.37,216.2231 Q104.6825,217.2856 104.6825,219.3794 Q104.6825,221.4731 105.37,222.5512 Q106.0575,223.6137 107.4013,223.6137 Q108.0263,223.6137 108.62,223.3481 Q109.2138,223.0669 109.8388,222.4887 L109.8388,225.2075 Z " fill="#000000"/><text fill="#000000" font-family="sans-serif" font-size="14" lengthAdjust="spacing" textLength="34.2617" x="120.87" y="224.4136">Case</text><line style="stroke:#181818;stroke-width:0.5;" x1="92.87" x2="157.1317" y1="235.5669" y2="235.5669"/></g><!--class EpisodeOfCare--><g class="entity" data-qualified-name="Patient Core.EpisodeOfCare" data-source-line="24" id="ent0005"><rect fill="#FFFFFF" height="40" rx="2.5" ry="2.5" style="stroke:#181818;stroke-width:0.5;" width="135.6533" x="22.17" y="313.5669"/><ellipse cx="37.17" cy="329.5669" fill="#ADD1B2" rx="11" ry="11" style="stroke:#181818;stroke-width:1;"/><path d="M40.1388,335.2075 Q39.5606,335.5044 38.92,335.645 Q38.2794,335.8013 37.5763,335.8013 Q35.0763,335.8013 33.7481,334.1606 Q32.4356,332.5044 32.4356,329.3794 Q32.4356,326.2544 33.7481,324.5981 Q35.0763,322.9419 37.5763,322.9419 Q38.2794,322.9419 38.92,323.0981 Q39.5763,323.2544 40.1388,323.5513 L40.1388,326.27 Q39.5138,325.6919 38.92,325.4263 Q38.3263,325.145 37.7013,325.145 Q36.3575,325.145 35.67,326.2231 Q34.9825,327.2856 34.9825,329.3794 Q34.9825,331.4731 35.67,332.5513 Q36.3575,333.6138 37.7013,333.6138 Q38.3263,333.6138 38.92,333.3481 Q39.5138,333.0669 40.1388,332.4888 L40.1388,335.2075 Z " fill="#000000"/><text fill="#000000" font-family="sans-serif" font-size="14" lengthAdjust="spacing" textLength="103.6533" x="51.17" y="334.4136">EpisodeOfCare</text><line style="stroke:#181818;stroke-width:0.5;" x1="23.17" x2="156.8233" y1="345.5669" y2="345.5669"/></g><!--class PatientJourney--><g class="entity" data-qualified-name="Runtime.PatientJourney" data-source-line="28" id="ent0007"><rect fill="#FFFFFF" height="40" rx="2.5" ry="2.5" style="stroke:#181818;stroke-width:0.5;" width="134.4707" x="214.76" y="423.5669"/><ellipse cx="229.76" cy="439.5669" fill="#ADD1B2" rx="11" ry="11" style="stroke:#181818;stroke-width:1;"/><path d="M232.7288,445.2075 Q232.1506,445.5044 231.51,445.645 Q230.8694,445.8013 230.1663,445.8013 Q227.6663,445.8013 226.3381,444.1606 Q225.0256,442.5044 225.0256,439.3794 Q225.0256,436.2544 226.3381,434.5981 Q227.6663,432.9419 230.1663,432.9419 Q230.8694,432.9419 231.51,433.0981 Q232.1663,433.2544 232.7288,433.5513 L232.7288,436.27 Q232.1038,435.6919 231.51,435.4263 Q230.9163,435.145 230.2913,435.145 Q228.9475,435.145 228.26,436.2231 Q227.5725,437.2856 227.5725,439.3794 Q227.5725,441.4731 228.26,442.5513 Q228.9475,443.6138 230.2913,443.6138 Q230.9163,443.6138 231.51,443.3481 Q232.1038,443.0669 232.7288,442.4888 L232.7288,445.2075 Z " fill="#000000"/><text fill="#000000" font-family="sans-serif" font-size="14" lengthAdjust="spacing" textLength="102.4707" x="243.76" y="444.4136">PatientJourney</text><line style="stroke:#181818;stroke-width:0.5;" x1="215.76" x2="348.2307" y1="455.5669" y2="455.5669"/></g><!--class Instruction--><g class="entity" data-qualified-name="Runtime.Instruction" data-source-line="29" id="ent0008"><rect fill="#FFFFFF" height="40" rx="2.5" ry="2.5" style="stroke:#181818;stroke-width:0.5;" width="106.9287" x="228.54" y="533.5669"/><ellipse cx="243.54" cy="549.5669" fill="#ADD1B2" rx="11" ry="11" style="stroke:#181818;stroke-width:1;"/><path d="M246.5088,555.2075 Q245.9306,555.5044 245.29,555.645 Q244.6494,555.8013 243.9463,555.8013 Q241.4463,555.8013 240.1181,554.1606 Q238.8056,552.5044 238.8056,549.3794 Q238.8056,546.2544 240.1181,544.5981 Q241.4463,542.9419 243.9463,542.9419 Q244.6494,542.9419 245.29,543.0981 Q245.9463,543.2544 246.5088,543.5513 L246.5088,546.27 Q245.8838,545.6919 245.29,545.4263 Q244.6963,545.145 244.0713,545.145 Q242.7275,545.145 242.04,546.2231 Q241.3525,547.2856 241.3525,549.3794 Q241.3525,551.4731 242.04,552.5513 Q242.7275,553.6138 244.0713,553.6138 Q244.6963,553.6138 245.29,553.3481 Q245.8838,553.0669 246.5088,552.4888 L246.5088,555.2075 Z " fill="#000000"/><text fill="#000000" font-family="sans-serif" font-size="14" lengthAdjust="spacing" textLength="74.9287" x="257.54" y="554.4136">Instruction</text><line style="stroke:#181818;stroke-width:0.5;" x1="229.54" x2="334.4687" y1="565.5669" y2="565.5669"/></g><!--class FormResponse--><g class="entity" data-qualified-name="Runtime.FormResponse" data-source-line="30" id="ent0009"><rect fill="#FFFFFF" height="40" rx="2.5" ry="2.5" style="stroke:#181818;stroke-width:0.5;" width="135.8789" x="214.06" y="313.5669"/><ellipse cx="229.06" cy="329.5669" fill="#ADD1B2" rx="11" ry="11" style="stroke:#181818;stroke-width:1;"/><path d="M232.0288,335.2075 Q231.4506,335.5044 230.81,335.645 Q230.1694,335.8013 229.4663,335.8013 Q226.9663,335.8013 225.6381,334.1606 Q224.3256,332.5044 224.3256,329.3794 Q224.3256,326.2544 225.6381,324.5981 Q226.9663,322.9419 229.4663,322.9419 Q230.1694,322.9419 230.81,323.0981 Q231.4663,323.2544 232.0288,323.5513 L232.0288,326.27 Q231.4038,325.6919 230.81,325.4263 Q230.2163,325.145 229.5913,325.145 Q228.2475,325.145 227.56,326.2231 Q226.8725,327.2856 226.8725,329.3794 Q226.8725,331.4731 227.56,332.5513 Q228.2475,333.6138 229.5913,333.6138 Q230.2163,333.6138 230.81,333.3481 Q231.4038,333.0669 232.0288,332.4888 L232.0288,335.2075 Z " fill="#000000"/><text fill="#000000" font-family="sans-serif" font-size="14" lengthAdjust="spacing" textLength="103.8789" x="243.06" y="334.4136">FormResponse</text><line style="stroke:#181818;stroke-width:0.5;" x1="215.06" x2="348.9389" y1="345.5669" y2="345.5669"/></g><!--class JournalDraft--><g class="entity" data-qualified-name="Runtime.JournalDraft" data-source-line="31" id="ent0010"><rect fill="#FFFFFF" height="40" rx="2.5" ry="2.5" style="stroke:#181818;stroke-width:0.5;" width="116.1982" x="399.9" y="313.5669"/><ellipse cx="414.9" cy="329.5669" fill="#ADD1B2" rx="11" ry="11" style="stroke:#181818;stroke-width:1;"/><path d="M417.8688,335.2075 Q417.2906,335.5044 416.65,335.645 Q416.0094,335.8013 415.3063,335.8013 Q412.8063,335.8013 411.4781,334.1606 Q410.1656,332.5044 410.1656,329.3794 Q410.1656,326.2544 411.4781,324.5981 Q412.8063,322.9419 415.3063,322.9419 Q416.0094,322.9419 416.65,323.0981 Q417.3063,323.2544 417.8688,323.5513 L417.8688,326.27 Q417.2438,325.6919 416.65,325.4263 Q416.0563,325.145 415.4313,325.145 Q414.0875,325.145 413.4,326.2231 Q412.7125,327.2856 412.7125,329.3794 Q412.7125,331.4731 413.4,332.5513 Q414.0875,333.6138 415.4313,333.6138 Q416.0563,333.6138 416.65,333.3481 Q417.2438,333.0669 417.8688,332.4888 L417.8688,335.2075 Z " fill="#000000"/><text fill="#000000" font-family="sans-serif" font-size="14" lengthAdjust="spacing" textLength="84.1982" x="428.9" y="334.4136">JournalDraft</text><line style="stroke:#181818;stroke-width:0.5;" x1="400.9" x2="515.0982" y1="345.5669" y2="345.5669"/></g><!--class JourneyTemplate--><g class="entity" data-qualified-name="Templates.JourneyTemplate" data-source-line="35" id="ent0012"><rect fill="#FFFFFF" height="40" rx="2.5" ry="2.5" style="stroke:#181818;stroke-width:0.5;" width="151.3555" x="590.32" y="533.5669"/><ellipse cx="605.32" cy="549.5669" fill="#ADD1B2" rx="11" ry="11" style="stroke:#181818;stroke-width:1;"/><path d="M608.2888,555.2075 Q607.7106,555.5044 607.07,555.645 Q606.4294,555.8013 605.7263,555.8013 Q603.2263,555.8013 601.8981,554.1606 Q600.5856,552.5044 600.5856,549.3794 Q600.5856,546.2544 601.8981,544.5981 Q603.2263,542.9419 605.7263,542.9419 Q606.4294,542.9419 607.07,543.0981 Q607.7263,543.2544 608.2888,543.5513 L608.2888,546.27 Q607.6638,545.6919 607.07,545.4263 Q606.4763,545.145 605.8513,545.145 Q604.5075,545.145 603.82,546.2231 Q603.1325,547.2856 603.1325,549.3794 Q603.1325,551.4731 603.82,552.5513 Q604.5075,553.6138 605.8513,553.6138 Q606.4763,553.6138 607.07,553.3481 Q607.6638,553.0669 608.2888,552.4888 L608.2888,555.2075 Z " fill="#000000"/><text fill="#000000" font-family="sans-serif" font-size="14" lengthAdjust="spacing" textLength="119.3555" x="619.32" y="554.4136">JourneyTemplate</text><line style="stroke:#181818;stroke-width:0.5;" x1="591.32" x2="740.6755" y1="565.5669" y2="565.5669"/></g><!--class JourneyTemplateEntry--><g class="entity" data-qualified-name="Templates.JourneyTemplateEntry" data-source-line="36" id="ent0013"><rect fill="#FFFFFF" height="40" rx="2.5" ry="2.5" style="stroke:#181818;stroke-width:0.5;" width="188.6045" x="571.7" y="643.5669"/><ellipse cx="586.7" cy="659.5669" fill="#ADD1B2" rx="11" ry="11" style="stroke:#181818;stroke-width:1;"/><path d="M589.6688,665.2075 Q589.0906,665.5044 588.45,665.645 Q587.8094,665.8013 587.1063,665.8013 Q584.6063,665.8013 583.2781,664.1606 Q581.9656,662.5044 581.9656,659.3794 Q581.9656,656.2544 583.2781,654.5981 Q584.6063,652.9419 587.1063,652.9419 Q587.8094,652.9419 588.45,653.0981 Q589.1063,653.2544 589.6688,653.5513 L589.6688,656.27 Q589.0438,655.6919 588.45,655.4263 Q587.8563,655.145 587.2313,655.145 Q585.8875,655.145 585.2,656.2231 Q584.5125,657.2856 584.5125,659.3794 Q584.5125,661.4731 585.2,662.5513 Q585.8875,663.6138 587.2313,663.6138 Q587.8563,663.6138 588.45,663.3481 Q589.0438,663.0669 589.6688,662.4888 L589.6688,665.2075 Z " fill="#000000"/><text fill="#000000" font-family="sans-serif" font-size="14" lengthAdjust="spacing" textLength="156.6045" x="600.7" y="664.4136">JourneyTemplateEntry</text><line style="stroke:#181818;stroke-width:0.5;" x1="572.7" x2="759.3045" y1="675.5669" y2="675.5669"/></g><!--class JourneyTemplateInstruction--><g class="entity" data-qualified-name="Templates.JourneyTemplateInstruction" data-source-line="37" id="ent0014"><rect fill="#FFFFFF" height="40" rx="2.5" ry="2.5" style="stroke:#181818;stroke-width:0.5;" width="226.2842" x="809.86" y="643.5669"/><ellipse cx="824.86" cy="659.5669" fill="#ADD1B2" rx="11" ry="11" style="stroke:#181818;stroke-width:1;"/><path d="M827.8288,665.2075 Q827.2506,665.5044 826.61,665.645 Q825.9694,665.8013 825.2663,665.8013 Q822.7663,665.8013 821.4381,664.1606 Q820.1256,662.5044 820.1256,659.3794 Q820.1256,656.2544 821.4381,654.5981 Q822.7663,652.9419 825.2663,652.9419 Q825.9694,652.9419 826.61,653.0981 Q827.2663,653.2544 827.8288,653.5513 L827.8288,656.27 Q827.2038,655.6919 826.61,655.4263 Q826.0163,655.145 825.3913,655.145 Q824.0475,655.145 823.36,656.2231 Q822.6725,657.2856 822.6725,659.3794 Q822.6725,661.4731 823.36,662.5513 Q824.0475,663.6138 825.3913,663.6138 Q826.0163,663.6138 826.61,663.3481 Q827.2038,663.0669 827.8288,662.4888 L827.8288,665.2075 Z " fill="#000000"/><text fill="#000000" font-family="sans-serif" font-size="14" lengthAdjust="spacing" textLength="194.2842" x="838.86" y="664.4136">JourneyTemplateInstruction</text><line style="stroke:#181818;stroke-width:0.5;" x1="810.86" x2="1035.1442" y1="675.5669" y2="675.5669"/></g><!--class InstructionTemplate--><g class="entity" data-qualified-name="Templates.InstructionTemplate" data-source-line="38" id="ent0015"><rect fill="#FFFFFF" height="40" rx="2.5" ry="2.5" style="stroke:#181818;stroke-width:0.5;" width="173.1895" x="836.41" y="753.5669"/><ellipse cx="851.41" cy="769.5669" fill="#ADD1B2" rx="11" ry="11" style="stroke:#181818;stroke-width:1;"/><path d="M854.3788,775.2075 Q853.8006,775.5044 853.16,775.645 Q852.5194,775.8013 851.8163,775.8013 Q849.3163,775.8013 847.9881,774.1606 Q846.6756,772.5044 846.6756,769.3794 Q846.6756,766.2544 847.9881,764.5981 Q849.3163,762.9419 851.8163,762.9419 Q852.5194,762.9419 853.16,763.0981 Q853.8163,763.2544 854.3788,763.5513 L854.3788,766.27 Q853.7538,765.6919 853.16,765.4263 Q852.5663,765.145 851.9413,765.145 Q850.5975,765.145 849.91,766.2231 Q849.2225,767.2856 849.2225,769.3794 Q849.2225,771.4731 849.91,772.5513 Q850.5975,773.6138 851.9413,773.6138 Q852.5663,773.6138 853.16,773.3481 Q853.7538,773.0669 854.3788,772.4888 L854.3788,775.2075 Z " fill="#000000"/><text fill="#000000" font-family="sans-serif" font-size="14" lengthAdjust="spacing" textLength="141.1895" x="865.41" y="774.4136">InstructionTemplate</text><line style="stroke:#181818;stroke-width:0.5;" x1="837.41" x2="1008.5995" y1="785.5669" y2="785.5669"/></g><!--class ResearchModule--><g class="entity" data-qualified-name="Research.ResearchModule" data-source-line="42" id="ent0017"><rect fill="#FFFFFF" height="40" rx="2.5" ry="2.5" style="stroke:#181818;stroke-width:0.5;" width="148.0605" x="571.97" y="313.5669"/><ellipse cx="586.97" cy="329.5669" fill="#ADD1B2" rx="11" ry="11" style="stroke:#181818;stroke-width:1;"/><path d="M589.9388,335.2075 Q589.3606,335.5044 588.72,335.645 Q588.0794,335.8013 587.3763,335.8013 Q584.8763,335.8013 583.5481,334.1606 Q582.2356,332.5044 582.2356,329.3794 Q582.2356,326.2544 583.5481,324.5981 Q584.8763,322.9419 587.3763,322.9419 Q588.0794,322.9419 588.72,323.0981 Q589.3763,323.2544 589.9388,323.5513 L589.9388,326.27 Q589.3138,325.6919 588.72,325.4263 Q588.1263,325.145 587.5013,325.145 Q586.1575,325.145 585.47,326.2231 Q584.7825,327.2856 584.7825,329.3794 Q584.7825,331.4731 585.47,332.5513 Q586.1575,333.6138 587.5013,333.6138 Q588.1263,333.6138 588.72,333.3481 Q589.3138,333.0669 589.9388,332.4888 L589.9388,335.2075 Z " fill="#000000"/><text fill="#000000" font-family="sans-serif" font-size="14" lengthAdjust="spacing" textLength="116.0605" x="600.97" y="334.4136">ResearchModule</text><line style="stroke:#181818;stroke-width:0.5;" x1="572.97" x2="719.0305" y1="345.5669" y2="345.5669"/></g><!--class Consent--><g class="entity" data-qualified-name="Research.Consent" data-source-line="43" id="ent0018"><rect fill="#FFFFFF" height="40" rx="2.5" ry="2.5" style="stroke:#181818;stroke-width:0.5;" width="89.4834" x="586.26" y="203.5669"/><ellipse cx="601.26" cy="219.5669" fill="#ADD1B2" rx="11" ry="11" style="stroke:#181818;stroke-width:1;"/><path d="M604.2288,225.2075 Q603.6506,225.5044 603.01,225.645 Q602.3694,225.8012 601.6663,225.8012 Q599.1663,225.8012 597.8381,224.1606 Q596.5256,222.5044 596.5256,219.3794 Q596.5256,216.2544 597.8381,214.5981 Q599.1663,212.9419 601.6663,212.9419 Q602.3694,212.9419 603.01,213.0981 Q603.6663,213.2544 604.2288,213.5512 L604.2288,216.27 Q603.6038,215.6919 603.01,215.4262 Q602.4163,215.145 601.7913,215.145 Q600.4475,215.145 599.76,216.2231 Q599.0725,217.2856 599.0725,219.3794 Q599.0725,221.4731 599.76,222.5512 Q600.4475,223.6137 601.7913,223.6137 Q602.4163,223.6137 603.01,223.3481 Q603.6038,223.0669 604.2288,222.4887 L604.2288,225.2075 Z " fill="#000000"/><text fill="#000000" font-family="sans-serif" font-size="14" lengthAdjust="spacing" textLength="57.4834" x="615.26" y="224.4136">Consent</text><line style="stroke:#181818;stroke-width:0.5;" x1="587.26" x2="674.7434" y1="235.5669" y2="235.5669"/></g><g class="entity" data-qualified-name="GMN33" data-source-line="67" id="ent0034"><path d="M208.04,63.0369 L208.04,87.5669 L158.12,91.5669 L208.04,95.5669 L208.04,133.5681 A0,0 0 0 0 208.04,133.5681 L555.9506,133.5681 A0,0 0 0 0 555.9506,133.5681 L555.9506,73.0369 L545.9506,63.0369 L208.04,63.0369 A0,0 0 0 0 208.04,63.0369" fill="#FEFFDD" style="stroke:#181818;stroke-width:0.5;"/><path d="M545.9506,63.0369 L545.9506,73.0369 L555.9506,73.0369 L545.9506,63.0369" fill="#FEFFDD" style="stroke:#181818;stroke-width:0.5;"/><text fill="#000000" font-family="sans-serif" font-size="13" lengthAdjust="spacing" textLength="131.6313" x="214.04" y="80.1038">Simplified overview.</text><text fill="#000000" font-family="sans-serif" font-size="13" lengthAdjust="spacing" textLength="326.9106" x="214.04" y="95.2366">Detailed fields and edge cases are documented in</text><text fill="#000000" font-family="sans-serif" font-size="13" lengthAdjust="spacing" textLength="211.8213" x="214.04" y="110.3694">core-data-model-reference.puml</text><text fill="#000000" font-family="sans-serif" font-size="13" lengthAdjust="spacing" textLength="214.2334" x="214.04" y="125.5022">and docs/design/data-model.md.</text></g><!--link Patient to Case--><g class="link" data-entity-1="ent0003" data-entity-2="ent0004" data-link-type="association" data-source-line="46" id="lnk19"><path codeLine="46" d="M124.78,118.7069 C124.78,141.9969 124.78,179.8769 124.78,203.1669" fill="none" id="Patient-Case" style="stroke:#181818;stroke-width:1;"/><text fill="#000000" font-family="sans-serif" font-size="13" lengthAdjust="spacing" textLength="8.271" x="117.8328" y="138.2924">1</text><text fill="#000000" font-family="sans-serif" font-size="13" lengthAdjust="spacing" textLength="6.5" x="117.9444" y="192.4056">*</text></g><!--link Patient to EpisodeOfCare--><g class="link" data-entity-1="ent0003" data-entity-2="ent0005" data-link-type="association" data-source-line="47" id="lnk20"><path codeLine="47" d="M84.09,118.7669 C84.09,163.3769 84.09,268.9069 84.09,313.3169" fill="none" id="Patient-EpisodeOfCare" style="stroke:#181818;stroke-width:1;"/><text fill="#000000" font-family="sans-serif" font-size="13" lengthAdjust="spacing" textLength="8.271" x="66.2074" y="138.3686">1</text><text fill="#000000" font-family="sans-serif" font-size="13" lengthAdjust="spacing" textLength="6.5" x="75.6553" y="302.5978">*</text></g><!--link Patient to Consent--><g class="link" data-entity-1="ent0003" data-entity-2="ent0018" data-link-type="association" data-source-line="48" id="lnk21"><path codeLine="48" d="M158.1,104.5669 C171.54,104.5669 183.09,104.5669 183.09,104.5669 C183.09,104.5669 183.09,213.5669 183.09,213.5669 C183.09,213.5669 472.42,213.5669 586,213.5669" fill="none" id="Patient-Consent" style="stroke:#181818;stroke-width:1;"/><text fill="#000000" font-family="sans-serif" font-size="13" lengthAdjust="spacing" textLength="8.271" x="165.5925" y="101.441">1</text><text fill="#000000" font-family="sans-serif" font-size="13" lengthAdjust="spacing" textLength="6.5" x="571.7927" y="207.6374">*</text></g><!--link Case to EpisodeOfCare--><g class="link" data-entity-1="ent0004" data-entity-2="ent0005" data-link-type="association" data-source-line="50" id="lnk22"><path codeLine="50" d="M124.85,243.9969 C124.85,263.7569 124.85,293.5269 124.85,313.2469" fill="none" id="Case-EpisodeOfCare" style="stroke:#181818;stroke-width:1;"/><text fill="#000000" font-family="sans-serif" font-size="13" lengthAdjust="spacing" textLength="24.8066" x="97.6928" y="263.5878">0..1</text><text fill="#000000" font-family="sans-serif" font-size="13" lengthAdjust="spacing" textLength="8.271" x="125.5656" y="302.5081">1</text></g><!--link Case to FormResponse--><g class="link" data-entity-1="ent0004" data-entity-2="ent0009" data-link-type="association" data-source-line="51" id="lnk23"><path codeLine="51" d="M158.3,233.5669 C204.38,233.5669 282,233.5669 282,233.5669 C282,233.5669 282,284.1069 282,313.3269" fill="none" id="Case-FormResponse" style="stroke:#181818;stroke-width:1;"/><text fill="#000000" font-family="sans-serif" font-size="13" lengthAdjust="spacing" textLength="8.271" x="166.0209" y="249.2568">1</text><text fill="#000000" font-family="sans-serif" font-size="13" lengthAdjust="spacing" textLength="6.5" x="275.2267" y="302.6106">*</text></g><!--link Case to JournalDraft--><g class="link" data-entity-1="ent0004" data-entity-2="ent0010" data-link-type="association" data-source-line="52" id="lnk24"><path codeLine="52" d="M158.45,223.5669 C242.9,223.5669 458,223.5669 458,223.5669 C458,223.5669 458,281.3269 458,313.1369" fill="none" id="Case-JournalDraft" style="stroke:#181818;stroke-width:1;"/><text fill="#000000" font-family="sans-serif" font-size="13" lengthAdjust="spacing" textLength="8.271" x="166.2018" y="219.1006">1</text><text fill="#000000" font-family="sans-serif" font-size="13" lengthAdjust="spacing" textLength="6.5" x="451.2268" y="302.3671">*</text></g><!--link EpisodeOfCare to PatientJourney--><g class="link" data-entity-1="ent0005" data-entity-2="ent0007" data-link-type="association" data-source-line="54" id="lnk25"><path codeLine="54" d="M90,353.9969 C90,385.8069 90,443.5669 90,443.5669 C90,443.5669 159.03,443.5669 214.31,443.5669" fill="none" id="EpisodeOfCare-PatientJourney" style="stroke:#181818;stroke-width:1;"/><text fill="#000000" font-family="sans-serif" font-size="13" lengthAdjust="spacing" textLength="8.271" x="80.9623" y="373.5878">1</text><text fill="#000000" font-family="sans-serif" font-size="13" lengthAdjust="spacing" textLength="6.5" x="200.1659" y="439.7743">*</text></g><!--link PatientJourney to Instruction--><g class="link" data-entity-1="ent0007" data-entity-2="ent0008" data-link-type="association" data-source-line="55" id="lnk26"><path codeLine="55" d="M282,463.9969 C282,483.7569 282,513.5269 282,533.2469" fill="none" id="PatientJourney-Instruction" style="stroke:#181818;stroke-width:1;"/><text fill="#000000" font-family="sans-serif" font-size="13" lengthAdjust="spacing" textLength="8.271" x="272.9627" y="483.5878">1</text><text fill="#000000" font-family="sans-serif" font-size="13" lengthAdjust="spacing" textLength="6.5" x="275.2253" y="522.5081">*</text></g><!--link PatientJourney to JourneyTemplate--><g class="link" data-entity-1="ent0007" data-entity-2="ent0012" data-link-type="association" data-source-line="57" id="lnk27"><path codeLine="57" d="M342.35,463.9969 C342.35,495.8069 342.35,553.5669 342.35,553.5669 C342.35,553.5669 494.46,553.5669 590.12,553.5669" fill="none" id="PatientJourney-JourneyTemplate" style="stroke:#181818;stroke-width:1;"/><text fill="#000000" font-family="sans-serif" font-size="13" lengthAdjust="spacing" textLength="6.5" x="351.8312" y="483.5878">*</text><text fill="#000000" font-family="sans-serif" font-size="13" lengthAdjust="spacing" textLength="8.271" x="573.8966" y="549.8672">1</text></g><!--link FormResponse to PatientJourney--><g class="link" data-entity-1="ent0009" data-entity-2="ent0007" data-link-type="association" data-source-line="58" id="lnk28"><path codeLine="58" d="M282,353.9969 C282,373.7569 282,403.5269 282,423.2469" fill="none" id="FormResponse-PatientJourney" style="stroke:#181818;stroke-width:1;"/><text fill="#000000" font-family="sans-serif" font-size="13" lengthAdjust="spacing" textLength="6.5" x="275.2611" y="373.5878">*</text><text fill="#000000" font-family="sans-serif" font-size="13" lengthAdjust="spacing" textLength="24.8066" x="254.7397" y="412.5081">0..1</text></g><!--link JourneyTemplate to JourneyTemplateEntry--><g class="link" data-entity-1="ent0012" data-entity-2="ent0013" data-link-type="association" data-source-line="60" id="lnk29"><path codeLine="60" d="M666,573.9969 C666,593.7569 666,623.5269 666,643.2469" fill="none" id="JourneyTemplate-JourneyTemplateEntry" style="stroke:#181818;stroke-width:1;"/><text fill="#000000" font-family="sans-serif" font-size="13" lengthAdjust="spacing" textLength="8.271" x="656.962" y="593.5878">1</text><text fill="#000000" font-family="sans-serif" font-size="13" lengthAdjust="spacing" textLength="6.5" x="659.2259" y="632.5081">*</text></g><!--link JourneyTemplate to JourneyTemplateInstruction--><g class="link" data-entity-1="ent0012" data-entity-2="ent0014" data-link-type="association" data-source-line="61" id="lnk30"><path codeLine="61" d="M742.07,553.5669 C817.85,553.5669 923,553.5669 923,553.5669 C923,553.5669 923,611.3269 923,643.1369" fill="none" id="JourneyTemplate-JourneyTemplateInstruction" style="stroke:#181818;stroke-width:1;"/><text fill="#000000" font-family="sans-serif" font-size="13" lengthAdjust="spacing" textLength="8.271" x="749.7148" y="549.9253">1</text><text fill="#000000" font-family="sans-serif" font-size="13" lengthAdjust="spacing" textLength="6.5" x="916.226" y="632.3671">*</text></g><!--link JourneyTemplateInstruction to InstructionTemplate--><g class="link" data-entity-1="ent0014" data-entity-2="ent0015" data-link-type="association" data-source-line="62" id="lnk31"><path codeLine="62" d="M923,683.9969 C923,703.7569 923,733.5269 923,753.2469" fill="none" id="JourneyTemplateInstruction-InstructionTemplate" style="stroke:#181818;stroke-width:1;"/><text fill="#000000" font-family="sans-serif" font-size="13" lengthAdjust="spacing" textLength="6.5" x="916.2604" y="703.5878">*</text><text fill="#000000" font-family="sans-serif" font-size="13" lengthAdjust="spacing" textLength="8.271" x="913.9118" y="742.5081">1</text></g><!--link Consent to ResearchModule--><g class="link" data-entity-1="ent0018" data-entity-2="ent0017" data-link-type="association" data-source-line="64" id="lnk32"><path codeLine="64" d="M631,243.9969 C631,263.7569 631,293.5269 631,313.2469" fill="none" id="Consent-ResearchModule" style="stroke:#181818;stroke-width:1;"/><text fill="#000000" font-family="sans-serif" font-size="13" lengthAdjust="spacing" textLength="6.5" x="624.2605" y="263.5878">*</text><text fill="#000000" font-family="sans-serif" font-size="13" lengthAdjust="spacing" textLength="8.271" x="617.6943" y="302.5081">1</text></g><?plantuml-src ZLJRRjim37tNLn3UGu42Tf8LmRe-Bh615HXQjFi1pQ9ZBROaI7A3OjY_ZuuTHtRYOe_YuUMGX-8DF3VMQ8SFiD4MOSizXnzQO0KnFBsXVPDuO3VmgXkR8-W2l6ry-K0c06Vp1JTouV8IQ-uMpdEFYNTNGSEzHENdu9oxsT3VL5pX-nnSQ5kx3sDvrSBCIr_XHtqohmru3R-qzxe68ItcNch5t5ugmosleP8A_RkXKLXVwW1m9HVw8DKE2buv392yuivzu_b-PtMZn4PNsiAXb3vqKiJ5eO7rCZ1QhlQjySkIbL8Wr4WrXUiUpgD5tNAXrWobvpk4wBaRyx7B23wbTzddR0j_67GqeCU7zuRcFZnI8ntnU2est2Bx6wHzQPINzJ7ZVRPElrvcVEn46ipVbQDLwSPticMar0iwerLGzB5JQ6jvuKSrVs9jAjeeHrMpBBjFLq7Lljp9PywUAc_Vvy1h50FRa7iq25A9sxniETsbwsmTS3fXj5TDTQQqQTjLnzvEwaIh2E8Oejke4-2AVQp5jS0-BMipGBHCaXvRJOCxXtFaI8OfE9A3ZHA5RXFLny_GCHpoXTljm7YgPyXnyEjwd9Hcaz2BPgRRyF_-8VTvA6pZslgmNgdGRx8gJ6aYOkMkzEsDFN_ILqb9P25HWEwlL4BcBNekAp8IKWa7N0b0GVlPdb5wabP2vqrDISX97jUR3a8iwEp5TNlsOei5tG-LOsAQkYA7DWS5kGKT8hbJYxDlKek48S4jI_OF?></g></svg>