<?plantuml 1.2026.1?><svg xmlns="http://www.w3.org/2000/svg" xmlns:xlink="http://www.w3.org/1999/xlink" contentStyleType="text/css" data-diagram-type="ACTIVITY" height="444px" preserveAspectRatio="none" style="width:439px;height:444px;background:#FFFFFF;" version="1.1" viewBox="0 0 439 444" width="439px" zoomAndPan="magnify"><title>Dashboard / Journey Computation &#8212; Activity</title><defs/><g><g class="title" data-source-line="1"><text fill="#000000" font-family="sans-serif" font-size="14" font-weight="bold" lengthAdjust="spacing" textLength="351.2031" x="42.7891" y="32.9951">Dashboard / Journey Computation &#8212; Activity</text></g><ellipse cx="219.8906" cy="57.2969" fill="#222222" rx="10" ry="10" style="stroke:#222222;stroke-width:1;"/><rect fill="#F1F1F1" height="33.9688" rx="12.5" ry="12.5" style="stroke:#181818;stroke-width:0.5;" width="170.3105" x="134.7354" y="87.2969"/><text fill="#000000" font-family="sans-serif" font-size="12" lengthAdjust="spacing" textLength="150.3105" x="144.7354" y="108.4355">Load patients &amp; journeys</text><rect fill="#F1F1F1" height="33.9688" rx="12.5" ry="12.5" style="stroke:#181818;stroke-width:0.5;" width="338.2168" x="50.7822" y="141.2656"/><text fill="#000000" font-family="sans-serif" font-size="12" lengthAdjust="spacing" textLength="318.2168" x="60.7822" y="162.4043">For each patient: select latest ACTIVE PatientJourney</text><rect fill="#F1F1F1" height="33.9688" rx="12.5" ry="12.5" style="stroke:#181818;stroke-width:0.5;" width="314.791" x="62.4951" y="195.2344"/><text fill="#000000" font-family="sans-serif" font-size="12" lengthAdjust="spacing" textLength="294.791" x="72.4951" y="216.373">Apply JourneyTemplate entries (offsets/windows)</text><rect fill="#F1F1F1" height="33.9688" rx="12.5" ry="12.5" style="stroke:#181818;stroke-width:0.5;" width="285.8867" x="76.9473" y="249.2031"/><text fill="#000000" font-family="sans-serif" font-size="12" lengthAdjust="spacing" textLength="265.8867" x="86.9473" y="270.3418">Compute effective steps (getEffectiveSteps)</text><rect fill="#F1F1F1" height="33.9688" rx="12.5" ry="12.5" style="stroke:#181818;stroke-width:0.5;" width="251.8438" x="93.9688" y="303.1719"/><text fill="#000000" font-family="sans-serif" font-size="12" lengthAdjust="spacing" textLength="231.8438" x="103.9688" y="324.3105">Map effective steps to queue/category</text><rect fill="#F1F1F1" height="33.9688" rx="12.5" ry="12.5" style="stroke:#181818;stroke-width:0.5;" width="417.7813" x="11" y="357.1406"/><text fill="#000000" font-family="sans-serif" font-size="12" lengthAdjust="spacing" textLength="397.7813" x="21" y="378.2793">Build dashboard Case rows with computed category and nextStep</text><ellipse cx="219.8906" cy="422.1094" fill="none" rx="11" ry="11" style="stroke:#222222;stroke-width:1;"/><ellipse cx="219.8906" cy="422.1094" fill="#222222" rx="6" ry="6" style="stroke:#222222;stroke-width:1;"/><line style="stroke:#181818;stroke-width:1;" x1="219.8906" x2="219.8906" y1="67.2969" y2="87.2969"/><polygon fill="#181818" points="215.8906,77.2969,219.8906,87.2969,223.8906,77.2969,219.8906,81.2969" style="stroke:#181818;stroke-width:1;"/><line style="stroke:#181818;stroke-width:1;" x1="219.8906" x2="219.8906" y1="121.2656" y2="141.2656"/><polygon fill="#181818" points="215.8906,131.2656,219.8906,141.2656,223.8906,131.2656,219.8906,135.2656" style="stroke:#181818;stroke-width:1;"/><line style="stroke:#181818;stroke-width:1;" x1="219.8906" x2="219.8906" y1="175.2344" y2="195.2344"/><polygon fill="#181818" points="215.8906,185.2344,219.8906,195.2344,223.8906,185.2344,219.8906,189.2344" style="stroke:#181818;stroke-width:1;"/><line style="stroke:#181818;stroke-width:1;" x1="219.8906" x2="219.8906" y1="229.2031" y2="249.2031"/><polygon fill="#181818" points="215.8906,239.2031,219.8906,249.2031,223.8906,239.2031,219.8906,243.2031" style="stroke:#181818;stroke-width:1;"/><line style="stroke:#181818;stroke-width:1;" x1="219.8906" x2="219.8906" y1="283.1719" y2="303.1719"/><polygon fill="#181818" points="215.8906,293.1719,219.8906,303.1719,223.8906,293.1719,219.8906,297.1719" style="stroke:#181818;stroke-width:1;"/><line style="stroke:#181818;stroke-width:1;" x1="219.8906" x2="219.8906" y1="337.1406" y2="357.1406"/><polygon fill="#181818" points="215.8906,347.1406,219.8906,357.1406,223.8906,347.1406,219.8906,351.1406" style="stroke:#181818;stroke-width:1;"/><line style="stroke:#181818;stroke-width:1;" x1="219.8906" x2="219.8906" y1="391.1094" y2="411.1094"/><polygon fill="#181818" points="215.8906,401.1094,219.8906,411.1094,223.8906,401.1094,219.8906,405.1094" style="stroke:#181818;stroke-width:1;"/><?plantuml-src PP0nJiGm44NxdE9N2AhqsIg4HGA1XCIAtiIJZLTUZ_5C2Eau12Va9DWAeQ6T_xxUrwXJJxWnChwoIHOrxdbAWHPqV8wJ6dKSyFtvXRPNz-vqgIfHaxHg7jXOn0nGKC45JcjHTbLpomba-d6B6mXvwXNUA8cYxGvtBtiyhUclCVVQ6FsoBJZGEHOU6KcE19Sy348gzUo2vLckScDTcPbXe3AG84eniqVI_NPxBgT2FvhuZrJ6sqGJrNrs7JcL7TUJynRsxokT4KBAIinEH_Ihr6Ahm0IBG1zQJBly88xL3m00?></g></svg>