<?plantuml 1.2026.2?><svg xmlns="http://www.w3.org/2000/svg" xmlns:xlink="http://www.w3.org/1999/xlink" contentStyleType="text/css" data-diagram-type="ACTIVITY" height="883px" preserveAspectRatio="none" style="width:468px;height:883px;background:#FFFFFF;" version="1.1" viewBox="0 0 468 883" width="468px" zoomAndPan="magnify"><title>Dashboard Due-Step Computation &#8212; Activity Diagram</title><defs/><g><g class="title" data-source-line="1"><text fill="#000000" font-family="sans-serif" font-size="14" font-weight="bold" lengthAdjust="spacing" textLength="425.8174" x="20" y="32.9951">Dashboard Due-Step Computation &#8212; Activity Diagram</text></g><ellipse cx="234.4087" cy="57.2969" fill="#222222" rx="10" ry="10" style="stroke:#222222;stroke-width:1;"/><rect fill="#F1F1F1" height="33.9688" rx="12.5" ry="12.5" style="stroke:#181818;stroke-width:0.5;" width="170.3105" x="149.2534" y="87.2969"/><text fill="#000000" font-family="sans-serif" font-size="12" lengthAdjust="spacing" textLength="150.3105" x="159.2534" y="108.4355">Load patients &amp; journeys</text><rect fill="#F1F1F1" height="61.9063" rx="12.5" ry="12.5" style="stroke:#181818;stroke-width:0.5;" width="230.9668" x="118.9253" y="141.2656"/><text fill="#000000" font-family="sans-serif" font-size="12" lengthAdjust="spacing" textLength="145.5996" x="128.9253" y="162.4043">For each patient: collect</text><text fill="#000000" font-family="sans-serif" font-size="12" lengthAdjust="spacing" textLength="162.0996" x="128.9253" y="176.373">ALL PatientJourney records</text><text fill="#000000" font-family="sans-serif" font-size="12" lengthAdjust="spacing" textLength="210.9668" x="128.9253" y="190.3418">(may be multiple parallel journeys)</text><rect fill="#F1F1F1" height="61.9063" rx="12.5" ry="12.5" style="stroke:#181818;stroke-width:0.5;" width="257.4219" x="105.6978" y="223.1719"/><text fill="#000000" font-family="sans-serif" font-size="12" lengthAdjust="spacing" textLength="230.0742" x="115.6978" y="244.3105">For each ACTIVE/SUSPENDED journey:</text><text fill="#000000" font-family="sans-serif" font-size="12" lengthAdjust="spacing" textLength="103.8398" x="115.6978" y="258.2793">Apply pause shift</text><text fill="#000000" font-family="sans-serif" font-size="12" lengthAdjust="spacing" textLength="237.4219" x="115.6978" y="272.248">(totalPausedDays + currentPauseDays)</text><rect fill="#F1F1F1" height="47.9375" rx="12.5" ry="12.5" style="stroke:#181818;stroke-width:0.5;" width="211.291" x="128.7632" y="305.0781"/><text fill="#000000" font-family="sans-serif" font-size="12" lengthAdjust="spacing" textLength="191.291" x="138.7632" y="326.2168">Apply modifications per journey</text><text fill="#000000" font-family="sans-serif" font-size="12" lengthAdjust="spacing" textLength="166.7227" x="138.7632" y="340.1855">(ADD_STEP, REMOVE_STEP)</text><rect fill="#F1F1F1" height="61.9063" rx="12.5" ry="12.5" style="stroke:#181818;stroke-width:0.5;" width="190.2676" x="139.2749" y="373.0156"/><text fill="#000000" font-family="sans-serif" font-size="12" lengthAdjust="spacing" textLength="151.6934" x="149.2749" y="394.1543">Overlay research module</text><text fill="#000000" font-family="sans-serif" font-size="12" lengthAdjust="spacing" textLength="170.2676" x="149.2749" y="408.123">entries if researchModuleIds</text><text fill="#000000" font-family="sans-serif" font-size="12" lengthAdjust="spacing" textLength="69.3633" x="149.2749" y="422.0918">are present</text><rect fill="#F1F1F1" height="47.9375" rx="12.5" ry="12.5" style="stroke:#181818;stroke-width:0.5;" width="239.7617" x="114.5278" y="454.9219"/><text fill="#000000" font-family="sans-serif" font-size="12" lengthAdjust="spacing" textLength="219.7617" x="124.5278" y="476.0605">Compute effective steps per journey</text><text fill="#000000" font-family="sans-serif" font-size="12" lengthAdjust="spacing" textLength="115.1777" x="124.5278" y="490.0293">(getEffectiveSteps)</text><rect fill="#F1F1F1" height="61.9063" rx="12.5" ry="12.5" style="stroke:#181818;stroke-width:0.5;" width="187.7363" x="140.5405" y="522.8594"/><text fill="#000000" font-family="sans-serif" font-size="12" lengthAdjust="spacing" textLength="167.7363" x="150.5405" y="543.998">Resolve patient instructions</text><text fill="#000000" font-family="sans-serif" font-size="12" lengthAdjust="spacing" textLength="155.5195" x="150.5405" y="557.9668">from persisted Instruction</text><text fill="#000000" font-family="sans-serif" font-size="12" lengthAdjust="spacing" textLength="45.0586" x="150.5405" y="571.9355">records</text><rect fill="#F1F1F1" height="75.875" rx="12.5" ry="12.5" style="stroke:#181818;stroke-width:0.5;" width="213.6582" x="127.5796" y="604.7656"/><text fill="#000000" font-family="sans-serif" font-size="12" lengthAdjust="spacing" textLength="187.6465" x="137.5796" y="625.9043">Merge &amp; deduplicate due steps</text><text fill="#000000" font-family="sans-serif" font-size="12" lengthAdjust="spacing" textLength="161.0918" x="137.5796" y="639.873">across parallel journeys by</text><text fill="#000000" font-family="sans-serif" font-size="12" lengthAdjust="spacing" textLength="65.3262" x="137.5796" y="653.8418">templateId</text><text fill="#000000" font-family="sans-serif" font-size="12" lengthAdjust="spacing" textLength="193.6582" x="137.5796" y="667.8105">(getMergedDueStepsForPatient)</text><rect fill="#F1F1F1" height="47.9375" rx="12.5" ry="12.5" style="stroke:#181818;stroke-width:0.5;" width="147.6465" x="160.5854" y="700.6406"/><text fill="#000000" font-family="sans-serif" font-size="12" lengthAdjust="spacing" textLength="127.6465" x="170.5854" y="721.7793">Map merged steps to</text><text fill="#000000" font-family="sans-serif" font-size="12" lengthAdjust="spacing" textLength="94.6699" x="170.5854" y="735.748">queue/category</text><rect fill="#F1F1F1" height="61.9063" rx="12.5" ry="12.5" style="stroke:#181818;stroke-width:0.5;" width="182.9668" x="142.9253" y="768.5781"/><text fill="#000000" font-family="sans-serif" font-size="12" lengthAdjust="spacing" textLength="162.9668" x="152.9253" y="789.7168">Build dashboard Case rows</text><text fill="#000000" font-family="sans-serif" font-size="12" lengthAdjust="spacing" textLength="146.6777" x="152.9253" y="803.6855">with computed category</text><text fill="#000000" font-family="sans-serif" font-size="12" lengthAdjust="spacing" textLength="80.5078" x="152.9253" y="817.6543">and nextStep</text><ellipse cx="234.4087" cy="861.4844" fill="none" rx="11" ry="11" style="stroke:#222222;stroke-width:1;"/><ellipse cx="234.4087" cy="861.4844" fill="#222222" rx="6" ry="6" style="stroke:#222222;stroke-width:1;"/><line style="stroke:#181818;stroke-width:1;" x1="234.4087" x2="234.4087" y1="67.2969" y2="87.2969"/><polygon fill="#181818" points="230.4087,77.2969,234.4087,87.2969,238.4087,77.2969,234.4087,81.2969" style="stroke:#181818;stroke-width:1;"/><line style="stroke:#181818;stroke-width:1;" x1="234.4087" x2="234.4087" y1="121.2656" y2="141.2656"/><polygon fill="#181818" points="230.4087,131.2656,234.4087,141.2656,238.4087,131.2656,234.4087,135.2656" style="stroke:#181818;stroke-width:1;"/><line style="stroke:#181818;stroke-width:1;" x1="234.4087" x2="234.4087" y1="203.1719" y2="223.1719"/><polygon fill="#181818" points="230.4087,213.1719,234.4087,223.1719,238.4087,213.1719,234.4087,217.1719" style="stroke:#181818;stroke-width:1;"/><line style="stroke:#181818;stroke-width:1;" x1="234.4087" x2="234.4087" y1="285.0781" y2="305.0781"/><polygon fill="#181818" points="230.4087,295.0781,234.4087,305.0781,238.4087,295.0781,234.4087,299.0781" style="stroke:#181818;stroke-width:1;"/><line style="stroke:#181818;stroke-width:1;" x1="234.4087" x2="234.4087" y1="353.0156" y2="373.0156"/><polygon fill="#181818" points="230.4087,363.0156,234.4087,373.0156,238.4087,363.0156,234.4087,367.0156" style="stroke:#181818;stroke-width:1;"/><line style="stroke:#181818;stroke-width:1;" x1="234.4087" x2="234.4087" y1="434.9219" y2="454.9219"/><polygon fill="#181818" points="230.4087,444.9219,234.4087,454.9219,238.4087,444.9219,234.4087,448.9219" style="stroke:#181818;stroke-width:1;"/><line style="stroke:#181818;stroke-width:1;" x1="234.4087" x2="234.4087" y1="502.8594" y2="522.8594"/><polygon fill="#181818" points="230.4087,512.8594,234.4087,522.8594,238.4087,512.8594,234.4087,516.8594" style="stroke:#181818;stroke-width:1;"/><line style="stroke:#181818;stroke-width:1;" x1="234.4087" x2="234.4087" y1="584.7656" y2="604.7656"/><polygon fill="#181818" points="230.4087,594.7656,234.4087,604.7656,238.4087,594.7656,234.4087,598.7656" style="stroke:#181818;stroke-width:1;"/><line style="stroke:#181818;stroke-width:1;" x1="234.4087" x2="234.4087" y1="680.6406" y2="700.6406"/><polygon fill="#181818" points="230.4087,690.6406,234.4087,700.6406,238.4087,690.6406,234.4087,694.6406" style="stroke:#181818;stroke-width:1;"/><line style="stroke:#181818;stroke-width:1;" x1="234.4087" x2="234.4087" y1="748.5781" y2="768.5781"/><polygon fill="#181818" points="230.4087,758.5781,234.4087,768.5781,238.4087,758.5781,234.4087,762.5781" style="stroke:#181818;stroke-width:1;"/><line style="stroke:#181818;stroke-width:1;" x1="234.4087" x2="234.4087" y1="830.4844" y2="850.4844"/><polygon fill="#181818" points="230.4087,840.4844,234.4087,850.4844,238.4087,840.4844,234.4087,844.4844" style="stroke:#181818;stroke-width:1;"/><?plantuml-src PLB1ZXCn3BtdAtn2HO3stZqDdK4gQjbgk-mLfOcd3SfCWkDqcHiVmHVo9JXffo0uniz-UNxFxDWZj3gT3a6JXJRZkprZX5KOOcRDBepmwyTFQ0oxi-C9MgUFf0Ub4cjYjTm4RI5A8uwSu1Ly3Pb6dDAzMdu81AZDQOQNO8BtQ5WrcmtiBiMFbtuWD85iKej1Jt106B9d5qLSrAHboj-ON_zDtQoUri_TtVxpVjTzQhjsxbgg9aO_oNHE2EdaUbOB3gpzhbHigwS4Ry1a8X5HQwLKk2-3Gx2kTwOwa20YpSngqRJjb_rJjtiBZztsuRchZpBvS4RokkoIK9Ee4vBiKSaFv321ws_GjY9hMLYJx5ZA8ml5nNS4x7iibejsYUCV0KVaRiPBMbNs8wRWppYR3MvCJDbK_QgdC1IEv8JEmleFfgx62yCMwOWIeKMReo-x8zXyLQ2qeP3I_t70OLACG_JIlhPLN2MoSajLd6HrpRh8tEe8GyMlct5Gtp9cl2l_7GDDqlG-Es_1tivofIL42Yz9lJW-oHbLaopC8qgF5aRypkN3UpdD4DLl?></g></svg>