<?plantuml 1.2026.1?><svg xmlns="http://www.w3.org/2000/svg" xmlns:xlink="http://www.w3.org/1999/xlink" contentStyleType="text/css" data-diagram-type="DESCRIPTION" height="1069px" preserveAspectRatio="none" style="width:1031px;height:1069px;background:#FFFFFF;" version="1.1" viewBox="0 0 1031 1069" width="1031px" zoomAndPan="magnify"><title>High-level Architecture &#8212; Duk Demo</title><defs/><g><g class="title" data-source-line="1"><text fill="#000000" font-family="sans-serif" font-size="14" font-weight="bold" lengthAdjust="spacing" textLength="288.0938" x="364.4981" y="22.9951">High-level Architecture &#8212; Duk Demo</text></g><!--cluster Client--><g class="cluster" data-qualified-name="Client" data-source-line="5" id="ent0002"><path d="M8.5,658.9969 L55.5264,658.9969 A3.75,3.75 0 0 1 58.0264,661.4969 L65.0264,681.2938 L134.43,681.2938 A2.5,2.5 0 0 1 136.93,683.7938 L136.93,753.4969 A2.5,2.5 0 0 1 134.43,755.9969 L8.5,755.9969 A2.5,2.5 0 0 1 6,753.4969 L6,661.4969 A2.5,2.5 0 0 1 8.5,658.9969" fill="none" style="stroke:#000000;stroke-width:1.5;"/><line style="stroke:#000000;stroke-width:1.5;" x1="6" x2="65.0264" y1="681.2938" y2="681.2938"/><text fill="#000000" font-family="sans-serif" font-size="14" font-weight="bold" lengthAdjust="spacing" textLength="46.0264" x="10" y="673.992">Client</text></g><!--cluster API Client--><g class="cluster" data-qualified-name="API Client" data-source-line="9" id="ent0004"><path d="M167.43,658.9969 L245.6351,658.9969 A3.75,3.75 0 0 1 248.1351,661.4969 L255.1351,681.2938 L324.42,681.2938 A2.5,2.5 0 0 1 326.92,683.7938 L326.92,753.4969 A2.5,2.5 0 0 1 324.42,755.9969 L167.43,755.9969 A2.5,2.5 0 0 1 164.93,753.4969 L164.93,661.4969 A2.5,2.5 0 0 1 167.43,658.9969" fill="none" style="stroke:#000000;stroke-width:1.5;"/><line style="stroke:#000000;stroke-width:1.5;" x1="164.93" x2="255.1351" y1="681.2938" y2="681.2938"/><text fill="#000000" font-family="sans-serif" font-size="14" font-weight="bold" lengthAdjust="spacing" textLength="77.2051" x="168.93" y="673.992">API Client</text></g><!--cluster Service Layer--><g class="cluster" data-qualified-name="Service Layer" data-source-line="13" id="ent0006"><path d="M357.42,339.9969 L465.3888,339.9969 A3.75,3.75 0 0 1 467.8888,342.4969 L474.8888,362.2938 L854.81,362.2938 A2.5,2.5 0 0 1 857.31,364.7938 L857.31,939.4969 A2.5,2.5 0 0 1 854.81,941.9969 L357.42,941.9969 A2.5,2.5 0 0 1 354.92,939.4969 L354.92,342.4969 A2.5,2.5 0 0 1 357.42,339.9969" fill="none" style="stroke:#000000;stroke-width:1.5;"/><line style="stroke:#000000;stroke-width:1.5;" x1="354.92" x2="474.8888" y1="362.2938" y2="362.2938"/><text fill="#000000" font-family="sans-serif" font-size="14" font-weight="bold" lengthAdjust="spacing" textLength="106.9688" x="358.92" y="354.992">Service Layer</text></g><!--cluster Modules--><g class="cluster" data-qualified-name="Service Layer.Modules" data-source-line="16" id="ent0008"><path d="M562.49,382.9969 L629.655,382.9969 A3.75,3.75 0 0 1 632.155,385.4969 L639.155,405.2938 L830.81,405.2938 A2.5,2.5 0 0 1 833.31,407.7938 L833.31,915.4969 A2.5,2.5 0 0 1 830.81,917.9969 L562.49,917.9969 A2.5,2.5 0 0 1 559.99,915.4969 L559.99,385.4969 A2.5,2.5 0 0 1 562.49,382.9969" fill="none" style="stroke:#000000;stroke-width:1.5;"/><line style="stroke:#000000;stroke-width:1.5;" x1="559.99" x2="639.155" y1="405.2938" y2="405.2938"/><text fill="#000000" font-family="sans-serif" font-size="14" font-weight="bold" lengthAdjust="spacing" textLength="66.165" x="563.99" y="397.992">Modules</text></g><!--cluster Persistence--><g class="cluster" data-qualified-name="Persistence" data-source-line="26" id="ent0015"><path d="M604.79,965.9969 L697.8632,965.9969 A3.75,3.75 0 0 1 700.3632,968.4969 L707.3632,988.2938 L1021.59,988.2938 A2.5,2.5 0 0 1 1024.09,990.7938 L1024.09,1060.4969 A2.5,2.5 0 0 1 1021.59,1062.9969 L604.79,1062.9969 A2.5,2.5 0 0 1 602.29,1060.4969 L602.29,968.4969 A2.5,2.5 0 0 1 604.79,965.9969" fill="none" style="stroke:#000000;stroke-width:1.5;"/><line style="stroke:#000000;stroke-width:1.5;" x1="602.29" x2="707.3632" y1="988.2938" y2="988.2938"/><text fill="#000000" font-family="sans-serif" font-size="14" font-weight="bold" lengthAdjust="spacing" textLength="92.0732" x="606.29" y="980.992">Persistence</text></g><!--entity React UI--><g class="entity" data-qualified-name="Client.React UI" data-source-line="6" id="ent0003"><rect fill="#F1F1F1" height="46.2969" rx="2.5" ry="2.5" style="stroke:#181818;stroke-width:0.5;" width="98.9326" x="22" y="693.8469"/><rect fill="#F1F1F1" height="10" style="stroke:#181818;stroke-width:0.5;" width="15" x="100.9326" y="698.8469"/><rect fill="#F1F1F1" height="2" style="stroke:#181818;stroke-width:0.5;" width="4" x="98.9326" y="700.8469"/><rect fill="#F1F1F1" height="2" style="stroke:#181818;stroke-width:0.5;" width="4" x="98.9326" y="704.8469"/><text fill="#000000" font-family="sans-serif" font-size="14" lengthAdjust="spacing" textLength="58.9326" x="37" y="726.842">React UI</text></g><!--entity src/api/client--><g class="entity" data-qualified-name="API Client.src.api.client" data-source-line="10" id="ent0005"><rect fill="#F1F1F1" height="46.2969" rx="2.5" ry="2.5" style="stroke:#181818;stroke-width:0.5;" width="129.9883" x="180.93" y="693.8469"/><rect fill="#F1F1F1" height="10" style="stroke:#181818;stroke-width:0.5;" width="15" x="290.9183" y="698.8469"/><rect fill="#F1F1F1" height="2" style="stroke:#181818;stroke-width:0.5;" width="4" x="288.9183" y="700.8469"/><rect fill="#F1F1F1" height="2" style="stroke:#181818;stroke-width:0.5;" width="4" x="288.9183" y="704.8469"/><text fill="#000000" font-family="sans-serif" font-size="14" lengthAdjust="spacing" textLength="89.9883" x="195.93" y="726.842">src/api/client</text></g><!--entity src/api/service--><g class="entity" data-qualified-name="Service Layer.src.api.service" data-source-line="14" id="ent0007"><rect fill="#F1F1F1" height="46.2969" rx="2.5" ry="2.5" style="stroke:#181818;stroke-width:0.5;" width="141.6846" x="370.92" y="693.8469"/><rect fill="#F1F1F1" height="10" style="stroke:#181818;stroke-width:0.5;" width="15" x="492.6046" y="698.8469"/><rect fill="#F1F1F1" height="2" style="stroke:#181818;stroke-width:0.5;" width="4" x="490.6046" y="700.8469"/><rect fill="#F1F1F1" height="2" style="stroke:#181818;stroke-width:0.5;" width="4" x="490.6046" y="704.8469"/><text fill="#000000" font-family="sans-serif" font-size="14" lengthAdjust="spacing" textLength="101.6846" x="385.92" y="726.842">src/api/service</text></g><!--entity Policy Parser--><g class="entity" data-qualified-name="Service Layer.Modules.Policy Parser" data-source-line="17" id="ent0009"><rect fill="#F1F1F1" height="62.5938" rx="2.5" ry="2.5" style="stroke:#181818;stroke-width:0.5;" width="208.1885" x="592.55" y="596.6969"/><rect fill="#F1F1F1" height="10" style="stroke:#181818;stroke-width:0.5;" width="15" x="780.7385" y="601.6969"/><rect fill="#F1F1F1" height="2" style="stroke:#181818;stroke-width:0.5;" width="4" x="778.7385" y="603.6969"/><rect fill="#F1F1F1" height="2" style="stroke:#181818;stroke-width:0.5;" width="4" x="778.7385" y="607.6969"/><text fill="#000000" font-family="sans-serif" font-size="14" font-style="italic" lengthAdjust="spacing" textLength="166.1885" x="608.55" y="629.692">&#171;src/api/policyParser/*&#187;</text><text fill="#000000" font-family="sans-serif" font-size="14" lengthAdjust="spacing" textLength="89.6602" x="646.8142" y="645.9889">Policy Parser</text></g><!--entity Journal Renderer--><g class="entity" data-qualified-name="Service Layer.Modules.Journal Renderer" data-source-line="18" id="ent0010"><rect fill="#F1F1F1" height="62.5938" rx="2.5" ry="2.5" style="stroke:#181818;stroke-width:0.5;" width="241.3154" x="575.99" y="498.6969"/><rect fill="#F1F1F1" height="10" style="stroke:#181818;stroke-width:0.5;" width="15" x="797.3054" y="503.6969"/><rect fill="#F1F1F1" height="2" style="stroke:#181818;stroke-width:0.5;" width="4" x="795.3054" y="505.6969"/><rect fill="#F1F1F1" height="2" style="stroke:#181818;stroke-width:0.5;" width="4" x="795.3054" y="509.6969"/><text fill="#000000" font-family="sans-serif" font-size="14" font-style="italic" lengthAdjust="spacing" textLength="199.3154" x="591.99" y="531.692">&#171;src/api/journalRenderer.ts&#187;</text><text fill="#000000" font-family="sans-serif" font-size="14" lengthAdjust="spacing" textLength="117.9541" x="632.6707" y="547.9889">Journal Renderer</text></g><!--entity Journey Resolver--><g class="entity" data-qualified-name="Service Layer.Modules.Journey Resolver" data-source-line="19" id="ent0011"><rect fill="#F1F1F1" height="46.2969" rx="2.5" ry="2.5" style="stroke:#181818;stroke-width:0.5;" width="158.2891" x="617.5" y="855.8469"/><rect fill="#F1F1F1" height="10" style="stroke:#181818;stroke-width:0.5;" width="15" x="755.7891" y="860.8469"/><rect fill="#F1F1F1" height="2" style="stroke:#181818;stroke-width:0.5;" width="4" x="753.7891" y="862.8469"/><rect fill="#F1F1F1" height="2" style="stroke:#181818;stroke-width:0.5;" width="4" x="753.7891" y="866.8469"/><text fill="#000000" font-family="sans-serif" font-size="14" lengthAdjust="spacing" textLength="118.2891" x="632.5" y="888.842">Journey Resolver</text></g><!--entity Instruction Templates--><g class="entity" data-qualified-name="Service Layer.Modules.Instruction Templates" data-source-line="20" id="ent0012"><rect fill="#F1F1F1" height="46.2969" rx="2.5" ry="2.5" style="stroke:#181818;stroke-width:0.5;" width="192.9336" x="600.18" y="417.8469"/><rect fill="#F1F1F1" height="10" style="stroke:#181818;stroke-width:0.5;" width="15" x="773.1136" y="422.8469"/><rect fill="#F1F1F1" height="2" style="stroke:#181818;stroke-width:0.5;" width="4" x="771.1136" y="424.8469"/><rect fill="#F1F1F1" height="2" style="stroke:#181818;stroke-width:0.5;" width="4" x="771.1136" y="428.8469"/><text fill="#000000" font-family="sans-serif" font-size="14" lengthAdjust="spacing" textLength="152.9336" x="615.18" y="450.842">Instruction Templates</text></g><!--entity Research Consents--><g class="entity" data-qualified-name="Service Layer.Modules.Research Consents" data-source-line="21" id="ent0013"><rect fill="#F1F1F1" height="46.2969" rx="2.5" ry="2.5" style="stroke:#181818;stroke-width:0.5;" width="174.3809" x="609.46" y="774.8469"/><rect fill="#F1F1F1" height="10" style="stroke:#181818;stroke-width:0.5;" width="15" x="763.8409" y="779.8469"/><rect fill="#F1F1F1" height="2" style="stroke:#181818;stroke-width:0.5;" width="4" x="761.8409" y="781.8469"/><rect fill="#F1F1F1" height="2" style="stroke:#181818;stroke-width:0.5;" width="4" x="761.8409" y="785.8469"/><text fill="#000000" font-family="sans-serif" font-size="14" lengthAdjust="spacing" textLength="134.3809" x="624.46" y="807.842">Research Consents</text></g><!--entity Patient Journeys--><g class="entity" data-qualified-name="Service Layer.Modules.Patient Journeys" data-source-line="22" id="ent0014"><rect fill="#F1F1F1" height="46.2969" rx="2.5" ry="2.5" style="stroke:#181818;stroke-width:0.5;" width="154.2148" x="619.54" y="693.8469"/><rect fill="#F1F1F1" height="10" style="stroke:#181818;stroke-width:0.5;" width="15" x="753.7548" y="698.8469"/><rect fill="#F1F1F1" height="2" style="stroke:#181818;stroke-width:0.5;" width="4" x="751.7548" y="700.8469"/><rect fill="#F1F1F1" height="2" style="stroke:#181818;stroke-width:0.5;" width="4" x="751.7548" y="704.8469"/><text fill="#000000" font-family="sans-serif" font-size="14" lengthAdjust="spacing" textLength="114.2148" x="634.54" y="726.842">Patient Journeys</text></g><!--entity In-memory store--><g class="entity" data-qualified-name="Persistence.In-memory store" data-source-line="27" id="ent0016"><rect fill="#F1F1F1" height="46.2969" rx="2.5" ry="2.5" style="stroke:#181818;stroke-width:0.5;" width="156.7168" x="618.29" y="1000.8469"/><rect fill="#F1F1F1" height="10" style="stroke:#181818;stroke-width:0.5;" width="15" x="755.0068" y="1005.8469"/><rect fill="#F1F1F1" height="2" style="stroke:#181818;stroke-width:0.5;" width="4" x="753.0068" y="1007.8469"/><rect fill="#F1F1F1" height="2" style="stroke:#181818;stroke-width:0.5;" width="4" x="753.0068" y="1011.8469"/><text fill="#000000" font-family="sans-serif" font-size="14" lengthAdjust="spacing" textLength="116.7168" x="633.29" y="1033.842">In-memory store</text></g><!--entity localStorage--><g class="entity" data-qualified-name="Persistence.localStorage" data-source-line="28" id="ent0017"><rect fill="#F1F1F1" height="46.2969" rx="2.5" ry="2.5" style="stroke:#181818;stroke-width:0.5;" width="127.3975" x="880.69" y="1000.8469"/><rect fill="#F1F1F1" height="10" style="stroke:#181818;stroke-width:0.5;" width="15" x="988.0875" y="1005.8469"/><rect fill="#F1F1F1" height="2" style="stroke:#181818;stroke-width:0.5;" width="4" x="986.0875" y="1007.8469"/><rect fill="#F1F1F1" height="2" style="stroke:#181818;stroke-width:0.5;" width="4" x="986.0875" y="1011.8469"/><text fill="#000000" font-family="sans-serif" font-size="14" lengthAdjust="spacing" textLength="87.3975" x="895.69" y="1033.842">localStorage</text></g><g class="entity" data-qualified-name="GMN28" data-source-line="43" id="ent0029"><path d="M586.32,223.5969 L586.32,324.3938 L806.9728,324.3938 L806.9728,233.5969 L796.9728,223.5969 L586.32,223.5969" fill="#FEFFDD" style="stroke:#181818;stroke-width:0.5;"/><path d="M796.9728,223.5969 L796.9728,233.5969 L806.9728,233.5969 L796.9728,223.5969" fill="#FEFFDD" style="stroke:#181818;stroke-width:1;"/><text fill="#000000" font-family="sans-serif" font-size="13" lengthAdjust="spacing" textLength="170.041" x="592.32" y="240.6638">Computes effective steps,</text><text fill="#000000" font-family="sans-serif" font-size="13" lengthAdjust="spacing" textLength="141.7559" x="592.32" y="255.7966">hydrates instructions,</text><text fill="#000000" font-family="sans-serif" font-size="13" lengthAdjust="spacing" textLength="187.9287" x="592.32" y="270.9294">handles template derivation,</text><text fill="#000000" font-family="sans-serif" font-size="13" lengthAdjust="spacing" textLength="129.8667" x="592.32" y="286.0622">SWITCH_TEMPLATE,</text><text fill="#000000" font-family="sans-serif" font-size="13" lengthAdjust="spacing" textLength="151.0742" x="592.32" y="301.195">pause-shift calculation,</text><text fill="#000000" font-family="sans-serif" font-size="13" lengthAdjust="spacing" textLength="199.6528" x="592.32" y="316.3278">getMergedDueStepsForPatient</text></g><g class="entity" data-qualified-name="GMN31" data-source-line="52" id="ent0032"><path d="M572.61,133.2969 L572.61,188.6953 L820.6974,188.6953 L820.6974,143.2969 L810.6974,133.2969 L572.61,133.2969" fill="#FEFFDD" style="stroke:#181818;stroke-width:0.5;"/><path d="M810.6974,133.2969 L810.6974,143.2969 L820.6974,143.2969 L810.6974,133.2969" fill="#FEFFDD" style="stroke:#181818;stroke-width:1;"/><text fill="#000000" font-family="sans-serif" font-size="13" lengthAdjust="spacing" textLength="181.8477" x="578.61" y="150.3638">grantConsent (idempotent),</text><text fill="#000000" font-family="sans-serif" font-size="13" lengthAdjust="spacing" textLength="227.0874" x="578.61" y="165.4966">revokeConsent, hasActiveConsent,</text><text fill="#000000" font-family="sans-serif" font-size="13" lengthAdjust="spacing" textLength="157.2251" x="578.61" y="180.6294">audit trail via revokedAt</text></g><g class="entity" data-qualified-name="GMN34" data-source-line="58" id="ent0035"><path d="M585.52,43.2969 L585.52,98.6953 L807.7724,98.6953 L807.7724,53.2969 L797.7724,43.2969 L585.52,43.2969" fill="#FEFFDD" style="stroke:#181818;stroke-width:0.5;"/><path d="M797.7724,43.2969 L797.7724,53.2969 L807.7724,53.2969 L797.7724,43.2969" fill="#FEFFDD" style="stroke:#181818;stroke-width:1;"/><text fill="#000000" font-family="sans-serif" font-size="13" lengthAdjust="spacing" textLength="140.8989" x="591.52" y="60.3638">assignPatientJourney,</text><text fill="#000000" font-family="sans-serif" font-size="13" lengthAdjust="spacing" textLength="199.2466" x="591.52" y="75.4966">pauseJourney, resumeJourney,</text><text fill="#000000" font-family="sans-serif" font-size="13" lengthAdjust="spacing" textLength="201.2524" x="591.52" y="90.6294">totalPausedDays accumulation</text></g><!--link React UI to src/api/client--><g class="link" data-entity-1="ent0003" data-entity-2="ent0005" data-link-type="dependency" data-source-line="31" id="lnk18"><path d="M121.43,716.9969 C139.85,716.9969 155.08,716.9969 174.69,716.9969" fill="none" id="React UI-to-src/api/client" style="stroke:#181818;stroke-width:1;"/><polygon fill="#181818" points="180.69,716.9969,171.69,712.9969,175.69,716.9969,171.69,720.9969,180.69,716.9969" style="stroke:#181818;stroke-width:1;"/></g><!--link src/api/client to src/api/service--><g class="link" data-entity-1="ent0005" data-entity-2="ent0007" data-link-type="dependency" data-source-line="32" id="lnk19"><path d="M311.2,716.9969 C330.27,716.9969 345.24,716.9969 364.66,716.9969" fill="none" id="src/api/client-to-src/api/service" style="stroke:#181818;stroke-width:1;"/><polygon fill="#181818" points="370.66,716.9969,361.66,712.9969,365.66,716.9969,361.66,720.9969,370.66,716.9969" style="stroke:#181818;stroke-width:1;"/></g><!--link src/api/service to Policy Parser--><g class="link" data-entity-1="ent0007" data-entity-2="ent0009" data-link-type="dependency" data-source-line="33" id="lnk20"><path d="M504.43,693.3969 C519.92,687.5969 536.53,681.4769 551.99,675.9969 C567.11,670.6369 577.497,667.0314 593.207,661.7114" fill="none" id="src/api/service-to-Policy Parser" style="stroke:#181818;stroke-width:1;"/><polygon fill="#181818" points="598.89,659.7869,589.0825,658.8849,594.1542,661.3906,591.6485,666.4622,598.89,659.7869" style="stroke:#181818;stroke-width:1;"/></g><!--link src/api/service to Journal Renderer--><g class="link" data-entity-1="ent0007" data-entity-2="ent0010" data-link-type="dependency" data-source-line="34" id="lnk21"><path d="M455.53,693.5569 C473.31,663.0069 508.32,609.8469 551.99,578.9969 C561.25,572.4569 566.0272,569.3045 576.5872,564.3045" fill="none" id="src/api/service-to-Journal Renderer" style="stroke:#181818;stroke-width:1;"/><polygon fill="#181818" points="582.01,561.7369,572.164,561.9731,577.491,563.8766,575.5875,569.2036,582.01,561.7369" style="stroke:#181818;stroke-width:1;"/></g><!--link src/api/service to Journey Resolver--><g class="link" data-entity-1="ent0007" data-entity-2="ent0011" data-link-type="dependency" data-source-line="35" id="lnk22"><path d="M457.56,740.4169 C476.24,768.0569 510.94,813.4869 551.99,838.9969 C571.67,851.2269 589.3557,858.2394 611.5657,864.2094" fill="none" id="src/api/service-to-Journey Resolver" style="stroke:#181818;stroke-width:1;"/><polygon fill="#181818" points="617.36,865.7669,609.7068,859.5677,612.5314,864.469,607.6302,867.2935,617.36,865.7669" style="stroke:#181818;stroke-width:1;"/></g><!--link src/api/service to Instruction Templates--><g class="link" data-entity-1="ent0007" data-entity-2="ent0012" data-link-type="dependency" data-source-line="36" id="lnk23"><path d="M446.84,693.6269 C456.36,646.1969 484.56,538.3069 551.99,480.9969 C565.7,469.3469 576.8788,462.9968 594.1588,457.1268" fill="none" id="src/api/service-to-Instruction Templates" style="stroke:#181818;stroke-width:1;"/><polygon fill="#181818" points="599.84,455.1969,590.0317,454.3043,595.1057,456.8051,592.6049,461.8791,599.84,455.1969" style="stroke:#181818;stroke-width:1;"/></g><!--link src/api/service to Research Consents--><g class="link" data-entity-1="ent0007" data-entity-2="ent0013" data-link-type="dependency" data-source-line="37" id="lnk24"><path d="M502.81,740.6169 C518.7,746.5669 535.91,752.7469 551.99,757.9969 C570.33,763.9769 584.386,768.2355 603.286,773.5755" fill="none" id="src/api/service-to-Research Consents" style="stroke:#181818;stroke-width:1;"/><polygon fill="#181818" points="609.06,775.2069,601.4866,768.9105,604.2484,773.8474,599.3115,776.6091,609.06,775.2069" style="stroke:#181818;stroke-width:1;"/></g><!--link src/api/service to Patient Journeys--><g class="link" data-entity-1="ent0007" data-entity-2="ent0014" data-link-type="dependency" data-source-line="38" id="lnk25"><path d="M512.87,716.9969 C545.91,716.9969 579.39,716.9969 613.19,716.9969" fill="none" id="src/api/service-to-Patient Journeys" style="stroke:#181818;stroke-width:1;"/><polygon fill="#181818" points="619.19,716.9969,610.19,712.9969,614.19,716.9969,610.19,720.9969,619.19,716.9969" style="stroke:#181818;stroke-width:1;"/></g><!--link src/api/service to In-memory store--><g class="link" data-entity-1="ent0007" data-entity-2="ent0016" data-link-type="dependency" data-source-line="39" id="lnk26"><path d="M451.54,740.4069 C467.23,780.1169 503.09,861.8369 551.99,917.9969 C581.4,951.7769 618.281,978.0245 649.271,997.2445" fill="none" id="src/api/service-to-In-memory store" style="stroke:#181818;stroke-width:1;"/><polygon fill="#181818" points="654.37,1000.4069,648.8298,992.264,650.1209,997.7716,644.6133,999.0626,654.37,1000.4069" style="stroke:#181818;stroke-width:1;"/></g><!--link In-memory store to localStorage--><g class="link" data-entity-1="ent0016" data-entity-2="ent0017" data-link-type="dependency" data-source-line="40" id="lnk27"><path d="M775.4,1023.9969 C809.29,1023.9969 842.5,1023.9969 874.51,1023.9969" fill="none" id="In-memory store-to-localStorage" style="stroke:#181818;stroke-width:1;"/><polygon fill="#181818" points="880.51,1023.9969,871.51,1019.9969,875.51,1023.9969,871.51,1027.9969,880.51,1023.9969" style="stroke:#181818;stroke-width:1;"/></g><!--link Journey Resolver to GMN28--><g class="link" data-entity-1="ent0011" data-entity-2="ent0029" data-link-type="association" data-source-line="43" id="lnk30"><path d="M617.16,875.1669 C582.67,868.6669 546.85,853.8969 532.3,821.4969 C514,780.7469 514,460.2469 532.3,419.4969 C549.47,381.2569 582.23,349.0169 614.01,324.6769" fill="none" id="Journey Resolver-GMN28" style="stroke:#181818;stroke-width:1;stroke-dasharray:7,7;"/></g><!--link Research Consents to GMN31--><g class="link" data-entity-1="ent0013" data-entity-2="ent0032" data-link-type="association" data-source-line="52" id="lnk33"><path d="M609.22,792.5269 C577.31,785.3069 545.74,770.4169 532.3,740.4969 C508.76,688.0969 508.76,275.8969 532.3,223.4969 C540.43,205.3969 555.03,192.4569 572.28,183.2269" fill="none" id="Research Consents-GMN31" style="stroke:#181818;stroke-width:1;stroke-dasharray:7,7;"/></g><!--link Patient Journeys to GMN34--><g class="link" data-entity-1="ent0014" data-entity-2="ent0035" data-link-type="association" data-source-line="58" id="lnk36"><path d="M619.36,713.5769 C584.2,707.2869 547.16,692.5869 532.3,659.4969 C508.35,606.1869 508.35,186.8069 532.3,133.4969 C542.37,111.0769 562.35,96.5769 585.03,87.2369" fill="none" id="Patient Journeys-GMN34" style="stroke:#181818;stroke-width:1;stroke-dasharray:7,7;"/></g><?plantuml-src VPJTYjim48Nl_HJ3NhKbQLvW2OHaowPim6nIUh64eieJHuqi6MbaC6MX3z4dx9Dq_9UiutWlVSutqioHP5Aa4HvLUfngB533micZ8fGK7CA_FtzX5Kwmmin6aSO30LbmJ1CaoZ6bh8cYNCYJI17kbbgXeJlu7G6yFAEG1D_M--Zr3RA8rz33l9CpaQkPhCK-l4LNA8dm94fqLxnll7t4uhbWOvEWqJSemx7LIfOG2yVu7kxlk-gyDXfzzca-R_2lDZWZD3oZIT3rAturNcTz9j-hmfAhlDK5LpNosdXoeOu8TfZbMX3wrcCK1ISDIsiyZztfiQ0g1MYNhENNNYGnEgyyeP7O1h8squpFnvNWoJgiIbwqbK9l-PDhwaWlfm7JwNoO-hNGfyvP3vI6wySyHWtIVHVi1Je2ZaGyGjy8VMoUmJ6CDd2L_K1fkFvvHCOImazBP3EmXzitQ6cpFF0uW8T3zT0Av1KnznFsZcNYgb51NG9e364Illz0RHZ0GQj2L7vbRx-lTyl77xk7JVoqs3rCwgSJF4xzKV7RvXvbq6SwHTgWIp5P1TnMMt-nhaqcuYE4QehXB3UlTkg4eLQ03ohXzhZCqCTg7uU5FM7hJdW6lwZdxHH6H4WK_tkSK1eA9TgIPF5U8xVUal1UfQPrMkESGlVDg_kGuHkRB0aTLqoo4gK78MN8sgGk7Vm7?></g></svg>