<?plantuml 1.2026.1?><svg xmlns="http://www.w3.org/2000/svg" xmlns:xlink="http://www.w3.org/1999/xlink" contentStyleType="text/css" data-diagram-type="DESCRIPTION" height="602px" preserveAspectRatio="none" style="width:966px;height:602px;background:#FFFFFF;" version="1.1" viewBox="0 0 966 602" width="966px" zoomAndPan="magnify"><title>High-level Architecture &#8212; Duk Demo</title><defs/><g><g class="title" data-source-line="1"><text fill="#000000" font-family="sans-serif" font-size="14" font-weight="bold" lengthAdjust="spacing" textLength="288.0938" x="332.279" y="22.9951">High-level Architecture &#8212; Duk Demo</text></g><!--cluster Client--><g class="cluster" data-qualified-name="Client" data-source-line="3" id="ent0002"><path d="M381.14,43.2969 L428.1664,43.2969 A3.75,3.75 0 0 1 430.6664,45.7969 L437.6664,65.5938 L506.14,65.5938 A2.5,2.5 0 0 1 508.64,68.0938 L508.64,138.0869 A2.5,2.5 0 0 1 506.14,140.5869 L381.14,140.5869 A2.5,2.5 0 0 1 378.64,138.0869 L378.64,45.7969 A2.5,2.5 0 0 1 381.14,43.2969" fill="none" style="stroke:#000000;stroke-width:1.5;"/><line style="stroke:#000000;stroke-width:1.5;" x1="378.64" x2="437.6664" y1="65.5938" y2="65.5938"/><text fill="#000000" font-family="sans-serif" font-size="14" font-weight="bold" lengthAdjust="spacing" textLength="46.0264" x="382.64" y="58.292">Client</text></g><!--cluster API Client--><g class="cluster" data-qualified-name="API Client" data-source-line="7" id="ent0004"><path d="M365.14,164.5869 L443.3451,164.5869 A3.75,3.75 0 0 1 445.8451,167.0869 L452.8451,186.8838 L522.14,186.8838 A2.5,2.5 0 0 1 524.64,189.3838 L524.64,259.3869 A2.5,2.5 0 0 1 522.14,261.8869 L365.14,261.8869 A2.5,2.5 0 0 1 362.64,259.3869 L362.64,167.0869 A2.5,2.5 0 0 1 365.14,164.5869" fill="none" style="stroke:#000000;stroke-width:1.5;"/><line style="stroke:#000000;stroke-width:1.5;" x1="362.64" x2="452.8451" y1="186.8838" y2="186.8838"/><text fill="#000000" font-family="sans-serif" font-size="14" font-weight="bold" lengthAdjust="spacing" textLength="77.2051" x="366.64" y="179.582">API Client</text></g><!--cluster Service Layer--><g class="cluster" data-qualified-name="Service Layer" data-source-line="11" id="ent0006"><path d="M186.14,285.8869 L294.1088,285.8869 A3.75,3.75 0 0 1 296.6088,288.3869 L303.6088,308.1838 L536.14,308.1838 A2.5,2.5 0 0 1 538.64,310.6838 L538.64,486.9769 A2.5,2.5 0 0 1 536.14,489.4769 L186.14,489.4769 A2.5,2.5 0 0 1 183.64,486.9769 L183.64,288.3869 A2.5,2.5 0 0 1 186.14,285.8869" fill="none" style="stroke:#000000;stroke-width:1.5;"/><line style="stroke:#000000;stroke-width:1.5;" x1="183.64" x2="303.6088" y1="308.1838" y2="308.1838"/><text fill="#000000" font-family="sans-serif" font-size="14" font-weight="bold" lengthAdjust="spacing" textLength="106.9688" x="187.64" y="300.882">Service Layer</text></g><!--cluster Persistence--><g class="cluster" data-qualified-name="Persistence" data-source-line="17" id="ent0010"><path d="M565.14,392.1869 L658.2132,392.1869 A3.75,3.75 0 0 1 660.7132,394.6869 L667.7132,414.4838 L748.14,414.4838 A2.5,2.5 0 0 1 750.64,416.9838 L750.64,593.2769 A2.5,2.5 0 0 1 748.14,595.7769 L565.14,595.7769 A2.5,2.5 0 0 1 562.64,593.2769 L562.64,394.6869 A2.5,2.5 0 0 1 565.14,392.1869" fill="none" style="stroke:#000000;stroke-width:1.5;"/><line style="stroke:#000000;stroke-width:1.5;" x1="562.64" x2="667.7132" y1="414.4838" y2="414.4838"/><text fill="#000000" font-family="sans-serif" font-size="14" font-weight="bold" lengthAdjust="spacing" textLength="92.0732" x="566.64" y="407.182">Persistence</text></g><!--entity React UI--><g class="entity" data-qualified-name="Client.React UI" data-source-line="4" id="ent0003"><rect fill="#F1F1F1" height="46.2969" rx="2.5" ry="2.5" style="stroke:#181818;stroke-width:0.5;" width="98.9326" x="394.17" y="78.2969"/><rect fill="#F1F1F1" height="10" style="stroke:#181818;stroke-width:0.5;" width="15" x="473.1026" y="83.2969"/><rect fill="#F1F1F1" height="2" style="stroke:#181818;stroke-width:0.5;" width="4" x="471.1026" y="85.2969"/><rect fill="#F1F1F1" height="2" style="stroke:#181818;stroke-width:0.5;" width="4" x="471.1026" y="89.2969"/><text fill="#000000" font-family="sans-serif" font-size="14" lengthAdjust="spacing" textLength="58.9326" x="409.17" y="111.292">React UI</text></g><!--entity src/api/client--><g class="entity" data-qualified-name="API Client.src.api.client" data-source-line="8" id="ent0005"><rect fill="#F1F1F1" height="46.2969" rx="2.5" ry="2.5" style="stroke:#181818;stroke-width:0.5;" width="129.9883" x="378.64" y="199.5869"/><rect fill="#F1F1F1" height="10" style="stroke:#181818;stroke-width:0.5;" width="15" x="488.6283" y="204.5869"/><rect fill="#F1F1F1" height="2" style="stroke:#181818;stroke-width:0.5;" width="4" x="486.6283" y="206.5869"/><rect fill="#F1F1F1" height="2" style="stroke:#181818;stroke-width:0.5;" width="4" x="486.6283" y="210.5869"/><text fill="#000000" font-family="sans-serif" font-size="14" lengthAdjust="spacing" textLength="89.9883" x="393.64" y="232.582">src/api/client</text></g><!--entity src/api/service--><g class="entity" data-qualified-name="Service Layer.src.api.service" data-source-line="12" id="ent0007"><rect fill="#F1F1F1" height="46.2969" rx="2.5" ry="2.5" style="stroke:#181818;stroke-width:0.5;" width="141.6846" x="372.79" y="320.8869"/><rect fill="#F1F1F1" height="10" style="stroke:#181818;stroke-width:0.5;" width="15" x="494.4746" y="325.8869"/><rect fill="#F1F1F1" height="2" style="stroke:#181818;stroke-width:0.5;" width="4" x="492.4746" y="327.8869"/><rect fill="#F1F1F1" height="2" style="stroke:#181818;stroke-width:0.5;" width="4" x="492.4746" y="331.8869"/><text fill="#000000" font-family="sans-serif" font-size="14" lengthAdjust="spacing" textLength="101.6846" x="387.79" y="353.882">src/api/service</text></g><!--entity Policy Parser--><g class="entity" data-qualified-name="Service Layer.Policy Parser" data-source-line="13" id="ent0008"><rect fill="#F1F1F1" height="46.2969" rx="2.5" ry="2.5" style="stroke:#181818;stroke-width:0.5;" width="129.6602" x="199.81" y="427.1869"/><rect fill="#F1F1F1" height="10" style="stroke:#181818;stroke-width:0.5;" width="15" x="309.4702" y="432.1869"/><rect fill="#F1F1F1" height="2" style="stroke:#181818;stroke-width:0.5;" width="4" x="307.4702" y="434.1869"/><rect fill="#F1F1F1" height="2" style="stroke:#181818;stroke-width:0.5;" width="4" x="307.4702" y="438.1869"/><text fill="#000000" font-family="sans-serif" font-size="14" lengthAdjust="spacing" textLength="89.6602" x="214.81" y="460.182">Policy Parser</text></g><!--entity Journal Renderer--><g class="entity" data-qualified-name="Service Layer.Journal Renderer" data-source-line="14" id="ent0009"><rect fill="#F1F1F1" height="46.2969" rx="2.5" ry="2.5" style="stroke:#181818;stroke-width:0.5;" width="157.9541" x="364.66" y="427.1869"/><rect fill="#F1F1F1" height="10" style="stroke:#181818;stroke-width:0.5;" width="15" x="502.6141" y="432.1869"/><rect fill="#F1F1F1" height="2" style="stroke:#181818;stroke-width:0.5;" width="4" x="500.6141" y="434.1869"/><rect fill="#F1F1F1" height="2" style="stroke:#181818;stroke-width:0.5;" width="4" x="500.6141" y="438.1869"/><text fill="#000000" font-family="sans-serif" font-size="14" lengthAdjust="spacing" textLength="117.9541" x="379.66" y="460.182">Journal Renderer</text></g><!--entity In-memory store--><g class="entity" data-qualified-name="Persistence.In-memory store" data-source-line="18" id="ent0011"><rect fill="#F1F1F1" height="46.2969" rx="2.5" ry="2.5" style="stroke:#181818;stroke-width:0.5;" width="156.7168" x="578.28" y="427.1869"/><rect fill="#F1F1F1" height="10" style="stroke:#181818;stroke-width:0.5;" width="15" x="714.9968" y="432.1869"/><rect fill="#F1F1F1" height="2" style="stroke:#181818;stroke-width:0.5;" width="4" x="712.9968" y="434.1869"/><rect fill="#F1F1F1" height="2" style="stroke:#181818;stroke-width:0.5;" width="4" x="712.9968" y="438.1869"/><text fill="#000000" font-family="sans-serif" font-size="14" lengthAdjust="spacing" textLength="116.7168" x="593.28" y="460.182">In-memory store</text></g><!--entity localStorage--><g class="entity" data-qualified-name="Persistence.localStorage" data-source-line="19" id="ent0012"><rect fill="#F1F1F1" height="46.2969" rx="2.5" ry="2.5" style="stroke:#181818;stroke-width:0.5;" width="127.3975" x="592.94" y="533.4769"/><rect fill="#F1F1F1" height="10" style="stroke:#181818;stroke-width:0.5;" width="15" x="700.3375" y="538.4769"/><rect fill="#F1F1F1" height="2" style="stroke:#181818;stroke-width:0.5;" width="4" x="698.3375" y="540.4769"/><rect fill="#F1F1F1" height="2" style="stroke:#181818;stroke-width:0.5;" width="4" x="698.3375" y="544.4769"/><text fill="#000000" font-family="sans-serif" font-size="14" lengthAdjust="spacing" textLength="87.3975" x="607.94" y="566.472">localStorage</text></g><g class="entity" data-qualified-name="GMN19" data-source-line="30" id="ent0020"><path d="M6,437.7669 L6,462.8997 A0,0 0 0 0 6,462.8997 L165.271,462.8997 A0,0 0 0 0 165.271,462.8997 L165.271,455.7669 L199.32,450.3269 L165.271,447.7669 L165.271,447.7669 L155.271,437.7669 L6,437.7669 A0,0 0 0 0 6,437.7669" fill="#FEFFDD" style="stroke:#181818;stroke-width:0.5;"/><path d="M155.271,437.7669 L155.271,447.7669 L165.271,447.7669 L155.271,437.7669" fill="#FEFFDD" style="stroke:#181818;stroke-width:0.5;"/><text fill="#000000" font-family="sans-serif" font-size="13" lengthAdjust="spacing" textLength="138.271" x="12" y="454.8338">src/api/policyParser/*</text></g><g class="entity" data-qualified-name="GMN22" data-source-line="34" id="ent0023"><path d="M769.62,437.7669 L769.62,462.8997 L959.6517,462.8997 L959.6517,447.7669 L949.6517,437.7669 L769.62,437.7669" fill="#FEFFDD" style="stroke:#181818;stroke-width:0.5;"/><path d="M949.6517,437.7669 L949.6517,447.7669 L959.6517,447.7669 L949.6517,437.7669" fill="#FEFFDD" style="stroke:#181818;stroke-width:1;"/><text fill="#000000" font-family="sans-serif" font-size="13" lengthAdjust="spacing" textLength="169.0317" x="775.62" y="454.8338">src/api/journalRenderer.ts</text></g><!--link React UI to src/api/client--><g class="link" data-entity-1="ent0003" data-entity-2="ent0005" data-link-type="dependency" data-source-line="22" id="lnk13"><path d="M443.64,124.8769 C443.64,146.2069 443.64,172.1069 443.64,193.3969" fill="none" id="React UI-to-src/api/client" style="stroke:#181818;stroke-width:1;"/><polygon fill="#181818" points="443.64,199.3969,447.64,190.3969,443.64,194.3969,439.64,190.3969,443.64,199.3969" style="stroke:#181818;stroke-width:1;"/></g><!--link src/api/client to src/api/service--><g class="link" data-entity-1="ent0005" data-entity-2="ent0007" data-link-type="dependency" data-source-line="23" id="lnk14"><path d="M443.64,246.1769 C443.64,267.5069 443.64,293.3969 443.64,314.6969" fill="none" id="src/api/client-to-src/api/service" style="stroke:#181818;stroke-width:1;"/><polygon fill="#181818" points="443.64,320.6969,447.64,311.6969,443.64,315.6969,439.64,311.6969,443.64,320.6969" style="stroke:#181818;stroke-width:1;"/></g><!--link src/api/service to Policy Parser--><g class="link" data-entity-1="ent0007" data-entity-2="ent0008" data-link-type="dependency" data-source-line="24" id="lnk15"><path d="M380.97,367.6369 C369.61,372.5569 358.06,378.1269 347.64,384.1869 C326.73,396.3269 309.868,409.375 294.028,422.935" fill="none" id="src/api/service-to-Policy Parser" style="stroke:#181818;stroke-width:1;"/><polygon fill="#181818" points="289.47,426.8369,298.9082,424.0227,293.2683,423.5853,293.7057,417.9454,289.47,426.8369" style="stroke:#181818;stroke-width:1;"/></g><!--link src/api/service to Journal Renderer--><g class="link" data-entity-1="ent0007" data-entity-2="ent0009" data-link-type="dependency" data-source-line="25" id="lnk16"><path d="M443.64,367.6669 C443.64,385.1569 443.64,403.2669 443.64,420.7469" fill="none" id="src/api/service-to-Journal Renderer" style="stroke:#181818;stroke-width:1;"/><polygon fill="#181818" points="443.64,426.7469,447.64,417.7469,443.64,421.7469,439.64,417.7469,443.64,426.7469" style="stroke:#181818;stroke-width:1;"/></g><!--link src/api/service to In-memory store--><g class="link" data-entity-1="ent0007" data-entity-2="ent0011" data-link-type="dependency" data-source-line="26" id="lnk17"><path d="M501.37,367.5969 C513.78,372.7869 526.74,378.4669 538.64,384.1869 C565.85,397.2469 590.3964,410.6997 613.2164,423.7997" fill="none" id="src/api/service-to-In-memory store" style="stroke:#181818;stroke-width:1;"/><polygon fill="#181818" points="618.42,426.7869,612.6061,418.8371,614.0837,424.2976,608.6232,425.7752,618.42,426.7869" style="stroke:#181818;stroke-width:1;"/></g><!--link In-memory store to localStorage--><g class="link" data-entity-1="ent0011" data-entity-2="ent0012" data-link-type="dependency" data-source-line="27" id="lnk18"><path d="M656.64,473.9669 C656.64,491.4569 656.64,509.5569 656.64,527.0369" fill="none" id="In-memory store-to-localStorage" style="stroke:#181818;stroke-width:1;"/><polygon fill="#181818" points="656.64,533.0369,660.64,524.0369,656.64,528.0369,652.64,524.0369,656.64,533.0369" style="stroke:#181818;stroke-width:1;"/></g><!--link Journal Renderer to GMN22--><g class="link" data-entity-1="ent0009" data-entity-2="ent0023" data-link-type="association" data-source-line="34" id="lnk24"><path d="M484.64,426.8069 C507.44,413.9069 536.42,397.8169 562.64,384.1869 C570.31,380.1969 571.71,377.6169 580.14,375.6869 C613.27,368.0569 700,368.0569 733.14,375.6869 C779.19,386.2769 825.49,418.8769 848.92,437.2969" fill="none" id="Journal Renderer-GMN22" style="stroke:#181818;stroke-width:1;stroke-dasharray:7,7;"/></g><?plantuml-src TP91Ri8m44NtFiM89LAQ6o2XicYgBY8Ggug5vGxWOkneF46AgaezH4_8IN1YQ4XSbddpvcT-5DPi45xqRfyPFA61EQczPbHS4yBvvnSMzG4MU7H2L58Tv0vXycmqMfx0bm1uNw9K3EjY8xxlb7bPm43pf79PwLnrS2Yla4vQ8Rp91cda-pZRjAnqHgi6Iac1TkJLrMIbWINQ3wGMtkUMI5vxHglmcbhOx1YwK0EU7SLKuvGqg_0OThhzlX9asImzVGo6rj_12OdUgCG3AotsG4mQ9IHwmvR2EaOmk6Lmsty-xErTLJU8F9-AS0oqczTz2hzD34ZFxJC-u-msUcBVvrm0?></g></svg>