<?plantuml 1.2026.2?><svg xmlns="http://www.w3.org/2000/svg" xmlns:xlink="http://www.w3.org/1999/xlink" contentStyleType="text/css" data-diagram-type="DESCRIPTION" height="1101px" preserveAspectRatio="none" style="width:1031px;height:1101px;background:#FFFFFF;" version="1.1" viewBox="0 0 1031 1101" width="1031px" zoomAndPan="magnify"><title>System Architecture &#8212; Component Diagram</title><defs/><g><g class="title" data-source-line="1"><text fill="#000000" font-family="sans-serif" font-size="14" font-weight="bold" lengthAdjust="spacing" textLength="347.2314" x="334.9293" y="22.9951">System Architecture &#8212; Component Diagram</text></g><!--cluster Client--><g class="cluster" data-qualified-name="Client" data-source-line="5" id="ent0002"><path d="M8.5,690.1269 L55.5264,690.1269 A3.75,3.75 0 0 1 58.0264,692.6269 L65.0264,712.4237 L134.43,712.4237 A2.5,2.5 0 0 1 136.93,714.9237 L136.93,784.6269 A2.5,2.5 0 0 1 134.43,787.1269 L8.5,787.1269 A2.5,2.5 0 0 1 6,784.6269 L6,692.6269 A2.5,2.5 0 0 1 8.5,690.1269" fill="none" style="stroke:#000000;stroke-width:1.5;"/><line style="stroke:#000000;stroke-width:1.5;" x1="6" x2="65.0264" y1="712.4237" y2="712.4237"/><text fill="#000000" font-family="sans-serif" font-size="14" font-weight="bold" lengthAdjust="spacing" textLength="46.0264" x="10" y="705.122">Client</text></g><!--cluster API Client--><g class="cluster" data-qualified-name="API Client" data-source-line="9" id="ent0004"><path d="M167.43,690.1269 L245.6351,690.1269 A3.75,3.75 0 0 1 248.1351,692.6269 L255.1351,712.4237 L324.42,712.4237 A2.5,2.5 0 0 1 326.92,714.9237 L326.92,784.6269 A2.5,2.5 0 0 1 324.42,787.1269 L167.43,787.1269 A2.5,2.5 0 0 1 164.93,784.6269 L164.93,692.6269 A2.5,2.5 0 0 1 167.43,690.1269" fill="none" style="stroke:#000000;stroke-width:1.5;"/><line style="stroke:#000000;stroke-width:1.5;" x1="164.93" x2="255.1351" y1="712.4237" y2="712.4237"/><text fill="#000000" font-family="sans-serif" font-size="14" font-weight="bold" lengthAdjust="spacing" textLength="77.2051" x="168.93" y="705.122">API Client</text></g><!--cluster Service Layer--><g class="cluster" data-qualified-name="Service Layer" data-source-line="13" id="ent0006"><path d="M357.42,371.1269 L465.3888,371.1269 A3.75,3.75 0 0 1 467.8888,373.6269 L474.8888,393.4237 L854.81,393.4237 A2.5,2.5 0 0 1 857.31,395.9237 L857.31,970.6269 A2.5,2.5 0 0 1 854.81,973.1269 L357.42,973.1269 A2.5,2.5 0 0 1 354.92,970.6269 L354.92,373.6269 A2.5,2.5 0 0 1 357.42,371.1269" fill="none" style="stroke:#000000;stroke-width:1.5;"/><line style="stroke:#000000;stroke-width:1.5;" x1="354.92" x2="474.8888" y1="393.4237" y2="393.4237"/><text fill="#000000" font-family="sans-serif" font-size="14" font-weight="bold" lengthAdjust="spacing" textLength="106.9688" x="358.92" y="386.122">Service Layer</text></g><!--cluster Modules--><g class="cluster" data-qualified-name="Service Layer.Modules" data-source-line="16" id="ent0008"><path d="M562.49,414.1269 L629.655,414.1269 A3.75,3.75 0 0 1 632.155,416.6269 L639.155,436.4237 L830.81,436.4237 A2.5,2.5 0 0 1 833.31,438.9237 L833.31,946.6269 A2.5,2.5 0 0 1 830.81,949.1269 L562.49,949.1269 A2.5,2.5 0 0 1 559.99,946.6269 L559.99,416.6269 A2.5,2.5 0 0 1 562.49,414.1269" fill="none" style="stroke:#000000;stroke-width:1.5;"/><line style="stroke:#000000;stroke-width:1.5;" x1="559.99" x2="639.155" y1="436.4237" y2="436.4237"/><text fill="#000000" font-family="sans-serif" font-size="14" font-weight="bold" lengthAdjust="spacing" textLength="66.165" x="563.99" y="429.122">Modules</text></g><!--cluster Persistence--><g class="cluster" data-qualified-name="Persistence" data-source-line="26" id="ent0015"><path d="M604.79,997.1269 L697.8632,997.1269 A3.75,3.75 0 0 1 700.3632,999.6269 L707.3632,1019.4237 L1021.59,1019.4237 A2.5,2.5 0 0 1 1024.09,1021.9237 L1024.09,1091.6269 A2.5,2.5 0 0 1 1021.59,1094.1269 L604.79,1094.1269 A2.5,2.5 0 0 1 602.29,1091.6269 L602.29,999.6269 A2.5,2.5 0 0 1 604.79,997.1269" fill="none" style="stroke:#000000;stroke-width:1.5;"/><line style="stroke:#000000;stroke-width:1.5;" x1="602.29" x2="707.3632" y1="1019.4237" y2="1019.4237"/><text fill="#000000" font-family="sans-serif" font-size="14" font-weight="bold" lengthAdjust="spacing" textLength="92.0732" x="606.29" y="1012.122">Persistence</text></g><!--entity React UI--><g class="entity" data-qualified-name="Client.React UI" data-source-line="6" id="ent0003"><rect fill="#F1F1F1" height="46.2969" rx="2.5" ry="2.5" style="stroke:#181818;stroke-width:0.5;" width="98.9326" x="22" y="724.9769"/><rect fill="#F1F1F1" height="10" style="stroke:#181818;stroke-width:0.5;" width="15" x="100.9326" y="729.9769"/><rect fill="#F1F1F1" height="2" style="stroke:#181818;stroke-width:0.5;" width="4" x="98.9326" y="731.9769"/><rect fill="#F1F1F1" height="2" style="stroke:#181818;stroke-width:0.5;" width="4" x="98.9326" y="735.9769"/><text fill="#000000" font-family="sans-serif" font-size="14" lengthAdjust="spacing" textLength="58.9326" x="37" y="757.972">React UI</text></g><!--entity src/api/client--><g class="entity" data-qualified-name="API Client.src.api.client" data-source-line="10" id="ent0005"><rect fill="#F1F1F1" height="46.2969" rx="2.5" ry="2.5" style="stroke:#181818;stroke-width:0.5;" width="129.9883" x="180.93" y="724.9769"/><rect fill="#F1F1F1" height="10" style="stroke:#181818;stroke-width:0.5;" width="15" x="290.9183" y="729.9769"/><rect fill="#F1F1F1" height="2" style="stroke:#181818;stroke-width:0.5;" width="4" x="288.9183" y="731.9769"/><rect fill="#F1F1F1" height="2" style="stroke:#181818;stroke-width:0.5;" width="4" x="288.9183" y="735.9769"/><text fill="#000000" font-family="sans-serif" font-size="14" lengthAdjust="spacing" textLength="89.9883" x="195.93" y="757.972">src/api/client</text></g><!--entity src/api/service--><g class="entity" data-qualified-name="Service Layer.src.api.service" data-source-line="14" id="ent0007"><rect fill="#F1F1F1" height="46.2969" rx="2.5" ry="2.5" style="stroke:#181818;stroke-width:0.5;" width="141.6846" x="370.92" y="724.9769"/><rect fill="#F1F1F1" height="10" style="stroke:#181818;stroke-width:0.5;" width="15" x="492.6046" y="729.9769"/><rect fill="#F1F1F1" height="2" style="stroke:#181818;stroke-width:0.5;" width="4" x="490.6046" y="731.9769"/><rect fill="#F1F1F1" height="2" style="stroke:#181818;stroke-width:0.5;" width="4" x="490.6046" y="735.9769"/><text fill="#000000" font-family="sans-serif" font-size="14" lengthAdjust="spacing" textLength="101.6846" x="385.92" y="757.972">src/api/service</text></g><!--entity Policy Parser--><g class="entity" data-qualified-name="Service Layer.Modules.Policy Parser" data-source-line="17" id="ent0009"><rect fill="#F1F1F1" height="62.5938" rx="2.5" ry="2.5" style="stroke:#181818;stroke-width:0.5;" width="208.1885" x="592.55" y="627.8269"/><rect fill="#F1F1F1" height="10" style="stroke:#181818;stroke-width:0.5;" width="15" x="780.7385" y="632.8269"/><rect fill="#F1F1F1" height="2" style="stroke:#181818;stroke-width:0.5;" width="4" x="778.7385" y="634.8269"/><rect fill="#F1F1F1" height="2" style="stroke:#181818;stroke-width:0.5;" width="4" x="778.7385" y="638.8269"/><text fill="#000000" font-family="sans-serif" font-size="14" font-style="italic" lengthAdjust="spacing" textLength="166.1885" x="608.55" y="660.822">&#171;src/api/policyParser/*&#187;</text><text fill="#000000" font-family="sans-serif" font-size="14" lengthAdjust="spacing" textLength="89.6602" x="646.8142" y="677.1189">Policy Parser</text></g><!--entity Journal Renderer--><g class="entity" data-qualified-name="Service Layer.Modules.Journal Renderer" data-source-line="18" id="ent0010"><rect fill="#F1F1F1" height="62.5938" rx="2.5" ry="2.5" style="stroke:#181818;stroke-width:0.5;" width="241.3154" x="575.99" y="529.8269"/><rect fill="#F1F1F1" height="10" style="stroke:#181818;stroke-width:0.5;" width="15" x="797.3054" y="534.8269"/><rect fill="#F1F1F1" height="2" style="stroke:#181818;stroke-width:0.5;" width="4" x="795.3054" y="536.8269"/><rect fill="#F1F1F1" height="2" style="stroke:#181818;stroke-width:0.5;" width="4" x="795.3054" y="540.8269"/><text fill="#000000" font-family="sans-serif" font-size="14" font-style="italic" lengthAdjust="spacing" textLength="199.3154" x="591.99" y="562.822">&#171;src/api/journalRenderer.ts&#187;</text><text fill="#000000" font-family="sans-serif" font-size="14" lengthAdjust="spacing" textLength="117.9541" x="632.6707" y="579.1189">Journal Renderer</text></g><!--entity Journey Resolver--><g class="entity" data-qualified-name="Service Layer.Modules.Journey Resolver" data-source-line="19" id="ent0011"><rect fill="#F1F1F1" height="46.2969" rx="2.5" ry="2.5" style="stroke:#181818;stroke-width:0.5;" width="158.2891" x="617.5" y="886.9769"/><rect fill="#F1F1F1" height="10" style="stroke:#181818;stroke-width:0.5;" width="15" x="755.7891" y="891.9769"/><rect fill="#F1F1F1" height="2" style="stroke:#181818;stroke-width:0.5;" width="4" x="753.7891" y="893.9769"/><rect fill="#F1F1F1" height="2" style="stroke:#181818;stroke-width:0.5;" width="4" x="753.7891" y="897.9769"/><text fill="#000000" font-family="sans-serif" font-size="14" lengthAdjust="spacing" textLength="118.2891" x="632.5" y="919.972">Journey Resolver</text></g><!--entity Instruction Templates--><g class="entity" data-qualified-name="Service Layer.Modules.Instruction Templates" data-source-line="20" id="ent0012"><rect fill="#F1F1F1" height="46.2969" rx="2.5" ry="2.5" style="stroke:#181818;stroke-width:0.5;" width="192.9336" x="600.18" y="448.9769"/><rect fill="#F1F1F1" height="10" style="stroke:#181818;stroke-width:0.5;" width="15" x="773.1136" y="453.9769"/><rect fill="#F1F1F1" height="2" style="stroke:#181818;stroke-width:0.5;" width="4" x="771.1136" y="455.9769"/><rect fill="#F1F1F1" height="2" style="stroke:#181818;stroke-width:0.5;" width="4" x="771.1136" y="459.9769"/><text fill="#000000" font-family="sans-serif" font-size="14" lengthAdjust="spacing" textLength="152.9336" x="615.18" y="481.972">Instruction Templates</text></g><!--entity Research Consents--><g class="entity" data-qualified-name="Service Layer.Modules.Research Consents" data-source-line="21" id="ent0013"><rect fill="#F1F1F1" height="46.2969" rx="2.5" ry="2.5" style="stroke:#181818;stroke-width:0.5;" width="174.3809" x="609.46" y="805.9769"/><rect fill="#F1F1F1" height="10" style="stroke:#181818;stroke-width:0.5;" width="15" x="763.8409" y="810.9769"/><rect fill="#F1F1F1" height="2" style="stroke:#181818;stroke-width:0.5;" width="4" x="761.8409" y="812.9769"/><rect fill="#F1F1F1" height="2" style="stroke:#181818;stroke-width:0.5;" width="4" x="761.8409" y="816.9769"/><text fill="#000000" font-family="sans-serif" font-size="14" lengthAdjust="spacing" textLength="134.3809" x="624.46" y="838.972">Research Consents</text></g><!--entity Patient Journeys--><g class="entity" data-qualified-name="Service Layer.Modules.Patient Journeys" data-source-line="22" id="ent0014"><rect fill="#F1F1F1" height="46.2969" rx="2.5" ry="2.5" style="stroke:#181818;stroke-width:0.5;" width="154.2148" x="619.54" y="724.9769"/><rect fill="#F1F1F1" height="10" style="stroke:#181818;stroke-width:0.5;" width="15" x="753.7548" y="729.9769"/><rect fill="#F1F1F1" height="2" style="stroke:#181818;stroke-width:0.5;" width="4" x="751.7548" y="731.9769"/><rect fill="#F1F1F1" height="2" style="stroke:#181818;stroke-width:0.5;" width="4" x="751.7548" y="735.9769"/><text fill="#000000" font-family="sans-serif" font-size="14" lengthAdjust="spacing" textLength="114.2148" x="634.54" y="757.972">Patient Journeys</text></g><!--entity In-memory store--><g class="entity" data-qualified-name="Persistence.In-memory store" data-source-line="27" id="ent0016"><rect fill="#F1F1F1" height="46.2969" rx="2.5" ry="2.5" style="stroke:#181818;stroke-width:0.5;" width="156.7168" x="618.29" y="1031.9769"/><rect fill="#F1F1F1" height="10" style="stroke:#181818;stroke-width:0.5;" width="15" x="755.0068" y="1036.9769"/><rect fill="#F1F1F1" height="2" style="stroke:#181818;stroke-width:0.5;" width="4" x="753.0068" y="1038.9769"/><rect fill="#F1F1F1" height="2" style="stroke:#181818;stroke-width:0.5;" width="4" x="753.0068" y="1042.9769"/><text fill="#000000" font-family="sans-serif" font-size="14" lengthAdjust="spacing" textLength="116.7168" x="633.29" y="1064.972">In-memory store</text></g><!--entity localStorage--><g class="entity" data-qualified-name="Persistence.localStorage" data-source-line="28" id="ent0017"><rect fill="#F1F1F1" height="46.2969" rx="2.5" ry="2.5" style="stroke:#181818;stroke-width:0.5;" width="127.3975" x="880.69" y="1031.9769"/><rect fill="#F1F1F1" height="10" style="stroke:#181818;stroke-width:0.5;" width="15" x="988.0875" y="1036.9769"/><rect fill="#F1F1F1" height="2" style="stroke:#181818;stroke-width:0.5;" width="4" x="986.0875" y="1038.9769"/><rect fill="#F1F1F1" height="2" style="stroke:#181818;stroke-width:0.5;" width="4" x="986.0875" y="1042.9769"/><text fill="#000000" font-family="sans-serif" font-size="14" lengthAdjust="spacing" textLength="87.3975" x="895.69" y="1064.972">localStorage</text></g><g class="entity" data-qualified-name="GMN28" data-source-line="43" id="ent0029"><path d="M586.32,254.7269 L586.32,355.5237 L806.9728,355.5237 L806.9728,264.7269 L796.9728,254.7269 L586.32,254.7269" fill="#FEFFDD" style="stroke:#181818;stroke-width:0.5;"/><path d="M796.9728,254.7269 L796.9728,264.7269 L806.9728,264.7269 L796.9728,254.7269" fill="#FEFFDD" style="stroke:#181818;stroke-width:1;"/><text fill="#000000" font-family="sans-serif" font-size="13" lengthAdjust="spacing" textLength="170.041" x="592.32" y="271.7938">Computes effective steps,</text><text fill="#000000" font-family="sans-serif" font-size="13" lengthAdjust="spacing" textLength="141.7559" x="592.32" y="286.9266">hydrates instructions,</text><text fill="#000000" font-family="sans-serif" font-size="13" lengthAdjust="spacing" textLength="183.7964" x="592.32" y="302.0594">handles template derivation</text><text fill="#000000" font-family="sans-serif" font-size="13" lengthAdjust="spacing" textLength="158.4565" x="592.32" y="317.1922">and SWITCH_TEMPLATE,</text><text fill="#000000" font-family="sans-serif" font-size="13" lengthAdjust="spacing" textLength="151.0742" x="592.32" y="332.325">pause-shift calculation,</text><text fill="#000000" font-family="sans-serif" font-size="13" lengthAdjust="spacing" textLength="199.6528" x="592.32" y="347.4578">getMergedDueStepsForPatient</text></g><g class="entity" data-qualified-name="GMN31" data-source-line="52" id="ent0032"><path d="M572.61,164.4269 L572.61,219.8253 L820.6974,219.8253 L820.6974,174.4269 L810.6974,164.4269 L572.61,164.4269" fill="#FEFFDD" style="stroke:#181818;stroke-width:0.5;"/><path d="M810.6974,164.4269 L810.6974,174.4269 L820.6974,174.4269 L810.6974,164.4269" fill="#FEFFDD" style="stroke:#181818;stroke-width:1;"/><text fill="#000000" font-family="sans-serif" font-size="13" lengthAdjust="spacing" textLength="181.8477" x="578.61" y="181.4938">grantConsent (idempotent),</text><text fill="#000000" font-family="sans-serif" font-size="13" lengthAdjust="spacing" textLength="227.0874" x="578.61" y="196.6266">revokeConsent, hasActiveConsent,</text><text fill="#000000" font-family="sans-serif" font-size="13" lengthAdjust="spacing" textLength="157.2251" x="578.61" y="211.7594">audit trail via revokedAt</text></g><g class="entity" data-qualified-name="GMN34" data-source-line="58" id="ent0035"><path d="M585.52,43.2969 L585.52,128.9609 L807.7724,128.9609 L807.7724,53.2969 L797.7724,43.2969 L585.52,43.2969" fill="#FEFFDD" style="stroke:#181818;stroke-width:0.5;"/><path d="M797.7724,43.2969 L797.7724,53.2969 L807.7724,53.2969 L797.7724,43.2969" fill="#FEFFDD" style="stroke:#181818;stroke-width:1;"/><text fill="#000000" font-family="sans-serif" font-size="13" lengthAdjust="spacing" textLength="140.8989" x="591.52" y="60.3638">assignPatientJourney,</text><text fill="#000000" font-family="sans-serif" font-size="13" lengthAdjust="spacing" textLength="199.2466" x="591.52" y="75.4966">pauseJourney, resumeJourney,</text><text fill="#000000" font-family="sans-serif" font-size="13" lengthAdjust="spacing" textLength="144.0347" x="591.52" y="90.6294">modifyPatientJourney,</text><text fill="#000000" font-family="sans-serif" font-size="13" lengthAdjust="spacing" textLength="95.5449" x="591.52" y="105.7622">cancelJourney,</text><text fill="#000000" font-family="sans-serif" font-size="13" lengthAdjust="spacing" textLength="201.2524" x="591.52" y="120.895">totalPausedDays accumulation</text></g><!--link React UI to src/api/client--><g class="link" data-entity-1="ent0003" data-entity-2="ent0005" data-link-type="dependency" data-source-line="31" id="lnk18"><path d="M121.43,748.1269 C139.85,748.1269 155.08,748.1269 174.69,748.1269" fill="none" id="React UI-to-src/api/client" style="stroke:#181818;stroke-width:1;"/><polygon fill="#181818" points="180.69,748.1269,171.69,744.1269,175.69,748.1269,171.69,752.1269,180.69,748.1269" style="stroke:#181818;stroke-width:1;"/></g><!--link src/api/client to src/api/service--><g class="link" data-entity-1="ent0005" data-entity-2="ent0007" data-link-type="dependency" data-source-line="32" id="lnk19"><path d="M311.2,748.1269 C330.27,748.1269 345.24,748.1269 364.66,748.1269" fill="none" id="src/api/client-to-src/api/service" style="stroke:#181818;stroke-width:1;"/><polygon fill="#181818" points="370.66,748.1269,361.66,744.1269,365.66,748.1269,361.66,752.1269,370.66,748.1269" style="stroke:#181818;stroke-width:1;"/></g><!--link src/api/service to Policy Parser--><g class="link" data-entity-1="ent0007" data-entity-2="ent0009" data-link-type="dependency" data-source-line="33" id="lnk20"><path d="M504.43,724.5269 C519.92,718.7269 536.53,712.6069 551.99,707.1269 C567.11,701.7669 577.497,698.1614 593.207,692.8414" fill="none" id="src/api/service-to-Policy Parser" style="stroke:#181818;stroke-width:1;"/><polygon fill="#181818" points="598.89,690.9169,589.0825,690.0149,594.1542,692.5206,591.6485,697.5922,598.89,690.9169" style="stroke:#181818;stroke-width:1;"/></g><!--link src/api/service to Journal Renderer--><g class="link" data-entity-1="ent0007" data-entity-2="ent0010" data-link-type="dependency" data-source-line="34" id="lnk21"><path d="M455.53,724.6869 C473.31,694.1369 508.32,640.9769 551.99,610.1269 C561.25,603.5869 566.0272,600.4345 576.5872,595.4345" fill="none" id="src/api/service-to-Journal Renderer" style="stroke:#181818;stroke-width:1;"/><polygon fill="#181818" points="582.01,592.8669,572.164,593.1031,577.491,595.0066,575.5875,600.3336,582.01,592.8669" style="stroke:#181818;stroke-width:1;"/></g><!--link src/api/service to Journey Resolver--><g class="link" data-entity-1="ent0007" data-entity-2="ent0011" data-link-type="dependency" data-source-line="35" id="lnk22"><path d="M457.56,771.5469 C476.24,799.1869 510.94,844.6169 551.99,870.1269 C571.67,882.3569 589.3557,889.3694 611.5657,895.3394" fill="none" id="src/api/service-to-Journey Resolver" style="stroke:#181818;stroke-width:1;"/><polygon fill="#181818" points="617.36,896.8969,609.7068,890.6977,612.5314,895.599,607.6302,898.4235,617.36,896.8969" style="stroke:#181818;stroke-width:1;"/></g><!--link src/api/service to Instruction Templates--><g class="link" data-entity-1="ent0007" data-entity-2="ent0012" data-link-type="dependency" data-source-line="36" id="lnk23"><path d="M446.84,724.7569 C456.36,677.3269 484.56,569.4369 551.99,512.1269 C565.7,500.4769 576.8788,494.1268 594.1588,488.2568" fill="none" id="src/api/service-to-Instruction Templates" style="stroke:#181818;stroke-width:1;"/><polygon fill="#181818" points="599.84,486.3269,590.0317,485.4343,595.1057,487.9351,592.6049,493.0091,599.84,486.3269" style="stroke:#181818;stroke-width:1;"/></g><!--link src/api/service to Research Consents--><g class="link" data-entity-1="ent0007" data-entity-2="ent0013" data-link-type="dependency" data-source-line="37" id="lnk24"><path d="M502.81,771.7469 C518.7,777.6969 535.91,783.8769 551.99,789.1269 C570.33,795.1069 584.386,799.3655 603.286,804.7055" fill="none" id="src/api/service-to-Research Consents" style="stroke:#181818;stroke-width:1;"/><polygon fill="#181818" points="609.06,806.3369,601.4866,800.0405,604.2484,804.9774,599.3115,807.7391,609.06,806.3369" style="stroke:#181818;stroke-width:1;"/></g><!--link src/api/service to Patient Journeys--><g class="link" data-entity-1="ent0007" data-entity-2="ent0014" data-link-type="dependency" data-source-line="38" id="lnk25"><path d="M512.87,748.1269 C545.91,748.1269 579.39,748.1269 613.19,748.1269" fill="none" id="src/api/service-to-Patient Journeys" style="stroke:#181818;stroke-width:1;"/><polygon fill="#181818" points="619.19,748.1269,610.19,744.1269,614.19,748.1269,610.19,752.1269,619.19,748.1269" style="stroke:#181818;stroke-width:1;"/></g><!--link src/api/service to In-memory store--><g class="link" data-entity-1="ent0007" data-entity-2="ent0016" data-link-type="dependency" data-source-line="39" id="lnk26"><path d="M451.54,771.5369 C467.23,811.2469 503.09,892.9669 551.99,949.1269 C581.4,982.9069 618.281,1009.1545 649.271,1028.3745" fill="none" id="src/api/service-to-In-memory store" style="stroke:#181818;stroke-width:1;"/><polygon fill="#181818" points="654.37,1031.5369,648.8298,1023.394,650.1209,1028.9016,644.6133,1030.1926,654.37,1031.5369" style="stroke:#181818;stroke-width:1;"/></g><!--link In-memory store to localStorage--><g class="link" data-entity-1="ent0016" data-entity-2="ent0017" data-link-type="dependency" data-source-line="40" id="lnk27"><path d="M775.4,1055.1269 C809.29,1055.1269 842.5,1055.1269 874.51,1055.1269" fill="none" id="In-memory store-to-localStorage" style="stroke:#181818;stroke-width:1;"/><polygon fill="#181818" points="880.51,1055.1269,871.51,1051.1269,875.51,1055.1269,871.51,1059.1269,880.51,1055.1269" style="stroke:#181818;stroke-width:1;"/></g><!--link Journey Resolver to GMN28--><g class="link" data-entity-1="ent0011" data-entity-2="ent0029" data-link-type="association" data-source-line="43" id="lnk30"><path d="M617.16,906.2969 C582.67,899.7969 546.85,885.0269 532.3,852.6269 C514,811.8769 514,491.3769 532.3,450.6269 C549.47,412.3869 582.23,380.1469 614.01,355.8069" fill="none" id="Journey Resolver-GMN28" style="stroke:#181818;stroke-width:1;stroke-dasharray:7,7;"/></g><!--link Research Consents to GMN31--><g class="link" data-entity-1="ent0013" data-entity-2="ent0032" data-link-type="association" data-source-line="52" id="lnk33"><path d="M609.22,823.6569 C577.31,816.4369 545.74,801.5469 532.3,771.6269 C508.76,719.2269 508.76,307.0269 532.3,254.6269 C540.43,236.5269 555.03,223.5869 572.28,214.3569" fill="none" id="Research Consents-GMN31" style="stroke:#181818;stroke-width:1;stroke-dasharray:7,7;"/></g><!--link Patient Journeys to GMN34--><g class="link" data-entity-1="ent0014" data-entity-2="ent0035" data-link-type="association" data-source-line="58" id="lnk36"><path d="M619.36,744.7069 C584.2,738.4169 547.16,723.7169 532.3,690.6269 C508.35,637.3169 508.35,217.9369 532.3,164.6269 C542.66,141.5469 562.6,125.2269 585.11,113.6969" fill="none" id="Patient Journeys-GMN34" style="stroke:#181818;stroke-width:1;stroke-dasharray:7,7;"/></g><?plantuml-src VLHTYjim47xtAOPzQalIN609X6HBKpPWDYbzM4BHIXD7NLaoqjXWoa8FqHFs91t_9N4SxwE_7tdc6ur8aq7Obe4mXOMNHqqeAVS8__xyXQLBCsVH4goqIBn8eyZWWO0SU9qS2PJsBDVEHb4cvAj84EwMHhFZ3dv70CzFA2J1z_K-UhkGBE8rz6J1ovd8z4pMO5-yHLzeYV0eIlHN-j1m-uZ1as7ZL6umD58MnyveMK8iFCltS7_VkREQQF3Pf_cyaNzpkRV2m1DQXRxl-DLm7VMPGi-59Rk2CmMx6dXj0_cyZWXsc6P648QMOoaAZfnZje7Rxl1OK9K2j4VMy5ilaXXzq3moAx4DP6sdAQREbn38UQmipyP9ORRyoPuwqlCqO3gT3rE_1lggKzO3fD7rOnvJ3T9zLzWBT4Gu4l68-aReO_qCnZ1Qm5Ns0wJHzUSHMKS8Bux8fU0EjszGjO0vjmDuE5IBLY2VY5cOC7SibQzQ1NqEe264LNp_WTemW8FMXQZN5819sFvOxvPVV-uUDl7ZOlSmgRSd3pWDHythpMNAtDI6YagGDkWJLAiSjzNVlpZVXXFn5A5gPDZEpTlDRuYb5e0FMd65RBFqiVgFnyAzOijEk8smg5lkaAhuN6b-VhpG1WejMejQl5V8hNKI8UZ4janBd5BelldqaATuGQTEwKCvj4d1csWk078aJ5mTfbQY322apDCsqdEf_m40?></g></svg>