<?plantuml 1.2026.1?><svg xmlns="http://www.w3.org/2000/svg" xmlns:xlink="http://www.w3.org/1999/xlink" contentStyleType="text/css" data-diagram-type="DESCRIPTION" height="697px" preserveAspectRatio="none" style="width:1024px;height:697px;background:#FFFFFF;" version="1.1" viewBox="0 0 1024 697" width="1024px" zoomAndPan="magnify"><title>High-level Architecture &#8212; Duk Demo</title><defs/><g><g class="title" data-source-line="1"><text fill="#000000" font-family="sans-serif" font-size="14" font-weight="bold" lengthAdjust="spacing" textLength="288.0938" x="361.1131" y="22.9951">High-level Architecture &#8212; Duk Demo</text></g><!--cluster Client--><g class="cluster" data-qualified-name="Client" data-source-line="5" id="ent0002"><path d="M8.5,359.5669 L55.5264,359.5669 A3.75,3.75 0 0 1 58.0264,362.0669 L65.0264,381.8638 L134.43,381.8638 A2.5,2.5 0 0 1 136.93,384.3638 L136.93,454.0669 A2.5,2.5 0 0 1 134.43,456.5669 L8.5,456.5669 A2.5,2.5 0 0 1 6,454.0669 L6,362.0669 A2.5,2.5 0 0 1 8.5,359.5669" fill="none" style="stroke:#000000;stroke-width:1.5;"/><line style="stroke:#000000;stroke-width:1.5;" x1="6" x2="65.0264" y1="381.8638" y2="381.8638"/><text fill="#000000" font-family="sans-serif" font-size="14" font-weight="bold" lengthAdjust="spacing" textLength="46.0264" x="10" y="374.562">Client</text></g><!--cluster API Client--><g class="cluster" data-qualified-name="API Client" data-source-line="9" id="ent0004"><path d="M167.43,359.5669 L245.6351,359.5669 A3.75,3.75 0 0 1 248.1351,362.0669 L255.1351,381.8638 L324.42,381.8638 A2.5,2.5 0 0 1 326.92,384.3638 L326.92,454.0669 A2.5,2.5 0 0 1 324.42,456.5669 L167.43,456.5669 A2.5,2.5 0 0 1 164.93,454.0669 L164.93,362.0669 A2.5,2.5 0 0 1 167.43,359.5669" fill="none" style="stroke:#000000;stroke-width:1.5;"/><line style="stroke:#000000;stroke-width:1.5;" x1="164.93" x2="255.1351" y1="381.8638" y2="381.8638"/><text fill="#000000" font-family="sans-serif" font-size="14" font-weight="bold" lengthAdjust="spacing" textLength="77.2051" x="168.93" y="374.562">API Client</text></g><!--cluster Service Layer--><g class="cluster" data-qualified-name="Service Layer" data-source-line="13" id="ent0006"><path d="M357.42,129.5669 L465.3888,129.5669 A3.75,3.75 0 0 1 467.8888,132.0669 L474.8888,151.8637 L851.42,151.8637 A2.5,2.5 0 0 1 853.92,154.3637 L853.92,567.0669 A2.5,2.5 0 0 1 851.42,569.5669 L357.42,569.5669 A2.5,2.5 0 0 1 354.92,567.0669 L354.92,132.0669 A2.5,2.5 0 0 1 357.42,129.5669" fill="none" style="stroke:#000000;stroke-width:1.5;"/><line style="stroke:#000000;stroke-width:1.5;" x1="354.92" x2="474.8888" y1="151.8637" y2="151.8637"/><text fill="#000000" font-family="sans-serif" font-size="14" font-weight="bold" lengthAdjust="spacing" textLength="106.9688" x="358.92" y="144.562">Service Layer</text></g><!--cluster Modules--><g class="cluster" data-qualified-name="Service Layer.Modules" data-source-line="16" id="ent0008"><path d="M559.11,172.5669 L626.275,172.5669 A3.75,3.75 0 0 1 628.775,175.0669 L635.775,194.8637 L827.42,194.8637 A2.5,2.5 0 0 1 829.92,197.3637 L829.92,543.0669 A2.5,2.5 0 0 1 827.42,545.5669 L559.11,545.5669 A2.5,2.5 0 0 1 556.61,543.0669 L556.61,175.0669 A2.5,2.5 0 0 1 559.11,172.5669" fill="none" style="stroke:#000000;stroke-width:1.5;"/><line style="stroke:#000000;stroke-width:1.5;" x1="556.61" x2="635.775" y1="194.8637" y2="194.8637"/><text fill="#000000" font-family="sans-serif" font-size="14" font-weight="bold" lengthAdjust="spacing" textLength="66.165" x="560.61" y="187.562">Modules</text></g><!--cluster Persistence--><g class="cluster" data-qualified-name="Persistence" data-source-line="24" id="ent0013"><path d="M601.4,593.5669 L694.4732,593.5669 A3.75,3.75 0 0 1 696.9732,596.0669 L703.9732,615.8638 L1014.82,615.8638 A2.5,2.5 0 0 1 1017.32,618.3638 L1017.32,688.0669 A2.5,2.5 0 0 1 1014.82,690.5669 L601.4,690.5669 A2.5,2.5 0 0 1 598.9,688.0669 L598.9,596.0669 A2.5,2.5 0 0 1 601.4,593.5669" fill="none" style="stroke:#000000;stroke-width:1.5;"/><line style="stroke:#000000;stroke-width:1.5;" x1="598.9" x2="703.9732" y1="615.8638" y2="615.8638"/><text fill="#000000" font-family="sans-serif" font-size="14" font-weight="bold" lengthAdjust="spacing" textLength="92.0732" x="602.9" y="608.562">Persistence</text></g><!--entity React UI--><g class="entity" data-qualified-name="Client.React UI" data-source-line="6" id="ent0003"><rect fill="#F1F1F1" height="46.2969" rx="2.5" ry="2.5" style="stroke:#181818;stroke-width:0.5;" width="98.9326" x="22" y="394.4169"/><rect fill="#F1F1F1" height="10" style="stroke:#181818;stroke-width:0.5;" width="15" x="100.9326" y="399.4169"/><rect fill="#F1F1F1" height="2" style="stroke:#181818;stroke-width:0.5;" width="4" x="98.9326" y="401.4169"/><rect fill="#F1F1F1" height="2" style="stroke:#181818;stroke-width:0.5;" width="4" x="98.9326" y="405.4169"/><text fill="#000000" font-family="sans-serif" font-size="14" lengthAdjust="spacing" textLength="58.9326" x="37" y="427.412">React UI</text></g><!--entity src/api/client--><g class="entity" data-qualified-name="API Client.src.api.client" data-source-line="10" id="ent0005"><rect fill="#F1F1F1" height="46.2969" rx="2.5" ry="2.5" style="stroke:#181818;stroke-width:0.5;" width="129.9883" x="180.93" y="394.4169"/><rect fill="#F1F1F1" height="10" style="stroke:#181818;stroke-width:0.5;" width="15" x="290.9183" y="399.4169"/><rect fill="#F1F1F1" height="2" style="stroke:#181818;stroke-width:0.5;" width="4" x="288.9183" y="401.4169"/><rect fill="#F1F1F1" height="2" style="stroke:#181818;stroke-width:0.5;" width="4" x="288.9183" y="405.4169"/><text fill="#000000" font-family="sans-serif" font-size="14" lengthAdjust="spacing" textLength="89.9883" x="195.93" y="427.412">src/api/client</text></g><!--entity src/api/service--><g class="entity" data-qualified-name="Service Layer.src.api.service" data-source-line="14" id="ent0007"><rect fill="#F1F1F1" height="46.2969" rx="2.5" ry="2.5" style="stroke:#181818;stroke-width:0.5;" width="141.6846" x="370.92" y="394.4169"/><rect fill="#F1F1F1" height="10" style="stroke:#181818;stroke-width:0.5;" width="15" x="492.6046" y="399.4169"/><rect fill="#F1F1F1" height="2" style="stroke:#181818;stroke-width:0.5;" width="4" x="490.6046" y="401.4169"/><rect fill="#F1F1F1" height="2" style="stroke:#181818;stroke-width:0.5;" width="4" x="490.6046" y="405.4169"/><text fill="#000000" font-family="sans-serif" font-size="14" lengthAdjust="spacing" textLength="101.6846" x="385.92" y="427.412">src/api/service</text></g><!--entity Policy Parser--><g class="entity" data-qualified-name="Service Layer.Modules.Policy Parser" data-source-line="17" id="ent0009"><rect fill="#F1F1F1" height="62.5938" rx="2.5" ry="2.5" style="stroke:#181818;stroke-width:0.5;" width="208.1885" x="589.17" y="386.2669"/><rect fill="#F1F1F1" height="10" style="stroke:#181818;stroke-width:0.5;" width="15" x="777.3585" y="391.2669"/><rect fill="#F1F1F1" height="2" style="stroke:#181818;stroke-width:0.5;" width="4" x="775.3585" y="393.2669"/><rect fill="#F1F1F1" height="2" style="stroke:#181818;stroke-width:0.5;" width="4" x="775.3585" y="397.2669"/><text fill="#000000" font-family="sans-serif" font-size="14" font-style="italic" lengthAdjust="spacing" textLength="166.1885" x="605.17" y="419.262">&#171;src/api/policyParser/*&#187;</text><text fill="#000000" font-family="sans-serif" font-size="14" lengthAdjust="spacing" textLength="89.6602" x="643.4342" y="435.5589">Policy Parser</text></g><!--entity Journal Renderer--><g class="entity" data-qualified-name="Service Layer.Modules.Journal Renderer" data-source-line="18" id="ent0010"><rect fill="#F1F1F1" height="62.5938" rx="2.5" ry="2.5" style="stroke:#181818;stroke-width:0.5;" width="241.3154" x="572.61" y="288.2669"/><rect fill="#F1F1F1" height="10" style="stroke:#181818;stroke-width:0.5;" width="15" x="793.9254" y="293.2669"/><rect fill="#F1F1F1" height="2" style="stroke:#181818;stroke-width:0.5;" width="4" x="791.9254" y="295.2669"/><rect fill="#F1F1F1" height="2" style="stroke:#181818;stroke-width:0.5;" width="4" x="791.9254" y="299.2669"/><text fill="#000000" font-family="sans-serif" font-size="14" font-style="italic" lengthAdjust="spacing" textLength="199.3154" x="588.61" y="321.262">&#171;src/api/journalRenderer.ts&#187;</text><text fill="#000000" font-family="sans-serif" font-size="14" lengthAdjust="spacing" textLength="117.9541" x="629.2907" y="337.5589">Journal Renderer</text></g><!--entity Journey Resolver--><g class="entity" data-qualified-name="Service Layer.Modules.Journey Resolver" data-source-line="19" id="ent0011"><rect fill="#F1F1F1" height="46.2969" rx="2.5" ry="2.5" style="stroke:#181818;stroke-width:0.5;" width="158.2891" x="614.12" y="483.4169"/><rect fill="#F1F1F1" height="10" style="stroke:#181818;stroke-width:0.5;" width="15" x="752.4091" y="488.4169"/><rect fill="#F1F1F1" height="2" style="stroke:#181818;stroke-width:0.5;" width="4" x="750.4091" y="490.4169"/><rect fill="#F1F1F1" height="2" style="stroke:#181818;stroke-width:0.5;" width="4" x="750.4091" y="494.4169"/><text fill="#000000" font-family="sans-serif" font-size="14" lengthAdjust="spacing" textLength="118.2891" x="629.12" y="516.412">Journey Resolver</text></g><!--entity Instruction Templates--><g class="entity" data-qualified-name="Service Layer.Modules.Instruction Templates" data-source-line="20" id="ent0012"><rect fill="#F1F1F1" height="46.2969" rx="2.5" ry="2.5" style="stroke:#181818;stroke-width:0.5;" width="192.9336" x="596.8" y="207.4169"/><rect fill="#F1F1F1" height="10" style="stroke:#181818;stroke-width:0.5;" width="15" x="769.7336" y="212.4169"/><rect fill="#F1F1F1" height="2" style="stroke:#181818;stroke-width:0.5;" width="4" x="767.7336" y="214.4169"/><rect fill="#F1F1F1" height="2" style="stroke:#181818;stroke-width:0.5;" width="4" x="767.7336" y="218.4169"/><text fill="#000000" font-family="sans-serif" font-size="14" lengthAdjust="spacing" textLength="152.9336" x="611.8" y="240.412">Instruction Templates</text></g><!--entity In-memory store--><g class="entity" data-qualified-name="Persistence.In-memory store" data-source-line="25" id="ent0014"><rect fill="#F1F1F1" height="46.2969" rx="2.5" ry="2.5" style="stroke:#181818;stroke-width:0.5;" width="156.7168" x="614.9" y="628.4169"/><rect fill="#F1F1F1" height="10" style="stroke:#181818;stroke-width:0.5;" width="15" x="751.6168" y="633.4169"/><rect fill="#F1F1F1" height="2" style="stroke:#181818;stroke-width:0.5;" width="4" x="749.6168" y="635.4169"/><rect fill="#F1F1F1" height="2" style="stroke:#181818;stroke-width:0.5;" width="4" x="749.6168" y="639.4169"/><text fill="#000000" font-family="sans-serif" font-size="14" lengthAdjust="spacing" textLength="116.7168" x="629.9" y="661.412">In-memory store</text></g><!--entity localStorage--><g class="entity" data-qualified-name="Persistence.localStorage" data-source-line="26" id="ent0015"><rect fill="#F1F1F1" height="46.2969" rx="2.5" ry="2.5" style="stroke:#181818;stroke-width:0.5;" width="127.3975" x="873.92" y="628.4169"/><rect fill="#F1F1F1" height="10" style="stroke:#181818;stroke-width:0.5;" width="15" x="981.3175" y="633.4169"/><rect fill="#F1F1F1" height="2" style="stroke:#181818;stroke-width:0.5;" width="4" x="979.3175" y="635.4169"/><rect fill="#F1F1F1" height="2" style="stroke:#181818;stroke-width:0.5;" width="4" x="979.3175" y="639.4169"/><text fill="#000000" font-family="sans-serif" font-size="14" lengthAdjust="spacing" textLength="87.3975" x="888.92" y="661.412">localStorage</text></g><g class="entity" data-qualified-name="GMN24" data-source-line="39" id="ent0025"><path d="M590.86,43.2969 L590.86,113.8281 L795.6564,113.8281 L795.6564,53.2969 L785.6564,43.2969 L590.86,43.2969" fill="#FEFFDD" style="stroke:#181818;stroke-width:0.5;"/><path d="M785.6564,43.2969 L785.6564,53.2969 L795.6564,53.2969 L785.6564,43.2969" fill="#FEFFDD" style="stroke:#181818;stroke-width:1;"/><text fill="#000000" font-family="sans-serif" font-size="13" lengthAdjust="spacing" textLength="170.041" x="596.86" y="60.3638">Computes effective steps,</text><text fill="#000000" font-family="sans-serif" font-size="13" lengthAdjust="spacing" textLength="141.7559" x="596.86" y="75.4966">hydrates instructions,</text><text fill="#000000" font-family="sans-serif" font-size="13" lengthAdjust="spacing" textLength="183.7964" x="596.86" y="90.6294">handles template derivation</text><text fill="#000000" font-family="sans-serif" font-size="13" lengthAdjust="spacing" textLength="140.0039" x="596.86" y="105.7622">&amp; SWITCH_TEMPLATE</text></g><!--link React UI to src/api/client--><g class="link" data-entity-1="ent0003" data-entity-2="ent0005" data-link-type="dependency" data-source-line="29" id="lnk16"><path d="M121.43,417.5669 C139.85,417.5669 155.08,417.5669 174.69,417.5669" fill="none" id="React UI-to-src/api/client" style="stroke:#181818;stroke-width:1;"/><polygon fill="#181818" points="180.69,417.5669,171.69,413.5669,175.69,417.5669,171.69,421.5669,180.69,417.5669" style="stroke:#181818;stroke-width:1;"/></g><!--link src/api/client to src/api/service--><g class="link" data-entity-1="ent0005" data-entity-2="ent0007" data-link-type="dependency" data-source-line="30" id="lnk17"><path d="M311.2,417.5669 C330.27,417.5669 345.24,417.5669 364.66,417.5669" fill="none" id="src/api/client-to-src/api/service" style="stroke:#181818;stroke-width:1;"/><polygon fill="#181818" points="370.66,417.5669,361.66,413.5669,365.66,417.5669,361.66,421.5669,370.66,417.5669" style="stroke:#181818;stroke-width:1;"/></g><!--link src/api/service to Policy Parser--><g class="link" data-entity-1="ent0007" data-entity-2="ent0009" data-link-type="dependency" data-source-line="31" id="lnk18"><path d="M512.93,417.5669 C536.56,417.5669 557.46,417.5669 583.1,417.5669" fill="none" id="src/api/service-to-Policy Parser" style="stroke:#181818;stroke-width:1;"/><polygon fill="#181818" points="589.1,417.5669,580.1,413.5669,584.1,417.5669,580.1,421.5669,589.1,417.5669" style="stroke:#181818;stroke-width:1;"/></g><!--link src/api/service to Journal Renderer--><g class="link" data-entity-1="ent0007" data-entity-2="ent0010" data-link-type="dependency" data-source-line="32" id="lnk19"><path d="M491.04,393.9169 C508.94,385.4969 529.53,376.2169 548.61,368.5669 C563.4,362.6369 573.5738,358.7787 589.1138,353.2787" fill="none" id="src/api/service-to-Journal Renderer" style="stroke:#181818;stroke-width:1;"/><polygon fill="#181818" points="594.77,351.2769,584.9511,350.5089,590.0565,352.9451,587.6203,358.0505,594.77,351.2769" style="stroke:#181818;stroke-width:1;"/></g><!--link src/api/service to Journey Resolver--><g class="link" data-entity-1="ent0007" data-entity-2="ent0011" data-link-type="dependency" data-source-line="33" id="lnk20"><path d="M489.49,441.1869 C507.67,449.8469 528.84,459.2969 548.61,466.5669 C569.38,474.2069 586.5201,479.5965 607.8401,485.5365" fill="none" id="src/api/service-to-Journey Resolver" style="stroke:#181818;stroke-width:1;"/><polygon fill="#181818" points="613.62,487.1469,606.0238,480.8781,608.8034,485.8049,603.8766,488.5846,613.62,487.1469" style="stroke:#181818;stroke-width:1;"/></g><!--link src/api/service to Instruction Templates--><g class="link" data-entity-1="ent0007" data-entity-2="ent0012" data-link-type="dependency" data-source-line="34" id="lnk21"><path d="M453.33,394.1369 C469.27,361.4869 502.57,302.6869 548.61,270.5669 C562.94,260.5669 574.0072,254.9522 590.9172,249.3222" fill="none" id="src/api/service-to-Instruction Templates" style="stroke:#181818;stroke-width:1;"/><polygon fill="#181818" points="596.61,247.4269,586.8073,246.4747,591.866,249.0063,589.3344,254.0651,596.61,247.4269" style="stroke:#181818;stroke-width:1;"/></g><!--link src/api/service to In-memory store--><g class="link" data-entity-1="ent0007" data-entity-2="ent0014" data-link-type="dependency" data-source-line="35" id="lnk22"><path d="M459.21,440.7369 C478.83,467.5469 513.42,512.2669 548.61,545.5669 C582.04,577.2069 620.0262,604.481 650.2362,624.601" fill="none" id="src/api/service-to-In-memory store" style="stroke:#181818;stroke-width:1;"/><polygon fill="#181818" points="655.23,627.9269,649.9565,619.6088,651.0685,625.1553,645.522,626.2672,655.23,627.9269" style="stroke:#181818;stroke-width:1;"/></g><!--link In-memory store to localStorage--><g class="link" data-entity-1="ent0014" data-entity-2="ent0015" data-link-type="dependency" data-source-line="36" id="lnk23"><path d="M771.95,651.5669 C804.76,651.5669 836.48,651.5669 867.53,651.5669" fill="none" id="In-memory store-to-localStorage" style="stroke:#181818;stroke-width:1;"/><polygon fill="#181818" points="873.53,651.5669,864.53,647.5669,868.53,651.5669,864.53,655.5669,873.53,651.5669" style="stroke:#181818;stroke-width:1;"/></g><!--link Journey Resolver to GMN24--><g class="link" data-entity-1="ent0011" data-entity-2="ent0025" data-link-type="association" data-source-line="39" id="lnk26"><path d="M613.98,502.7569 C579.69,496.2569 544.3,481.4869 530.61,449.0669 C509.85,399.9369 509.85,258.1969 530.61,209.0669 C548.01,167.8769 586.47,136.0569 621.63,114.1569" fill="none" id="Journey Resolver-GMN24" style="stroke:#181818;stroke-width:1;stroke-dasharray:7,7;"/></g><?plantuml-src VPFHQi8m58RlynG7BtOnvdm14KG5EnIAEdOXChBqE3FJf2IdXJA4FSIUS4-oj9dRedEN_S_tjoTVMvAa4ARoUTTLMA62eHKxIIYej0WVR-ymBlSmnjmmfd1BG0QifmaoQJqbZMQiu6BFdn4w8oLHKmTU6S1wWLmGt2SRTlY53DC48inPqUE5x8asZE4bsaeAX1clqPxmBimsp8VVXRd9IeKke1vEZPAYXfHRZs-Wtp-sYtOGyjxrO13mErDQpHKiK6TeuyPBc1r7j-IY5jQ-vOogV2l4YNPaorOHh30l52TqpUmGdJ55wwGZr0A_JfZeRkw5sneS6OjDPQsCu6hfBtsdTVIZ5xhTmRd6qo2clkMT9O6BlLsYpdJz2qQ6Be0Nd5saJqIT9O6BvJ5j2E7949aSpFRlzpSoUL7wPmDkjyrdNg6_8nRknizsTMQRlK3-R1i6N6V-wmFwsXoy5LdnzYS1k8BbGx8QJHzNataw6wucp6k3PXds2G00?></g></svg>