<?plantuml 1.2026.2?><svg xmlns="http://www.w3.org/2000/svg" xmlns:xlink="http://www.w3.org/1999/xlink" contentStyleType="text/css" data-diagram-type="ACTIVITY" height="640px" preserveAspectRatio="none" style="width:614px;height:640px;background:#FFFFFF;" version="1.1" viewBox="0 0 614 640" width="614px" zoomAndPan="magnify"><title>Parallel Journeys &#8212; Due-Step Deduplication Activity Diagram</title><defs/><g><g class="title" data-source-line="1"><text fill="#000000" font-family="sans-serif" font-size="14" font-weight="bold" lengthAdjust="spacing" textLength="481.7422" x="64.8435" y="32.9951">Parallel Journeys &#8212; Due-Step Deduplication Activity Diagram</text></g><ellipse cx="244.707" cy="57.2969" fill="#222222" rx="10" ry="10" style="stroke:#222222;stroke-width:1;"/><rect fill="#F1F1F1" height="33.9688" rx="12.5" ry="12.5" style="stroke:#181818;stroke-width:0.5;" width="296.1816" x="96.6162" y="87.2969"/><text fill="#000000" font-family="sans-serif" font-size="12" lengthAdjust="spacing" textLength="276.1816" x="106.6162" y="108.4355">Load ACTIVE/SUSPENDED journeys for patient</text><rect fill="#F1F1F1" height="33.9688" rx="12.5" ry="12.5" style="stroke:#181818;stroke-width:0.5;" width="314.7031" x="87.3555" y="141.2656"/><text fill="#000000" font-family="sans-serif" font-size="12" lengthAdjust="spacing" textLength="294.7031" x="97.3555" y="162.4043">For each journey -&gt; getEffectiveSteps(journeyId)</text><rect fill="#F1F1F1" height="33.9688" rx="12.5" ry="12.5" style="stroke:#181818;stroke-width:0.5;" width="218.6914" x="135.3613" y="195.2344"/><text fill="#000000" font-family="sans-serif" font-size="12" lengthAdjust="spacing" textLength="198.6914" x="145.3613" y="216.373">Filter steps due for selected date</text><rect fill="#F1F1F1" height="33.9688" rx="12.5" ry="12.5" style="stroke:#181818;stroke-width:0.5;" width="239.2695" x="125.0723" y="249.2031"/><text fill="#000000" font-family="sans-serif" font-size="12" lengthAdjust="spacing" textLength="219.2695" x="135.0723" y="270.3418">Collect all due steps across journeys</text><polygon fill="#F1F1F1" points="125.7695,303.1719,363.6445,303.1719,375.6445,315.1719,363.6445,327.1719,125.7695,327.1719,113.7695,315.1719,125.7695,303.1719" style="stroke:#181818;stroke-width:0.5;"/><text fill="#000000" font-family="sans-serif" font-size="11" lengthAdjust="spacing" textLength="237.875" x="125.7695" y="318.98">same templateId appears more than once?</text><text fill="#000000" font-family="sans-serif" font-size="11" lengthAdjust="spacing" textLength="19.0083" x="94.7612" y="312.5776">yes</text><text fill="#000000" font-family="sans-serif" font-size="11" lengthAdjust="spacing" textLength="13.7017" x="375.6445" y="312.5776">no</text><rect fill="#F1F1F1" height="33.9688" rx="12.5" ry="12.5" style="stroke:#181818;stroke-width:0.5;" width="148.3086" x="29.6152" y="337.1719"/><text fill="#000000" font-family="sans-serif" font-size="12" lengthAdjust="spacing" textLength="128.3086" x="39.6152" y="358.3105">Keep first occurrence</text><rect fill="#F1F1F1" height="33.9688" rx="12.5" ry="12.5" style="stroke:#181818;stroke-width:0.5;" width="185.5391" x="11" y="391.1406"/><text fill="#000000" font-family="sans-serif" font-size="12" lengthAdjust="spacing" textLength="165.5391" x="21" y="412.2793">Drop duplicate occurrences</text><rect fill="#F1F1F1" height="33.9688" rx="12.5" ry="12.5" style="stroke:#181818;stroke-width:0.5;" width="130.5313" x="320.3789" y="337.1719"/><text fill="#000000" font-family="sans-serif" font-size="12" lengthAdjust="spacing" textLength="110.5313" x="330.3789" y="358.3105">Keep all due steps</text><polygon fill="#F1F1F1" points="244.707,431.1094,256.707,443.1094,244.707,455.1094,232.707,443.1094,244.707,431.1094" style="stroke:#181818;stroke-width:0.5;"/><rect fill="#F1F1F1" height="33.9688" rx="12.5" ry="12.5" style="stroke:#181818;stroke-width:0.5;" width="170.5859" x="159.4141" y="475.1094"/><text fill="#000000" font-family="sans-serif" font-size="12" lengthAdjust="spacing" textLength="150.5859" x="169.4141" y="496.248">Return MergedDueStep[]</text><rect fill="#F1F1F1" height="33.9688" rx="12.5" ry="12.5" style="stroke:#181818;stroke-width:0.5;" width="296.5977" x="96.4082" y="529.0781"/><text fill="#000000" font-family="sans-serif" font-size="12" lengthAdjust="spacing" textLength="276.5977" x="106.4082" y="550.2168">Render questionnaire list once per templateId</text><path d="M275.707,573.0469 L275.707,596.7461 L255.707,600.7461 L275.707,604.7461 L275.707,628.4453 A0,0 0 0 0 275.707,628.4453 L602.4292,628.4453 A0,0 0 0 0 602.4292,628.4453 L602.4292,583.0469 L592.4292,573.0469 L275.707,573.0469 A0,0 0 0 0 275.707,573.0469" fill="#FEFFDD" style="stroke:#181818;stroke-width:0.5;"/><path d="M592.4292,573.0469 L592.4292,583.0469 L602.4292,583.0469 L592.4292,573.0469" fill="#FEFFDD" style="stroke:#181818;stroke-width:0.5;"/><text fill="#000000" font-family="sans-serif" font-size="13" lengthAdjust="spacing" textLength="111.0649" x="281.707" y="590.1138">Implemented by:</text><text fill="#000000" font-family="sans-serif" font-size="13" lengthAdjust="spacing" textLength="305.7222" x="281.707" y="605.2466">getMergedDueStepsForPatient(patientId, date)</text><text fill="#000000" font-family="sans-serif" font-size="13" lengthAdjust="spacing" textLength="236.2725" x="281.707" y="620.3794">in src/api/service/journeyResolver.ts</text><ellipse cx="244.707" cy="600.7461" fill="none" rx="11" ry="11" style="stroke:#222222;stroke-width:1;"/><ellipse cx="244.707" cy="600.7461" fill="#222222" rx="6" ry="6" style="stroke:#222222;stroke-width:1;"/><line style="stroke:#181818;stroke-width:1;" x1="244.707" x2="244.707" y1="67.2969" y2="87.2969"/><polygon fill="#181818" points="240.707,77.2969,244.707,87.2969,248.707,77.2969,244.707,81.2969" style="stroke:#181818;stroke-width:1;"/><line style="stroke:#181818;stroke-width:1;" x1="244.707" x2="244.707" y1="121.2656" y2="141.2656"/><polygon fill="#181818" points="240.707,131.2656,244.707,141.2656,248.707,131.2656,244.707,135.2656" style="stroke:#181818;stroke-width:1;"/><line style="stroke:#181818;stroke-width:1;" x1="244.707" x2="244.707" y1="175.2344" y2="195.2344"/><polygon fill="#181818" points="240.707,185.2344,244.707,195.2344,248.707,185.2344,244.707,189.2344" style="stroke:#181818;stroke-width:1;"/><line style="stroke:#181818;stroke-width:1;" x1="244.707" x2="244.707" y1="229.2031" y2="249.2031"/><polygon fill="#181818" points="240.707,239.2031,244.707,249.2031,248.707,239.2031,244.707,243.2031" style="stroke:#181818;stroke-width:1;"/><line style="stroke:#181818;stroke-width:1;" x1="103.7695" x2="103.7695" y1="371.1406" y2="391.1406"/><polygon fill="#181818" points="99.7695,381.1406,103.7695,391.1406,107.7695,381.1406,103.7695,385.1406" style="stroke:#181818;stroke-width:1;"/><line style="stroke:#181818;stroke-width:1;" x1="113.7695" x2="103.7695" y1="315.1719" y2="315.1719"/><line style="stroke:#181818;stroke-width:1;" x1="103.7695" x2="103.7695" y1="315.1719" y2="337.1719"/><polygon fill="#181818" points="99.7695,327.1719,103.7695,337.1719,107.7695,327.1719,103.7695,331.1719" style="stroke:#181818;stroke-width:1;"/><line style="stroke:#181818;stroke-width:1;" x1="375.6445" x2="385.6445" y1="315.1719" y2="315.1719"/><line style="stroke:#181818;stroke-width:1;" x1="385.6445" x2="385.6445" y1="315.1719" y2="337.1719"/><polygon fill="#181818" points="381.6445,327.1719,385.6445,337.1719,389.6445,327.1719,385.6445,331.1719" style="stroke:#181818;stroke-width:1;"/><line style="stroke:#181818;stroke-width:1;" x1="103.7695" x2="103.7695" y1="425.1094" y2="443.1094"/><line style="stroke:#181818;stroke-width:1;" x1="103.7695" x2="232.707" y1="443.1094" y2="443.1094"/><polygon fill="#181818" points="222.707,439.1094,232.707,443.1094,222.707,447.1094,226.707,443.1094" style="stroke:#181818;stroke-width:1;"/><line style="stroke:#181818;stroke-width:1;" x1="385.6445" x2="385.6445" y1="371.1406" y2="443.1094"/><line style="stroke:#181818;stroke-width:1;" x1="385.6445" x2="256.707" y1="443.1094" y2="443.1094"/><polygon fill="#181818" points="266.707,439.1094,256.707,443.1094,266.707,447.1094,262.707,443.1094" style="stroke:#181818;stroke-width:1;"/><line style="stroke:#181818;stroke-width:1;" x1="244.707" x2="244.707" y1="283.1719" y2="303.1719"/><polygon fill="#181818" points="240.707,293.1719,244.707,303.1719,248.707,293.1719,244.707,297.1719" style="stroke:#181818;stroke-width:1;"/><line style="stroke:#181818;stroke-width:1;" x1="244.707" x2="244.707" y1="455.1094" y2="475.1094"/><polygon fill="#181818" points="240.707,465.1094,244.707,475.1094,248.707,465.1094,244.707,469.1094" style="stroke:#181818;stroke-width:1;"/><line style="stroke:#181818;stroke-width:1;" x1="244.707" x2="244.707" y1="509.0781" y2="529.0781"/><polygon fill="#181818" points="240.707,519.0781,244.707,529.0781,248.707,519.0781,244.707,523.0781" style="stroke:#181818;stroke-width:1;"/><line style="stroke:#181818;stroke-width:1;" x1="244.707" x2="244.707" y1="563.0469" y2="589.7461"/><polygon fill="#181818" points="240.707,579.7461,244.707,589.7461,248.707,579.7461,244.707,583.7461" style="stroke:#181818;stroke-width:1;"/><?plantuml-src LL51ZXCn4Bpx5NsSI2ovpqYWrKwGXbrGj04kY8CProH67jjqUoBbnYDu8I-XdKrOzcPtTNTLLnLV0cXhsOQ0GE_JmX4deJ-_VbE_u6PNaAc7MtBmeoq-HReTYp_wSgBUsptRsHWfbejf7v9rT7ltQVYoMUy-xxQRZ_scfn_NbLDYohe2iNIcVQS_sF5mnUdc3UrHDjE4kX-LM9eBEBXL7V6XW4agGcx1UQCWw00SELkWJNSfr0BfFUUUfsuxSXBvfwKpna_KY9r11NCEEZiuiZd3ij2SMEi76od54MzN-aQavWHP6QBs7kh9v5aAfN5ScA5TNKLwJfckNk4_L1aH1DJ4zBpYXKHjYCvFnhIFAAgIFe3tS9f1TUBhjwu2qUdzFnT83I9QhpA3hpAKWh9YpyTqcahAniIaGjZl3qLv1qKnQm3gr_TJgnMr_0MHQ2xRfv2QIrY3UtKsjmhtaOJ7jSr-BU2Z7x6-UFe8IU48VbsaNaALr_m5?></g></svg>