<svg xmlns="http://www.w3.org/2000/svg" xmlns:xlink="http://www.w3.org/1999/xlink" contentStyleType="text/css" data-diagram-type="ACTIVITY" height="936px" preserveAspectRatio="none" style="width:825px;height:936px;background:#FFFFFF;" version="1.1" viewBox="0 0 825 936" width="825px" zoomAndPan="magnify"><?plantuml 1.2026.5?><defs/><g><g class="title" data-source-line="8"><text fill="#000000" font-family="sans-serif" font-size="14" font-weight="700" lengthAdjust="spacing" textLength="424.5064" x="199.3662" y="34.9659">Effective Steps and Due-Step Computation - Activity Diagram</text></g><ellipse cx="405.6924" cy="65.0679" fill="#222222" rx="10" ry="10" style="stroke:#222222;stroke-width:1;"/><rect fill="none" height="468.989" style="stroke:#000000;stroke-width:1.5;" width="521.6385" x="274.0856" y="85.0679"/><path d="M469.2629,85.0679 L469.2629,97.1358 L459.2629,107.1358 L274.0856,107.1358" fill="none" style="stroke:#000000;stroke-width:1.5;"/><text fill="#000000" font-family="sans-serif" font-size="14" lengthAdjust="spacing" textLength="185.1773" x="277.0856" y="101.0339">getEffectiveSteps(journeyId)</text><rect fill="#F1F1F1" height="36.3441" rx="12.5" ry="12.5" style="stroke:#181818;stroke-width:0.5;" width="243.2135" x="284.0856" y="124.1358"/><text fill="#000000" font-family="sans-serif" font-size="12" lengthAdjust="spacing" textLength="223.2135" x="294.0856" y="146.9639">Load PatientJourney + JourneyTemplate</text><rect fill="#F1F1F1" height="69.0323" rx="12.5" ry="12.5" style="stroke:#181818;stroke-width:0.5;" width="234.0095" x="288.6877" y="180.4799"/><text fill="#000000" font-family="sans-serif" font-size="12" lengthAdjust="spacing" textLength="116.9648" x="298.6877" y="203.308">Compute pause shift</text><text fill="#000000" font-family="sans-serif" font-size="12" lengthAdjust="spacing" textLength="144.529" x="298.6877" y="219.6522">(computeTotalPauseShift:</text><text fill="#000000" font-family="sans-serif" font-size="12" lengthAdjust="spacing" textLength="214.0095" x="298.6877" y="235.9963">totalPausedDays + currentPauseDays)</text><path d="M504.6329,259.5123 L504.6329,295.9243 L484.6329,299.9243 L504.6329,303.9243 L504.6329,340.3364 A0,0 0 0 0 504.6329,340.3364 L785.7241,340.3364 A0,0 0 0 0 785.7241,340.3364 L785.7241,269.5123 L775.7241,259.5123 L504.6329,259.5123 A0,0 0 0 0 504.6329,259.5123" fill="#FEFFDD" style="stroke:#181818;stroke-width:0.5;"/><path d="M775.7241,259.5123 L775.7241,269.5123 L785.7241,269.5123 L775.7241,259.5123" fill="#FEFFDD" style="stroke:#181818;stroke-width:0.5;"/><text fill="#000000" font-family="sans-serif" font-size="13" lengthAdjust="spacing" textLength="260.0912" x="510.6329" y="278.4093">Recurring entries (recurrenceIntervalDays)</text><text fill="#000000" font-family="sans-serif" font-size="13" lengthAdjust="spacing" textLength="259.4542" x="510.6329" y="296.1153">expand to ${id}__r${n} occurrences up to a</text><text fill="#000000" font-family="sans-serif" font-size="13" lengthAdjust="spacing" textLength="189.4492" x="510.6329" y="313.8213">5-year horizon, re-anchored on</text><text fill="#000000" font-family="sans-serif" font-size="13" lengthAdjust="spacing" textLength="137.6701" x="510.6329" y="331.5274">recurringCompletions.</text><rect fill="#F1F1F1" height="36.3441" rx="12.5" ry="12.5" style="stroke:#181818;stroke-width:0.5;" width="157.881" x="326.7519" y="281.7523"/><text fill="#000000" font-family="sans-serif" font-size="12" lengthAdjust="spacing" textLength="137.881" x="336.7519" y="304.5804">Expand template entries</text><rect fill="#F1F1F1" height="52.6882" rx="12.5" ry="12.5" style="stroke:#181818;stroke-width:0.5;" width="172.029" x="319.6779" y="360.3364"/><text fill="#000000" font-family="sans-serif" font-size="12" lengthAdjust="spacing" textLength="111.2888" x="329.6779" y="383.1644">Apply modifications</text><text fill="#000000" font-family="sans-serif" font-size="12" lengthAdjust="spacing" textLength="152.029" x="329.6779" y="399.5086">(ADD_STEP, REMOVE_STEP)</text><rect fill="#F1F1F1" height="52.6882" rx="12.5" ry="12.5" style="stroke:#181818;stroke-width:0.5;" width="203.8293" x="303.7777" y="433.0246"/><text fill="#000000" font-family="sans-serif" font-size="12" lengthAdjust="spacing" textLength="183.8293" x="313.7777" y="455.8527">Overlay research module entries</text><text fill="#000000" font-family="sans-serif" font-size="12" lengthAdjust="spacing" textLength="138.073" x="313.7777" y="472.1968">(applyResearchModules)</text><rect fill="#F1F1F1" height="36.3441" rx="12.5" ry="12.5" style="stroke:#181818;stroke-width:0.5;" width="160.257" x="325.5639" y="505.7128"/><text fill="#000000" font-family="sans-serif" font-size="12" lengthAdjust="spacing" textLength="140.257" x="335.5639" y="528.5409">Sort by offsetDays, order</text><line style="stroke:#181818;stroke-width:1.5;" x1="140.0428" x2="692.5061" y1="574.0569" y2="574.0569"/><rect fill="#F1F1F1" height="36.3441" rx="12.5" ry="12.5" style="stroke:#181818;stroke-width:0.5;" width="227.7695" x="26.1581" y="594.0569"/><text fill="#000000" font-family="sans-serif" font-size="12" lengthAdjust="spacing" textLength="207.7695" x="36.1581" y="616.885">Dashboard: getCasesForDashboard()</text><rect fill="#F1F1F1" height="52.6882" rx="12.5" ry="12.5" style="stroke:#181818;stroke-width:0.5;" width="203.0493" x="38.5182" y="665.401"/><text fill="#000000" font-family="sans-serif" font-size="12" lengthAdjust="spacing" textLength="183.0493" x="48.5182" y="688.2291">Per case: newest ACTIVE journey</text><text fill="#000000" font-family="sans-serif" font-size="12" lengthAdjust="spacing" textLength="81.1566" x="48.5182" y="704.5732">for the patient</text><rect fill="#F1F1F1" height="101.7206" rx="12.5" ry="12.5" style="stroke:#181818;stroke-width:0.5;" width="248.0856" x="16" y="753.0893"/><text fill="#000000" font-family="sans-serif" font-size="12" lengthAdjust="spacing" textLength="184.2373" x="26" y="775.9174">activeCategory = highest-priority</text><text fill="#000000" font-family="sans-serif" font-size="12" lengthAdjust="spacing" textLength="228.0856" x="26" y="792.2615">dashboardCategory among steps whose</text><text fill="#000000" font-family="sans-serif" font-size="12" lengthAdjust="spacing" textLength="198.5414" x="26" y="808.6056">window (offsetDays &#177; windowDays)</text><text fill="#000000" font-family="sans-serif" font-size="12" lengthAdjust="spacing" textLength="82.7046" x="26" y="824.9497">contains today</text><text fill="#000000" font-family="sans-serif" font-size="12" lengthAdjust="spacing" textLength="133.1049" x="26" y="841.2938">(null = between phases)</text><rect fill="#F1F1F1" height="52.6882" rx="12.5" ry="12.5" style="stroke:#181818;stroke-width:0.5;" width="269.5418" x="282.2316" y="594.0569"/><text fill="#000000" font-family="sans-serif" font-size="12" lengthAdjust="spacing" textLength="249.5418" x="292.2316" y="616.885">Patient view: getMergedDueStepsForPatient</text><text fill="#000000" font-family="sans-serif" font-size="12" lengthAdjust="spacing" textLength="96.8647" x="292.2316" y="633.2291">(patientId, today)</text><rect fill="#F1F1F1" height="85.3765" rx="12.5" ry="12.5" style="stroke:#181818;stroke-width:0.5;" width="234.2495" x="299.8777" y="681.7452"/><text fill="#000000" font-family="sans-serif" font-size="12" lengthAdjust="spacing" textLength="214.2495" x="309.8777" y="704.5732">For each ACTIVE/SUSPENDED journey:</text><text fill="#000000" font-family="sans-serif" font-size="12" lengthAdjust="spacing" textLength="192.7574" x="309.8777" y="720.9174">keep steps with templateId whose</text><text fill="#000000" font-family="sans-serif" font-size="12" lengthAdjust="spacing" textLength="201.9974" x="309.8777" y="737.2615">window contains today and that are</text><text fill="#000000" font-family="sans-serif" font-size="12" lengthAdjust="spacing" textLength="100.1407" x="309.8777" y="753.6056">not yet submitted</text><rect fill="#F1F1F1" height="52.6882" rx="12.5" ry="12.5" style="stroke:#181818;stroke-width:0.5;" width="192.9573" x="320.5239" y="802.1216"/><text fill="#000000" font-family="sans-serif" font-size="12" lengthAdjust="spacing" textLength="172.9573" x="330.5239" y="824.9497">Merge across parallel journeys</text><text fill="#000000" font-family="sans-serif" font-size="12" lengthAdjust="spacing" textLength="78.6965" x="330.5239" y="841.2938">by templateId</text><rect fill="#F1F1F1" height="69.0323" rx="12.5" ry="12.5" style="stroke:#181818;stroke-width:0.5;" width="218.4694" x="583.2714" y="637.901"/><text fill="#000000" font-family="sans-serif" font-size="12" lengthAdjust="spacing" textLength="198.4694" x="593.2714" y="660.7291">Case JourneyTab / PatientCareplan:</text><text fill="#000000" font-family="sans-serif" font-size="12" lengthAdjust="spacing" textLength="173.8092" x="593.2714" y="677.0732">render JourneyTimeline for the</text><text fill="#000000" font-family="sans-serif" font-size="12" lengthAdjust="spacing" textLength="92.7727" x="593.2714" y="693.4174">selected journey</text><rect fill="#F1F1F1" height="69.0323" rx="12.5" ry="12.5" style="stroke:#181818;stroke-width:0.5;" width="225.4655" x="579.7734" y="741.9334"/><text fill="#000000" font-family="sans-serif" font-size="12" lengthAdjust="spacing" textLength="184.4893" x="589.7734" y="764.7615">Render InstructionTimeline from</text><text fill="#000000" font-family="sans-serif" font-size="12" lengthAdjust="spacing" textLength="147.6131" x="589.7734" y="781.1056">persisted Instruction rows</text><text fill="#000000" font-family="sans-serif" font-size="12" lengthAdjust="spacing" textLength="205.4655" x="589.7734" y="797.4497">(getResolvedInstructionsForJourney)</text><line style="stroke:#181818;stroke-width:1.5;" x1="140.0428" x2="692.5061" y1="874.8098" y2="874.8098"/><ellipse cx="405.6924" cy="905.8098" fill="none" rx="11" ry="11" style="stroke:#222222;stroke-width:1;"/><ellipse cx="405.6924" cy="905.8098" fill="#222222" rx="6" ry="6" style="stroke:#222222;stroke-width:1;"/><line style="stroke:#181818;stroke-width:1;" x1="405.6924" x2="405.6924" y1="160.4799" y2="180.4799"/><polygon fill="#181818" points="401.6924,170.4799,405.6924,180.4799,409.6924,170.4799,405.6924,174.4799" style="stroke:#181818;stroke-width:1;stroke-linejoin:miter;stroke-miterlimit:10;"/><line style="stroke:#181818;stroke-width:1;" x1="405.6924" x2="405.6924" y1="249.5123" y2="281.7523"/><polygon fill="#181818" points="401.6924,271.7523,405.6924,281.7523,409.6924,271.7523,405.6924,275.7523" style="stroke:#181818;stroke-width:1;stroke-linejoin:miter;stroke-miterlimit:10;"/><line style="stroke:#181818;stroke-width:1;" x1="405.6924" x2="405.6924" y1="318.0964" y2="360.3364"/><polygon fill="#181818" points="401.6924,350.3364,405.6924,360.3364,409.6924,350.3364,405.6924,354.3364" style="stroke:#181818;stroke-width:1;stroke-linejoin:miter;stroke-miterlimit:10;"/><line style="stroke:#181818;stroke-width:1;" x1="405.6924" x2="405.6924" y1="413.0246" y2="433.0246"/><polygon fill="#181818" points="401.6924,423.0246,405.6924,433.0246,409.6924,423.0246,405.6924,427.0246" style="stroke:#181818;stroke-width:1;stroke-linejoin:miter;stroke-miterlimit:10;"/><line style="stroke:#181818;stroke-width:1;" x1="405.6924" x2="405.6924" y1="485.7128" y2="505.7128"/><polygon fill="#181818" points="401.6924,495.7128,405.6924,505.7128,409.6924,495.7128,405.6924,499.7128" style="stroke:#181818;stroke-width:1;stroke-linejoin:miter;stroke-miterlimit:10;"/><line style="stroke:#181818;stroke-width:1;" x1="405.6924" x2="405.6924" y1="75.0679" y2="124.1358"/><polygon fill="#181818" points="401.6924,114.1358,405.6924,124.1358,409.6924,114.1358,405.6924,118.1358" style="stroke:#181818;stroke-width:1;stroke-linejoin:miter;stroke-miterlimit:10;"/><line style="stroke:#181818;stroke-width:1;" x1="140.0428" x2="140.0428" y1="630.401" y2="665.401"/><polygon fill="#181818" points="136.0428,655.401,140.0428,665.401,144.0428,655.401,140.0428,659.401" style="stroke:#181818;stroke-width:1;stroke-linejoin:miter;stroke-miterlimit:10;"/><line style="stroke:#181818;stroke-width:1;" x1="140.0428" x2="140.0428" y1="718.0893" y2="753.0893"/><polygon fill="#181818" points="136.0428,743.0893,140.0428,753.0893,144.0428,743.0893,140.0428,747.0893" style="stroke:#181818;stroke-width:1;stroke-linejoin:miter;stroke-miterlimit:10;"/><line style="stroke:#181818;stroke-width:1;" x1="417.0025" x2="417.0025" y1="646.7452" y2="681.7452"/><polygon fill="#181818" points="413.0025,671.7452,417.0025,681.7452,421.0025,671.7452,417.0025,675.7452" style="stroke:#181818;stroke-width:1;stroke-linejoin:miter;stroke-miterlimit:10;"/><line style="stroke:#181818;stroke-width:1;" x1="417.0025" x2="417.0025" y1="767.1216" y2="802.1216"/><polygon fill="#181818" points="413.0025,792.1216,417.0025,802.1216,421.0025,792.1216,417.0025,796.1216" style="stroke:#181818;stroke-width:1;stroke-linejoin:miter;stroke-miterlimit:10;"/><line style="stroke:#181818;stroke-width:1;" x1="692.5061" x2="692.5061" y1="706.9334" y2="741.9334"/><polygon fill="#181818" points="688.5061,731.9334,692.5061,741.9334,696.5061,731.9334,692.5061,735.9334" style="stroke:#181818;stroke-width:1;stroke-linejoin:miter;stroke-miterlimit:10;"/><line style="stroke:#181818;stroke-width:1;" x1="140.0428" x2="140.0428" y1="575.5569" y2="594.0569"/><polygon fill="#181818" points="136.0428,584.0569,140.0428,594.0569,144.0428,584.0569,140.0428,588.0569" style="stroke:#181818;stroke-width:1;stroke-linejoin:miter;stroke-miterlimit:10;"/><line style="stroke:#181818;stroke-width:1;" x1="417.0025" x2="417.0025" y1="575.5569" y2="594.0569"/><polygon fill="#181818" points="413.0025,584.0569,417.0025,594.0569,421.0025,584.0569,417.0025,588.0569" style="stroke:#181818;stroke-width:1;stroke-linejoin:miter;stroke-miterlimit:10;"/><line style="stroke:#181818;stroke-width:1;" x1="692.5061" x2="692.5061" y1="575.5569" y2="637.901"/><polygon fill="#181818" points="688.5061,627.901,692.5061,637.901,696.5061,627.901,692.5061,631.901" style="stroke:#181818;stroke-width:1;stroke-linejoin:miter;stroke-miterlimit:10;"/><line style="stroke:#181818;stroke-width:1;" x1="140.0428" x2="140.0428" y1="854.8098" y2="874.8098"/><polygon fill="#181818" points="136.0428,864.8098,140.0428,874.8098,144.0428,864.8098,140.0428,868.8098" style="stroke:#181818;stroke-width:1;stroke-linejoin:miter;stroke-miterlimit:10;"/><line style="stroke:#181818;stroke-width:1;" x1="417.0025" x2="417.0025" y1="854.8098" y2="874.8098"/><polygon fill="#181818" points="413.0025,864.8098,417.0025,874.8098,421.0025,864.8098,417.0025,868.8098" style="stroke:#181818;stroke-width:1;stroke-linejoin:miter;stroke-miterlimit:10;"/><line style="stroke:#181818;stroke-width:1;" x1="692.5061" x2="692.5061" y1="810.9657" y2="874.8098"/><polygon fill="#181818" points="688.5061,864.8098,692.5061,874.8098,696.5061,864.8098,692.5061,868.8098" style="stroke:#181818;stroke-width:1;stroke-linejoin:miter;stroke-miterlimit:10;"/><line style="stroke:#181818;stroke-width:1;" x1="405.6924" x2="405.6924" y1="542.0569" y2="574.0569"/><polygon fill="#181818" points="401.6924,564.0569,405.6924,574.0569,409.6924,564.0569,405.6924,568.0569" style="stroke:#181818;stroke-width:1;stroke-linejoin:miter;stroke-miterlimit:10;"/><line style="stroke:#181818;stroke-width:1;" x1="405.6924" x2="405.6924" y1="876.3098" y2="894.8098"/><polygon fill="#181818" points="401.6924,884.8098,405.6924,894.8098,409.6924,884.8098,405.6924,888.8098" style="stroke:#181818;stroke-width:1;stroke-linejoin:miter;stroke-miterlimit:10;"/><?plantuml-src XLHBRjj03Dtx54GH80uQnwjk77GHM2xWeccCECqs64kqDUreHk1GSTKWX-eLUhAI8ybEMnJP61Rv-7dauvp2gg4wH9p1Ohl5dEqZJY9Z3NceweODs-31-08iHx7vs5H8SNGAwz1GZX2smDHmEHCJGAHyQcexZKYFDiVfLm5vR6yn1lU8TC7n5HWQoijNO9bXZF_3v2PspX5RTdXa1MjX5HELhC69Vi7y1SS9N2dESWkPDJiorMWKsH2FQlcn2VDcXtn8cFAD-vwMnTaRU1e1p3u5Ky1ASgBdZvqJtaB_xmwhsadxbuhigYFKfea8iRHR5lEu6ppU1JPkfQwrUcRYueEfo4mR9MtU44cTP5FJMKgy-5uhJUwBWI38ObIV3_9DTbTgAO1Rr0pMxmOCZ0cxf3akFSjGZKk94npxn05Edcpn_F109q_-6K8-X4HeQdMR17ytQMMVK0QoFu8_1yA9yRbyOW719mWD3UWm7EgKuuLuKCfehqhdggvT2rKexDRcQLbHvtILPG_hkyNg76uNrpVtY_JH3U16jEPCAzaxGMbmumw3q6YZIGV1NITtFxrr88PDAyhUHcGbVmw12gJBqRD8edPMPpVBJ2mtmL0n0r75N6Nt8T31EkwIhP109Ja3ZtkC35Vpk-Nz0dhP26GR2BXK5IJ9f2YJ13QNtUq2jV0UIjcOH4zgiZ9CrhXYg7I0cIh88cEI-RwKcnRKtleYx65y90E_VlRMOQzorMoiZxAumcZgiM-SaweRv3sYXxfKTa8eaGUp4tGYrxKCZnRtQGhNI3lHPjFTXeoZHsZEdj-oEE_gTFCH3A2H3NLpcQw_h5UBpzaY6oQakl-6SgizBylbGTZBuc-UVr99nywbaPO9E_53YmonsLIM6OlKGceQJ4uXHja26UVG3ULLAwA5OyL_Xg2RFvotsS1qEFwv59KWhmpaE4H01vYjq5cFm-u54D79go9tqTTDdTrsKKiVvOdDLVZ7I0gLG6fvYstKk1SWeB1F6fUDz2zlySAjU-aRaHteeNMQZXpgqMy0?></g></svg>