<?plantuml 1.2026.2?><svg xmlns="http://www.w3.org/2000/svg" xmlns:xlink="http://www.w3.org/1999/xlink" contentStyleType="text/css" data-diagram-type="ACTIVITY" height="640px" preserveAspectRatio="none" style="width:629px;height:640px;background:#FFFFFF;" version="1.1" viewBox="0 0 629 640" width="629px" zoomAndPan="magnify"><title>Parallel Journeys &#8212; Due-Step Deduplication Activity Diagram</title><defs/><g><g class="title" data-source-line="1"><text fill="#000000" font-family="sans-serif" font-size="14" font-weight="bold" lengthAdjust="spacing" textLength="481.7422" x="72.1603" y="32.9951">Parallel Journeys &#8212; Due-Step Deduplication Activity Diagram</text></g><ellipse cx="259.3406" cy="57.2969" fill="#222222" rx="10" ry="10" style="stroke:#222222;stroke-width:1;"/><rect fill="#F1F1F1" height="33.9688" rx="12.5" ry="12.5" style="stroke:#181818;stroke-width:0.5;" width="218.2637" x="150.2087" y="87.2969"/><text fill="#000000" font-family="sans-serif" font-size="12" lengthAdjust="spacing" textLength="198.2637" x="160.2087" y="108.4355">Load ACTIVE journeys for patient</text><rect fill="#F1F1F1" height="33.9688" rx="12.5" ry="12.5" style="stroke:#181818;stroke-width:0.5;" width="314.7031" x="101.989" y="141.2656"/><text fill="#000000" font-family="sans-serif" font-size="12" lengthAdjust="spacing" textLength="294.7031" x="111.989" y="162.4043">For each journey -&gt; getEffectiveSteps(journeyId)</text><rect fill="#F1F1F1" height="33.9688" rx="12.5" ry="12.5" style="stroke:#181818;stroke-width:0.5;" width="218.6914" x="149.9949" y="195.2344"/><text fill="#000000" font-family="sans-serif" font-size="12" lengthAdjust="spacing" textLength="198.6914" x="159.9949" y="216.373">Filter steps due for selected date</text><rect fill="#F1F1F1" height="33.9688" rx="12.5" ry="12.5" style="stroke:#181818;stroke-width:0.5;" width="239.2695" x="139.7058" y="249.2031"/><text fill="#000000" font-family="sans-serif" font-size="12" lengthAdjust="spacing" textLength="219.2695" x="149.7058" y="270.3418">Collect all due steps across journeys</text><polygon fill="#F1F1F1" points="125.7695,303.1719,392.9116,303.1719,404.9116,315.1719,392.9116,327.1719,125.7695,327.1719,113.7695,315.1719,125.7695,303.1719" style="stroke:#181818;stroke-width:0.5;"/><text fill="#000000" font-family="sans-serif" font-size="11" lengthAdjust="spacing" textLength="267.1421" x="125.7695" y="318.98">same templateEntryId appears more than once?</text><text fill="#000000" font-family="sans-serif" font-size="11" lengthAdjust="spacing" textLength="19.0083" x="94.7612" y="312.5776">yes</text><text fill="#000000" font-family="sans-serif" font-size="11" lengthAdjust="spacing" textLength="13.7017" x="404.9116" y="312.5776">no</text><rect fill="#F1F1F1" height="33.9688" rx="12.5" ry="12.5" style="stroke:#181818;stroke-width:0.5;" width="148.3086" x="29.6152" y="337.1719"/><text fill="#000000" font-family="sans-serif" font-size="12" lengthAdjust="spacing" textLength="128.3086" x="39.6152" y="358.3105">Keep first occurrence</text><rect fill="#F1F1F1" height="33.9688" rx="12.5" ry="12.5" style="stroke:#181818;stroke-width:0.5;" width="185.5391" x="11" y="391.1406"/><text fill="#000000" font-family="sans-serif" font-size="12" lengthAdjust="spacing" textLength="165.5391" x="21" y="412.2793">Drop duplicate occurrences</text><rect fill="#F1F1F1" height="33.9688" rx="12.5" ry="12.5" style="stroke:#181818;stroke-width:0.5;" width="130.5313" x="349.646" y="337.1719"/><text fill="#000000" font-family="sans-serif" font-size="12" lengthAdjust="spacing" textLength="110.5313" x="359.646" y="358.3105">Keep all due steps</text><polygon fill="#F1F1F1" points="259.3406,431.1094,271.3406,443.1094,259.3406,455.1094,247.3406,443.1094,259.3406,431.1094" style="stroke:#181818;stroke-width:0.5;"/><rect fill="#F1F1F1" height="33.9688" rx="12.5" ry="12.5" style="stroke:#181818;stroke-width:0.5;" width="170.5859" x="174.0476" y="475.1094"/><text fill="#000000" font-family="sans-serif" font-size="12" lengthAdjust="spacing" textLength="150.5859" x="184.0476" y="496.248">Return MergedDueStep[]</text><rect fill="#F1F1F1" height="33.9688" rx="12.5" ry="12.5" style="stroke:#181818;stroke-width:0.5;" width="328.5254" x="95.0779" y="529.0781"/><text fill="#000000" font-family="sans-serif" font-size="12" lengthAdjust="spacing" textLength="308.5254" x="105.0779" y="550.2168">Render questionnaire list once per templateEntryId</text><path d="M290.3406,573.0469 L290.3406,596.7461 L270.3406,600.7461 L290.3406,604.7461 L290.3406,628.4453 A0,0 0 0 0 290.3406,628.4453 L617.0627,628.4453 A0,0 0 0 0 617.0627,628.4453 L617.0627,583.0469 L607.0627,573.0469 L290.3406,573.0469 A0,0 0 0 0 290.3406,573.0469" fill="#FEFFDD" style="stroke:#181818;stroke-width:0.5;"/><path d="M607.0627,573.0469 L607.0627,583.0469 L617.0627,583.0469 L607.0627,573.0469" fill="#FEFFDD" style="stroke:#181818;stroke-width:0.5;"/><text fill="#000000" font-family="sans-serif" font-size="13" lengthAdjust="spacing" textLength="111.0649" x="296.3406" y="590.1138">Implemented by:</text><text fill="#000000" font-family="sans-serif" font-size="13" lengthAdjust="spacing" textLength="305.7222" x="296.3406" y="605.2466">getMergedDueStepsForPatient(patientId, date)</text><text fill="#000000" font-family="sans-serif" font-size="13" lengthAdjust="spacing" textLength="236.2725" x="296.3406" y="620.3794">in src/api/service/journeyResolver.ts</text><ellipse cx="259.3406" cy="600.7461" fill="none" rx="11" ry="11" style="stroke:#222222;stroke-width:1;"/><ellipse cx="259.3406" cy="600.7461" fill="#222222" rx="6" ry="6" style="stroke:#222222;stroke-width:1;"/><line style="stroke:#181818;stroke-width:1;" x1="259.3406" x2="259.3406" y1="67.2969" y2="87.2969"/><polygon fill="#181818" points="255.3406,77.2969,259.3406,87.2969,263.3406,77.2969,259.3406,81.2969" style="stroke:#181818;stroke-width:1;"/><line style="stroke:#181818;stroke-width:1;" x1="259.3406" x2="259.3406" y1="121.2656" y2="141.2656"/><polygon fill="#181818" points="255.3406,131.2656,259.3406,141.2656,263.3406,131.2656,259.3406,135.2656" style="stroke:#181818;stroke-width:1;"/><line style="stroke:#181818;stroke-width:1;" x1="259.3406" x2="259.3406" y1="175.2344" y2="195.2344"/><polygon fill="#181818" points="255.3406,185.2344,259.3406,195.2344,263.3406,185.2344,259.3406,189.2344" style="stroke:#181818;stroke-width:1;"/><line style="stroke:#181818;stroke-width:1;" x1="259.3406" x2="259.3406" y1="229.2031" y2="249.2031"/><polygon fill="#181818" points="255.3406,239.2031,259.3406,249.2031,263.3406,239.2031,259.3406,243.2031" style="stroke:#181818;stroke-width:1;"/><line style="stroke:#181818;stroke-width:1;" x1="103.7695" x2="103.7695" y1="371.1406" y2="391.1406"/><polygon fill="#181818" points="99.7695,381.1406,103.7695,391.1406,107.7695,381.1406,103.7695,385.1406" style="stroke:#181818;stroke-width:1;"/><line style="stroke:#181818;stroke-width:1;" x1="113.7695" x2="103.7695" y1="315.1719" y2="315.1719"/><line style="stroke:#181818;stroke-width:1;" x1="103.7695" x2="103.7695" y1="315.1719" y2="337.1719"/><polygon fill="#181818" points="99.7695,327.1719,103.7695,337.1719,107.7695,327.1719,103.7695,331.1719" style="stroke:#181818;stroke-width:1;"/><line style="stroke:#181818;stroke-width:1;" x1="404.9116" x2="414.9116" y1="315.1719" y2="315.1719"/><line style="stroke:#181818;stroke-width:1;" x1="414.9116" x2="414.9116" y1="315.1719" y2="337.1719"/><polygon fill="#181818" points="410.9116,327.1719,414.9116,337.1719,418.9116,327.1719,414.9116,331.1719" style="stroke:#181818;stroke-width:1;"/><line style="stroke:#181818;stroke-width:1;" x1="103.7695" x2="103.7695" y1="425.1094" y2="443.1094"/><line style="stroke:#181818;stroke-width:1;" x1="103.7695" x2="247.3406" y1="443.1094" y2="443.1094"/><polygon fill="#181818" points="237.3406,439.1094,247.3406,443.1094,237.3406,447.1094,241.3406,443.1094" style="stroke:#181818;stroke-width:1;"/><line style="stroke:#181818;stroke-width:1;" x1="414.9116" x2="414.9116" y1="371.1406" y2="443.1094"/><line style="stroke:#181818;stroke-width:1;" x1="414.9116" x2="271.3406" y1="443.1094" y2="443.1094"/><polygon fill="#181818" points="281.3406,439.1094,271.3406,443.1094,281.3406,447.1094,277.3406,443.1094" style="stroke:#181818;stroke-width:1;"/><line style="stroke:#181818;stroke-width:1;" x1="259.3406" x2="259.3406" y1="283.1719" y2="303.1719"/><polygon fill="#181818" points="255.3406,293.1719,259.3406,303.1719,263.3406,293.1719,259.3406,297.1719" style="stroke:#181818;stroke-width:1;"/><line style="stroke:#181818;stroke-width:1;" x1="259.3406" x2="259.3406" y1="455.1094" y2="475.1094"/><polygon fill="#181818" points="255.3406,465.1094,259.3406,475.1094,263.3406,465.1094,259.3406,469.1094" style="stroke:#181818;stroke-width:1;"/><line style="stroke:#181818;stroke-width:1;" x1="259.3406" x2="259.3406" y1="509.0781" y2="529.0781"/><polygon fill="#181818" points="255.3406,519.0781,259.3406,529.0781,263.3406,519.0781,259.3406,523.0781" style="stroke:#181818;stroke-width:1;"/><line style="stroke:#181818;stroke-width:1;" x1="259.3406" x2="259.3406" y1="563.0469" y2="589.7461"/><polygon fill="#181818" points="255.3406,579.7461,259.3406,589.7461,263.3406,579.7461,259.3406,583.7461" style="stroke:#181818;stroke-width:1;"/><?plantuml-src NL7BZXCn4BpxA_euaLXodv50gqsGmaDQBOWBuc36DOcHnpRTFP5ouoFuGhw4TZQ1NMuphkgkwYgDca3tddrAIFIsB9nn4lhzynTj5jnyL5JQ82mrnT5hB9bkHut7g2VQHBzdFpidwbbT_xxuGBTtdtQVj_JzkcWgJDK6aNLm_HlxWnyFLvnkNj4UkfqcjAreSj9Tm5rOjP6O54pI40eBpXi5oGOGA7Y5aUvAQWzaLvmvZsm_SX7vwsLmBaxKYPz1YhacczrcPHCYNoiy2ys53JpuJ2MFUBsoRsJgJf2L8-hVmUAO8ejI6SU56SOQ6hBXKkaQ4vwW9eiae2wNVokU-JH23d5ohd-0cbNw0DuZMFmjZYzVXmRaO27yM22jW-oZsKonsJ09geRzTz5WhPJgN2xcXkF-e2Q-CmfcgyAI-tRgxSN2VwOcrj3zOrtTfRPTU76EkRcFcOJ7jQznBU1Z7B6-fFi0AUa8VgdIpg6cw_u0?></g></svg>