<?plantuml 1.2026.1?><svg xmlns="http://www.w3.org/2000/svg" xmlns:xlink="http://www.w3.org/1999/xlink" contentStyleType="text/css" data-diagram-type="SEQUENCE" height="513px" preserveAspectRatio="none" style="width:1036px;height:513px;background:#FFFFFF;" version="1.1" viewBox="0 0 1036 513" width="1036px" zoomAndPan="magnify"><title>Journal Draft Generation &#8212; Sequence</title><defs/><g><text fill="#000000" font-family="sans-serif" font-size="14" font-weight="bold" lengthAdjust="spacing" textLength="294.8613" x="369.0852" y="27.9951">Journal Draft Generation &#8212; Sequence</text><g class="participant-lifeline" data-entity-uid="part1" data-qualified-name="Clinician" id="part1-lifeline"><g><title>Clinician</title><rect fill="#000000" fill-opacity="0.00000" height="314.1953" width="8" x="33.6782" y="118.5938"/><line style="stroke:#181818;stroke-width:0.5;stroke-dasharray:5,5;" x1="37" x2="37" y1="118.5938" y2="432.7891"/></g></g><g class="participant-lifeline" data-entity-uid="part2" data-qualified-name="UI" id="part2-lifeline"><g><title>UI</title><rect fill="#000000" fill-opacity="0.00000" height="314.1953" width="8" x="205.7754" y="118.5938"/><line style="stroke:#181818;stroke-width:0.5;stroke-dasharray:5,5;" x1="209.5874" x2="209.5874" y1="118.5938" y2="432.7891"/></g></g><g class="participant-lifeline" data-entity-uid="part3" data-qualified-name="Client" id="part3-lifeline"><g><title>Client</title><rect fill="#000000" fill-opacity="0.00000" height="314.1953" width="8" x="418.9673" y="118.5938"/><line style="stroke:#181818;stroke-width:0.5;stroke-dasharray:5,5;" x1="422.7021" x2="422.7021" y1="118.5938" y2="432.7891"/></g></g><g class="participant-lifeline" data-entity-uid="part4" data-qualified-name="Service" id="part4-lifeline"><g><title>Service</title><rect fill="#000000" fill-opacity="0.00000" height="314.1953" width="8" x="580.0449" y="118.5938"/><line style="stroke:#181818;stroke-width:0.5;stroke-dasharray:5,5;" x1="583.1743" x2="583.1743" y1="118.5938" y2="432.7891"/></g></g><g class="participant-lifeline" data-entity-uid="part5" data-qualified-name="JR" id="part5-lifeline"><g><title>JournalRenderer</title><rect fill="#000000" fill-opacity="0.00000" height="314.1953" width="8" x="830.6919" y="118.5938"/><line style="stroke:#181818;stroke-width:0.5;stroke-dasharray:5,5;" x1="833.9399" x2="833.9399" y1="118.5938" y2="432.7891"/></g></g><g class="participant participant-head" data-entity-uid="part1" data-qualified-name="Clinician" id="part1-head"><text fill="#000000" font-family="sans-serif" font-size="14" lengthAdjust="spacing" textLength="59.3564" x="5" y="115.292">Clinician</text><ellipse cx="37.6782" cy="50.7969" fill="#E2E2F0" rx="8" ry="8" style="stroke:#181818;stroke-width:0.5;"/><path d="M37.6782,58.7969 L37.6782,85.7969 M24.6782,66.7969 L50.6782,66.7969 M37.6782,85.7969 L24.6782,100.7969 M37.6782,85.7969 L50.6782,100.7969" fill="none" style="stroke:#181818;stroke-width:0.5;"/></g><g class="participant participant-tail" data-entity-uid="part1" data-qualified-name="Clinician" id="part1-tail"><text fill="#000000" font-family="sans-serif" font-size="14" lengthAdjust="spacing" textLength="59.3564" x="5" y="444.7842">Clinician</text><ellipse cx="37.6782" cy="456.5859" fill="#E2E2F0" rx="8" ry="8" style="stroke:#181818;stroke-width:0.5;"/><path d="M37.6782,464.5859 L37.6782,491.5859 M24.6782,472.5859 L50.6782,472.5859 M37.6782,491.5859 L24.6782,506.5859 M37.6782,491.5859 L50.6782,506.5859" fill="none" style="stroke:#181818;stroke-width:0.5;"/></g><g class="participant participant-head" data-entity-uid="part2" data-qualified-name="UI" id="part2-head"><rect fill="#E2E2F0" height="30.2969" rx="2.5" ry="2.5" style="stroke:#181818;stroke-width:0.5;" width="28.376" x="195.5874" y="87.2969"/><text fill="#000000" font-family="sans-serif" font-size="14" lengthAdjust="spacing" textLength="14.376" x="202.5874" y="107.292">UI</text></g><g class="participant participant-tail" data-entity-uid="part2" data-qualified-name="UI" id="part2-tail"><rect fill="#E2E2F0" height="30.2969" rx="2.5" ry="2.5" style="stroke:#181818;stroke-width:0.5;" width="28.376" x="195.5874" y="431.7891"/><text fill="#000000" font-family="sans-serif" font-size="14" lengthAdjust="spacing" textLength="14.376" x="202.5874" y="451.7842">UI</text></g><g class="participant participant-head" data-entity-uid="part3" data-qualified-name="Client" id="part3-head"><rect fill="#E2E2F0" height="30.2969" rx="2.5" ry="2.5" style="stroke:#181818;stroke-width:0.5;" width="54.5303" x="395.7021" y="87.2969"/><text fill="#000000" font-family="sans-serif" font-size="14" lengthAdjust="spacing" textLength="40.5303" x="402.7021" y="107.292">Client</text></g><g class="participant participant-tail" data-entity-uid="part3" data-qualified-name="Client" id="part3-tail"><rect fill="#E2E2F0" height="30.2969" rx="2.5" ry="2.5" style="stroke:#181818;stroke-width:0.5;" width="54.5303" x="395.7021" y="431.7891"/><text fill="#000000" font-family="sans-serif" font-size="14" lengthAdjust="spacing" textLength="40.5303" x="402.7021" y="451.7842">Client</text></g><g class="participant participant-head" data-entity-uid="part4" data-qualified-name="Service" id="part4-head"><rect fill="#E2E2F0" height="30.2969" rx="2.5" ry="2.5" style="stroke:#181818;stroke-width:0.5;" width="65.7412" x="551.1743" y="87.2969"/><text fill="#000000" font-family="sans-serif" font-size="14" lengthAdjust="spacing" textLength="51.7412" x="558.1743" y="107.292">Service</text></g><g class="participant participant-tail" data-entity-uid="part4" data-qualified-name="Service" id="part4-tail"><rect fill="#E2E2F0" height="30.2969" rx="2.5" ry="2.5" style="stroke:#181818;stroke-width:0.5;" width="65.7412" x="551.1743" y="431.7891"/><text fill="#000000" font-family="sans-serif" font-size="14" lengthAdjust="spacing" textLength="51.7412" x="558.1743" y="451.7842">Service</text></g><g class="participant participant-head" data-entity-uid="part5" data-qualified-name="JR" id="part5-head"><rect fill="#E2E2F0" height="30.2969" rx="2.5" ry="2.5" style="stroke:#181818;stroke-width:0.5;" width="127.5039" x="770.9399" y="87.2969"/><text fill="#000000" font-family="sans-serif" font-size="14" lengthAdjust="spacing" textLength="113.5039" x="777.9399" y="107.292">JournalRenderer</text></g><g class="participant participant-tail" data-entity-uid="part5" data-qualified-name="JR" id="part5-tail"><rect fill="#E2E2F0" height="30.2969" rx="2.5" ry="2.5" style="stroke:#181818;stroke-width:0.5;" width="127.5039" x="770.9399" y="431.7891"/><text fill="#000000" font-family="sans-serif" font-size="14" lengthAdjust="spacing" textLength="113.5039" x="777.9399" y="451.7842">JournalRenderer</text></g><g class="message" data-entity-1="part1" data-entity-2="part2" id="msg1"><polygon fill="#181818" points="197.7754,145.7266,207.7754,149.7266,197.7754,153.7266,201.7754,149.7266" style="stroke:#181818;stroke-width:1;"/><line style="stroke:#181818;stroke-width:1;" x1="37.6782" x2="203.7754" y1="149.7266" y2="149.7266"/><text fill="#000000" font-family="sans-serif" font-size="13" lengthAdjust="spacing" textLength="148.0972" x="44.6782" y="144.6606">request generate draft</text></g><g class="message" data-entity-1="part2" data-entity-2="part3" id="msg2"><polygon fill="#181818" points="410.9673,174.8594,420.9673,178.8594,410.9673,182.8594,414.9673,178.8594" style="stroke:#181818;stroke-width:1;"/><line style="stroke:#181818;stroke-width:1;" x1="209.7754" x2="416.9673" y1="178.8594" y2="178.8594"/><text fill="#000000" font-family="sans-serif" font-size="13" lengthAdjust="spacing" textLength="189.1919" x="216.7754" y="173.7935">generateJournalDraft(caseId)</text></g><g class="message" data-entity-1="part3" data-entity-2="part4" id="msg3"><polygon fill="#181818" points="572.0449,203.9922,582.0449,207.9922,572.0449,211.9922,576.0449,207.9922" style="stroke:#181818;stroke-width:1;"/><line style="stroke:#181818;stroke-width:1;" x1="422.9673" x2="578.0449" y1="207.9922" y2="207.9922"/><text fill="#000000" font-family="sans-serif" font-size="13" lengthAdjust="spacing" textLength="137.0776" x="429.9673" y="202.9263">generateJournalDraft</text></g><g class="message" data-entity-1="part4" data-entity-2="part4" id="msg4"><line style="stroke:#181818;stroke-width:1;" x1="584.0449" x2="626.0449" y1="237.125" y2="237.125"/><line style="stroke:#181818;stroke-width:1;" x1="626.0449" x2="626.0449" y1="237.125" y2="250.125"/><line style="stroke:#181818;stroke-width:1;" x1="585.0449" x2="626.0449" y1="250.125" y2="250.125"/><polygon fill="#181818" points="595.0449,246.125,585.0449,250.125,595.0449,254.125,591.0449,250.125" style="stroke:#181818;stroke-width:1;"/><text fill="#000000" font-family="sans-serif" font-size="13" lengthAdjust="spacing" textLength="236.647" x="591.0449" y="232.0591">fetch case, patient, latest responses</text></g><g class="message" data-entity-1="part4" data-entity-2="part5" id="msg5"><polygon fill="#181818" points="822.6919,275.2578,832.6919,279.2578,822.6919,283.2578,826.6919,279.2578" style="stroke:#181818;stroke-width:1;"/><line style="stroke:#181818;stroke-width:1;" x1="584.0449" x2="828.6919" y1="279.2578" y2="279.2578"/><text fill="#000000" font-family="sans-serif" font-size="13" lengthAdjust="spacing" textLength="164.0742" x="591.0449" y="274.1919">renderTemplate(context)</text></g><g class="message" data-entity-1="part5" data-entity-2="part4" id="msg6"><polygon fill="#181818" points="595.0449,304.3906,585.0449,308.3906,595.0449,312.3906,591.0449,308.3906" style="stroke:#181818;stroke-width:1;"/><line style="stroke:#181818;stroke-width:1;stroke-dasharray:2,2;" x1="589.0449" x2="833.6919" y1="308.3906" y2="308.3906"/><text fill="#000000" font-family="sans-serif" font-size="13" lengthAdjust="spacing" textLength="111.1284" x="601.0449" y="303.3247">renderedContent</text></g><g class="message" data-entity-1="part4" data-entity-2="part4" id="msg7"><line style="stroke:#181818;stroke-width:1;" x1="584.0449" x2="626.0449" y1="337.5234" y2="337.5234"/><line style="stroke:#181818;stroke-width:1;" x1="626.0449" x2="626.0449" y1="337.5234" y2="350.5234"/><line style="stroke:#181818;stroke-width:1;" x1="585.0449" x2="626.0449" y1="350.5234" y2="350.5234"/><polygon fill="#181818" points="595.0449,346.5234,585.0449,350.5234,595.0449,354.5234,591.0449,350.5234" style="stroke:#181818;stroke-width:1;"/><text fill="#000000" font-family="sans-serif" font-size="13" lengthAdjust="spacing" textLength="206.229" x="591.0449" y="332.4575">save JournalDraft + audit event</text></g><g class="message" data-entity-1="part4" data-entity-2="part3" id="msg8"><polygon fill="#181818" points="433.9673,375.6563,423.9673,379.6563,433.9673,383.6563,429.9673,379.6563" style="stroke:#181818;stroke-width:1;"/><line style="stroke:#181818;stroke-width:1;stroke-dasharray:2,2;" x1="427.9673" x2="583.0449" y1="379.6563" y2="379.6563"/><text fill="#000000" font-family="sans-serif" font-size="13" lengthAdjust="spacing" textLength="78.1841" x="439.9673" y="374.5903">JournalDraft</text></g><path d="M839,392.6563 L839,417.6563 L1029,417.6563 L1029,402.6563 L1019,392.6563 L839,392.6563" fill="#FEFFDD" style="stroke:#181818;stroke-width:0.5;"/><path d="M1019,392.6563 L1019,402.6563 L1029,402.6563 L1019,392.6563" fill="#FEFFDD" style="stroke:#181818;stroke-width:0.5;"/><text fill="#000000" font-family="sans-serif" font-size="13" lengthAdjust="spacing" textLength="169.0317" x="845" y="409.7231">src/api/journalRenderer.ts</text><?plantuml-src TP4nRiCm34LtdOB8bA19itVeaWA5FJhD0GIPJbGub4hHGSSUeYViIKhPJX0DsGZznwzFKhpq27KOc6mFRsmxWNSaP2i-4Fpz_C8UlmOaXyPO9u5XrtlopbioqR9e5Iq9B0xL0co2GrK-AuqaepILfRn7ldY7epxN9J17Qv1QPEGHh1jZRYbWywgVmWjmpfa4ZbDyX3PFOrHJOlfRgQiw-uuJBvrDMBKhCrFApraUD9YhN90TYZj1zbf3rFsfrHfwRTLGZ2a6IfZkM-jcZ9qd-y1ppEZI1HBybfLHSLFOJo2skqpGWmp9NcxddAxv17PelG1UYgRxdHIZ6GgwE_R7aq3eDAEQijlQwBUVvIsU9Pb_?></g></svg>