<?plantuml 1.2026.2?><svg xmlns="http://www.w3.org/2000/svg" xmlns:xlink="http://www.w3.org/1999/xlink" contentStyleType="text/css" data-diagram-type="STATE" height="425px" preserveAspectRatio="none" style="width:818px;height:425px;background:#FFFFFF;" version="1.1" viewBox="0 0 818 425" width="818px" zoomAndPan="magnify"><title>Patient Journey Lifecycle - State Diagram</title><defs/><g><g class="title" data-source-line="7"><text fill="#000000" font-family="sans-serif" font-size="14" font-weight="bold" lengthAdjust="spacing" textLength="326.3818" x="238.8461" y="22.9951">Patient Journey Lifecycle - State Diagram</text></g><g class="entity" data-qualified-name="ACTIVE" id="ent0002"><rect fill="#F1F1F1" height="50" rx="12.5" ry="12.5" style="stroke:#181818;stroke-width:0.5;" width="70.4561" x="262.84" y="220.8269"/><line style="stroke:#181818;stroke-width:0.5;" x1="262.84" x2="333.2961" y1="247.1238" y2="247.1238"/><text fill="#000000" font-family="sans-serif" font-size="14" lengthAdjust="spacing" textLength="50.4561" x="272.84" y="238.822">ACTIVE</text></g><g class="entity" data-qualified-name="SUSPENDED" id="ent0003"><rect fill="#F1F1F1" height="50" rx="12.5" ry="12.5" style="stroke:#181818;stroke-width:0.5;" width="106.1875" x="42.98" y="53.5569"/><line style="stroke:#181818;stroke-width:0.5;" x1="42.98" x2="149.1675" y1="79.8537" y2="79.8537"/><text fill="#000000" font-family="sans-serif" font-size="14" lengthAdjust="spacing" textLength="86.1875" x="52.98" y="71.552">SUSPENDED</text></g><g class="entity" data-qualified-name="COMPLETED" id="ent0004"><rect fill="#F1F1F1" height="50" rx="12.5" ry="12.5" style="stroke:#181818;stroke-width:0.5;" width="106.1396" x="7" y="358.0869"/><line style="stroke:#181818;stroke-width:0.5;" x1="7" x2="113.1396" y1="384.3838" y2="384.3838"/><text fill="#000000" font-family="sans-serif" font-size="14" lengthAdjust="spacing" textLength="86.1396" x="17" y="376.082">COMPLETED</text></g><g class="start_entity" data-qualified-name=".start." data-source-line="13" id="ent0002"><ellipse cx="583.07" cy="78.5569" fill="#222222" rx="10" ry="10" style="stroke:#222222;stroke-width:1;"/></g><g class="entity" data-qualified-name="GMN2" data-source-line="21" id="ent0003"><path d="M184.04,43.2969 L184.04,74.5569 L149.4,78.5569 L184.04,82.5569 L184.04,113.8281 A0,0 0 0 0 184.04,113.8281 L452.1035,113.8281 A0,0 0 0 0 452.1035,113.8281 L452.1035,53.2969 L442.1035,43.2969 L184.04,43.2969 A0,0 0 0 0 184.04,43.2969" fill="#FEFFDD" style="stroke:#181818;stroke-width:0.5;"/><path d="M442.1035,43.2969 L442.1035,53.2969 L452.1035,53.2969 L442.1035,43.2969" fill="#FEFFDD" style="stroke:#181818;stroke-width:0.5;"/><text fill="#000000" font-family="sans-serif" font-size="13" lengthAdjust="spacing" textLength="204.915" x="190.04" y="60.3638">Step dates shift dynamically by</text><text fill="#000000" font-family="sans-serif" font-size="13" lengthAdjust="spacing" textLength="247.0635" x="190.04" y="75.4966">totalPausedDays + currentPauseDays</text><text fill="#000000" font-family="sans-serif" font-size="13" lengthAdjust="spacing" textLength="211.2373" x="190.04" y="90.6294">(calculated in getEffectiveSteps;</text><text fill="#000000" font-family="sans-serif" font-size="13" lengthAdjust="spacing" textLength="230.7627" x="190.04" y="105.7622">no store write until resumeJourney)</text></g><g class="entity" data-qualified-name="GMN5" data-source-line="28" id="ent0006"><path d="M368,225.6969 L368,241.8269 L333.51,245.8269 L368,249.8269 L368,265.9625 A0,0 0 0 0 368,265.9625 L606.1406,265.9625 A0,0 0 0 0 606.1406,265.9625 L606.1406,235.6969 L596.1406,225.6969 L368,225.6969 A0,0 0 0 0 368,225.6969" fill="#FEFFDD" style="stroke:#181818;stroke-width:0.5;"/><path d="M596.1406,225.6969 L596.1406,235.6969 L606.1406,235.6969 L596.1406,225.6969" fill="#FEFFDD" style="stroke:#181818;stroke-width:0.5;"/><text fill="#000000" font-family="sans-serif" font-size="13" lengthAdjust="spacing" textLength="215.4775" x="374" y="242.7638">pauseJourney / resumeJourney in</text><text fill="#000000" font-family="sans-serif" font-size="13" lengthAdjust="spacing" textLength="217.1406" x="374" y="257.8966">src/api/service/patientJourneys.ts</text></g><g class="entity" data-qualified-name="GMN8" data-source-line="33" id="ent0009"><path d="M158.76,347.8269 L158.76,418.3581 A0,0 0 0 0 158.76,418.3581 L437.3796,418.3581 A0,0 0 0 0 437.3796,418.3581 L437.3796,357.8269 L427.3796,347.8269 L302.07,347.8269 L298.07,271.3169 L294.07,347.8269 L158.76,347.8269 A0,0 0 0 0 158.76,347.8269" fill="#FEFFDD" style="stroke:#181818;stroke-width:0.5;"/><path d="M427.3796,347.8269 L427.3796,357.8269 L437.3796,357.8269 L427.3796,347.8269" fill="#FEFFDD" style="stroke:#181818;stroke-width:0.5;"/><text fill="#000000" font-family="sans-serif" font-size="13" lengthAdjust="spacing" textLength="210.7295" x="164.76" y="364.8938">Phase progression is handled by</text><text fill="#000000" font-family="sans-serif" font-size="13" lengthAdjust="spacing" textLength="239.7383" x="164.76" y="380.0266">startNextPhase(...): previous journey</text><text fill="#000000" font-family="sans-serif" font-size="13" lengthAdjust="spacing" textLength="214.5952" x="164.76" y="395.1594">becomes COMPLETED and a new</text><text fill="#000000" font-family="sans-serif" font-size="13" lengthAdjust="spacing" textLength="257.6196" x="164.76" y="410.2922">journey is created in the same episode.</text></g><!--link *start* to ACTIVE--><g class="link" data-entity-1="ent0002" data-entity-2="ent0002" data-link-type="dependency" data-source-line="13" id="lnk3"><path d="M581.95,88.8369 C578.8,110.5369 567.78,164.7269 534.07,190.8269 C468.55,241.5469 429.3,196.5769 350.07,220.8269 C344.65,222.4869 344.599,222.2667 339.189,224.5467" fill="none" id="*start*-to-ACTIVE" style="stroke:#181818;stroke-width:1;"/><polygon fill="#181818" points="333.66,226.8769,343.507,227.0676,338.2675,224.9351,340.4001,219.6956,333.66,226.8769" style="stroke:#181818;stroke-width:1;"/><text fill="#000000" font-family="sans-serif" font-size="13" lengthAdjust="spacing" textLength="136.7666" x="620.2537" y="164.3938">assignPatientJourney</text><text fill="#000000" font-family="sans-serif" font-size="13" lengthAdjust="spacing" textLength="242.874" x="567.2" y="179.5266">(pausedAt=null, totalPausedDays=0)</text></g><!--link ACTIVE to SUSPENDED--><g class="link" data-entity-1="ent0002" data-entity-2="ent0003" data-link-type="dependency" data-source-line="15" id="lnk4"><path d="M262.58,240.6669 C209.55,233.6369 113.63,217.4969 93.07,190.8269 C74.08,166.1869 78.4866,134.2888 85.6166,109.7388" fill="none" id="ACTIVE-to-SUSPENDED" style="stroke:#181818;stroke-width:1;"/><polygon fill="#181818" points="87.29,103.9769,80.9386,111.5041,85.8955,108.7785,88.6211,113.7354,87.29,103.9769" style="stroke:#181818;stroke-width:1;"/><text fill="#000000" font-family="sans-serif" font-size="13" lengthAdjust="spacing" textLength="88.5308" x="136.0153" y="164.3938">pauseJourney</text><text fill="#000000" font-family="sans-serif" font-size="13" lengthAdjust="spacing" textLength="172.4214" x="94.07" y="179.5266">(records pausedAt=now())</text></g><!--link SUSPENDED to ACTIVE--><g class="link" data-entity-1="ent0003" data-entity-2="ent0002" data-link-type="dependency" data-source-line="16" id="lnk5"><path d="M143.01,103.9369 C150.62,107.4869 158.49,110.9169 166.07,113.8269 C211.38,131.2269 237.05,109.2169 271.07,143.8269 C291.17,164.2769 296.4031,191.9669 297.7231,214.7569" fill="none" id="SUSPENDED-to-ACTIVE" style="stroke:#181818;stroke-width:1;"/><polygon fill="#181818" points="298.07,220.7469,301.5429,211.5306,297.7809,215.7552,293.5563,211.9932,298.07,220.7469" style="stroke:#181818;stroke-width:1;"/><text fill="#000000" font-family="sans-serif" font-size="13" lengthAdjust="spacing" textLength="98.3188" x="361.1929" y="156.8938">resumeJourney</text><text fill="#000000" font-family="sans-serif" font-size="13" lengthAdjust="spacing" textLength="231.7847" x="294.46" y="172.0266">(totalPausedDays += elapsedDays,</text><text fill="#000000" font-family="sans-serif" font-size="13" lengthAdjust="spacing" textLength="101.1372" x="359.7837" y="187.1594">pausedAt=null)</text></g><!--link ACTIVE to COMPLETED--><g class="link" data-entity-1="ent0002" data-entity-2="ent0004" data-link-type="dependency" data-source-line="17" id="lnk6"><path d="M262.44,267.0769 C219.78,291.3269 153.5961,328.9318 108.0161,354.8418" fill="none" id="ACTIVE-to-COMPLETED" style="stroke:#181818;stroke-width:1;"/><polygon fill="#181818" points="102.8,357.8069,112.6009,356.8366,107.1468,355.3359,108.6475,349.8818,102.8,357.8069" style="stroke:#181818;stroke-width:1;"/><text fill="#000000" font-family="sans-serif" font-size="13" lengthAdjust="spacing" textLength="60.7217" x="201.39" y="313.8938">complete</text></g><!--link SUSPENDED to COMPLETED--><g class="link" data-entity-1="ent0003" data-entity-2="ent0004" data-link-type="dependency" data-source-line="18" id="lnk7"><path d="M84.9,104.0569 C80.06,115.8369 74.87,130.2969 72.07,143.8269 C56.18,220.6869 57.0164,308.321 58.6364,351.771" fill="none" id="SUSPENDED-to-COMPLETED" style="stroke:#181818;stroke-width:1;"/><polygon fill="#181818" points="58.86,357.7669,62.5219,348.6241,58.6737,352.7703,54.5275,348.9222,58.86,357.7669" style="stroke:#181818;stroke-width:1;"/><text fill="#000000" font-family="sans-serif" font-size="13" lengthAdjust="spacing" textLength="60.7217" x="62.28" y="250.3938">complete</text></g><?plantuml-src ZLF1Rjim3BthAtXhl3NspXaoeAXzsD1r1jBjikwWo8ojGPO4YKxcln_jEd6TRS2Ef1uVdnx96oYxu5t43PIID5g2dwuB5dim-e2gLmP1sWfy8oE23wuE6ADsLjp0Zf4AmHs0GaVDXbC0CQXCUfr5rM0hOpRHfHINpnYEMc7cNxf-Ua75Vy4cbbmIZXX1cbZPMVDK3WyNpMlO4OCXrx8EiXKYZk7T_TF7RyKKxBxkok8nB_8fll_okNmedZWMtz_yWFNwmuI73KZ-T6tBXTfdk_AoYrZTqTPsnjm2EPAc77EvxEFsNIB4H36mNHeouLWv4mLKBbGHPa9tMYM9c4iMSdW8NVkg_AenlDq26kcdyFRPBeGchqLTVisqohNU8E5Lsxz2X7NiMT1rGyCAp6O2MuyUgc5M41jz8AXwArkjf34zx7j6_A4NL1S2MplcXXI3LboWEiCy5MWBDL9nuFcIFkBG8RvdZ7KGoGM4Kz0ifxEapTATH23lxo3sMlAq3B2O1MJBSkui_cjjhxhi7P5h5stAwni27Q7XwpBymT4MtiD0Z_YBHkWgJTE4DoNWKRikdY-JSNlUbfRTdGSptAW4YoT-FLymiwk0P_keGOYoHK2lewimdHN_1W00?></g></svg>