<?plantuml 1.2026.2?><svg xmlns="http://www.w3.org/2000/svg" xmlns:xlink="http://www.w3.org/1999/xlink" contentStyleType="text/css" data-diagram-type="STATE" height="417px" preserveAspectRatio="none" style="width:833px;height:417px;background:#FFFFFF;" version="1.1" viewBox="0 0 833 417" width="833px" zoomAndPan="magnify"><title>Patient Journey Lifecycle &#8212; State Diagram</title><defs/><g><g class="title" data-source-line="1"><text fill="#000000" font-family="sans-serif" font-size="14" font-weight="bold" lengthAdjust="spacing" textLength="334.5713" x="242.6764" y="22.9951">Patient Journey Lifecycle &#8212; State Diagram</text></g><g class="entity" data-qualified-name="ACTIVE" id="ent0002"><rect fill="#F1F1F1" height="50" rx="12.5" ry="12.5" style="stroke:#181818;stroke-width:0.5;" width="70.4561" x="283.84" y="224.3269"/><line style="stroke:#181818;stroke-width:0.5;" x1="283.84" x2="354.2961" y1="250.6238" y2="250.6238"/><text fill="#000000" font-family="sans-serif" font-size="14" lengthAdjust="spacing" textLength="50.4561" x="293.84" y="242.322">ACTIVE</text></g><g class="entity" data-qualified-name="SUSPENDED" id="ent0003"><rect fill="#F1F1F1" height="50" rx="12.5" ry="12.5" style="stroke:#181818;stroke-width:0.5;" width="106.1875" x="56.98" y="53.5669"/><line style="stroke:#181818;stroke-width:0.5;" x1="56.98" x2="163.1675" y1="79.8637" y2="79.8637"/><text fill="#000000" font-family="sans-serif" font-size="14" lengthAdjust="spacing" textLength="86.1875" x="66.98" y="71.562">SUSPENDED</text></g><g class="entity" data-qualified-name="COMPLETED" id="ent0004"><rect fill="#F1F1F1" height="50" rx="12.5" ry="12.5" style="stroke:#181818;stroke-width:0.5;" width="106.1396" x="7" y="357.5269"/><line style="stroke:#181818;stroke-width:0.5;" x1="7" x2="113.1396" y1="383.8238" y2="383.8238"/><text fill="#000000" font-family="sans-serif" font-size="14" lengthAdjust="spacing" textLength="86.1396" x="17" y="375.522">COMPLETED</text></g><g class="start_entity" data-qualified-name=".start." data-source-line="7" id="ent0002"><ellipse cx="597.07" cy="78.5669" fill="#222222" rx="10" ry="10" style="stroke:#222222;stroke-width:1;"/></g><g class="entity" data-qualified-name="GMN2" data-source-line="17" id="ent0003"><path d="M198.04,43.2969 L198.04,74.5669 L163.4,78.5669 L198.04,82.5669 L198.04,113.8281 A0,0 0 0 0 198.04,113.8281 L466.1035,113.8281 A0,0 0 0 0 466.1035,113.8281 L466.1035,53.2969 L456.1035,43.2969 L198.04,43.2969 A0,0 0 0 0 198.04,43.2969" fill="#FEFFDD" style="stroke:#181818;stroke-width:0.5;"/><path d="M456.1035,43.2969 L456.1035,53.2969 L466.1035,53.2969 L456.1035,43.2969" fill="#FEFFDD" style="stroke:#181818;stroke-width:0.5;"/><text fill="#000000" font-family="sans-serif" font-size="13" lengthAdjust="spacing" textLength="204.915" x="204.04" y="60.3638">Step dates shift dynamically by</text><text fill="#000000" font-family="sans-serif" font-size="13" lengthAdjust="spacing" textLength="247.0635" x="204.04" y="75.4966">totalPausedDays + currentPauseDays</text><text fill="#000000" font-family="sans-serif" font-size="13" lengthAdjust="spacing" textLength="211.2373" x="204.04" y="90.6294">(calculated in getEffectiveSteps;</text><text fill="#000000" font-family="sans-serif" font-size="13" lengthAdjust="spacing" textLength="230.7627" x="204.04" y="105.7622">no store write until resumeJourney)</text></g><g class="entity" data-qualified-name="GMN5" data-source-line="24" id="ent0006"><path d="M561,229.1969 L561,245.3269 L354.68,249.3269 L561,253.3269 L561,269.4625 A0,0 0 0 0 561,269.4625 L799.1406,269.4625 A0,0 0 0 0 799.1406,269.4625 L799.1406,239.1969 L789.1406,229.1969 L561,229.1969 A0,0 0 0 0 561,229.1969" fill="#FEFFDD" style="stroke:#181818;stroke-width:0.5;"/><path d="M789.1406,229.1969 L789.1406,239.1969 L799.1406,239.1969 L789.1406,229.1969" fill="#FEFFDD" style="stroke:#181818;stroke-width:0.5;"/><text fill="#000000" font-family="sans-serif" font-size="13" lengthAdjust="spacing" textLength="215.4775" x="567" y="246.2638">pauseJourney / resumeJourney in</text><text fill="#000000" font-family="sans-serif" font-size="13" lengthAdjust="spacing" textLength="217.1406" x="567" y="261.3966">src/api/service/patientJourneys.ts</text></g><g class="entity" data-qualified-name="GMN8" data-source-line="29" id="ent0009"><path d="M152.5,354.8269 L152.5,410.2253 A0,0 0 0 0 152.5,410.2253 L485.6333,410.2253 A0,0 0 0 0 485.6333,410.2253 L485.6333,364.8269 L475.6333,354.8269 L323.07,354.8269 L319.07,274.6969 L315.07,354.8269 L152.5,354.8269 A0,0 0 0 0 152.5,354.8269" fill="#FEFFDD" style="stroke:#181818;stroke-width:0.5;"/><path d="M475.6333,354.8269 L475.6333,364.8269 L485.6333,364.8269 L475.6333,354.8269" fill="#FEFFDD" style="stroke:#181818;stroke-width:0.5;"/><text fill="#000000" font-family="sans-serif" font-size="13" lengthAdjust="spacing" textLength="312.1333" x="158.5" y="371.8938">SWITCH_TEMPLATE modifies journeyTemplateId</text><text fill="#000000" font-family="sans-serif" font-size="13" lengthAdjust="spacing" textLength="206.3115" x="158.5" y="387.0266">and optionally resets startDate.</text><text fill="#000000" font-family="sans-serif" font-size="13" lengthAdjust="spacing" textLength="183.8281" x="158.5" y="402.1594">Recorded in modifications[].</text></g><!--link *start* to ACTIVE--><g class="link" data-entity-1="ent0002" data-entity-2="ent0002" data-link-type="dependency" data-source-line="7" id="lnk3"><path d="M596.11,88.9669 C593.41,110.4469 583.72,163.3969 552.07,190.8269 C495.87,239.5469 410.7592,248.1773 360.7492,249.0073" fill="none" id="*start*-to-ACTIVE" style="stroke:#181818;stroke-width:1;"/><polygon fill="#181818" points="354.75,249.1069,363.8151,252.957,359.7493,249.0239,363.6824,244.9581,354.75,249.1069" style="stroke:#181818;stroke-width:1;"/><text fill="#000000" font-family="sans-serif" font-size="13" lengthAdjust="spacing" textLength="136.7666" x="636.1037" y="164.3938">assignPatientJourney</text><text fill="#000000" font-family="sans-serif" font-size="13" lengthAdjust="spacing" textLength="242.874" x="583.05" y="179.5266">(pausedAt=null, totalPausedDays=0)</text></g><!--link ACTIVE to SUSPENDED--><g class="link" data-entity-1="ent0002" data-entity-2="ent0003" data-link-type="dependency" data-source-line="9" id="lnk4"><path d="M283.7,243.9169 C229.12,236.3069 128.44,218.7669 107.07,190.8269 C88.17,166.1169 92.5618,134.2403 99.6618,109.7103" fill="none" id="ACTIVE-to-SUSPENDED" style="stroke:#181818;stroke-width:1;"/><polygon fill="#181818" points="101.33,103.9469,94.9854,111.4799,99.9399,108.7497,102.67,113.7041,101.33,103.9469" style="stroke:#181818;stroke-width:1;"/><text fill="#000000" font-family="sans-serif" font-size="13" lengthAdjust="spacing" textLength="88.5308" x="150.0153" y="164.3938">pauseJourney</text><text fill="#000000" font-family="sans-serif" font-size="13" lengthAdjust="spacing" textLength="172.4214" x="108.07" y="179.5266">(records pausedAt=now())</text></g><!--link SUSPENDED to ACTIVE--><g class="link" data-entity-1="ent0003" data-entity-2="ent0002" data-link-type="dependency" data-source-line="10" id="lnk5"><path d="M157.01,103.9469 C164.62,107.4869 172.49,110.9169 180.07,113.8269 C225.38,131.2369 250.13,110.1369 285.07,143.8269 C307.04,165.0169 314.1376,194.577 316.8876,218.247" fill="none" id="SUSPENDED-to-ACTIVE" style="stroke:#181818;stroke-width:1;"/><polygon fill="#181818" points="317.58,224.2069,320.5146,214.8054,317.003,219.2403,312.5681,215.7286,317.58,224.2069" style="stroke:#181818;stroke-width:1;"/><text fill="#000000" font-family="sans-serif" font-size="13" lengthAdjust="spacing" textLength="98.3188" x="378.4029" y="156.8938">resumeJourney</text><text fill="#000000" font-family="sans-serif" font-size="13" lengthAdjust="spacing" textLength="231.7847" x="311.67" y="172.0266">(totalPausedDays += elapsedDays,</text><text fill="#000000" font-family="sans-serif" font-size="13" lengthAdjust="spacing" textLength="101.1372" x="376.9937" y="187.1594">pausedAt=null)</text></g><!--link ACTIVE to COMPLETED--><g class="link" data-entity-1="ent0002" data-entity-2="ent0004" data-link-type="dependency" data-source-line="11" id="lnk6"><path d="M283.6,268.2969 C238.16,291.3169 164.5522,328.595 113.6722,354.375" fill="none" id="ACTIVE-to-COMPLETED" style="stroke:#181818;stroke-width:1;"/><polygon fill="#181818" points="108.32,357.0869,118.1562,356.5872,112.7802,354.827,114.5404,349.451,108.32,357.0869" style="stroke:#181818;stroke-width:1;"/><text fill="#000000" font-family="sans-serif" font-size="13" lengthAdjust="spacing" textLength="60.7217" x="206.08" y="320.8938">complete</text></g><!--link SUSPENDED to COMPLETED--><g class="link" data-entity-1="ent0003" data-entity-2="ent0004" data-link-type="dependency" data-source-line="12" id="lnk7"><path d="M99.37,103.8369 C94.58,115.6869 89.29,130.2669 86.07,143.8269 C67.89,220.3669 62.6066,307.8412 60.9666,351.2412" fill="none" id="SUSPENDED-to-COMPLETED" style="stroke:#181818;stroke-width:1;"/><polygon fill="#181818" points="60.74,357.2369,65.077,348.3943,60.9288,352.2404,57.0827,348.0922,60.74,357.2369" style="stroke:#181818;stroke-width:1;"/><text fill="#000000" font-family="sans-serif" font-size="13" lengthAdjust="spacing" textLength="60.7217" x="72.89" y="253.8938">complete</text></g><!--link ACTIVE to ACTIVE--><g class="link" data-entity-1="ent0002" data-entity-2="ent0002" data-link-type="dependency" data-source-line="14" id="lnk8"><path d="M354.48,237.2069 C372.79,235.3469 389.3,239.3869 389.3,249.3269 C389.3,259.2769 378.759,263.9265 360.449,262.0565" fill="none" id="ACTIVE-to-ACTIVE" style="stroke:#181818;stroke-width:1;"/><polygon fill="#181818" points="354.48,261.4469,363.027,266.3406,359.4541,261.9549,363.8398,258.382,354.48,261.4469" style="stroke:#181818;stroke-width:1;"/><text fill="#000000" font-family="sans-serif" font-size="13" lengthAdjust="spacing" textLength="125.7344" x="403.8408" y="238.8938">SWITCH_TEMPLATE</text><text fill="#000000" font-family="sans-serif" font-size="13" lengthAdjust="spacing" textLength="115.7305" x="408.8427" y="254.0266">(change template</text><text fill="#000000" font-family="sans-serif" font-size="13" lengthAdjust="spacing" textLength="142.8159" x="395.3" y="269.1594">&amp; optional date reset)</text></g><?plantuml-src RL9BRjim4Dth5BCgh3InksxX08Obe2xIreZLPX470KEDP1OKAP2Z1Dhr43bXJfAHpDYMakMGxySt94KQOIr8eI7uOHjdi8KhLQ1i9T-y_7-63Gb2I9GedQYYoFVZOfcj_gPXsFpPhDDVIPg4UVdxv_egpNYERi_kuEBYCk3XAmZlLMc2Op3Scaaj6e_vWkQcqVeSo9BGw_ui4QsVVucZA4XqQWT35koPHo67qhhSmr7GFatYE3fI1d4S-gOweO-CuVCSK8iwZETRCmWQduOwl9fbfQrgZOGZsmyXfng7N9kRLRRyVf-bJ5XaAIUJEs5A14AcSSbRymbiJSeQeI7lMkUd875FndQ3AdS4jZZP3V0ciUwn7lnE5GHvQqIbfD2wXOUM4U-U3x9nZZVLdtL739emGJPTY1oKWH8fBVZ3a7h4pi5_OuonuCawX2UdE4vZIEbXsN649eSkx3Xo-5imM2tCXdHsPeHtSYPgDVFe7fN4MJtuLtvAVkpoO8biDR0PTGsLpLMXkAH_UvaiLBxA6InOxgrtRgqldUiauIXXp9GXr_qNt9UprvAY8_ZRk-anpYi0?></g></svg>