<?plantuml 1.2026.1?><svg xmlns="http://www.w3.org/2000/svg" xmlns:xlink="http://www.w3.org/1999/xlink" contentStyleType="text/css" data-diagram-type="STATE" height="491px" preserveAspectRatio="none" style="width:606px;height:491px;background:#FFFFFF;" version="1.1" viewBox="0 0 606 491" width="606px" zoomAndPan="magnify"><title>PatientJourney Lifecycle</title><defs/><g><g class="title" data-source-line="1"><text fill="#000000" font-family="sans-serif" font-size="14" font-weight="bold" lengthAdjust="spacing" textLength="191.8369" x="200.457" y="22.9951">PatientJourney Lifecycle</text></g><g><rect fill="#F1F1F1" height="50" rx="12.5" ry="12.5" style="stroke:#181818;stroke-width:0.5;" width="70.4561" x="118.83" y="150.5569"/><line style="stroke:#181818;stroke-width:0.5;" x1="118.83" x2="189.2861" y1="176.8538" y2="176.8538"/><text fill="#000000" font-family="sans-serif" font-size="14" lengthAdjust="spacing" textLength="50.4561" x="128.83" y="168.552">ACTIVE</text></g><g><rect fill="#F1F1F1" height="50" rx="12.5" ry="12.5" style="stroke:#181818;stroke-width:0.5;" width="106.1875" x="14.97" y="298.0869"/><line style="stroke:#181818;stroke-width:0.5;" x1="14.97" x2="121.1575" y1="324.3838" y2="324.3838"/><text fill="#000000" font-family="sans-serif" font-size="14" lengthAdjust="spacing" textLength="86.1875" x="24.97" y="316.082">SUSPENDED</text></g><g><rect fill="#F1F1F1" height="50" rx="12.5" ry="12.5" style="stroke:#181818;stroke-width:0.5;" width="106.1396" x="75.99" y="435.3569"/><line style="stroke:#181818;stroke-width:0.5;" x1="75.99" x2="182.1296" y1="461.6538" y2="461.6538"/><text fill="#000000" font-family="sans-serif" font-size="14" lengthAdjust="spacing" textLength="86.1396" x="85.99" y="453.352">COMPLETED</text></g><ellipse cx="154.06" cy="53.2969" fill="#222222" rx="10" ry="10" style="stroke:#222222;stroke-width:1;"/><g class="entity" data-qualified-name="GMN2" data-source-line="17" id="ent0003"><path d="M396.37,140.2969 L396.37,171.5569 L189.67,175.5569 L396.37,179.5569 L396.37,210.8281 A0,0 0 0 0 396.37,210.8281 L599.7509,210.8281 A0,0 0 0 0 599.7509,210.8281 L599.7509,150.2969 L589.7509,140.2969 L396.37,140.2969 A0,0 0 0 0 396.37,140.2969" fill="#FEFFDD" style="stroke:#181818;stroke-width:0.5;"/><path d="M589.7509,140.2969 L589.7509,150.2969 L599.7509,150.2969 L589.7509,140.2969" fill="#FEFFDD" style="stroke:#181818;stroke-width:0.5;"/><text fill="#000000" font-family="sans-serif" font-size="13" lengthAdjust="spacing" textLength="153.2705" x="402.37" y="157.3638">Transitions enforced by</text><text fill="#000000" font-family="sans-serif" font-size="13" lengthAdjust="spacing" textLength="182.3809" x="402.37" y="172.4966">updatePatientJourneyStatus</text><text fill="#000000" font-family="sans-serif" font-size="13" lengthAdjust="spacing" textLength="114.7847" x="402.37" y="187.6294">in src/api/service/</text><text fill="#000000" font-family="sans-serif" font-size="13" lengthAdjust="spacing" textLength="118.3394" x="402.37" y="202.7622">patientJourneys.ts</text></g><g class="entity" data-qualified-name="GMN5" data-source-line="24" id="ent0006"><path d="M287.91,287.8269 L287.91,358.3581 A0,0 0 0 0 287.91,358.3581 L494.2171,358.3581 A0,0 0 0 0 494.2171,358.3581 L494.2171,297.8269 L484.2171,287.8269 L338.59,287.8269 L189.54,198.3469 L330.59,287.8269 L287.91,287.8269 A0,0 0 0 0 287.91,287.8269" fill="#FEFFDD" style="stroke:#181818;stroke-width:0.5;"/><path d="M484.2171,287.8269 L484.2171,297.8269 L494.2171,297.8269 L484.2171,287.8269" fill="#FEFFDD" style="stroke:#181818;stroke-width:0.5;"/><text fill="#000000" font-family="sans-serif" font-size="13" lengthAdjust="spacing" textLength="185.3071" x="293.91" y="304.8938">SWITCH_TEMPLATE modifies</text><text fill="#000000" font-family="sans-serif" font-size="13" lengthAdjust="spacing" textLength="151.2837" x="293.91" y="320.0266">journeyTemplateId and</text><text fill="#000000" font-family="sans-serif" font-size="13" lengthAdjust="spacing" textLength="177.7217" x="293.91" y="335.1594">optionally resets startDate.</text><text fill="#000000" font-family="sans-serif" font-size="13" lengthAdjust="spacing" textLength="183.8281" x="293.91" y="350.2922">Recorded in modifications[].</text></g><!--link *start* to ACTIVE--><g class="link" data-entity-1="ent0002" data-entity-2="ent0002" data-link-type="dependency" data-source-line="7" id="lnk3"><path d="M154.06,63.7269 C154.06,82.2269 154.06,117.7569 154.06,144.3969" fill="none" id="*start*-to-ACTIVE" style="stroke:#181818;stroke-width:1;"/><polygon fill="#181818" points="154.06,150.3969,158.06,141.3969,154.06,145.3969,150.06,141.3969,154.06,150.3969" style="stroke:#181818;stroke-width:1;"/><text fill="#000000" font-family="sans-serif" font-size="13" lengthAdjust="spacing" textLength="136.7666" x="155.06" y="106.3638">assignPatientJourney</text></g><!--link ACTIVE to SUSPENDED--><g class="link" data-entity-1="ent0002" data-entity-2="ent0003" data-link-type="dependency" data-source-line="9" id="lnk4"><path d="M118.62,182.4169 C86.18,189.8669 40,206.1869 18.06,240.8269 C6,259.8569 16.5785,277.4137 33.1585,293.6137" fill="none" id="ACTIVE-to-SUSPENDED" style="stroke:#181818;stroke-width:1;"/><polygon fill="#181818" points="37.45,297.8069,33.8081,288.6561,33.8737,294.3126,28.2172,294.3781,37.45,297.8069" style="stroke:#181818;stroke-width:1;"/><text fill="#000000" font-family="sans-serif" font-size="13" lengthAdjust="spacing" textLength="54.5264" x="19.06" y="253.8938">suspend</text></g><!--link SUSPENDED to ACTIVE--><g class="link" data-entity-1="ent0003" data-entity-2="ent0002" data-link-type="dependency" data-source-line="10" id="lnk5"><path d="M81.49,297.7569 C90.52,281.5369 102.8,259.7869 114.06,240.8269 C121.98,227.4969 127.9082,217.8775 135.4282,205.9075" fill="none" id="SUSPENDED-to-ACTIVE" style="stroke:#181818;stroke-width:1;"/><polygon fill="#181818" points="138.62,200.8269,130.4452,206.3199,135.9602,205.0607,137.2193,210.5756,138.62,200.8269" style="stroke:#181818;stroke-width:1;"/><text fill="#000000" font-family="sans-serif" font-size="13" lengthAdjust="spacing" textLength="49.0166" x="115.06" y="253.8938">resume</text></g><!--link ACTIVE to COMPLETED--><g class="link" data-entity-1="ent0002" data-entity-2="ent0004" data-link-type="dependency" data-source-line="11" id="lnk6"><path d="M161.54,201.0269 C173.33,243.7269 192.58,334.0969 169.06,405.3569 C165.55,415.9969 162.742,421.5172 155.982,430.1772" fill="none" id="ACTIVE-to-COMPLETED" style="stroke:#181818;stroke-width:1;"/><polygon fill="#181818" points="152.29,434.9069,160.981,430.2737,155.3666,430.9655,154.6748,425.3511,152.29,434.9069" style="stroke:#181818;stroke-width:1;"/><text fill="#000000" font-family="sans-serif" font-size="13" lengthAdjust="spacing" textLength="60.7217" x="181.19" y="327.6538">complete</text></g><!--link SUSPENDED to COMPLETED--><g class="link" data-entity-1="ent0003" data-entity-2="ent0004" data-link-type="dependency" data-source-line="12" id="lnk7"><path d="M78.21,348.3869 C85.06,364.5969 94.4,386.3469 103.06,405.3569 C107.51,415.1069 109.9624,420.358 114.4424,429.598" fill="none" id="SUSPENDED-to-COMPLETED" style="stroke:#181818;stroke-width:1;"/><polygon fill="#181818" points="117.06,434.9969,116.7328,425.1535,114.8786,430.4978,109.5343,428.6436,117.06,434.9969" style="stroke:#181818;stroke-width:1;"/><text fill="#000000" font-family="sans-serif" font-size="13" lengthAdjust="spacing" textLength="60.7217" x="104.06" y="401.4238">complete</text></g><!--link ACTIVE to ACTIVE--><g class="link" data-entity-1="ent0002" data-entity-2="ent0002" data-link-type="dependency" data-source-line="14" id="lnk8"><path d="M189.47,162.2169 C207.78,160.1669 224.29,164.6069 224.29,175.5569 C224.29,186.5069 213.7427,191.6245 195.4327,189.5745" fill="none" id="ACTIVE-to-ACTIVE" style="stroke:#181818;stroke-width:1;"/><polygon fill="#181818" points="189.47,188.9069,197.9691,193.8834,194.439,189.4632,198.8592,185.9331,189.47,188.9069" style="stroke:#181818;stroke-width:1;"/><text fill="#000000" font-family="sans-serif" font-size="13" lengthAdjust="spacing" textLength="125.7344" x="238.8308" y="165.1238">SWITCH_TEMPLATE</text><text fill="#000000" font-family="sans-serif" font-size="13" lengthAdjust="spacing" textLength="115.7305" x="243.8327" y="180.2566">(change template</text><text fill="#000000" font-family="sans-serif" font-size="13" lengthAdjust="spacing" textLength="142.8159" x="230.29" y="195.3894">&amp; optional date reset)</text></g><?plantuml-src RL71Ji904BtlLyp9g0bmzs12e8aOL69NFG0notOAQzhTPcTgqhztAhLGud5stdlptbjsN22i33lq_1ZgwB61fSlHDhP0fOWD8qndUl6UT4FwbgwIvtaox-RPozDgcMYPrVfs2wFHVOU7Ep14Rk-7yafrwnRPYmcOQghGP-hqDj2AI7M9v-J-icnjAAi26I_O_qBEDNhvz6EXPm-VEX72L2SRVsqFnkyH68KcGJV-2aB5BdXJGDOc5qV8Dqhvq0vkVs08-LzP03eQJwub4A3FGxIOmQwHJLsr_64jgPHPaooT1ufsOYet8OpVpk94Ngi1cCPCIhg2zdHdO1UOGpbmS949of2vt65xvUiefBjmYmoCL0zzmg8vnYEGNuuy5ynOrgzeGymaXxWygbdpct2z7PyC_G00?></g></svg>