<?plantuml 1.2026.2?><svg xmlns="http://www.w3.org/2000/svg" xmlns:xlink="http://www.w3.org/1999/xlink" contentStyleType="text/css" data-diagram-type="SEQUENCE" height="1623px" preserveAspectRatio="none" style="width:1347px;height:1623px;background:#FFFFFF;" version="1.1" viewBox="0 0 1347 1623" width="1347px" zoomAndPan="magnify"><title>Journey Pause &amp; Resume &#8212; Sequence</title><defs/><g><text fill="#000000" font-family="sans-serif" font-size="14" font-weight="bold" lengthAdjust="spacing" textLength="297.8486" x="520.6992" y="27.9951">Journey Pause &amp; Resume &#8212; Sequence</text><rect fill="none" height="237" style="stroke:#000000;stroke-width:1.5;" width="1172.1401" x="158.1069" y="379.5234"/><rect fill="none" height="324.5313" style="stroke:#000000;stroke-width:1.5;" width="1172.1401" x="158.1069" y="1144.0469"/><g class="participant-lifeline" data-entity-uid="part1" data-qualified-name="Clinician" id="part1-lifeline"><g><title>Clinician</title><rect fill="#000000" fill-opacity="0.00000" height="1424.25" width="8" x="33.6782" y="118.5938"/><line style="stroke:#181818;stroke-width:0.5;stroke-dasharray:5,5;" x1="37" x2="37" y1="118.5938" y2="1542.8438"/></g></g><g class="participant-lifeline" data-entity-uid="part2" data-qualified-name="UI" id="part2-lifeline"><g><title>JourneyTab</title><rect fill="#000000" fill-opacity="0.00000" height="1424.25" width="8" x="210.6631" y="118.5938"/><line style="stroke:#181818;stroke-width:0.5;stroke-dasharray:5,5;" x1="214.1069" x2="214.1069" y1="118.5938" y2="1542.8438"/></g></g><g class="participant-lifeline" data-entity-uid="part3" data-qualified-name="Client" id="part3-lifeline"><g><title>client.</title><rect fill="#000000" fill-opacity="0.00000" height="1424.25" width="8" x="404.2915" y="118.5938"/><line style="stroke:#181818;stroke-width:0.5;stroke-dasharray:5,5;" x1="408.187" x2="408.187" y1="118.5938" y2="1542.8438"/></g></g><g class="participant-lifeline" data-entity-uid="part4" data-qualified-name="Service" id="part4-lifeline"><g><title>service.</title><rect fill="#000000" fill-opacity="0.00000" height="1424.25" width="8" x="743.6812" y="118.5938"/><line style="stroke:#181818;stroke-width:0.5;stroke-dasharray:5,5;" x1="747.5767" x2="747.5767" y1="118.5938" y2="1542.8438"/></g></g><g class="participant-lifeline" data-entity-uid="part5" data-qualified-name="Resolver" id="part5-lifeline"><g><title>journeyResolver</title><rect fill="#000000" fill-opacity="0.00000" height="1424.25" width="8" x="1001.501" y="118.5938"/><line style="stroke:#181818;stroke-width:0.5;stroke-dasharray:5,5;" x1="1005.314" x2="1005.314" y1="118.5938" y2="1542.8438"/></g></g><g class="participant-lifeline" data-entity-uid="part6" data-qualified-name="Store" id="part6-lifeline"><g><title>patchStore</title><rect fill="#000000" fill-opacity="0.00000" height="1424.25" width="8" x="1270.8291" y="118.5938"/><line style="stroke:#181818;stroke-width:0.5;stroke-dasharray:5,5;" x1="1274.4111" x2="1274.4111" y1="118.5938" y2="1542.8438"/></g></g><g class="participant participant-head" data-entity-uid="part1" data-qualified-name="Clinician" id="part1-head"><text fill="#000000" font-family="sans-serif" font-size="14" lengthAdjust="spacing" textLength="59.3564" x="5" y="115.292">Clinician</text><ellipse cx="37.6782" cy="50.7969" fill="#E2E2F0" rx="8" ry="8" style="stroke:#181818;stroke-width:0.5;"/><path d="M37.6782,58.7969 L37.6782,85.7969 M24.6782,66.7969 L50.6782,66.7969 M37.6782,85.7969 L24.6782,100.7969 M37.6782,85.7969 L50.6782,100.7969" fill="none" style="stroke:#181818;stroke-width:0.5;"/></g><g class="participant participant-tail" data-entity-uid="part1" data-qualified-name="Clinician" id="part1-tail"><text fill="#000000" font-family="sans-serif" font-size="14" lengthAdjust="spacing" textLength="59.3564" x="5" y="1554.8389">Clinician</text><ellipse cx="37.6782" cy="1566.6406" fill="#E2E2F0" rx="8" ry="8" style="stroke:#181818;stroke-width:0.5;"/><path d="M37.6782,1574.6406 L37.6782,1601.6406 M24.6782,1582.6406 L50.6782,1582.6406 M37.6782,1601.6406 L24.6782,1616.6406 M37.6782,1601.6406 L50.6782,1616.6406" fill="none" style="stroke:#181818;stroke-width:0.5;"/></g><g class="participant participant-head" data-entity-uid="part2" data-qualified-name="UI" id="part2-head"><rect fill="#E2E2F0" height="46.5938" rx="2.5" ry="2.5" style="stroke:#181818;stroke-width:0.5;" width="93.1123" x="168.1069" y="71"/><text fill="#000000" font-family="sans-serif" font-size="14" lengthAdjust="spacing" textLength="79.1123" x="175.1069" y="90.9951">JourneyTab</text><text fill="#000000" font-family="sans-serif" font-size="14" lengthAdjust="spacing" textLength="25.2998" x="202.0132" y="107.292">(UI)</text></g><g class="participant participant-tail" data-entity-uid="part2" data-qualified-name="UI" id="part2-tail"><rect fill="#E2E2F0" height="46.5938" rx="2.5" ry="2.5" style="stroke:#181818;stroke-width:0.5;" width="93.1123" x="168.1069" y="1541.8438"/><text fill="#000000" font-family="sans-serif" font-size="14" lengthAdjust="spacing" textLength="79.1123" x="175.1069" y="1561.8389">JourneyTab</text><text fill="#000000" font-family="sans-serif" font-size="14" lengthAdjust="spacing" textLength="25.2998" x="202.0132" y="1578.1357">(UI)</text></g><g class="participant participant-head" data-entity-uid="part3" data-qualified-name="Client" id="part3-head"><rect fill="#E2E2F0" height="46.5938" rx="2.5" ry="2.5" style="stroke:#181818;stroke-width:0.5;" width="124.209" x="346.187" y="71"/><text fill="#000000" font-family="sans-serif" font-size="14" lengthAdjust="spacing" textLength="43.1689" x="386.707" y="90.9951">client/</text><text fill="#000000" font-family="sans-serif" font-size="14" lengthAdjust="spacing" textLength="110.209" x="353.187" y="107.292">patientJourneys</text></g><g class="participant participant-tail" data-entity-uid="part3" data-qualified-name="Client" id="part3-tail"><rect fill="#E2E2F0" height="46.5938" rx="2.5" ry="2.5" style="stroke:#181818;stroke-width:0.5;" width="124.209" x="346.187" y="1541.8438"/><text fill="#000000" font-family="sans-serif" font-size="14" lengthAdjust="spacing" textLength="43.1689" x="386.707" y="1561.8389">client/</text><text fill="#000000" font-family="sans-serif" font-size="14" lengthAdjust="spacing" textLength="110.209" x="353.187" y="1578.1357">patientJourneys</text></g><g class="participant participant-head" data-entity-uid="part4" data-qualified-name="Service" id="part4-head"><rect fill="#E2E2F0" height="46.5938" rx="2.5" ry="2.5" style="stroke:#181818;stroke-width:0.5;" width="124.209" x="685.5767" y="71"/><text fill="#000000" font-family="sans-serif" font-size="14" lengthAdjust="spacing" textLength="54.8652" x="720.2485" y="90.9951">service/</text><text fill="#000000" font-family="sans-serif" font-size="14" lengthAdjust="spacing" textLength="110.209" x="692.5767" y="107.292">patientJourneys</text></g><g class="participant participant-tail" data-entity-uid="part4" data-qualified-name="Service" id="part4-tail"><rect fill="#E2E2F0" height="46.5938" rx="2.5" ry="2.5" style="stroke:#181818;stroke-width:0.5;" width="124.209" x="685.5767" y="1541.8438"/><text fill="#000000" font-family="sans-serif" font-size="14" lengthAdjust="spacing" textLength="54.8652" x="720.2485" y="1561.8389">service/</text><text fill="#000000" font-family="sans-serif" font-size="14" lengthAdjust="spacing" textLength="110.209" x="692.5767" y="1578.1357">patientJourneys</text></g><g class="participant participant-head" data-entity-uid="part5" data-qualified-name="Resolver" id="part5-head"><rect fill="#E2E2F0" height="46.5938" rx="2.5" ry="2.5" style="stroke:#181818;stroke-width:0.5;" width="148.374" x="931.314" y="71"/><text fill="#000000" font-family="sans-serif" font-size="14" lengthAdjust="spacing" textLength="113.5996" x="948.7012" y="90.9951">journeyResolver</text><text fill="#000000" font-family="sans-serif" font-size="14" lengthAdjust="spacing" textLength="134.374" x="938.314" y="107.292">(getEffectiveSteps)</text></g><g class="participant participant-tail" data-entity-uid="part5" data-qualified-name="Resolver" id="part5-tail"><rect fill="#E2E2F0" height="46.5938" rx="2.5" ry="2.5" style="stroke:#181818;stroke-width:0.5;" width="148.374" x="931.314" y="1541.8438"/><text fill="#000000" font-family="sans-serif" font-size="14" lengthAdjust="spacing" textLength="113.5996" x="948.7012" y="1561.8389">journeyResolver</text><text fill="#000000" font-family="sans-serif" font-size="14" lengthAdjust="spacing" textLength="134.374" x="938.314" y="1578.1357">(getEffectiveSteps)</text></g><g class="participant participant-head" data-entity-uid="part6" data-qualified-name="Store" id="part6-head"><rect fill="#E2E2F0" height="30.2969" rx="2.5" ry="2.5" style="stroke:#181818;stroke-width:0.5;" width="90.8359" x="1229.4111" y="87.2969"/><text fill="#000000" font-family="sans-serif" font-size="14" lengthAdjust="spacing" textLength="76.8359" x="1236.4111" y="107.292">patchStore</text></g><g class="participant participant-tail" data-entity-uid="part6" data-qualified-name="Store" id="part6-tail"><rect fill="#E2E2F0" height="30.2969" rx="2.5" ry="2.5" style="stroke:#181818;stroke-width:0.5;" width="90.8359" x="1229.4111" y="1541.8438"/><text fill="#000000" font-family="sans-serif" font-size="14" lengthAdjust="spacing" textLength="76.8359" x="1236.4111" y="1561.8389">patchStore</text></g><rect fill="#EEEEEE" height="3" style="stroke:#EEEEEE;stroke-width:1;" width="1340.2471" x="0" y="149.1602"/><line style="stroke:#000000;stroke-width:1;" x1="0" x2="1340.2471" y1="149.1602" y2="149.1602"/><line style="stroke:#000000;stroke-width:1;" x1="0" x2="1340.2471" y1="152.1602" y2="152.1602"/><rect fill="#EEEEEE" height="23.1328" style="stroke:#000000;stroke-width:2;" width="123.1416" x="608.5527" y="138.5938"/><text fill="#000000" font-family="sans-serif" font-size="13" font-weight="bold" lengthAdjust="spacing" textLength="104.6157" x="614.5527" y="154.6606">Pause Journey</text><g class="message" data-entity-1="part1" data-entity-2="part2" id="msg1"><polygon fill="#181818" points="202.6631,188.8594,212.6631,192.8594,202.6631,196.8594,206.6631,192.8594" style="stroke:#181818;stroke-width:1;"/><line style="stroke:#181818;stroke-width:1;" x1="37.6782" x2="208.6631" y1="192.8594" y2="192.8594"/><text fill="#000000" font-family="sans-serif" font-size="13" lengthAdjust="spacing" textLength="139.0962" x="44.6782" y="187.7935">Click "Pause journey"</text></g><g class="message" data-entity-1="part2" data-entity-2="part2" id="msg2"><line style="stroke:#181818;stroke-width:1;" x1="214.6631" x2="256.6631" y1="221.9922" y2="221.9922"/><line style="stroke:#181818;stroke-width:1;" x1="256.6631" x2="256.6631" y1="221.9922" y2="234.9922"/><line style="stroke:#181818;stroke-width:1;" x1="215.6631" x2="256.6631" y1="234.9922" y2="234.9922"/><polygon fill="#181818" points="225.6631,230.9922,215.6631,234.9922,225.6631,238.9922,221.6631,234.9922" style="stroke:#181818;stroke-width:1;"/><text fill="#000000" font-family="sans-serif" font-size="13" lengthAdjust="spacing" textLength="165.3945" x="221.6631" y="216.9263">Show confirmation dialog</text></g><g class="message" data-entity-1="part1" data-entity-2="part2" id="msg3"><polygon fill="#181818" points="202.6631,260.125,212.6631,264.125,202.6631,268.125,206.6631,264.125" style="stroke:#181818;stroke-width:1;"/><line style="stroke:#181818;stroke-width:1;" x1="37.6782" x2="208.6631" y1="264.125" y2="264.125"/><text fill="#000000" font-family="sans-serif" font-size="13" lengthAdjust="spacing" textLength="94.8276" x="44.6782" y="259.0591">Confirm pause</text></g><g class="message" data-entity-1="part2" data-entity-2="part3" id="msg4"><polygon fill="#181818" points="396.2915,289.2578,406.2915,293.2578,396.2915,297.2578,400.2915,293.2578" style="stroke:#181818;stroke-width:1;"/><line style="stroke:#181818;stroke-width:1;" x1="214.6631" x2="402.2915" y1="293.2578" y2="293.2578"/><text fill="#000000" font-family="sans-serif" font-size="13" lengthAdjust="spacing" textLength="159.8403" x="221.6631" y="288.1919">pauseJourney(journeyId)</text></g><g class="message" data-entity-1="part3" data-entity-2="part4" id="msg5"><polygon fill="#181818" points="735.6812,318.3906,745.6812,322.3906,735.6812,326.3906,739.6812,322.3906" style="stroke:#181818;stroke-width:1;"/><line style="stroke:#181818;stroke-width:1;" x1="408.2915" x2="741.6812" y1="322.3906" y2="322.3906"/><text fill="#000000" font-family="sans-serif" font-size="13" lengthAdjust="spacing" textLength="159.8403" x="415.2915" y="317.3247">pauseJourney(journeyId)</text></g><g class="message" data-entity-1="part4" data-entity-2="part4" id="msg6"><line style="stroke:#181818;stroke-width:1;" x1="747.6812" x2="789.6812" y1="351.5234" y2="351.5234"/><line style="stroke:#181818;stroke-width:1;" x1="789.6812" x2="789.6812" y1="351.5234" y2="364.5234"/><line style="stroke:#181818;stroke-width:1;" x1="748.6812" x2="789.6812" y1="364.5234" y2="364.5234"/><polygon fill="#181818" points="758.6812,360.5234,748.6812,364.5234,758.6812,368.5234,754.6812,364.5234" style="stroke:#181818;stroke-width:1;"/><text fill="#000000" font-family="sans-serif" font-size="13" lengthAdjust="spacing" textLength="196.606" x="754.6812" y="346.4575">Guard: status must be ACTIVE</text></g><path d="M158.1069,379.5234 L222.5498,379.5234 L222.5498,386.6563 L212.5498,396.6563 L158.1069,396.6563 L158.1069,379.5234" fill="#EEEEEE" style="stroke:#000000;stroke-width:1.5;"/><rect fill="none" height="237" style="stroke:#000000;stroke-width:1.5;" width="1172.1401" x="158.1069" y="379.5234"/><text fill="#000000" font-family="sans-serif" font-size="13" font-weight="bold" lengthAdjust="spacing" textLength="19.4429" x="173.1069" y="392.5903">alt</text><text fill="#000000" font-family="sans-serif" font-size="11" font-weight="bold" lengthAdjust="spacing" textLength="111.1064" x="237.5498" y="391.7339">[status is ACTIVE]</text><g class="message" data-entity-1="part4" data-entity-2="part6" id="msg7"><polygon fill="#181818" points="1262.8291,444.0547,1272.8291,448.0547,1262.8291,452.0547,1266.8291,448.0547" style="stroke:#181818;stroke-width:1;"/><line style="stroke:#181818;stroke-width:1;" x1="747.6812" x2="1268.8291" y1="448.0547" y2="448.0547"/><text fill="#000000" font-family="sans-serif" font-size="13" lengthAdjust="spacing" textLength="75.7275" x="754.6812" y="412.7231">patchStore:</text><text fill="#000000" font-family="sans-serif" font-size="13" lengthAdjust="spacing" textLength="139.1343" x="762.9458" y="427.856">status = SUSPENDED</text><text fill="#000000" font-family="sans-serif" font-size="13" lengthAdjust="spacing" textLength="117.5967" x="762.9458" y="442.9888">pausedAt = now()</text></g><g class="message" data-entity-1="part6" data-entity-2="part4" id="msg8"><polygon fill="#181818" points="758.6812,473.1875,748.6812,477.1875,758.6812,481.1875,754.6812,477.1875" style="stroke:#181818;stroke-width:1;"/><line style="stroke:#181818;stroke-width:1;stroke-dasharray:2,2;" x1="752.6812" x2="1273.8291" y1="477.1875" y2="477.1875"/><text fill="#000000" font-family="sans-serif" font-size="13" lengthAdjust="spacing" textLength="153.3403" x="764.6812" y="472.1216">updated PatientJourney</text></g><g class="message" data-entity-1="part4" data-entity-2="part3" id="msg9"><polygon fill="#181818" points="419.2915,502.3203,409.2915,506.3203,419.2915,510.3203,415.2915,506.3203" style="stroke:#181818;stroke-width:1;"/><line style="stroke:#181818;stroke-width:1;stroke-dasharray:2,2;" x1="413.2915" x2="746.6812" y1="506.3203" y2="506.3203"/><text fill="#000000" font-family="sans-serif" font-size="13" lengthAdjust="spacing" textLength="95.1514" x="425.2915" y="501.2544">PatientJourney</text></g><g class="message" data-entity-1="part3" data-entity-2="part2" id="msg10"><polygon fill="#181818" points="225.6631,531.4531,215.6631,535.4531,225.6631,539.4531,221.6631,535.4531" style="stroke:#181818;stroke-width:1;"/><line style="stroke:#181818;stroke-width:1;stroke-dasharray:2,2;" x1="219.6631" x2="407.2915" y1="535.4531" y2="535.4531"/><text fill="#000000" font-family="sans-serif" font-size="13" lengthAdjust="spacing" textLength="95.1514" x="231.6631" y="530.3872">PatientJourney</text></g><line style="stroke:#000000;stroke-width:1;stroke-dasharray:2,2;" x1="158.1069" x2="1330.2471" y1="544.4531" y2="544.4531"/><text fill="#000000" font-family="sans-serif" font-size="11" font-weight="bold" lengthAdjust="spacing" textLength="135.5825" x="163.1069" y="554.6636">[status is not ACTIVE]</text><g class="message" data-entity-1="part4" data-entity-2="part3" id="msg11"><polygon fill="#181818" points="419.2915,575.3906,409.2915,579.3906,419.2915,583.3906,415.2915,579.3906" style="stroke:#181818;stroke-width:1;"/><line style="stroke:#181818;stroke-width:1;stroke-dasharray:2,2;" x1="413.2915" x2="746.6812" y1="579.3906" y2="579.3906"/><text fill="#000000" font-family="sans-serif" font-size="13" lengthAdjust="spacing" textLength="272.4224" x="425.2915" y="574.3247">Error("Journey must be ACTIVE to pause")</text></g><g class="message" data-entity-1="part3" data-entity-2="part2" id="msg12"><polygon fill="#181818" points="225.6631,604.5234,215.6631,608.5234,225.6631,612.5234,221.6631,608.5234" style="stroke:#181818;stroke-width:1;"/><line style="stroke:#181818;stroke-width:1;stroke-dasharray:2,2;" x1="219.6631" x2="407.2915" y1="608.5234" y2="608.5234"/><text fill="#000000" font-family="sans-serif" font-size="13" lengthAdjust="spacing" textLength="133.0659" x="231.6631" y="603.4575">show error snackbar</text></g><g class="message" data-entity-1="part2" data-entity-2="part2" id="msg13"><line style="stroke:#181818;stroke-width:1;" x1="214.6631" x2="256.6631" y1="659.7891" y2="659.7891"/><line style="stroke:#181818;stroke-width:1;" x1="256.6631" x2="256.6631" y1="659.7891" y2="672.7891"/><line style="stroke:#181818;stroke-width:1;" x1="215.6631" x2="256.6631" y1="672.7891" y2="672.7891"/><polygon fill="#181818" points="225.6631,668.7891,215.6631,672.7891,225.6631,676.7891,221.6631,672.7891" style="stroke:#181818;stroke-width:1;"/><text fill="#000000" font-family="sans-serif" font-size="13" lengthAdjust="spacing" textLength="172.2373" x="221.6631" y="639.5903">Show paused-days banner</text><text fill="#000000" font-family="sans-serif" font-size="13" lengthAdjust="spacing" textLength="114.7402" x="221.6631" y="654.7231">+ Resume button</text></g><g class="message" data-entity-1="part2" data-entity-2="part5" id="msg14"><polygon fill="#181818" points="993.501,697.9219,1003.501,701.9219,993.501,705.9219,997.501,701.9219" style="stroke:#181818;stroke-width:1;"/><line style="stroke:#181818;stroke-width:1;" x1="214.6631" x2="999.501" y1="701.9219" y2="701.9219"/><text fill="#000000" font-family="sans-serif" font-size="13" lengthAdjust="spacing" textLength="185.9419" x="221.6631" y="696.856">getEffectiveSteps(journeyId)</text></g><g class="message" data-entity-1="part5" data-entity-2="part5" id="msg15"><line style="stroke:#181818;stroke-width:1;" x1="1005.501" x2="1047.501" y1="761.3203" y2="761.3203"/><line style="stroke:#181818;stroke-width:1;" x1="1047.501" x2="1047.501" y1="761.3203" y2="774.3203"/><line style="stroke:#181818;stroke-width:1;" x1="1006.501" x2="1047.501" y1="774.3203" y2="774.3203"/><polygon fill="#181818" points="1016.501,770.3203,1006.501,774.3203,1016.501,778.3203,1012.501,774.3203" style="stroke:#181818;stroke-width:1;"/><text fill="#000000" font-family="sans-serif" font-size="13" lengthAdjust="spacing" textLength="172.3389" x="1012.501" y="725.9888">currentPauseDays = floor(</text><text fill="#000000" font-family="sans-serif" font-size="13" lengthAdjust="spacing" textLength="235.5552" x="1020.7656" y="741.1216">(Date.now() - pausedAt) / 86400000</text><text fill="#000000" font-family="sans-serif" font-size="13" lengthAdjust="spacing" textLength="5.0718" x="1012.501" y="756.2544">)</text></g><g class="message" data-entity-1="part5" data-entity-2="part5" id="msg16"><line style="stroke:#181818;stroke-width:1;" x1="1005.501" x2="1047.501" y1="818.5859" y2="818.5859"/><line style="stroke:#181818;stroke-width:1;" x1="1047.501" x2="1047.501" y1="818.5859" y2="831.5859"/><line style="stroke:#181818;stroke-width:1;" x1="1006.501" x2="1047.501" y1="831.5859" y2="831.5859"/><polygon fill="#181818" points="1016.501,827.5859,1006.501,831.5859,1016.501,835.5859,1012.501,831.5859" style="stroke:#181818;stroke-width:1;"/><text fill="#000000" font-family="sans-serif" font-size="13" lengthAdjust="spacing" textLength="113.3438" x="1012.501" y="798.3872">totalPauseShift =</text><text fill="#000000" font-family="sans-serif" font-size="13" lengthAdjust="spacing" textLength="247.0635" x="1020.7656" y="813.52">totalPausedDays + currentPauseDays</text></g><g class="message" data-entity-1="part5" data-entity-2="part2" id="msg17"><polygon fill="#181818" points="225.6631,871.8516,215.6631,875.8516,225.6631,879.8516,221.6631,875.8516" style="stroke:#181818;stroke-width:1;"/><line style="stroke:#181818;stroke-width:1;stroke-dasharray:2,2;" x1="219.6631" x2="1004.501" y1="875.8516" y2="875.8516"/><text fill="#000000" font-family="sans-serif" font-size="13" lengthAdjust="spacing" textLength="168.5874" x="231.6631" y="855.6528">EffectiveStep[] with dates</text><text fill="#000000" font-family="sans-serif" font-size="13" lengthAdjust="spacing" textLength="167.0767" x="231.6631" y="870.7856">shifted by totalPauseShift</text></g><path d="M1010,888.8516 L1010,958.8516 L1230,958.8516 L1230,898.8516 L1220,888.8516 L1010,888.8516" fill="#FEFFDD" style="stroke:#181818;stroke-width:0.5;"/><path d="M1220,888.8516 L1220,898.8516 L1230,898.8516 L1220,888.8516" fill="#FEFFDD" style="stroke:#181818;stroke-width:0.5;"/><text fill="#000000" font-family="sans-serif" font-size="13" lengthAdjust="spacing" textLength="155.873" x="1016" y="905.9185">No store write &#8212; shift is</text><text fill="#000000" font-family="sans-serif" font-size="13" lengthAdjust="spacing" textLength="168.5176" x="1016" y="921.0513">computed dynamically on</text><text fill="#000000" font-family="sans-serif" font-size="13" lengthAdjust="spacing" textLength="199.145" x="1016" y="936.1841">every call to getEffectiveSteps</text><text fill="#000000" font-family="sans-serif" font-size="13" lengthAdjust="spacing" textLength="199.145" x="1016" y="951.3169">while status === SUSPENDED</text><rect fill="#EEEEEE" height="3" style="stroke:#EEEEEE;stroke-width:1;" width="1340.2471" x="0" y="984.9492"/><line style="stroke:#000000;stroke-width:1;" x1="0" x2="1340.2471" y1="984.9492" y2="984.9492"/><line style="stroke:#000000;stroke-width:1;" x1="0" x2="1340.2471" y1="987.9492" y2="987.9492"/><rect fill="#EEEEEE" height="23.1328" style="stroke:#000000;stroke-width:2;" width="137.2144" x="601.5164" y="974.3828"/><text fill="#000000" font-family="sans-serif" font-size="13" font-weight="bold" lengthAdjust="spacing" textLength="118.6885" x="607.5164" y="990.4497">Resume Journey</text><g class="message" data-entity-1="part1" data-entity-2="part2" id="msg18"><polygon fill="#181818" points="202.6631,1024.6484,212.6631,1028.6484,202.6631,1032.6484,206.6631,1028.6484" style="stroke:#181818;stroke-width:1;"/><line style="stroke:#181818;stroke-width:1;" x1="37.6782" x2="208.6631" y1="1028.6484" y2="1028.6484"/><text fill="#000000" font-family="sans-serif" font-size="13" lengthAdjust="spacing" textLength="152.9849" x="44.6782" y="1023.5825">Click "Resume journey"</text></g><g class="message" data-entity-1="part2" data-entity-2="part3" id="msg19"><polygon fill="#181818" points="396.2915,1053.7813,406.2915,1057.7813,396.2915,1061.7813,400.2915,1057.7813" style="stroke:#181818;stroke-width:1;"/><line style="stroke:#181818;stroke-width:1;" x1="214.6631" x2="402.2915" y1="1057.7813" y2="1057.7813"/><text fill="#000000" font-family="sans-serif" font-size="13" lengthAdjust="spacing" textLength="169.6284" x="221.6631" y="1052.7153">resumeJourney(journeyId)</text></g><g class="message" data-entity-1="part3" data-entity-2="part4" id="msg20"><polygon fill="#181818" points="735.6812,1082.9141,745.6812,1086.9141,735.6812,1090.9141,739.6812,1086.9141" style="stroke:#181818;stroke-width:1;"/><line style="stroke:#181818;stroke-width:1;" x1="408.2915" x2="741.6812" y1="1086.9141" y2="1086.9141"/><text fill="#000000" font-family="sans-serif" font-size="13" lengthAdjust="spacing" textLength="169.6284" x="415.2915" y="1081.8481">resumeJourney(journeyId)</text></g><g class="message" data-entity-1="part4" data-entity-2="part4" id="msg21"><line style="stroke:#181818;stroke-width:1;" x1="747.6812" x2="789.6812" y1="1116.0469" y2="1116.0469"/><line style="stroke:#181818;stroke-width:1;" x1="789.6812" x2="789.6812" y1="1116.0469" y2="1129.0469"/><line style="stroke:#181818;stroke-width:1;" x1="748.6812" x2="789.6812" y1="1129.0469" y2="1129.0469"/><polygon fill="#181818" points="758.6812,1125.0469,748.6812,1129.0469,758.6812,1133.0469,754.6812,1129.0469" style="stroke:#181818;stroke-width:1;"/><text fill="#000000" font-family="sans-serif" font-size="13" lengthAdjust="spacing" textLength="229.7852" x="754.6812" y="1110.981">Guard: status must be SUSPENDED</text></g><path d="M158.1069,1144.0469 L222.5498,1144.0469 L222.5498,1151.1797 L212.5498,1161.1797 L158.1069,1161.1797 L158.1069,1144.0469" fill="#EEEEEE" style="stroke:#000000;stroke-width:1.5;"/><rect fill="none" height="324.5313" style="stroke:#000000;stroke-width:1.5;" width="1172.1401" x="158.1069" y="1144.0469"/><text fill="#000000" font-family="sans-serif" font-size="13" font-weight="bold" lengthAdjust="spacing" textLength="19.4429" x="173.1069" y="1157.1138">alt</text><text fill="#000000" font-family="sans-serif" font-size="11" font-weight="bold" lengthAdjust="spacing" textLength="142.2319" x="237.5498" y="1156.2573">[status is SUSPENDED]</text><g class="message" data-entity-1="part4" data-entity-2="part4" id="msg22"><line style="stroke:#181818;stroke-width:1;" x1="747.6812" x2="789.6812" y1="1212.5781" y2="1212.5781"/><line style="stroke:#181818;stroke-width:1;" x1="789.6812" x2="789.6812" y1="1212.5781" y2="1225.5781"/><line style="stroke:#181818;stroke-width:1;" x1="748.6812" x2="789.6812" y1="1225.5781" y2="1225.5781"/><polygon fill="#181818" points="758.6812,1221.5781,748.6812,1225.5781,758.6812,1229.5781,754.6812,1225.5781" style="stroke:#181818;stroke-width:1;"/><text fill="#000000" font-family="sans-serif" font-size="13" lengthAdjust="spacing" textLength="136.9634" x="754.6812" y="1177.2466">elapsedDays = floor(</text><text fill="#000000" font-family="sans-serif" font-size="13" lengthAdjust="spacing" textLength="235.5552" x="762.9458" y="1192.3794">(Date.now() - pausedAt) / 86400000</text><text fill="#000000" font-family="sans-serif" font-size="13" lengthAdjust="spacing" textLength="5.0718" x="754.6812" y="1207.5122">)</text></g><g class="message" data-entity-1="part4" data-entity-2="part6" id="msg23"><polygon fill="#181818" points="1262.8291,1296.1094,1272.8291,1300.1094,1262.8291,1304.1094,1266.8291,1300.1094" style="stroke:#181818;stroke-width:1;"/><line style="stroke:#181818;stroke-width:1;" x1="747.6812" x2="1268.8291" y1="1300.1094" y2="1300.1094"/><text fill="#000000" font-family="sans-serif" font-size="13" lengthAdjust="spacing" textLength="75.7275" x="754.6812" y="1249.645">patchStore:</text><text fill="#000000" font-family="sans-serif" font-size="13" lengthAdjust="spacing" textLength="222.5806" x="762.9458" y="1264.7778">totalPausedDays += elapsedDays</text><text fill="#000000" font-family="sans-serif" font-size="13" lengthAdjust="spacing" textLength="104.3301" x="762.9458" y="1279.9106">pausedAt = null</text><text fill="#000000" font-family="sans-serif" font-size="13" lengthAdjust="spacing" textLength="105.9551" x="762.9458" y="1295.0435">status = ACTIVE</text></g><g class="message" data-entity-1="part6" data-entity-2="part4" id="msg24"><polygon fill="#181818" points="758.6812,1325.2422,748.6812,1329.2422,758.6812,1333.2422,754.6812,1329.2422" style="stroke:#181818;stroke-width:1;"/><line style="stroke:#181818;stroke-width:1;stroke-dasharray:2,2;" x1="752.6812" x2="1273.8291" y1="1329.2422" y2="1329.2422"/><text fill="#000000" font-family="sans-serif" font-size="13" lengthAdjust="spacing" textLength="153.3403" x="764.6812" y="1324.1763">updated PatientJourney</text></g><g class="message" data-entity-1="part4" data-entity-2="part3" id="msg25"><polygon fill="#181818" points="419.2915,1354.375,409.2915,1358.375,419.2915,1362.375,415.2915,1358.375" style="stroke:#181818;stroke-width:1;"/><line style="stroke:#181818;stroke-width:1;stroke-dasharray:2,2;" x1="413.2915" x2="746.6812" y1="1358.375" y2="1358.375"/><text fill="#000000" font-family="sans-serif" font-size="13" lengthAdjust="spacing" textLength="95.1514" x="425.2915" y="1353.3091">PatientJourney</text></g><g class="message" data-entity-1="part3" data-entity-2="part2" id="msg26"><polygon fill="#181818" points="225.6631,1383.5078,215.6631,1387.5078,225.6631,1391.5078,221.6631,1387.5078" style="stroke:#181818;stroke-width:1;"/><line style="stroke:#181818;stroke-width:1;stroke-dasharray:2,2;" x1="219.6631" x2="407.2915" y1="1387.5078" y2="1387.5078"/><text fill="#000000" font-family="sans-serif" font-size="13" lengthAdjust="spacing" textLength="95.1514" x="231.6631" y="1382.4419">PatientJourney</text></g><line style="stroke:#000000;stroke-width:1;stroke-dasharray:2,2;" x1="158.1069" x2="1330.2471" y1="1396.5078" y2="1396.5078"/><text fill="#000000" font-family="sans-serif" font-size="11" font-weight="bold" lengthAdjust="spacing" textLength="166.708" x="163.1069" y="1406.7183">[status is not SUSPENDED]</text><g class="message" data-entity-1="part4" data-entity-2="part3" id="msg27"><polygon fill="#181818" points="419.2915,1427.4453,409.2915,1431.4453,419.2915,1435.4453,415.2915,1431.4453" style="stroke:#181818;stroke-width:1;"/><line style="stroke:#181818;stroke-width:1;stroke-dasharray:2,2;" x1="413.2915" x2="746.6812" y1="1431.4453" y2="1431.4453"/><text fill="#000000" font-family="sans-serif" font-size="13" lengthAdjust="spacing" textLength="315.3896" x="425.2915" y="1426.3794">Error("Journey must be SUSPENDED to resume")</text></g><g class="message" data-entity-1="part3" data-entity-2="part2" id="msg28"><polygon fill="#181818" points="225.6631,1456.5781,215.6631,1460.5781,225.6631,1464.5781,221.6631,1460.5781" style="stroke:#181818;stroke-width:1;"/><line style="stroke:#181818;stroke-width:1;stroke-dasharray:2,2;" x1="219.6631" x2="407.2915" y1="1460.5781" y2="1460.5781"/><text fill="#000000" font-family="sans-serif" font-size="13" lengthAdjust="spacing" textLength="133.0659" x="231.6631" y="1455.5122">show error snackbar</text></g><g class="message" data-entity-1="part2" data-entity-2="part2" id="msg29"><line style="stroke:#181818;stroke-width:1;" x1="214.6631" x2="256.6631" y1="1511.8438" y2="1511.8438"/><line style="stroke:#181818;stroke-width:1;" x1="256.6631" x2="256.6631" y1="1511.8438" y2="1524.8438"/><line style="stroke:#181818;stroke-width:1;" x1="215.6631" x2="256.6631" y1="1524.8438" y2="1524.8438"/><polygon fill="#181818" points="225.6631,1520.8438,215.6631,1524.8438,225.6631,1528.8438,221.6631,1524.8438" style="stroke:#181818;stroke-width:1;"/><text fill="#000000" font-family="sans-serif" font-size="13" lengthAdjust="spacing" textLength="121.6719" x="221.6631" y="1491.645">Hide banner, show</text><text fill="#000000" font-family="sans-serif" font-size="13" lengthAdjust="spacing" textLength="102.7432" x="221.6631" y="1506.7778">normal timeline</text></g><?plantuml-src pLNBRXCn5DtxAwwoG8bAA0k4KAL1gfe8mgAgc9ODOU7Ct3IcZZtOdaRPyH5y8L_2jSUUp2GfIbcHbMMV-phdp8qJJY9yqhLHk8KRNbk45_0PRRr6-Ftp5-JueqPL86EySDh0bHHA588hLd7Zw5HnvM0GCzponLmDxsQZ0N0BTxC-g902bJkVguexVuf1De2lmcC_mA9v50K-4P4th_sGxms29j3o4GrrSuzkkbnYuSGZvWuhspIN4FrmgbEiSXeKcnB-n5YMHMeIKLd6MCi4ZD_Jg73XHoWUOD10OoC3Hay9aA_q1WgjbiAiQI2je1HSwljZkHeKL3vPpD5GH8_XClOoZ8LcvOX5044ZDt_19aGF_A7cfhm0wxYhBQnhws21S7brE_ioPLowz29ikWJe9l9qXPg9nOkvWXIKGNwNtqol9zE9lmsDbPUExfNU34S-LOWVzrgggv8xB4c0hWEwTRlC7A0I9OdNFG1AacetbDBko63T0bDZj1acl-zH14utOmr6HqfRhpxwUB2A5myBRXYgyi0W3J7ZacyjBBXItiLdwPjSrCvf5MEIXodomELThLjSFwQeZQ4EWrydlbe6IwbfF2_FS4AqlmhAmBWLQmJdyExjczV-DrTFPdRQSHdovYkn98bznjrb6QgT7JJGIPSOwGtrzHjiX5k1TuITA-jpapKMs_s2Z96I24RShnpevUvZ1xZMfBUtsSO8r-oua8VafzT2hwlQvootYgz5mQNS0l4DW1I-1N_XLJwWcn2RbP2jcRAiOtSli_TMiqgYaYVjaeZTMoQj6qruFd4JF0b-nYhOZTJV1hlx_a9eqw7aLHB--JOxPSiSs2lh5jtVEBMKlTMq--h_XnrqbCuJrb0RvptQwFslg-YZA36kdvS1FrTAqzyMsL-iaVoAx0y0?></g></svg>