<?plantuml 1.2026.1?><svg xmlns="http://www.w3.org/2000/svg" xmlns:xlink="http://www.w3.org/1999/xlink" contentStyleType="text/css" data-diagram-type="CLASS" height="448px" preserveAspectRatio="none" style="width:572px;height:448px;background:#FFFFFF;" version="1.1" viewBox="0 0 572 448" width="572px" zoomAndPan="magnify"><title>Policy Expression Grammar (overview)</title><defs/><g><g class="title" data-source-line="1"><text fill="#000000" font-family="sans-serif" font-size="14" font-weight="bold" lengthAdjust="spacing" textLength="305.252" x="126.8302" y="22.9951">Policy Expression Grammar (overview)</text></g><!--class Expression--><g class="entity" data-qualified-name="Expression" data-source-line="3" id="ent0002"><rect fill="#F1F1F1" height="48" rx="2.5" ry="2.5" style="stroke:#181818;stroke-width:0.5;" width="108.3027" x="326.85" y="44.2969"/><ellipse cx="341.85" cy="60.2969" fill="#ADD1B2" rx="11" ry="11" style="stroke:#181818;stroke-width:1;"/><path d="M344.8188,65.9375 Q344.2406,66.2344 343.6,66.375 Q342.9594,66.5313 342.2563,66.5313 Q339.7563,66.5313 338.4281,64.8906 Q337.1156,63.2344 337.1156,60.1094 Q337.1156,56.9844 338.4281,55.3281 Q339.7563,53.6719 342.2563,53.6719 Q342.9594,53.6719 343.6,53.8281 Q344.2563,53.9844 344.8188,54.2813 L344.8188,57 Q344.1938,56.4219 343.6,56.1563 Q343.0063,55.875 342.3813,55.875 Q341.0375,55.875 340.35,56.9531 Q339.6625,58.0156 339.6625,60.1094 Q339.6625,62.2031 340.35,63.2813 Q341.0375,64.3438 342.3813,64.3438 Q343.0063,64.3438 343.6,64.0781 Q344.1938,63.7969 344.8188,63.2188 L344.8188,65.9375 Z " fill="#000000"/><text fill="#000000" font-family="sans-serif" font-size="14" lengthAdjust="spacing" textLength="76.3027" x="355.85" y="65.1436">Expression</text><line style="stroke:#181818;stroke-width:0.5;" x1="327.85" x2="434.1527" y1="76.2969" y2="76.2969"/><line style="stroke:#181818;stroke-width:0.5;" x1="327.85" x2="434.1527" y1="84.2969" y2="84.2969"/></g><!--class Term--><g class="entity" data-qualified-name="Term" data-source-line="4" id="ent0003"><rect fill="#F1F1F1" height="48" rx="2.5" ry="2.5" style="stroke:#181818;stroke-width:0.5;" width="68.5586" x="346.72" y="164.7269"/><ellipse cx="361.72" cy="180.7269" fill="#ADD1B2" rx="11" ry="11" style="stroke:#181818;stroke-width:1;"/><path d="M364.6888,186.3675 Q364.1106,186.6644 363.47,186.805 Q362.8294,186.9613 362.1263,186.9613 Q359.6263,186.9613 358.2981,185.3206 Q356.9856,183.6644 356.9856,180.5394 Q356.9856,177.4144 358.2981,175.7581 Q359.6263,174.1019 362.1263,174.1019 Q362.8294,174.1019 363.47,174.2581 Q364.1263,174.4144 364.6888,174.7113 L364.6888,177.43 Q364.0638,176.8519 363.47,176.5863 Q362.8763,176.305 362.2513,176.305 Q360.9075,176.305 360.22,177.3831 Q359.5325,178.4456 359.5325,180.5394 Q359.5325,182.6331 360.22,183.7113 Q360.9075,184.7738 362.2513,184.7738 Q362.8763,184.7738 363.47,184.5081 Q364.0638,184.2269 364.6888,183.6488 L364.6888,186.3675 Z " fill="#000000"/><text fill="#000000" font-family="sans-serif" font-size="14" lengthAdjust="spacing" textLength="36.5586" x="375.72" y="185.5736">Term</text><line style="stroke:#181818;stroke-width:0.5;" x1="347.72" x2="414.2786" y1="196.7269" y2="196.7269"/><line style="stroke:#181818;stroke-width:0.5;" x1="347.72" x2="414.2786" y1="204.7269" y2="204.7269"/></g><!--class Factor--><g class="entity" data-qualified-name="Factor" data-source-line="5" id="ent0004"><rect fill="#F1F1F1" height="48" rx="2.5" ry="2.5" style="stroke:#181818;stroke-width:0.5;" width="76.1396" x="342.93" y="285.1569"/><ellipse cx="357.93" cy="301.1569" fill="#ADD1B2" rx="11" ry="11" style="stroke:#181818;stroke-width:1;"/><path d="M360.8988,306.7975 Q360.3206,307.0944 359.68,307.235 Q359.0394,307.3913 358.3363,307.3913 Q355.8363,307.3913 354.5081,305.7506 Q353.1956,304.0944 353.1956,300.9694 Q353.1956,297.8444 354.5081,296.1881 Q355.8363,294.5319 358.3363,294.5319 Q359.0394,294.5319 359.68,294.6881 Q360.3363,294.8444 360.8988,295.1413 L360.8988,297.86 Q360.2738,297.2819 359.68,297.0163 Q359.0863,296.735 358.4613,296.735 Q357.1175,296.735 356.43,297.8131 Q355.7425,298.8756 355.7425,300.9694 Q355.7425,303.0631 356.43,304.1413 Q357.1175,305.2038 358.4613,305.2038 Q359.0863,305.2038 359.68,304.9381 Q360.2738,304.6569 360.8988,304.0788 L360.8988,306.7975 Z " fill="#000000"/><text fill="#000000" font-family="sans-serif" font-size="14" lengthAdjust="spacing" textLength="44.1396" x="371.93" y="306.0036">Factor</text><line style="stroke:#181818;stroke-width:0.5;" x1="343.93" x2="418.0696" y1="317.1569" y2="317.1569"/><line style="stroke:#181818;stroke-width:0.5;" x1="343.93" x2="418.0696" y1="325.1569" y2="325.1569"/></g><!--class Identifier--><g class="entity" data-qualified-name="Identifier" data-source-line="6" id="ent0005"><rect fill="#F1F1F1" height="48" rx="2.5" ry="2.5" style="stroke:#181818;stroke-width:0.5;" width="95.0684" x="269.47" y="393.1569"/><ellipse cx="284.47" cy="409.1569" fill="#ADD1B2" rx="11" ry="11" style="stroke:#181818;stroke-width:1;"/><path d="M287.4388,414.7975 Q286.8606,415.0944 286.22,415.235 Q285.5794,415.3913 284.8763,415.3913 Q282.3763,415.3913 281.0481,413.7506 Q279.7356,412.0944 279.7356,408.9694 Q279.7356,405.8444 281.0481,404.1881 Q282.3763,402.5319 284.8763,402.5319 Q285.5794,402.5319 286.22,402.6881 Q286.8763,402.8444 287.4388,403.1413 L287.4388,405.86 Q286.8138,405.2819 286.22,405.0163 Q285.6263,404.735 285.0013,404.735 Q283.6575,404.735 282.97,405.8131 Q282.2825,406.8756 282.2825,408.9694 Q282.2825,411.0631 282.97,412.1413 Q283.6575,413.2038 285.0013,413.2038 Q285.6263,413.2038 286.22,412.9381 Q286.8138,412.6569 287.4388,412.0788 L287.4388,414.7975 Z " fill="#000000"/><text fill="#000000" font-family="sans-serif" font-size="14" lengthAdjust="spacing" textLength="63.0684" x="298.47" y="414.0036">Identifier</text><line style="stroke:#181818;stroke-width:0.5;" x1="270.47" x2="363.5384" y1="425.1569" y2="425.1569"/><line style="stroke:#181818;stroke-width:0.5;" x1="270.47" x2="363.5384" y1="433.1569" y2="433.1569"/></g><!--class Number--><g class="entity" data-qualified-name="Number" data-source-line="7" id="ent0006"><rect fill="#F1F1F1" height="48" rx="2.5" ry="2.5" style="stroke:#181818;stroke-width:0.5;" width="88.2393" x="399.88" y="393.1569"/><ellipse cx="414.88" cy="409.1569" fill="#ADD1B2" rx="11" ry="11" style="stroke:#181818;stroke-width:1;"/><path d="M417.8488,414.7975 Q417.2706,415.0944 416.63,415.235 Q415.9894,415.3913 415.2863,415.3913 Q412.7863,415.3913 411.4581,413.7506 Q410.1456,412.0944 410.1456,408.9694 Q410.1456,405.8444 411.4581,404.1881 Q412.7863,402.5319 415.2863,402.5319 Q415.9894,402.5319 416.63,402.6881 Q417.2863,402.8444 417.8488,403.1413 L417.8488,405.86 Q417.2238,405.2819 416.63,405.0163 Q416.0363,404.735 415.4113,404.735 Q414.0675,404.735 413.38,405.8131 Q412.6925,406.8756 412.6925,408.9694 Q412.6925,411.0631 413.38,412.1413 Q414.0675,413.2038 415.4113,413.2038 Q416.0363,413.2038 416.63,412.9381 Q417.2238,412.6569 417.8488,412.0788 L417.8488,414.7975 Z " fill="#000000"/><text fill="#000000" font-family="sans-serif" font-size="14" lengthAdjust="spacing" textLength="56.2393" x="428.88" y="414.0036">Number</text><line style="stroke:#181818;stroke-width:0.5;" x1="400.88" x2="487.1193" y1="425.1569" y2="425.1569"/><line style="stroke:#181818;stroke-width:0.5;" x1="400.88" x2="487.1193" y1="433.1569" y2="433.1569"/></g><!--class Comparison--><g class="entity" data-qualified-name="Comparison" data-source-line="8" id="ent0007"><rect fill="#F1F1F1" height="48" rx="2.5" ry="2.5" style="stroke:#181818;stroke-width:0.5;" width="115.8223" x="450.09" y="164.7269"/><ellipse cx="465.09" cy="180.7269" fill="#ADD1B2" rx="11" ry="11" style="stroke:#181818;stroke-width:1;"/><path d="M468.0588,186.3675 Q467.4806,186.6644 466.84,186.805 Q466.1994,186.9613 465.4963,186.9613 Q462.9963,186.9613 461.6681,185.3206 Q460.3556,183.6644 460.3556,180.5394 Q460.3556,177.4144 461.6681,175.7581 Q462.9963,174.1019 465.4963,174.1019 Q466.1994,174.1019 466.84,174.2581 Q467.4963,174.4144 468.0588,174.7113 L468.0588,177.43 Q467.4338,176.8519 466.84,176.5863 Q466.2463,176.305 465.6213,176.305 Q464.2775,176.305 463.59,177.3831 Q462.9025,178.4456 462.9025,180.5394 Q462.9025,182.6331 463.59,183.7113 Q464.2775,184.7738 465.6213,184.7738 Q466.2463,184.7738 466.84,184.5081 Q467.4338,184.2269 468.0588,183.6488 L468.0588,186.3675 Z " fill="#000000"/><text fill="#000000" font-family="sans-serif" font-size="14" lengthAdjust="spacing" textLength="83.8223" x="479.09" y="185.5736">Comparison</text><line style="stroke:#181818;stroke-width:0.5;" x1="451.09" x2="564.9123" y1="196.7269" y2="196.7269"/><line style="stroke:#181818;stroke-width:0.5;" x1="451.09" x2="564.9123" y1="204.7269" y2="204.7269"/></g><!--class LogicalOp--><g class="entity" data-qualified-name="LogicalOp" data-source-line="9" id="ent0008"><rect fill="#F1F1F1" height="48" rx="2.5" ry="2.5" style="stroke:#181818;stroke-width:0.5;" width="101.2139" x="210.39" y="164.7269"/><ellipse cx="225.39" cy="180.7269" fill="#ADD1B2" rx="11" ry="11" style="stroke:#181818;stroke-width:1;"/><path d="M228.3588,186.3675 Q227.7806,186.6644 227.14,186.805 Q226.4994,186.9613 225.7963,186.9613 Q223.2963,186.9613 221.9681,185.3206 Q220.6556,183.6644 220.6556,180.5394 Q220.6556,177.4144 221.9681,175.7581 Q223.2963,174.1019 225.7963,174.1019 Q226.4994,174.1019 227.14,174.2581 Q227.7963,174.4144 228.3588,174.7113 L228.3588,177.43 Q227.7338,176.8519 227.14,176.5863 Q226.5463,176.305 225.9213,176.305 Q224.5775,176.305 223.89,177.3831 Q223.2025,178.4456 223.2025,180.5394 Q223.2025,182.6331 223.89,183.7113 Q224.5775,184.7738 225.9213,184.7738 Q226.5463,184.7738 227.14,184.5081 Q227.7338,184.2269 228.3588,183.6488 L228.3588,186.3675 Z " fill="#000000"/><text fill="#000000" font-family="sans-serif" font-size="14" lengthAdjust="spacing" textLength="69.2139" x="239.39" y="185.5736">LogicalOp</text><line style="stroke:#181818;stroke-width:0.5;" x1="211.39" x2="310.6039" y1="196.7269" y2="196.7269"/><line style="stroke:#181818;stroke-width:0.5;" x1="211.39" x2="310.6039" y1="204.7269" y2="204.7269"/></g><g class="entity" data-qualified-name="GMN15" data-source-line="19" id="ent0016"><path d="M15.08,152.2969 L15.08,225.1563 L174.9159,225.1563 L174.9159,162.2969 L164.9159,152.2969 L15.08,152.2969" fill="#FEFFDD" style="stroke:#181818;stroke-width:0.5;"/><path d="M164.9159,152.2969 L164.9159,162.2969 L174.9159,162.2969 L164.9159,152.2969" fill="#FEFFDD" style="stroke:#181818;stroke-width:1;"/><text fill="#000000" font-family="sans-serif" font-size="13" lengthAdjust="spacing" textLength="138.8359" x="21.08" y="169.3638">Supported operators:</text><text fill="#000000" font-family="sans-serif" font-size="13" lengthAdjust="spacing" textLength="38.8604" x="21.08" y="184.4966">+ - * /</text><text fill="#000000" font-family="sans-serif" font-size="15" font-weight="bold" lengthAdjust="spacing" textLength="115.708" x="21.08" y="201.4858">!= &lt; &lt;= &gt; &gt;=</text><text fill="#000000" font-family="sans-serif" font-size="13" lengthAdjust="spacing" textLength="33.1665" x="21.08" y="217.0903">&amp;&amp; ||</text></g><g class="entity" data-qualified-name="GMN18" data-source-line="26" id="ent0019"><path d="M6,289.0269 L6,329.2925 L184.0029,329.2925 L184.0029,299.0269 L174.0029,289.0269 L6,289.0269" fill="#FEFFDD" style="stroke:#181818;stroke-width:0.5;"/><path d="M174.0029,289.0269 L174.0029,299.0269 L184.0029,299.0269 L174.0029,289.0269" fill="#FEFFDD" style="stroke:#181818;stroke-width:1;"/><text fill="#000000" font-family="sans-serif" font-size="13" lengthAdjust="spacing" textLength="155.7715" x="12" y="306.0938">See src/api/policyParser</text><text fill="#000000" font-family="sans-serif" font-size="13" lengthAdjust="spacing" textLength="157.0029" x="12" y="321.2266">for tokenizer and parser</text></g><!--link Expression to Term--><g class="link" data-entity-1="ent0002" data-entity-2="ent0003" data-link-type="dependency" data-source-line="11" id="lnk9"><path codeLine="11" d="M381,92.6969 C381,113.4569 381,137.6269 381,158.3769" fill="none" id="Expression-to-Term" style="stroke:#181818;stroke-width:1;"/><polygon fill="#181818" points="381,164.3769,385,155.3769,381,159.3769,377,155.3769,381,164.3769" style="stroke:#181818;stroke-width:1;"/></g><!--link Term to Factor--><g class="link" data-entity-1="ent0003" data-entity-2="ent0004" data-link-type="dependency" data-source-line="12" id="lnk10"><path codeLine="12" d="M381,213.1269 C381,233.8869 381,258.0569 381,278.8069" fill="none" id="Term-to-Factor" style="stroke:#181818;stroke-width:1;"/><polygon fill="#181818" points="381,284.8069,385,275.8069,381,279.8069,377,275.8069,381,284.8069" style="stroke:#181818;stroke-width:1;"/></g><!--link Factor to Identifier--><g class="link" data-entity-1="ent0004" data-entity-2="ent0005" data-link-type="dependency" data-source-line="13" id="lnk11"><path codeLine="13" d="M366.96,333.4169 C356.29,351.0969 344.7828,370.1514 334.1128,387.8114" fill="none" id="Factor-to-Identifier" style="stroke:#181818;stroke-width:1;"/><polygon fill="#181818" points="331.01,392.9469,339.0878,387.3122,333.5957,388.6673,332.2405,383.1752,331.01,392.9469" style="stroke:#181818;stroke-width:1;"/></g><!--link Factor to Number--><g class="link" data-entity-1="ent0004" data-entity-2="ent0006" data-link-type="dependency" data-source-line="14" id="lnk12"><path codeLine="14" d="M394.83,333.4169 C405.33,351.0969 416.6437,370.1296 427.1437,387.7896" fill="none" id="Factor-to-Number" style="stroke:#181818;stroke-width:1;"/><polygon fill="#181818" points="430.21,392.9469,429.0487,383.1667,427.6547,388.6491,422.1723,387.2552,430.21,392.9469" style="stroke:#181818;stroke-width:1;"/></g><!--link Expression to Comparison--><g class="link" data-entity-1="ent0002" data-entity-2="ent0007" data-link-type="dependency" data-source-line="15" id="lnk13"><path codeLine="15" d="M406.09,92.6969 C428.36,113.4569 456.322,139.5347 478.572,160.2847" fill="none" id="Expression-to-Comparison" style="stroke:#181818;stroke-width:1;"/><polygon fill="#181818" points="482.96,164.3769,479.1061,155.3133,479.3034,160.9667,473.6499,161.164,482.96,164.3769" style="stroke:#181818;stroke-width:1;"/></g><!--link Expression to LogicalOp--><g class="link" data-entity-1="ent0002" data-entity-2="ent0008" data-link-type="dependency" data-source-line="16" id="lnk14"><path codeLine="16" d="M357.29,92.6969 C336.26,113.4569 309.95,139.4117 288.93,160.1617" fill="none" id="Expression-to-LogicalOp" style="stroke:#181818;stroke-width:1;"/><polygon fill="#181818" points="284.66,164.3769,293.875,160.9008,288.2183,160.8643,288.2549,155.2075,284.66,164.3769" style="stroke:#181818;stroke-width:1;"/></g><!--link GMN15 to LogicalOp--><g class="link" data-entity-1="ent0016" data-entity-2="ent0008" data-link-type="association" data-source-line="19" id="lnk17"><path d="M175.41,188.7269 C187,188.7269 198.59,188.7269 210.18,188.7269" fill="none" id="GMN15-LogicalOp" style="stroke:#181818;stroke-width:1;stroke-dasharray:7,7;"/></g><!--link GMN15 to GMN18--><g class="link" data-entity-1="ent0016" data-entity-2="ent0019" data-link-type="association" data-source-line="26" id="lnk20"><path d="M95,225.5769 C95,246.2769 95,271.5069 95,288.5969" fill="none" id="GMN15-GMN18" style="stroke:#181818;stroke-width:1;stroke-dasharray:7,7;"/></g><?plantuml-src NP3DQiCm48JlUehf9VG7utk9VIbjAPGsqBw0Og-BgEGLAoNz8GzVsLQDo4NQcHNV38ecMiAEhUb-SF_jXK8mFE9Hj7DQSCb7agEXhokbEgj3A1vbuvt4vV51Tv4bYwUUncW6G__6oy7jLt77pcinOSKyyuVfj7trIXKzggfT0gPZLZbZkMQd22hSd7R6AcBFDaN-o95WQOWAU3jupnAf1tiIdUZXDjatg72DEarDWui6MsmRj6YRv6msE9qKZJqcKCRjEKPs4v08GRfQUrFx-TztMa9g2WofUkHF6iql2NG2-6Mrilu0?></g></svg>