<?plantuml 1.2026.2?><svg xmlns="http://www.w3.org/2000/svg" xmlns:xlink="http://www.w3.org/1999/xlink" contentStyleType="text/css" data-diagram-type="CLASS" height="1046px" preserveAspectRatio="none" style="width:513px;height:1046px;background:#FFFFFF;" version="1.1" viewBox="0 0 513 1046" width="513px" zoomAndPan="magnify"><title>Policy Expression Language - Grammar Diagram</title><defs/><g><g class="title" data-source-line="6"><text fill="#000000" font-family="sans-serif" font-size="14" font-weight="bold" lengthAdjust="spacing" textLength="380.6318" x="59.6315" y="22.9951">Policy Expression Language - Grammar Diagram</text></g><!--class Expression--><g class="entity" data-qualified-name="Expression" data-source-line="8" id="ent0002"><rect fill="#F1F1F1" height="48" rx="2.5" ry="2.5" style="stroke:#181818;stroke-width:0.5;" width="108.3027" x="92.42" y="44.2969"/><ellipse cx="107.42" cy="60.2969" fill="#ADD1B2" rx="11" ry="11" style="stroke:#181818;stroke-width:1;"/><path d="M110.3888,65.9375 Q109.8106,66.2344 109.17,66.375 Q108.5294,66.5313 107.8263,66.5313 Q105.3263,66.5313 103.9981,64.8906 Q102.6856,63.2344 102.6856,60.1094 Q102.6856,56.9844 103.9981,55.3281 Q105.3263,53.6719 107.8263,53.6719 Q108.5294,53.6719 109.17,53.8281 Q109.8263,53.9844 110.3888,54.2813 L110.3888,57 Q109.7638,56.4219 109.17,56.1563 Q108.5763,55.875 107.9513,55.875 Q106.6075,55.875 105.92,56.9531 Q105.2325,58.0156 105.2325,60.1094 Q105.2325,62.2031 105.92,63.2813 Q106.6075,64.3438 107.9513,64.3438 Q108.5763,64.3438 109.17,64.0781 Q109.7638,63.7969 110.3888,63.2188 L110.3888,65.9375 Z " fill="#000000"/><text fill="#000000" font-family="sans-serif" font-size="14" lengthAdjust="spacing" textLength="76.3027" x="121.42" y="65.1436">Expression</text><line style="stroke:#181818;stroke-width:0.5;" x1="93.42" x2="199.7227" y1="76.2969" y2="76.2969"/><line style="stroke:#181818;stroke-width:0.5;" x1="93.42" x2="199.7227" y1="84.2969" y2="84.2969"/></g><!--class LogicalOr--><g class="entity" data-qualified-name="LogicalOr" data-source-line="9" id="ent0003"><rect fill="#F1F1F1" height="48" rx="2.5" ry="2.5" style="stroke:#181818;stroke-width:0.5;" width="98.083" x="97.53" y="152.2969"/><ellipse cx="112.53" cy="168.2969" fill="#ADD1B2" rx="11" ry="11" style="stroke:#181818;stroke-width:1;"/><path d="M115.4988,173.9375 Q114.9206,174.2344 114.28,174.375 Q113.6394,174.5313 112.9363,174.5313 Q110.4363,174.5313 109.1081,172.8906 Q107.7956,171.2344 107.7956,168.1094 Q107.7956,164.9844 109.1081,163.3281 Q110.4363,161.6719 112.9363,161.6719 Q113.6394,161.6719 114.28,161.8281 Q114.9363,161.9844 115.4988,162.2813 L115.4988,165 Q114.8738,164.4219 114.28,164.1563 Q113.6863,163.875 113.0613,163.875 Q111.7175,163.875 111.03,164.9531 Q110.3425,166.0156 110.3425,168.1094 Q110.3425,170.2031 111.03,171.2813 Q111.7175,172.3438 113.0613,172.3438 Q113.6863,172.3438 114.28,172.0781 Q114.8738,171.7969 115.4988,171.2188 L115.4988,173.9375 Z " fill="#000000"/><text fill="#000000" font-family="sans-serif" font-size="14" lengthAdjust="spacing" textLength="66.083" x="126.53" y="173.1436">LogicalOr</text><line style="stroke:#181818;stroke-width:0.5;" x1="98.53" x2="194.613" y1="184.2969" y2="184.2969"/><line style="stroke:#181818;stroke-width:0.5;" x1="98.53" x2="194.613" y1="192.2969" y2="192.2969"/></g><!--class LogicalAnd--><g class="entity" data-qualified-name="LogicalAnd" data-source-line="10" id="ent0004"><rect fill="#F1F1F1" height="48" rx="2.5" ry="2.5" style="stroke:#181818;stroke-width:0.5;" width="108.6445" x="92.25" y="260.2969"/><ellipse cx="107.25" cy="276.2969" fill="#ADD1B2" rx="11" ry="11" style="stroke:#181818;stroke-width:1;"/><path d="M110.2188,281.9375 Q109.6406,282.2344 109,282.375 Q108.3594,282.5313 107.6563,282.5313 Q105.1563,282.5313 103.8281,280.8906 Q102.5156,279.2344 102.5156,276.1094 Q102.5156,272.9844 103.8281,271.3281 Q105.1563,269.6719 107.6563,269.6719 Q108.3594,269.6719 109,269.8281 Q109.6563,269.9844 110.2188,270.2813 L110.2188,273 Q109.5938,272.4219 109,272.1563 Q108.4063,271.875 107.7813,271.875 Q106.4375,271.875 105.75,272.9531 Q105.0625,274.0156 105.0625,276.1094 Q105.0625,278.2031 105.75,279.2813 Q106.4375,280.3438 107.7813,280.3438 Q108.4063,280.3438 109,280.0781 Q109.5938,279.7969 110.2188,279.2188 L110.2188,281.9375 Z " fill="#000000"/><text fill="#000000" font-family="sans-serif" font-size="14" lengthAdjust="spacing" textLength="76.6445" x="121.25" y="281.1436">LogicalAnd</text><line style="stroke:#181818;stroke-width:0.5;" x1="93.25" x2="199.8945" y1="292.2969" y2="292.2969"/><line style="stroke:#181818;stroke-width:0.5;" x1="93.25" x2="199.8945" y1="300.2969" y2="300.2969"/></g><!--class Comparison--><g class="entity" data-qualified-name="Comparison" data-source-line="11" id="ent0005"><rect fill="#F1F1F1" height="48" rx="2.5" ry="2.5" style="stroke:#181818;stroke-width:0.5;" width="115.8223" x="88.66" y="368.2969"/><ellipse cx="103.66" cy="384.2969" fill="#ADD1B2" rx="11" ry="11" style="stroke:#181818;stroke-width:1;"/><path d="M106.6288,389.9375 Q106.0506,390.2344 105.41,390.375 Q104.7694,390.5313 104.0663,390.5313 Q101.5663,390.5313 100.2381,388.8906 Q98.9256,387.2344 98.9256,384.1094 Q98.9256,380.9844 100.2381,379.3281 Q101.5663,377.6719 104.0663,377.6719 Q104.7694,377.6719 105.41,377.8281 Q106.0663,377.9844 106.6288,378.2813 L106.6288,381 Q106.0038,380.4219 105.41,380.1563 Q104.8163,379.875 104.1913,379.875 Q102.8475,379.875 102.16,380.9531 Q101.4725,382.0156 101.4725,384.1094 Q101.4725,386.2031 102.16,387.2813 Q102.8475,388.3438 104.1913,388.3438 Q104.8163,388.3438 105.41,388.0781 Q106.0038,387.7969 106.6288,387.2188 L106.6288,389.9375 Z " fill="#000000"/><text fill="#000000" font-family="sans-serif" font-size="14" lengthAdjust="spacing" textLength="83.8223" x="117.66" y="389.1436">Comparison</text><line style="stroke:#181818;stroke-width:0.5;" x1="89.66" x2="203.4823" y1="400.2969" y2="400.2969"/><line style="stroke:#181818;stroke-width:0.5;" x1="89.66" x2="203.4823" y1="408.2969" y2="408.2969"/></g><!--class Arithmetic--><g class="entity" data-qualified-name="Arithmetic" data-source-line="12" id="ent0006"><rect fill="#F1F1F1" height="48" rx="2.5" ry="2.5" style="stroke:#181818;stroke-width:0.5;" width="104.9121" x="94.11" y="476.2969"/><ellipse cx="109.11" cy="492.2969" fill="#ADD1B2" rx="11" ry="11" style="stroke:#181818;stroke-width:1;"/><path d="M112.0788,497.9375 Q111.5006,498.2344 110.86,498.375 Q110.2194,498.5313 109.5163,498.5313 Q107.0163,498.5313 105.6881,496.8906 Q104.3756,495.2344 104.3756,492.1094 Q104.3756,488.9844 105.6881,487.3281 Q107.0163,485.6719 109.5163,485.6719 Q110.2194,485.6719 110.86,485.8281 Q111.5163,485.9844 112.0788,486.2813 L112.0788,489 Q111.4538,488.4219 110.86,488.1563 Q110.2663,487.875 109.6413,487.875 Q108.2975,487.875 107.61,488.9531 Q106.9225,490.0156 106.9225,492.1094 Q106.9225,494.2031 107.61,495.2813 Q108.2975,496.3438 109.6413,496.3438 Q110.2663,496.3438 110.86,496.0781 Q111.4538,495.7969 112.0788,495.2188 L112.0788,497.9375 Z " fill="#000000"/><text fill="#000000" font-family="sans-serif" font-size="14" lengthAdjust="spacing" textLength="72.9121" x="123.11" y="497.1436">Arithmetic</text><line style="stroke:#181818;stroke-width:0.5;" x1="95.11" x2="198.0221" y1="508.2969" y2="508.2969"/><line style="stroke:#181818;stroke-width:0.5;" x1="95.11" x2="198.0221" y1="516.2969" y2="516.2969"/></g><!--class Term--><g class="entity" data-qualified-name="Term" data-source-line="13" id="ent0007"><rect fill="#F1F1F1" height="48" rx="2.5" ry="2.5" style="stroke:#181818;stroke-width:0.5;" width="68.5586" x="112.29" y="584.2969"/><ellipse cx="127.29" cy="600.2969" fill="#ADD1B2" rx="11" ry="11" style="stroke:#181818;stroke-width:1;"/><path d="M130.2588,605.9375 Q129.6806,606.2344 129.04,606.375 Q128.3994,606.5313 127.6963,606.5313 Q125.1963,606.5313 123.8681,604.8906 Q122.5556,603.2344 122.5556,600.1094 Q122.5556,596.9844 123.8681,595.3281 Q125.1963,593.6719 127.6963,593.6719 Q128.3994,593.6719 129.04,593.8281 Q129.6963,593.9844 130.2588,594.2813 L130.2588,597 Q129.6338,596.4219 129.04,596.1563 Q128.4463,595.875 127.8213,595.875 Q126.4775,595.875 125.79,596.9531 Q125.1025,598.0156 125.1025,600.1094 Q125.1025,602.2031 125.79,603.2813 Q126.4775,604.3438 127.8213,604.3438 Q128.4463,604.3438 129.04,604.0781 Q129.6338,603.7969 130.2588,603.2188 L130.2588,605.9375 Z " fill="#000000"/><text fill="#000000" font-family="sans-serif" font-size="14" lengthAdjust="spacing" textLength="36.5586" x="141.29" y="605.1436">Term</text><line style="stroke:#181818;stroke-width:0.5;" x1="113.29" x2="179.8486" y1="616.2969" y2="616.2969"/><line style="stroke:#181818;stroke-width:0.5;" x1="113.29" x2="179.8486" y1="624.2969" y2="624.2969"/></g><!--class Factor--><g class="entity" data-qualified-name="Factor" data-source-line="14" id="ent0008"><rect fill="#F1F1F1" height="48" rx="2.5" ry="2.5" style="stroke:#181818;stroke-width:0.5;" width="76.1396" x="108.5" y="692.2969"/><ellipse cx="123.5" cy="708.2969" fill="#ADD1B2" rx="11" ry="11" style="stroke:#181818;stroke-width:1;"/><path d="M126.4688,713.9375 Q125.8906,714.2344 125.25,714.375 Q124.6094,714.5313 123.9063,714.5313 Q121.4063,714.5313 120.0781,712.8906 Q118.7656,711.2344 118.7656,708.1094 Q118.7656,704.9844 120.0781,703.3281 Q121.4063,701.6719 123.9063,701.6719 Q124.6094,701.6719 125.25,701.8281 Q125.9063,701.9844 126.4688,702.2813 L126.4688,705 Q125.8438,704.4219 125.25,704.1563 Q124.6563,703.875 124.0313,703.875 Q122.6875,703.875 122,704.9531 Q121.3125,706.0156 121.3125,708.1094 Q121.3125,710.2031 122,711.2813 Q122.6875,712.3438 124.0313,712.3438 Q124.6563,712.3438 125.25,712.0781 Q125.8438,711.7969 126.4688,711.2188 L126.4688,713.9375 Z " fill="#000000"/><text fill="#000000" font-family="sans-serif" font-size="14" lengthAdjust="spacing" textLength="44.1396" x="137.5" y="713.1436">Factor</text><line style="stroke:#181818;stroke-width:0.5;" x1="109.5" x2="183.6396" y1="724.2969" y2="724.2969"/><line style="stroke:#181818;stroke-width:0.5;" x1="109.5" x2="183.6396" y1="732.2969" y2="732.2969"/></g><!--class Primary--><g class="entity" data-qualified-name="Primary" data-source-line="15" id="ent0009"><rect fill="#F1F1F1" height="48" rx="2.5" ry="2.5" style="stroke:#181818;stroke-width:0.5;" width="86.3457" x="103.4" y="800.2969"/><ellipse cx="118.4" cy="816.2969" fill="#ADD1B2" rx="11" ry="11" style="stroke:#181818;stroke-width:1;"/><path d="M121.3688,821.9375 Q120.7906,822.2344 120.15,822.375 Q119.5094,822.5313 118.8063,822.5313 Q116.3063,822.5313 114.9781,820.8906 Q113.6656,819.2344 113.6656,816.1094 Q113.6656,812.9844 114.9781,811.3281 Q116.3063,809.6719 118.8063,809.6719 Q119.5094,809.6719 120.15,809.8281 Q120.8063,809.9844 121.3688,810.2813 L121.3688,813 Q120.7438,812.4219 120.15,812.1563 Q119.5563,811.875 118.9313,811.875 Q117.5875,811.875 116.9,812.9531 Q116.2125,814.0156 116.2125,816.1094 Q116.2125,818.2031 116.9,819.2813 Q117.5875,820.3438 118.9313,820.3438 Q119.5563,820.3438 120.15,820.0781 Q120.7438,819.7969 121.3688,819.2188 L121.3688,821.9375 Z " fill="#000000"/><text fill="#000000" font-family="sans-serif" font-size="14" lengthAdjust="spacing" textLength="54.3457" x="132.4" y="821.1436">Primary</text><line style="stroke:#181818;stroke-width:0.5;" x1="104.4" x2="188.7457" y1="832.2969" y2="832.2969"/><line style="stroke:#181818;stroke-width:0.5;" x1="104.4" x2="188.7457" y1="840.2969" y2="840.2969"/></g><g class="entity" data-qualified-name="GMN17" data-source-line="26" id="ent0018"><path d="M230.15,156.1569 L230.15,172.2969 L195.78,176.2969 L230.15,180.2969 L230.15,196.4225 A0,0 0 0 0 230.15,196.4225 L504.9801,196.4225 A0,0 0 0 0 504.9801,196.4225 L504.9801,166.1569 L494.9801,156.1569 L230.15,156.1569 A0,0 0 0 0 230.15,156.1569" fill="#FEFFDD" style="stroke:#181818;stroke-width:0.5;"/><path d="M494.9801,156.1569 L494.9801,166.1569 L504.9801,166.1569 L494.9801,156.1569" fill="#FEFFDD" style="stroke:#181818;stroke-width:0.5;"/><text fill="#000000" font-family="sans-serif" font-size="13" lengthAdjust="spacing" textLength="253.8301" x="236.15" y="173.2238">Logical operators (lowest precedence):</text><text fill="#000000" font-family="sans-serif" font-size="13" lengthAdjust="spacing" textLength="37.2988" x="236.15" y="188.3566">||, &amp;&amp;</text></g><g class="entity" data-qualified-name="GMN20" data-source-line="31" id="ent0021"><path d="M239.55,370.9969 L239.55,388.2969 L204.98,392.2969 L239.55,396.2969 L239.55,413.5906 A0,0 0 0 0 239.55,413.5906 L409.5803,413.5906 A0,0 0 0 0 409.5803,413.5906 L409.5803,380.9969 L399.5803,370.9969 L239.55,370.9969 A0,0 0 0 0 239.55,370.9969" fill="#FEFFDD" style="stroke:#181818;stroke-width:0.5;"/><path d="M399.5803,370.9969 L399.5803,380.9969 L409.5803,380.9969 L399.5803,370.9969" fill="#FEFFDD" style="stroke:#181818;stroke-width:0.5;"/><text fill="#000000" font-family="sans-serif" font-size="13" lengthAdjust="spacing" textLength="149.0303" x="245.55" y="388.0638">Comparison operators:</text><text fill="#000000" font-family="sans-serif" font-size="15" font-weight="bold" lengthAdjust="spacing" textLength="115.708" x="245.55" y="405.053">!= &lt; &lt;= &gt; &gt;=</text></g><g class="entity" data-qualified-name="GMN23" data-source-line="36" id="ent0024"><path d="M234.18,480.1569 L234.18,496.2969 L199.16,500.2969 L234.18,504.2969 L234.18,520.4225 A0,0 0 0 0 234.18,520.4225 L312.9691,520.4225 A0,0 0 0 0 312.9691,520.4225 L312.9691,490.1569 L302.9691,480.1569 L234.18,480.1569 A0,0 0 0 0 234.18,480.1569" fill="#FEFFDD" style="stroke:#181818;stroke-width:0.5;"/><path d="M302.9691,480.1569 L302.9691,490.1569 L312.9691,490.1569 L302.9691,480.1569" fill="#FEFFDD" style="stroke:#181818;stroke-width:0.5;"/><text fill="#000000" font-family="sans-serif" font-size="13" lengthAdjust="spacing" textLength="57.7891" x="240.18" y="497.2238">Additive:</text><text fill="#000000" font-family="sans-serif" font-size="13" lengthAdjust="spacing" textLength="19.7158" x="240.18" y="512.3566">+ -</text></g><g class="entity" data-qualified-name="GMN26" data-source-line="41" id="ent0027"><path d="M216.24,588.1569 L216.24,604.2969 L181,608.2969 L216.24,612.2969 L216.24,628.4225 A0,0 0 0 0 216.24,628.4225 L506.8948,628.4225 A0,0 0 0 0 506.8948,628.4225 L506.8948,598.1569 L496.8948,588.1569 L216.24,588.1569 A0,0 0 0 0 216.24,588.1569" fill="#FEFFDD" style="stroke:#181818;stroke-width:0.5;"/><path d="M496.8948,588.1569 L496.8948,598.1569 L506.8948,598.1569 L496.8948,588.1569" fill="#FEFFDD" style="stroke:#181818;stroke-width:0.5;"/><text fill="#000000" font-family="sans-serif" font-size="13" lengthAdjust="spacing" textLength="269.6548" x="222.24" y="605.2238">Multiplicative (highest among operators):</text><ellipse cx="227.74" cy="615.9225" fill="#000000" rx="2.5" ry="2.5"/><text fill="#000000" font-family="sans-serif" font-size="13" lengthAdjust="spacing" textLength="4.3799" x="234.24" y="620.3566">/</text></g><g class="entity" data-qualified-name="GMN29" data-source-line="46" id="ent0030"><path d="M6,908.2969 L6,1039.3594 A0,0 0 0 0 6,1039.3594 L287.1396,1039.3594 A0,0 0 0 0 287.1396,1039.3594 L287.1396,918.2969 L277.1396,908.2969 L150.57,908.2969 L146.57,848.6669 L142.57,908.2969 L6,908.2969 A0,0 0 0 0 6,908.2969" fill="#FEFFDD" style="stroke:#181818;stroke-width:0.5;"/><path d="M277.1396,908.2969 L277.1396,918.2969 L287.1396,918.2969 L277.1396,908.2969" fill="#FEFFDD" style="stroke:#181818;stroke-width:0.5;"/><text fill="#000000" font-family="sans-serif" font-size="13" lengthAdjust="spacing" textLength="102.5654" x="12" y="925.3638">Primary tokens:</text><text fill="#000000" font-family="sans-serif" font-size="13" lengthAdjust="spacing" textLength="109.1924" x="12" y="940.4966">- Number literals</text><text fill="#000000" font-family="sans-serif" font-size="13" lengthAdjust="spacing" textLength="260.1396" x="12" y="955.6294">- Identifiers (e.g. score.PNRS, OSS.total)</text><text fill="#000000" font-family="sans-serif" font-size="13" lengthAdjust="spacing" textLength="182.5459" x="12" y="970.7622">- Parenthesized expressions</text><text fill="#000000" font-family="sans-serif" font-size="13" lengthAdjust="spacing" textLength="4.1323" x="12" y="985.895">&#160;</text><text fill="#000000" font-family="sans-serif" font-size="13" lengthAdjust="spacing" textLength="106.9707" x="12" y="1001.0278">Implemented in:</text><text fill="#000000" font-family="sans-serif" font-size="13" lengthAdjust="spacing" textLength="191.3628" x="12" y="1016.1606">src/api/policyParser/tokens.ts</text><text fill="#000000" font-family="sans-serif" font-size="13" lengthAdjust="spacing" textLength="189.4521" x="12" y="1031.2935">src/api/policyParser/parser.ts</text></g><!--link Expression to LogicalOr--><g class="link" data-entity-1="ent0002" data-entity-2="ent0003" data-link-type="dependency" data-source-line="17" id="lnk10"><path codeLine="17" d="M146.57,92.5569 C146.57,110.2269 146.57,128.4269 146.57,146.0869" fill="none" id="Expression-to-LogicalOr" style="stroke:#181818;stroke-width:1;"/><polygon fill="#181818" points="146.57,152.0869,150.57,143.0869,146.57,147.0869,142.57,143.0869,146.57,152.0869" style="stroke:#181818;stroke-width:1;"/></g><!--link LogicalOr to LogicalAnd--><g class="link" data-entity-1="ent0003" data-entity-2="ent0004" data-link-type="dependency" data-source-line="18" id="lnk11"><path codeLine="18" d="M146.57,200.5569 C146.57,218.2269 146.57,236.4269 146.57,254.0869" fill="none" id="LogicalOr-to-LogicalAnd" style="stroke:#181818;stroke-width:1;"/><polygon fill="#181818" points="146.57,260.0869,150.57,251.0869,146.57,255.0869,142.57,251.0869,146.57,260.0869" style="stroke:#181818;stroke-width:1;"/></g><!--link LogicalAnd to Comparison--><g class="link" data-entity-1="ent0004" data-entity-2="ent0005" data-link-type="dependency" data-source-line="19" id="lnk12"><path codeLine="19" d="M146.57,308.5569 C146.57,326.2269 146.57,344.4269 146.57,362.0869" fill="none" id="LogicalAnd-to-Comparison" style="stroke:#181818;stroke-width:1;"/><polygon fill="#181818" points="146.57,368.0869,150.57,359.0869,146.57,363.0869,142.57,359.0869,146.57,368.0869" style="stroke:#181818;stroke-width:1;"/></g><!--link Comparison to Arithmetic--><g class="link" data-entity-1="ent0005" data-entity-2="ent0006" data-link-type="dependency" data-source-line="20" id="lnk13"><path codeLine="20" d="M146.57,416.5569 C146.57,434.2269 146.57,452.4269 146.57,470.0869" fill="none" id="Comparison-to-Arithmetic" style="stroke:#181818;stroke-width:1;"/><polygon fill="#181818" points="146.57,476.0869,150.57,467.0869,146.57,471.0869,142.57,467.0869,146.57,476.0869" style="stroke:#181818;stroke-width:1;"/></g><!--link Arithmetic to Term--><g class="link" data-entity-1="ent0006" data-entity-2="ent0007" data-link-type="dependency" data-source-line="21" id="lnk14"><path codeLine="21" d="M146.57,524.5569 C146.57,542.2269 146.57,560.4269 146.57,578.0869" fill="none" id="Arithmetic-to-Term" style="stroke:#181818;stroke-width:1;"/><polygon fill="#181818" points="146.57,584.0869,150.57,575.0869,146.57,579.0869,142.57,575.0869,146.57,584.0869" style="stroke:#181818;stroke-width:1;"/></g><!--link Term to Factor--><g class="link" data-entity-1="ent0007" data-entity-2="ent0008" data-link-type="dependency" data-source-line="22" id="lnk15"><path codeLine="22" d="M146.57,632.5569 C146.57,650.2269 146.57,668.4269 146.57,686.0869" fill="none" id="Term-to-Factor" style="stroke:#181818;stroke-width:1;"/><polygon fill="#181818" points="146.57,692.0869,150.57,683.0869,146.57,687.0869,142.57,683.0869,146.57,692.0869" style="stroke:#181818;stroke-width:1;"/></g><!--link Factor to Primary--><g class="link" data-entity-1="ent0008" data-entity-2="ent0009" data-link-type="dependency" data-source-line="23" id="lnk16"><path codeLine="23" d="M146.57,740.5569 C146.57,758.2269 146.57,776.4269 146.57,794.0869" fill="none" id="Factor-to-Primary" style="stroke:#181818;stroke-width:1;"/><polygon fill="#181818" points="146.57,800.0869,150.57,791.0869,146.57,795.0869,142.57,791.0869,146.57,800.0869" style="stroke:#181818;stroke-width:1;"/></g><?plantuml-src XLFBRjim4BphAwOvvD56yjs831XDMmH84w7E3p3IHYP2YWAvQfiY7r-Ijap2W96BjBipEvmbk1Te9ZiQHqiqHids3VHtjEISD0DwAxGM5cBeu8ijTJIq16qwKiK5DcQoFZKlO3lnTkbBWBFjGenoCKQrHbX7Ti7cbGPNiJjD6UClK0gMh6YsyotPkHT3FucUKEB7tjcj5C5aKRHAE8Upn3w3S5dpJBWtlMo5UhGHFsH7y7heSjodC-6hqTwfTFi3KZeJrbRoLXFBDX9IEXEUoEe8XM0kVXSjcvsdNJW3ZPL-phU8xEEYoEwaB5VP58SehmVtAOn8PZk54SdyfZ0YqMxun6plSlUBbOExmJ31odxBuMaaSvXZc96iy7qEbyhy8SVPwxfQUkBx-pNEpmloTeFQiMPc7rcIT8D6NUDJZHlSr5XXLPyKooO6rbqdMVwc8F05vSccU1d0pqcn7Fqx5Q49brkFXt64DaEVxCIPFcDnBFTic8qEUlFbOOwmMvdGME9XqizaeIHxGULYxSxV5iiNIU4MgUehkDPOgfg7NvjhF6us5HiMwYgI_OvvjhSc_r6NRRXVDk1EZugqnpqaXt3Y1plyuGOVnlmF?></g></svg>