<?plantuml 1.2026.1?><svg xmlns="http://www.w3.org/2000/svg" xmlns:xlink="http://www.w3.org/1999/xlink" contentStyleType="text/css" data-diagram-type="CLASS" height="423px" preserveAspectRatio="none" style="width:1153px;height:423px;background:#FFFFFF;" version="1.1" viewBox="0 0 1153 423" width="1153px" zoomAndPan="magnify"><title>Policy Expression Grammar (overview)</title><defs/><g><g class="title" data-source-line="1"><text fill="#000000" font-family="sans-serif" font-size="14" font-weight="bold" lengthAdjust="spacing" textLength="305.252" x="416.9352" y="22.9951">Policy Expression Grammar (overview)</text></g><!--class Expression--><g class="entity" data-qualified-name="Expression" data-source-line="3" id="ent0002"><rect fill="#F1F1F1" height="48" rx="2.5" ry="2.5" style="stroke:#181818;stroke-width:0.5;" width="108.3027" x="907.06" y="44.2969"/><ellipse cx="922.06" cy="60.2969" fill="#ADD1B2" rx="11" ry="11" style="stroke:#181818;stroke-width:1;"/><path d="M925.0288,65.9375 Q924.4506,66.2344 923.81,66.375 Q923.1694,66.5313 922.4663,66.5313 Q919.9663,66.5313 918.6381,64.8906 Q917.3256,63.2344 917.3256,60.1094 Q917.3256,56.9844 918.6381,55.3281 Q919.9663,53.6719 922.4663,53.6719 Q923.1694,53.6719 923.81,53.8281 Q924.4663,53.9844 925.0288,54.2813 L925.0288,57 Q924.4038,56.4219 923.81,56.1563 Q923.2163,55.875 922.5913,55.875 Q921.2475,55.875 920.56,56.9531 Q919.8725,58.0156 919.8725,60.1094 Q919.8725,62.2031 920.56,63.2813 Q921.2475,64.3438 922.5913,64.3438 Q923.2163,64.3438 923.81,64.0781 Q924.4038,63.7969 925.0288,63.2188 L925.0288,65.9375 Z " fill="#000000"/><text fill="#000000" font-family="sans-serif" font-size="14" lengthAdjust="spacing" textLength="76.3027" x="936.06" y="65.1436">Expression</text><line style="stroke:#181818;stroke-width:0.5;" x1="908.06" x2="1014.3627" y1="76.2969" y2="76.2969"/><line style="stroke:#181818;stroke-width:0.5;" x1="908.06" x2="1014.3627" y1="84.2969" y2="84.2969"/></g><!--class Term--><g class="entity" data-qualified-name="Term" data-source-line="4" id="ent0003"><rect fill="#F1F1F1" height="48" rx="2.5" ry="2.5" style="stroke:#181818;stroke-width:0.5;" width="68.5586" x="926.94" y="152.2969"/><ellipse cx="941.94" cy="168.2969" fill="#ADD1B2" rx="11" ry="11" style="stroke:#181818;stroke-width:1;"/><path d="M944.9088,173.9375 Q944.3306,174.2344 943.69,174.375 Q943.0494,174.5313 942.3463,174.5313 Q939.8463,174.5313 938.5181,172.8906 Q937.2056,171.2344 937.2056,168.1094 Q937.2056,164.9844 938.5181,163.3281 Q939.8463,161.6719 942.3463,161.6719 Q943.0494,161.6719 943.69,161.8281 Q944.3463,161.9844 944.9088,162.2813 L944.9088,165 Q944.2838,164.4219 943.69,164.1563 Q943.0963,163.875 942.4713,163.875 Q941.1275,163.875 940.44,164.9531 Q939.7525,166.0156 939.7525,168.1094 Q939.7525,170.2031 940.44,171.2813 Q941.1275,172.3438 942.4713,172.3438 Q943.0963,172.3438 943.69,172.0781 Q944.2838,171.7969 944.9088,171.2188 L944.9088,173.9375 Z " fill="#000000"/><text fill="#000000" font-family="sans-serif" font-size="14" lengthAdjust="spacing" textLength="36.5586" x="955.94" y="173.1436">Term</text><line style="stroke:#181818;stroke-width:0.5;" x1="927.94" x2="994.4986" y1="184.2969" y2="184.2969"/><line style="stroke:#181818;stroke-width:0.5;" x1="927.94" x2="994.4986" y1="192.2969" y2="192.2969"/></g><!--class Factor--><g class="entity" data-qualified-name="Factor" data-source-line="5" id="ent0004"><rect fill="#F1F1F1" height="48" rx="2.5" ry="2.5" style="stroke:#181818;stroke-width:0.5;" width="76.1396" x="923.15" y="260.2969"/><ellipse cx="938.15" cy="276.2969" fill="#ADD1B2" rx="11" ry="11" style="stroke:#181818;stroke-width:1;"/><path d="M941.1188,281.9375 Q940.5406,282.2344 939.9,282.375 Q939.2594,282.5313 938.5563,282.5313 Q936.0563,282.5313 934.7281,280.8906 Q933.4156,279.2344 933.4156,276.1094 Q933.4156,272.9844 934.7281,271.3281 Q936.0563,269.6719 938.5563,269.6719 Q939.2594,269.6719 939.9,269.8281 Q940.5563,269.9844 941.1188,270.2813 L941.1188,273 Q940.4938,272.4219 939.9,272.1563 Q939.3063,271.875 938.6813,271.875 Q937.3375,271.875 936.65,272.9531 Q935.9625,274.0156 935.9625,276.1094 Q935.9625,278.2031 936.65,279.2813 Q937.3375,280.3438 938.6813,280.3438 Q939.3063,280.3438 939.9,280.0781 Q940.4938,279.7969 941.1188,279.2188 L941.1188,281.9375 Z " fill="#000000"/><text fill="#000000" font-family="sans-serif" font-size="14" lengthAdjust="spacing" textLength="44.1396" x="952.15" y="281.1436">Factor</text><line style="stroke:#181818;stroke-width:0.5;" x1="924.15" x2="998.2896" y1="292.2969" y2="292.2969"/><line style="stroke:#181818;stroke-width:0.5;" x1="924.15" x2="998.2896" y1="300.2969" y2="300.2969"/></g><!--class Identifier--><g class="entity" data-qualified-name="Identifier" data-source-line="6" id="ent0005"><rect fill="#F1F1F1" height="48" rx="2.5" ry="2.5" style="stroke:#181818;stroke-width:0.5;" width="95.0684" x="850.68" y="368.2969"/><ellipse cx="865.68" cy="384.2969" fill="#ADD1B2" rx="11" ry="11" style="stroke:#181818;stroke-width:1;"/><path d="M868.6488,389.9375 Q868.0706,390.2344 867.43,390.375 Q866.7894,390.5313 866.0863,390.5313 Q863.5863,390.5313 862.2581,388.8906 Q860.9456,387.2344 860.9456,384.1094 Q860.9456,380.9844 862.2581,379.3281 Q863.5863,377.6719 866.0863,377.6719 Q866.7894,377.6719 867.43,377.8281 Q868.0863,377.9844 868.6488,378.2813 L868.6488,381 Q868.0238,380.4219 867.43,380.1563 Q866.8363,379.875 866.2113,379.875 Q864.8675,379.875 864.18,380.9531 Q863.4925,382.0156 863.4925,384.1094 Q863.4925,386.2031 864.18,387.2813 Q864.8675,388.3438 866.2113,388.3438 Q866.8363,388.3438 867.43,388.0781 Q868.0238,387.7969 868.6488,387.2188 L868.6488,389.9375 Z " fill="#000000"/><text fill="#000000" font-family="sans-serif" font-size="14" lengthAdjust="spacing" textLength="63.0684" x="879.68" y="389.1436">Identifier</text><line style="stroke:#181818;stroke-width:0.5;" x1="851.68" x2="944.7484" y1="400.2969" y2="400.2969"/><line style="stroke:#181818;stroke-width:0.5;" x1="851.68" x2="944.7484" y1="408.2969" y2="408.2969"/></g><!--class Number--><g class="entity" data-qualified-name="Number" data-source-line="7" id="ent0006"><rect fill="#F1F1F1" height="48" rx="2.5" ry="2.5" style="stroke:#181818;stroke-width:0.5;" width="88.2393" x="981.1" y="368.2969"/><ellipse cx="996.1" cy="384.2969" fill="#ADD1B2" rx="11" ry="11" style="stroke:#181818;stroke-width:1;"/><path d="M999.0688,389.9375 Q998.4906,390.2344 997.85,390.375 Q997.2094,390.5313 996.5063,390.5313 Q994.0063,390.5313 992.6781,388.8906 Q991.3656,387.2344 991.3656,384.1094 Q991.3656,380.9844 992.6781,379.3281 Q994.0063,377.6719 996.5063,377.6719 Q997.2094,377.6719 997.85,377.8281 Q998.5063,377.9844 999.0688,378.2813 L999.0688,381 Q998.4438,380.4219 997.85,380.1563 Q997.2563,379.875 996.6313,379.875 Q995.2875,379.875 994.6,380.9531 Q993.9125,382.0156 993.9125,384.1094 Q993.9125,386.2031 994.6,387.2813 Q995.2875,388.3438 996.6313,388.3438 Q997.2563,388.3438 997.85,388.0781 Q998.4438,387.7969 999.0688,387.2188 L999.0688,389.9375 Z " fill="#000000"/><text fill="#000000" font-family="sans-serif" font-size="14" lengthAdjust="spacing" textLength="56.2393" x="1010.1" y="389.1436">Number</text><line style="stroke:#181818;stroke-width:0.5;" x1="982.1" x2="1068.3393" y1="400.2969" y2="400.2969"/><line style="stroke:#181818;stroke-width:0.5;" x1="982.1" x2="1068.3393" y1="408.2969" y2="408.2969"/></g><!--class Comparison--><g class="entity" data-qualified-name="Comparison" data-source-line="8" id="ent0007"><rect fill="#F1F1F1" height="48" rx="2.5" ry="2.5" style="stroke:#181818;stroke-width:0.5;" width="115.8223" x="1030.3" y="152.2969"/><ellipse cx="1045.3" cy="168.2969" fill="#ADD1B2" rx="11" ry="11" style="stroke:#181818;stroke-width:1;"/><path d="M1048.2688,173.9375 Q1047.6906,174.2344 1047.05,174.375 Q1046.4094,174.5313 1045.7063,174.5313 Q1043.2063,174.5313 1041.8781,172.8906 Q1040.5656,171.2344 1040.5656,168.1094 Q1040.5656,164.9844 1041.8781,163.3281 Q1043.2063,161.6719 1045.7063,161.6719 Q1046.4094,161.6719 1047.05,161.8281 Q1047.7063,161.9844 1048.2688,162.2813 L1048.2688,165 Q1047.6438,164.4219 1047.05,164.1563 Q1046.4563,163.875 1045.8313,163.875 Q1044.4875,163.875 1043.8,164.9531 Q1043.1125,166.0156 1043.1125,168.1094 Q1043.1125,170.2031 1043.8,171.2813 Q1044.4875,172.3438 1045.8313,172.3438 Q1046.4563,172.3438 1047.05,172.0781 Q1047.6438,171.7969 1048.2688,171.2188 L1048.2688,173.9375 Z " fill="#000000"/><text fill="#000000" font-family="sans-serif" font-size="14" lengthAdjust="spacing" textLength="83.8223" x="1059.3" y="173.1436">Comparison</text><line style="stroke:#181818;stroke-width:0.5;" x1="1031.3" x2="1145.1223" y1="184.2969" y2="184.2969"/><line style="stroke:#181818;stroke-width:0.5;" x1="1031.3" x2="1145.1223" y1="192.2969" y2="192.2969"/></g><!--class LogicalOp--><g class="entity" data-qualified-name="LogicalOp" data-source-line="9" id="ent0008"><rect fill="#F1F1F1" height="48" rx="2.5" ry="2.5" style="stroke:#181818;stroke-width:0.5;" width="101.2139" x="790.61" y="152.2969"/><ellipse cx="805.61" cy="168.2969" fill="#ADD1B2" rx="11" ry="11" style="stroke:#181818;stroke-width:1;"/><path d="M808.5788,173.9375 Q808.0006,174.2344 807.36,174.375 Q806.7194,174.5313 806.0163,174.5313 Q803.5163,174.5313 802.1881,172.8906 Q800.8756,171.2344 800.8756,168.1094 Q800.8756,164.9844 802.1881,163.3281 Q803.5163,161.6719 806.0163,161.6719 Q806.7194,161.6719 807.36,161.8281 Q808.0163,161.9844 808.5788,162.2813 L808.5788,165 Q807.9538,164.4219 807.36,164.1563 Q806.7663,163.875 806.1413,163.875 Q804.7975,163.875 804.11,164.9531 Q803.4225,166.0156 803.4225,168.1094 Q803.4225,170.2031 804.11,171.2813 Q804.7975,172.3438 806.1413,172.3438 Q806.7663,172.3438 807.36,172.0781 Q807.9538,171.7969 808.5788,171.2188 L808.5788,173.9375 Z " fill="#000000"/><text fill="#000000" font-family="sans-serif" font-size="14" lengthAdjust="spacing" textLength="69.2139" x="819.61" y="173.1436">LogicalOp</text><line style="stroke:#181818;stroke-width:0.5;" x1="791.61" x2="890.8239" y1="184.2969" y2="184.2969"/><line style="stroke:#181818;stroke-width:0.5;" x1="791.61" x2="890.8239" y1="192.2969" y2="192.2969"/></g><g class="entity" data-qualified-name="GMN15" data-source-line="18" id="ent0016"><path d="M6,163.7269 L6,188.8597 L382.4307,188.8597 L382.4307,173.7269 L372.4307,163.7269 L6,163.7269" fill="#FEFFDD" style="stroke:#181818;stroke-width:0.5;"/><path d="M372.4307,163.7269 L372.4307,173.7269 L382.4307,173.7269 L372.4307,163.7269" fill="#FEFFDD" style="stroke:#181818;stroke-width:1;"/><text fill="#000000" font-family="sans-serif" font-size="13" lengthAdjust="spacing" textLength="355.4307" x="12" y="180.7938">Supported operators: + - * /, == != &lt; &lt;= &gt; &gt;=, &amp;&amp; ||</text></g><g class="entity" data-qualified-name="GMN18" data-source-line="19" id="ent0019"><path d="M417.26,163.7269 L417.26,188.8597 L755.1667,188.8597 L755.1667,173.7269 L745.1667,163.7269 L417.26,163.7269" fill="#FEFFDD" style="stroke:#181818;stroke-width:0.5;"/><path d="M745.1667,163.7269 L745.1667,173.7269 L755.1667,173.7269 L745.1667,163.7269" fill="#FEFFDD" style="stroke:#181818;stroke-width:1;"/><text fill="#000000" font-family="sans-serif" font-size="13" lengthAdjust="spacing" textLength="316.9067" x="423.26" y="180.7938">See src/api/policyParser for tokenizer and parser</text></g><!--link Expression to Term--><g class="link" data-entity-1="ent0002" data-entity-2="ent0003" data-link-type="dependency" data-source-line="11" id="lnk9"><path codeLine="11" d="M961.22,92.5569 C961.22,110.2369 961.22,128.4269 961.22,146.0869" fill="none" id="Expression-to-Term" style="stroke:#181818;stroke-width:1;"/><polygon fill="#181818" points="961.22,152.0869,965.22,143.0869,961.22,147.0869,957.22,143.0869,961.22,152.0869" style="stroke:#181818;stroke-width:1;"/></g><!--link Term to Factor--><g class="link" data-entity-1="ent0003" data-entity-2="ent0004" data-link-type="dependency" data-source-line="12" id="lnk10"><path codeLine="12" d="M961.22,200.5569 C961.22,218.2369 961.22,236.4269 961.22,254.0869" fill="none" id="Term-to-Factor" style="stroke:#181818;stroke-width:1;"/><polygon fill="#181818" points="961.22,260.0869,965.22,251.0869,961.22,255.0869,957.22,251.0869,961.22,260.0869" style="stroke:#181818;stroke-width:1;"/></g><!--link Factor to Identifier--><g class="link" data-entity-1="ent0004" data-entity-2="ent0005" data-link-type="dependency" data-source-line="13" id="lnk11"><path codeLine="13" d="M947.39,308.5569 C936.89,326.2369 925.5642,345.2683 915.0742,362.9283" fill="none" id="Factor-to-Identifier" style="stroke:#181818;stroke-width:1;"/><polygon fill="#181818" points="912.01,368.0869,920.0453,362.3918,914.5635,363.7881,913.1672,358.3062,912.01,368.0869" style="stroke:#181818;stroke-width:1;"/></g><!--link Factor to Number--><g class="link" data-entity-1="ent0004" data-entity-2="ent0006" data-link-type="dependency" data-source-line="14" id="lnk12"><path codeLine="14" d="M975.26,308.5569 C985.93,326.2369 997.4393,345.2901 1008.0993,362.9501" fill="none" id="Factor-to-Number" style="stroke:#181818;stroke-width:1;"/><polygon fill="#181818" points="1011.2,368.0869,1009.9735,358.3147,1008.6161,363.8063,1003.1245,362.4489,1011.2,368.0869" style="stroke:#181818;stroke-width:1;"/></g><!--link Expression to Comparison--><g class="link" data-entity-1="ent0002" data-entity-2="ent0007" data-link-type="dependency" data-source-line="15" id="lnk13"><path codeLine="15" d="M989.09,92.5569 C1010.26,110.2369 1034.6435,130.5823 1055.8035,148.2423" fill="none" id="Expression-to-Comparison" style="stroke:#181818;stroke-width:1;"/><polygon fill="#181818" points="1060.41,152.0869,1056.0633,143.2491,1056.5713,148.8831,1050.9373,149.3911,1060.41,152.0869" style="stroke:#181818;stroke-width:1;"/></g><!--link Expression to LogicalOp--><g class="link" data-entity-1="ent0002" data-entity-2="ent0008" data-link-type="dependency" data-source-line="16" id="lnk14"><path codeLine="16" d="M934.88,92.5569 C914.87,110.2369 891.9766,130.4544 871.9866,148.1144" fill="none" id="Expression-to-LogicalOp" style="stroke:#181818;stroke-width:1;"/><polygon fill="#181818" points="867.49,152.0869,876.8832,149.1259,871.2372,148.7765,871.5866,143.1304,867.49,152.0869" style="stroke:#181818;stroke-width:1;"/></g><!--link GMN15 to LogicalOp--><g class="link" data-entity-1="ent0016" data-entity-2="ent0008" data-link-type="association" data-source-line="18" id="lnk17"><path d="M235.28,163.2669 C279.71,149.8969 352.91,130.0169 417.72,122.2969 C566.44,104.5869 610.73,81.0469 754.72,122.2969 C775.31,128.1969 795.76,140.5869 811.6,152.0069" fill="none" id="GMN15-LogicalOp" style="stroke:#181818;stroke-width:1;stroke-dasharray:7,7;"/></g><!--link GMN15 to GMN18--><g class="link" data-entity-1="ent0016" data-entity-2="ent0019" data-link-type="association" data-source-line="19" id="lnk20"><path d="M382.56,176.2969 C393.96,176.2969 405.36,176.2969 416.77,176.2969" fill="none" id="GMN15-GMN18" style="stroke:#181818;stroke-width:1;stroke-dasharray:7,7;"/></g><?plantuml-src NP3DJiCm48JlUOhXKl7JAFUgpWK1Ga9G2LvWSJPbHH9RQxVyg0zFcfZAwiNspAxdMssKs34shXFxWxjlhno2k04FIdrFYaktPzqBVrqLXUqeXAmf6M-iVNhUaurEatXiU8ZI2lyRpxl-_IHkNUz99PnYdjnMB7KllYYoESgodW77OrA9CL-Jau4oDz7EiZBiMINZ3ouoEcxZ2gyxxvr6Rk0yAutXOOKRbBX6jOGnk31OOsrGepPBB1Ou7ER_AjkFOm0pWjgAl5H-MlE6DB2Y7UUCxfC7-HqL3GtyL2Z-0000?></g></svg>