<?plantuml 1.2026.2?><svg xmlns="http://www.w3.org/2000/svg" xmlns:xlink="http://www.w3.org/1999/xlink" contentStyleType="text/css" data-diagram-type="CLASS" height="411px" preserveAspectRatio="none" style="width:970px;height:411px;background:#FFFFFF;" version="1.1" viewBox="0 0 970 411" width="970px" zoomAndPan="magnify"><title>Runtime-Template Bindings Flow</title><defs/><g><g class="title" data-source-line="7"><text fill="#000000" font-family="sans-serif" font-size="14" font-weight="bold" lengthAdjust="spacing" textLength="261.4268" x="347.689" y="22.9951">Runtime-Template Bindings Flow</text></g><!--cluster Template Layer--><g class="cluster" data-qualified-name="Template Layer" data-source-line="13" id="ent0002"><rect fill="#FFF8E1" height="348" rx="2.5" ry="2.5" style="stroke:#181818;stroke-width:1;" width="258.28" x="7" y="57.4269"/><text fill="#000000" font-family="sans-serif" font-size="14" font-weight="bold" lengthAdjust="spacing" textLength="122.8555" x="74.7123" y="72.422">Template Layer</text></g><!--cluster Runtime Layer--><g class="cluster" data-qualified-name="Runtime Layer" data-source-line="20" id="ent0007"><rect fill="#E8F5E9" height="182" rx="2.5" ry="2.5" style="stroke:#181818;stroke-width:1;" width="524.44" x="293.28" y="99.4269"/><text fill="#000000" font-family="sans-serif" font-size="14" font-weight="bold" lengthAdjust="spacing" textLength="115.0557" x="497.9722" y="114.422">Runtime Layer</text></g><!--class JourneyTemplate--><g class="entity" data-qualified-name="Template Layer.JourneyTemplate" data-source-line="14" id="ent0003"><rect fill="#F1F1F1" height="48" rx="2.5" ry="2.5" style="stroke:#181818;stroke-width:0.5;" width="151.3555" x="60.46" y="92.4269"/><ellipse cx="75.46" cy="108.4269" fill="#ADD1B2" rx="11" ry="11" style="stroke:#181818;stroke-width:1;"/><path d="M78.4288,114.0675 Q77.8506,114.3644 77.21,114.505 Q76.5694,114.6613 75.8663,114.6613 Q73.3663,114.6613 72.0381,113.0206 Q70.7256,111.3644 70.7256,108.2394 Q70.7256,105.1144 72.0381,103.4581 Q73.3663,101.8019 75.8663,101.8019 Q76.5694,101.8019 77.21,101.9581 Q77.8663,102.1144 78.4288,102.4113 L78.4288,105.13 Q77.8038,104.5519 77.21,104.2863 Q76.6163,104.005 75.9913,104.005 Q74.6475,104.005 73.96,105.0831 Q73.2725,106.1456 73.2725,108.2394 Q73.2725,110.3331 73.96,111.4113 Q74.6475,112.4738 75.9913,112.4738 Q76.6163,112.4738 77.21,112.2081 Q77.8038,111.9269 78.4288,111.3488 L78.4288,114.0675 Z " fill="#000000"/><text fill="#000000" font-family="sans-serif" font-size="14" lengthAdjust="spacing" textLength="119.3555" x="89.46" y="113.2736">JourneyTemplate</text><line style="stroke:#181818;stroke-width:0.5;" x1="61.46" x2="210.8155" y1="124.4269" y2="124.4269"/><line style="stroke:#181818;stroke-width:0.5;" x1="61.46" x2="210.8155" y1="132.4269" y2="132.4269"/></g><!--class JourneyTemplateEntry--><g class="entity" data-qualified-name="Template Layer.JourneyTemplateEntry" data-source-line="15" id="ent0004"><rect fill="#F1F1F1" height="48" rx="2.5" ry="2.5" style="stroke:#181818;stroke-width:0.5;" width="188.6045" x="41.84" y="341.4269"/><ellipse cx="56.84" cy="357.4269" fill="#ADD1B2" rx="11" ry="11" style="stroke:#181818;stroke-width:1;"/><path d="M59.8088,363.0675 Q59.2306,363.3644 58.59,363.505 Q57.9494,363.6613 57.2463,363.6613 Q54.7463,363.6613 53.4181,362.0206 Q52.1056,360.3644 52.1056,357.2394 Q52.1056,354.1144 53.4181,352.4581 Q54.7463,350.8019 57.2463,350.8019 Q57.9494,350.8019 58.59,350.9581 Q59.2463,351.1144 59.8088,351.4113 L59.8088,354.13 Q59.1838,353.5519 58.59,353.2863 Q57.9963,353.005 57.3713,353.005 Q56.0275,353.005 55.34,354.0831 Q54.6525,355.1456 54.6525,357.2394 Q54.6525,359.3331 55.34,360.4113 Q56.0275,361.4738 57.3713,361.4738 Q57.9963,361.4738 58.59,361.2081 Q59.1838,360.9269 59.8088,360.3488 L59.8088,363.0675 Z " fill="#000000"/><text fill="#000000" font-family="sans-serif" font-size="14" lengthAdjust="spacing" textLength="156.6045" x="70.84" y="362.2736">JourneyTemplateEntry</text><line style="stroke:#181818;stroke-width:0.5;" x1="42.84" x2="229.4445" y1="373.4269" y2="373.4269"/><line style="stroke:#181818;stroke-width:0.5;" x1="42.84" x2="229.4445" y1="381.4269" y2="381.4269"/></g><!--class JourneyTemplateInstruction--><g class="entity" data-qualified-name="Template Layer.JourneyTemplateInstruction" data-source-line="16" id="ent0005"><rect fill="#F1F1F1" height="48" rx="2.5" ry="2.5" style="stroke:#181818;stroke-width:0.5;" width="226.2842" x="23" y="258.4269"/><ellipse cx="38" cy="274.4269" fill="#ADD1B2" rx="11" ry="11" style="stroke:#181818;stroke-width:1;"/><path d="M40.9688,280.0675 Q40.3906,280.3644 39.75,280.505 Q39.1094,280.6613 38.4063,280.6613 Q35.9063,280.6613 34.5781,279.0206 Q33.2656,277.3644 33.2656,274.2394 Q33.2656,271.1144 34.5781,269.4581 Q35.9063,267.8019 38.4063,267.8019 Q39.1094,267.8019 39.75,267.9581 Q40.4063,268.1144 40.9688,268.4113 L40.9688,271.13 Q40.3438,270.5519 39.75,270.2863 Q39.1563,270.005 38.5313,270.005 Q37.1875,270.005 36.5,271.0831 Q35.8125,272.1456 35.8125,274.2394 Q35.8125,276.3331 36.5,277.4113 Q37.1875,278.4738 38.5313,278.4738 Q39.1563,278.4738 39.75,278.2081 Q40.3438,277.9269 40.9688,277.3488 L40.9688,280.0675 Z " fill="#000000"/><text fill="#000000" font-family="sans-serif" font-size="14" lengthAdjust="spacing" textLength="194.2842" x="52" y="279.2736">JourneyTemplateInstruction</text><line style="stroke:#181818;stroke-width:0.5;" x1="24" x2="248.2842" y1="290.4269" y2="290.4269"/><line style="stroke:#181818;stroke-width:0.5;" x1="24" x2="248.2842" y1="298.4269" y2="298.4269"/></g><!--class InstructionTemplate--><g class="entity" data-qualified-name="Template Layer.InstructionTemplate" data-source-line="17" id="ent0006"><rect fill="#F1F1F1" height="48" rx="2.5" ry="2.5" style="stroke:#181818;stroke-width:0.5;" width="173.1895" x="49.55" y="175.4269"/><ellipse cx="64.55" cy="191.4269" fill="#ADD1B2" rx="11" ry="11" style="stroke:#181818;stroke-width:1;"/><path d="M67.5188,197.0675 Q66.9406,197.3644 66.3,197.505 Q65.6594,197.6613 64.9563,197.6613 Q62.4563,197.6613 61.1281,196.0206 Q59.8156,194.3644 59.8156,191.2394 Q59.8156,188.1144 61.1281,186.4581 Q62.4563,184.8019 64.9563,184.8019 Q65.6594,184.8019 66.3,184.9581 Q66.9563,185.1144 67.5188,185.4113 L67.5188,188.13 Q66.8938,187.5519 66.3,187.2863 Q65.7063,187.005 65.0813,187.005 Q63.7375,187.005 63.05,188.0831 Q62.3625,189.1456 62.3625,191.2394 Q62.3625,193.3331 63.05,194.4113 Q63.7375,195.4738 65.0813,195.4738 Q65.7063,195.4738 66.3,195.2081 Q66.8938,194.9269 67.5188,194.3488 L67.5188,197.0675 Z " fill="#000000"/><text fill="#000000" font-family="sans-serif" font-size="14" lengthAdjust="spacing" textLength="141.1895" x="78.55" y="196.2736">InstructionTemplate</text><line style="stroke:#181818;stroke-width:0.5;" x1="50.55" x2="221.7395" y1="207.4269" y2="207.4269"/><line style="stroke:#181818;stroke-width:0.5;" x1="50.55" x2="221.7395" y1="215.4269" y2="215.4269"/></g><!--class PatientJourney--><g class="entity" data-qualified-name="Runtime Layer.PatientJourney" data-source-line="21" id="ent0008"><rect fill="#F1F1F1" height="48" rx="2.5" ry="2.5" style="stroke:#181818;stroke-width:0.5;" width="134.4707" x="309.28" y="134.4269"/><ellipse cx="324.28" cy="150.4269" fill="#ADD1B2" rx="11" ry="11" style="stroke:#181818;stroke-width:1;"/><path d="M327.2488,156.0675 Q326.6706,156.3644 326.03,156.505 Q325.3894,156.6613 324.6863,156.6613 Q322.1863,156.6613 320.8581,155.0206 Q319.5456,153.3644 319.5456,150.2394 Q319.5456,147.1144 320.8581,145.4581 Q322.1863,143.8019 324.6863,143.8019 Q325.3894,143.8019 326.03,143.9581 Q326.6863,144.1144 327.2488,144.4113 L327.2488,147.13 Q326.6238,146.5519 326.03,146.2863 Q325.4363,146.005 324.8113,146.005 Q323.4675,146.005 322.78,147.0831 Q322.0925,148.1456 322.0925,150.2394 Q322.0925,152.3331 322.78,153.4113 Q323.4675,154.4738 324.8113,154.4738 Q325.4363,154.4738 326.03,154.2081 Q326.6238,153.9269 327.2488,153.3488 L327.2488,156.0675 Z " fill="#000000"/><text fill="#000000" font-family="sans-serif" font-size="14" lengthAdjust="spacing" textLength="102.4707" x="338.28" y="155.2736">PatientJourney</text><line style="stroke:#181818;stroke-width:0.5;" x1="310.28" x2="442.7507" y1="166.4269" y2="166.4269"/><line style="stroke:#181818;stroke-width:0.5;" x1="310.28" x2="442.7507" y1="174.4269" y2="174.4269"/></g><!--class Instruction--><g class="entity" data-qualified-name="Runtime Layer.Instruction" data-source-line="22" id="ent0009"><rect fill="#F1F1F1" height="48" rx="2.5" ry="2.5" style="stroke:#181818;stroke-width:0.5;" width="106.9287" x="323.06" y="217.4269"/><ellipse cx="338.06" cy="233.4269" fill="#ADD1B2" rx="11" ry="11" style="stroke:#181818;stroke-width:1;"/><path d="M341.0288,239.0675 Q340.4506,239.3644 339.81,239.505 Q339.1694,239.6613 338.4663,239.6613 Q335.9663,239.6613 334.6381,238.0206 Q333.3256,236.3644 333.3256,233.2394 Q333.3256,230.1144 334.6381,228.4581 Q335.9663,226.8019 338.4663,226.8019 Q339.1694,226.8019 339.81,226.9581 Q340.4663,227.1144 341.0288,227.4113 L341.0288,230.13 Q340.4038,229.5519 339.81,229.2863 Q339.2163,229.005 338.5913,229.005 Q337.2475,229.005 336.56,230.0831 Q335.8725,231.1456 335.8725,233.2394 Q335.8725,235.3331 336.56,236.4113 Q337.2475,237.4738 338.5913,237.4738 Q339.2163,237.4738 339.81,237.2081 Q340.4038,236.9269 341.0288,236.3488 L341.0288,239.0675 Z " fill="#000000"/><text fill="#000000" font-family="sans-serif" font-size="14" lengthAdjust="spacing" textLength="74.9287" x="352.06" y="238.2736">Instruction</text><line style="stroke:#181818;stroke-width:0.5;" x1="324.06" x2="428.9887" y1="249.4269" y2="249.4269"/><line style="stroke:#181818;stroke-width:0.5;" x1="324.06" x2="428.9887" y1="257.4269" y2="257.4269"/></g><!--class FormResponse--><g class="entity" data-qualified-name="Runtime Layer.FormResponse" data-source-line="23" id="ent0010"><rect fill="#F1F1F1" height="48" rx="2.5" ry="2.5" style="stroke:#181818;stroke-width:0.5;" width="135.8789" x="665.84" y="134.4269"/><ellipse cx="680.84" cy="150.4269" fill="#ADD1B2" rx="11" ry="11" style="stroke:#181818;stroke-width:1;"/><path d="M683.8088,156.0675 Q683.2306,156.3644 682.59,156.505 Q681.9494,156.6613 681.2463,156.6613 Q678.7463,156.6613 677.4181,155.0206 Q676.1056,153.3644 676.1056,150.2394 Q676.1056,147.1144 677.4181,145.4581 Q678.7463,143.8019 681.2463,143.8019 Q681.9494,143.8019 682.59,143.9581 Q683.2463,144.1144 683.8088,144.4113 L683.8088,147.13 Q683.1838,146.5519 682.59,146.2863 Q681.9963,146.005 681.3713,146.005 Q680.0275,146.005 679.34,147.0831 Q678.6525,148.1456 678.6525,150.2394 Q678.6525,152.3331 679.34,153.4113 Q680.0275,154.4738 681.3713,154.4738 Q681.9963,154.4738 682.59,154.2081 Q683.1838,153.9269 683.8088,153.3488 L683.8088,156.0675 Z " fill="#000000"/><text fill="#000000" font-family="sans-serif" font-size="14" lengthAdjust="spacing" textLength="103.8789" x="694.84" y="155.2736">FormResponse</text><line style="stroke:#181818;stroke-width:0.5;" x1="666.84" x2="800.7189" y1="166.4269" y2="166.4269"/><line style="stroke:#181818;stroke-width:0.5;" x1="666.84" x2="800.7189" y1="174.4269" y2="174.4269"/></g><g class="entity" data-qualified-name="GMN17" data-source-line="34" id="ent0018"><path d="M503.75,43.2969 L503.75,83.5625 A0,0 0 0 0 503.75,83.5625 L729.81,83.5625 L733.81,133.9669 L737.81,83.5625 L963.8047,83.5625 A0,0 0 0 0 963.8047,83.5625 L963.8047,53.2969 L953.8047,43.2969 L503.75,43.2969 A0,0 0 0 0 503.75,43.2969" fill="#FEFFDD" style="stroke:#181818;stroke-width:0.5;"/><path d="M953.8047,43.2969 L953.8047,53.2969 L963.8047,53.2969 L953.8047,43.2969" fill="#FEFFDD" style="stroke:#181818;stroke-width:0.5;"/><text fill="#000000" font-family="sans-serif" font-size="13" lengthAdjust="spacing" textLength="439.0547" x="509.75" y="60.3638">getEffectiveSteps() resolves due steps from JourneyTemplateEntry,</text><text fill="#000000" font-family="sans-serif" font-size="13" lengthAdjust="spacing" textLength="344.3286" x="509.75" y="75.4966">while Instruction rows are persisted runtime entities.</text></g><!--link JourneyTemplate to PatientJourney--><g class="link" data-entity-1="ent0003" data-entity-2="ent0008" data-link-type="dependency" data-source-line="26" id="lnk11"><path codeLine="26" d="M212.12,120.4269 C289.69,120.4269 398.81,120.4269 398.81,120.4269 C398.81,120.4269 398.81,120.6969 398.81,128.1469" fill="none" id="JourneyTemplate-to-PatientJourney" style="stroke:#181818;stroke-width:1;"/><polygon fill="#181818" points="398.81,134.1469,402.81,125.1469,398.81,129.1469,394.81,125.1469,398.81,134.1469" style="stroke:#181818;stroke-width:1;"/><text fill="#000000" font-family="sans-serif" font-size="13" lengthAdjust="spacing" textLength="146.9102" x="313.32" y="116.4938">assignPatientJourney()</text></g><!--link PatientJourney to JourneyTemplate--><g class="link" data-entity-1="ent0008" data-entity-2="ent0003" data-link-type="dependency" data-source-line="31" id="lnk16"><path codeLine="31" d="M353.81,133.9469 C353.81,120.4669 353.81,106.4269 353.81,106.4269 C353.81,106.4269 281.04,106.4269 218.27,106.4269" fill="none" id="PatientJourney-to-JourneyTemplate" style="stroke:#181818;stroke-width:1;"/><polygon fill="#181818" points="212.27,106.4269,221.27,110.4269,217.27,106.4269,221.27,102.4269,212.27,106.4269" style="stroke:#181818;stroke-width:1;"/><text fill="#000000" font-family="sans-serif" font-size="13" lengthAdjust="spacing" textLength="122.6938" x="297.8" y="102.4938">journeyTemplateId</text></g><!--link JourneyTemplateInstruction to Instruction--><g class="link" data-entity-1="ent0005" data-entity-2="ent0009" data-link-type="dependency" data-source-line="27" id="lnk12"><path codeLine="27" d="M249.64,261.9269 C275.17,261.9269 295.1,261.9269 316.81,261.9269" fill="none" id="JourneyTemplateInstruction-to-Instruction" style="stroke:#181818;stroke-width:1;"/><polygon fill="#181818" points="322.81,261.9269,313.81,257.9269,317.81,261.9269,313.81,265.9269,322.81,261.9269" style="stroke:#181818;stroke-width:1;"/><text fill="#000000" font-family="sans-serif" font-size="13" lengthAdjust="spacing" textLength="169.7681" x="116.23" y="257.9938">instantiate on assignment</text></g><!--link InstructionTemplate to Instruction--><g class="link" data-entity-1="ent0006" data-entity-2="ent0009" data-link-type="dependency" data-source-line="28" id="lnk13"><path codeLine="28" d="M223.03,199.9269 C291.96,199.9269 376.81,199.9269 376.81,199.9269 C376.81,199.9269 376.81,202.1569 376.81,211.2869" fill="none" id="InstructionTemplate-to-Instruction" style="stroke:#181818;stroke-width:1;"/><polygon fill="#181818" points="376.81,217.2869,380.81,208.2869,376.81,212.2869,372.81,208.2869,376.81,217.2869" style="stroke:#181818;stroke-width:1;"/><text fill="#000000" font-family="sans-serif" font-size="13" lengthAdjust="spacing" textLength="142.9683" x="309.6" y="212.9938">instructionTemplateId</text></g><!--link JourneyTemplateEntry to FormResponse--><g class="link" data-entity-1="ent0004" data-entity-2="ent0010" data-link-type="dependency" data-source-line="29" id="lnk14"><path codeLine="29" d="M230.84,365.4269 C399.37,365.4269 733.81,365.4269 733.81,365.4269 C733.81,365.4269 733.81,243.1769 733.81,188.5769" fill="none" id="JourneyTemplateEntry-to-FormResponse" style="stroke:#181818;stroke-width:1;"/><polygon fill="#181818" points="733.81,182.5769,729.81,191.5769,733.81,187.5769,737.81,191.5769,733.81,182.5769" style="stroke:#181818;stroke-width:1;"/><text fill="#000000" font-family="sans-serif" font-size="13" lengthAdjust="spacing" textLength="157.2822" x="415.75" y="378.4938">journeyTemplateEntryId</text></g><!--link PatientJourney to FormResponse--><g class="link" data-entity-1="ent0008" data-entity-2="ent0010" data-link-type="dependency" data-source-line="30" id="lnk15"><path codeLine="30" d="M444.14,158.4269 C507.56,158.4269 595.9,158.4269 659.53,158.4269" fill="none" id="PatientJourney-to-FormResponse" style="stroke:#181818;stroke-width:1;"/><polygon fill="#181818" points="665.53,158.4269,656.53,154.4269,660.53,158.4269,656.53,162.4269,665.53,158.4269" style="stroke:#181818;stroke-width:1;"/><text fill="#000000" font-family="sans-serif" font-size="13" lengthAdjust="spacing" textLength="107.6499" x="446.83" y="171.4938">patientJourneyId</text></g><?plantuml-src TLFBRjj03BplLn3f8GbGn-YXG6eKFHIGW1Gz14b_O2jH4bDfTq5IDeoY_rxAjWp9aOzBpWo7Zxs5vvvJ5Dp0In-KEeIlgs-WsANMAy9l2YM5MjmjlCQU2uHOWNAlpSP20CB5sYTQ2_AM2bmdhuH1VnWsu5uUL1PXRyVy2qfijyZlO4M3dPTr5RaxQ3WbRN6qkFerslj-iWTv6tVEjLWfQ0Ickb4eYR5GYi797mh9i--WfO2wJzO6QnCd2Mby6NUc1PLl1PqRk3xKLlNcNEwdtoFVm8Sypn-pJ_3N0HIj5u5JloFmMZmBoljhoQSWDjYZuH4oYPsr_ysyZLiRhMMF-UVioyJQysmZIyhdM6xZjfMa6EHGvi8WhEmovdAm0IDI7URXktjtlRc3pFIz0RANjpw68XOuIdQcvnO6S8L_WNegtTBm3-HfdyP-My0P_QBJ1UBys9SfbpDyLyveBiJXgqNLsDaoQjIigeRJtUAhOfAxU-3ZJn4eUmGPWb1nx1OFxADfx1gowvXEYUDEm3D2GXOoYHBuT3jccSouF3WC9Gnct7y0?></g></svg>