<?plantuml 1.2026.2?><svg xmlns="http://www.w3.org/2000/svg" xmlns:xlink="http://www.w3.org/1999/xlink" contentStyleType="text/css" data-diagram-type="CLASS" height="347px" preserveAspectRatio="none" style="width:1004px;height:347px;background:#FFFFFF;" version="1.1" viewBox="0 0 1004 347" width="1004px" zoomAndPan="magnify"><title>Runtime Model</title><defs/><g><g class="title" data-source-line="8"><text fill="#000000" font-family="sans-serif" font-size="14" font-weight="bold" lengthAdjust="spacing" textLength="119.0273" x="435.8013" y="22.9951">Runtime Model</text></g><!--cluster Runtime Core--><g class="cluster" data-qualified-name="Runtime Core" data-source-line="17" id="ent0002"><path d="M8.5,43.2969 L116.9541,43.2969 A3.75,3.75 0 0 1 119.4541,45.7969 L126.4541,65.5938 L995.13,65.5938 A2.5,2.5 0 0 1 997.63,68.0938 L997.63,206.7969 A2.5,2.5 0 0 1 995.13,209.2969 L8.5,209.2969 A2.5,2.5 0 0 1 6,206.7969 L6,45.7969 A2.5,2.5 0 0 1 8.5,43.2969" fill="#E8F5E9" style="stroke:#000000;stroke-width:1.5;"/><line style="stroke:#000000;stroke-width:1.5;" x1="6" x2="126.4541" y1="65.5938" y2="65.5938"/><text fill="#000000" font-family="sans-serif" font-size="14" font-weight="bold" lengthAdjust="spacing" textLength="107.4541" x="10" y="58.292">Runtime Core</text></g><!--cluster Research Runtime--><g class="cluster" data-qualified-name="Research Runtime" data-source-line="25" id="ent0008"><path d="M837.19,233.2969 L982.0728,233.2969 A3.75,3.75 0 0 1 984.5728,235.7969 L991.5728,255.5938 L991.19,255.5938 A2.5,2.5 0 0 1 993.69,258.0938 L993.69,321.7969 A2.5,2.5 0 0 1 991.19,324.2969 L837.19,324.2969 A2.5,2.5 0 0 1 834.69,321.7969 L834.69,235.7969 A2.5,2.5 0 0 1 837.19,233.2969" fill="#F3E5F5" style="stroke:#000000;stroke-width:1.5;"/><line style="stroke:#000000;stroke-width:1.5;" x1="834.69" x2="991.5728" y1="255.5938" y2="255.5938"/><text fill="#000000" font-family="sans-serif" font-size="14" font-weight="bold" lengthAdjust="spacing" textLength="143.8828" x="838.69" y="248.292">Research Runtime</text></g><!--class EpisodeOfCare--><g class="entity" data-qualified-name="Runtime Core.EpisodeOfCare" data-source-line="18" id="ent0003"><rect fill="#FFFFFF" height="40" rx="2.5" ry="2.5" style="stroke:#181818;stroke-width:0.5;" width="135.6533" x="22" y="78.2969"/><ellipse cx="37" cy="94.2969" fill="#ADD1B2" rx="11" ry="11" style="stroke:#181818;stroke-width:1;"/><path d="M39.9688,99.9375 Q39.3906,100.2344 38.75,100.375 Q38.1094,100.5313 37.4063,100.5313 Q34.9063,100.5313 33.5781,98.8906 Q32.2656,97.2344 32.2656,94.1094 Q32.2656,90.9844 33.5781,89.3281 Q34.9063,87.6719 37.4063,87.6719 Q38.1094,87.6719 38.75,87.8281 Q39.4063,87.9844 39.9688,88.2813 L39.9688,91 Q39.3438,90.4219 38.75,90.1563 Q38.1563,89.875 37.5313,89.875 Q36.1875,89.875 35.5,90.9531 Q34.8125,92.0156 34.8125,94.1094 Q34.8125,96.2031 35.5,97.2813 Q36.1875,98.3438 37.5313,98.3438 Q38.1563,98.3438 38.75,98.0781 Q39.3438,97.7969 39.9688,97.2188 L39.9688,99.9375 Z " fill="#000000"/><text fill="#000000" font-family="sans-serif" font-size="14" lengthAdjust="spacing" textLength="103.6533" x="51" y="99.1436">EpisodeOfCare</text><line style="stroke:#181818;stroke-width:0.5;" x1="23" x2="156.6533" y1="110.2969" y2="110.2969"/></g><!--class PatientJourney--><g class="entity" data-qualified-name="Runtime Core.PatientJourney" data-source-line="19" id="ent0004"><rect fill="#FFFFFF" height="40" rx="2.5" ry="2.5" style="stroke:#181818;stroke-width:0.5;" width="134.4707" x="425.34" y="114.2969"/><ellipse cx="440.34" cy="130.2969" fill="#ADD1B2" rx="11" ry="11" style="stroke:#181818;stroke-width:1;"/><path d="M443.3088,135.9375 Q442.7306,136.2344 442.09,136.375 Q441.4494,136.5313 440.7463,136.5313 Q438.2463,136.5313 436.9181,134.8906 Q435.6056,133.2344 435.6056,130.1094 Q435.6056,126.9844 436.9181,125.3281 Q438.2463,123.6719 440.7463,123.6719 Q441.4494,123.6719 442.09,123.8281 Q442.7463,123.9844 443.3088,124.2813 L443.3088,127 Q442.6838,126.4219 442.09,126.1563 Q441.4963,125.875 440.8713,125.875 Q439.5275,125.875 438.84,126.9531 Q438.1525,128.0156 438.1525,130.1094 Q438.1525,132.2031 438.84,133.2813 Q439.5275,134.3438 440.8713,134.3438 Q441.4963,134.3438 442.09,134.0781 Q442.6838,133.7969 443.3088,133.2188 L443.3088,135.9375 Z " fill="#000000"/><text fill="#000000" font-family="sans-serif" font-size="14" lengthAdjust="spacing" textLength="102.4707" x="454.34" y="135.1436">PatientJourney</text><line style="stroke:#181818;stroke-width:0.5;" x1="426.34" x2="558.8107" y1="146.2969" y2="146.2969"/></g><!--class Instruction--><g class="entity" data-qualified-name="Runtime Core.Instruction" data-source-line="20" id="ent0005"><rect fill="#FFFFFF" height="40" rx="2.5" ry="2.5" style="stroke:#181818;stroke-width:0.5;" width="106.9287" x="860.22" y="153.2969"/><ellipse cx="875.22" cy="169.2969" fill="#ADD1B2" rx="11" ry="11" style="stroke:#181818;stroke-width:1;"/><path d="M878.1888,174.9375 Q877.6106,175.2344 876.97,175.375 Q876.3294,175.5313 875.6263,175.5313 Q873.1263,175.5313 871.7981,173.8906 Q870.4856,172.2344 870.4856,169.1094 Q870.4856,165.9844 871.7981,164.3281 Q873.1263,162.6719 875.6263,162.6719 Q876.3294,162.6719 876.97,162.8281 Q877.6263,162.9844 878.1888,163.2813 L878.1888,166 Q877.5638,165.4219 876.97,165.1563 Q876.3763,164.875 875.7513,164.875 Q874.4075,164.875 873.72,165.9531 Q873.0325,167.0156 873.0325,169.1094 Q873.0325,171.2031 873.72,172.2813 Q874.4075,173.3438 875.7513,173.3438 Q876.3763,173.3438 876.97,173.0781 Q877.5638,172.7969 878.1888,172.2188 L878.1888,174.9375 Z " fill="#000000"/><text fill="#000000" font-family="sans-serif" font-size="14" lengthAdjust="spacing" textLength="74.9287" x="889.22" y="174.1436">Instruction</text><line style="stroke:#181818;stroke-width:0.5;" x1="861.22" x2="966.1487" y1="185.2969" y2="185.2969"/></g><!--class FormResponse--><g class="entity" data-qualified-name="Runtime Core.FormResponse" data-source-line="21" id="ent0006"><rect fill="#FFFFFF" height="40" rx="2.5" ry="2.5" style="stroke:#181818;stroke-width:0.5;" width="135.8789" x="845.75" y="78.2969"/><ellipse cx="860.75" cy="94.2969" fill="#ADD1B2" rx="11" ry="11" style="stroke:#181818;stroke-width:1;"/><path d="M863.7188,99.9375 Q863.1406,100.2344 862.5,100.375 Q861.8594,100.5313 861.1563,100.5313 Q858.6563,100.5313 857.3281,98.8906 Q856.0156,97.2344 856.0156,94.1094 Q856.0156,90.9844 857.3281,89.3281 Q858.6563,87.6719 861.1563,87.6719 Q861.8594,87.6719 862.5,87.8281 Q863.1563,87.9844 863.7188,88.2813 L863.7188,91 Q863.0938,90.4219 862.5,90.1563 Q861.9063,89.875 861.2813,89.875 Q859.9375,89.875 859.25,90.9531 Q858.5625,92.0156 858.5625,94.1094 Q858.5625,96.2031 859.25,97.2813 Q859.9375,98.3438 861.2813,98.3438 Q861.9063,98.3438 862.5,98.0781 Q863.0938,97.7969 863.7188,97.2188 L863.7188,99.9375 Z " fill="#000000"/><text fill="#000000" font-family="sans-serif" font-size="14" lengthAdjust="spacing" textLength="103.8789" x="874.75" y="99.1436">FormResponse</text><line style="stroke:#181818;stroke-width:0.5;" x1="846.75" x2="980.6289" y1="110.2969" y2="110.2969"/></g><!--class JournalDraft--><g class="entity" data-qualified-name="Runtime Core.JournalDraft" data-source-line="22" id="ent0007"><rect fill="#FFFFFF" height="40" rx="2.5" ry="2.5" style="stroke:#181818;stroke-width:0.5;" width="116.1982" x="31.73" y="153.2969"/><ellipse cx="46.73" cy="169.2969" fill="#ADD1B2" rx="11" ry="11" style="stroke:#181818;stroke-width:1;"/><path d="M49.6988,174.9375 Q49.1206,175.2344 48.48,175.375 Q47.8394,175.5313 47.1363,175.5313 Q44.6363,175.5313 43.3081,173.8906 Q41.9956,172.2344 41.9956,169.1094 Q41.9956,165.9844 43.3081,164.3281 Q44.6363,162.6719 47.1363,162.6719 Q47.8394,162.6719 48.48,162.8281 Q49.1363,162.9844 49.6988,163.2813 L49.6988,166 Q49.0738,165.4219 48.48,165.1563 Q47.8863,164.875 47.2613,164.875 Q45.9175,164.875 45.23,165.9531 Q44.5425,167.0156 44.5425,169.1094 Q44.5425,171.2031 45.23,172.2813 Q45.9175,173.3438 47.2613,173.3438 Q47.8863,173.3438 48.48,173.0781 Q49.0738,172.7969 49.6988,172.2188 L49.6988,174.9375 Z " fill="#000000"/><text fill="#000000" font-family="sans-serif" font-size="14" lengthAdjust="spacing" textLength="84.1982" x="60.73" y="174.1436">JournalDraft</text><line style="stroke:#181818;stroke-width:0.5;" x1="32.73" x2="146.9282" y1="185.2969" y2="185.2969"/></g><!--class Consent--><g class="entity" data-qualified-name="Research Runtime.Consent" data-source-line="26" id="ent0009"><rect fill="#FFFFFF" height="40" rx="2.5" ry="2.5" style="stroke:#181818;stroke-width:0.5;" width="89.4834" x="868.95" y="268.2969"/><ellipse cx="883.95" cy="284.2969" fill="#ADD1B2" rx="11" ry="11" style="stroke:#181818;stroke-width:1;"/><path d="M886.9188,289.9375 Q886.3406,290.2344 885.7,290.375 Q885.0594,290.5313 884.3563,290.5313 Q881.8563,290.5313 880.5281,288.8906 Q879.2156,287.2344 879.2156,284.1094 Q879.2156,280.9844 880.5281,279.3281 Q881.8563,277.6719 884.3563,277.6719 Q885.0594,277.6719 885.7,277.8281 Q886.3563,277.9844 886.9188,278.2813 L886.9188,281 Q886.2938,280.4219 885.7,280.1563 Q885.1063,279.875 884.4813,279.875 Q883.1375,279.875 882.45,280.9531 Q881.7625,282.0156 881.7625,284.1094 Q881.7625,286.2031 882.45,287.2813 Q883.1375,288.3438 884.4813,288.3438 Q885.1063,288.3438 885.7,288.0781 Q886.2938,287.7969 886.9188,287.2188 L886.9188,289.9375 Z " fill="#000000"/><text fill="#000000" font-family="sans-serif" font-size="14" lengthAdjust="spacing" textLength="57.4834" x="897.95" y="289.1436">Consent</text><line style="stroke:#181818;stroke-width:0.5;" x1="869.95" x2="957.4334" y1="300.2969" y2="300.2969"/></g><g class="entity" data-qualified-name="GMN14" data-source-line="35" id="ent0015"><path d="M283.92,225.1569 L283.92,265.4225 L701.2232,265.4225 L701.2232,235.1569 L691.2232,225.1569 L283.92,225.1569" fill="#FEFFDD" style="stroke:#181818;stroke-width:0.5;"/><path d="M691.2232,225.1569 L691.2232,235.1569 L701.2232,235.1569 L691.2232,225.1569" fill="#FEFFDD" style="stroke:#181818;stroke-width:1;"/><text fill="#000000" font-family="sans-serif" font-size="13" lengthAdjust="spacing" textLength="238.8496" x="289.92" y="242.2238">JournalDraft links to Case via caseId.</text><text fill="#000000" font-family="sans-serif" font-size="13" lengthAdjust="spacing" textLength="396.3032" x="289.92" y="257.3566">Case relations are shown in core-data-model-overview.puml.</text></g><g class="entity" data-qualified-name="GMN17" data-source-line="40" id="ent0018"><path d="M217.65,300.1569 L217.65,340.4225 L767.4859,340.4225 L767.4859,310.1569 L757.4859,300.1569 L217.65,300.1569" fill="#FEFFDD" style="stroke:#181818;stroke-width:0.5;"/><path d="M757.4859,300.1569 L757.4859,310.1569 L767.4859,310.1569 L757.4859,300.1569" fill="#FEFFDD" style="stroke:#181818;stroke-width:1;"/><text fill="#000000" font-family="sans-serif" font-size="13" lengthAdjust="spacing" textLength="397.8394" x="223.65" y="317.2238">Runtime records represent patient-specific state and history.</text><text fill="#000000" font-family="sans-serif" font-size="13" lengthAdjust="spacing" textLength="528.8359" x="223.65" y="332.3566">Template/configuration entities are modeled separately in template-model.puml.</text></g><!--link EpisodeOfCare to PatientJourney--><g class="link" data-entity-1="ent0003" data-entity-2="ent0004" data-link-type="association" data-source-line="29" id="lnk10"><path codeLine="29" d="M152.63,118.3569 C152.63,127.2769 152.63,135.7969 152.63,135.7969 C152.63,135.7969 325.86,135.7969 425,135.7969" fill="none" id="EpisodeOfCare-PatientJourney" style="stroke:#181818;stroke-width:1;"/><text fill="#000000" font-family="sans-serif" font-size="13" lengthAdjust="spacing" textLength="8.271" x="161.2065" y="138.1937">1</text><text fill="#000000" font-family="sans-serif" font-size="13" lengthAdjust="spacing" textLength="6.5" x="410.8686" y="148.9121">*</text></g><!--link PatientJourney to Instruction--><g class="link" data-entity-1="ent0004" data-entity-2="ent0005" data-link-type="association" data-source-line="30" id="lnk11"><path codeLine="30" d="M560.22,135.7969 C679.24,135.7969 913.63,135.7969 913.63,135.7969 C913.63,135.7969 913.63,144.3069 913.63,153.2269" fill="none" id="PatientJourney-Instruction" style="stroke:#181818;stroke-width:1;"/><text fill="#000000" font-family="sans-serif" font-size="13" lengthAdjust="spacing" textLength="8.271" x="567.6223" y="148.7987">1</text><text fill="#000000" font-family="sans-serif" font-size="13" lengthAdjust="spacing" textLength="6.5" x="906.8062" y="142.2146">*</text></g><!--link PatientJourney to Consent--><g class="link" data-entity-1="ent0004" data-entity-2="ent0009" data-link-type="association" data-source-line="31" id="lnk12"><path codeLine="31" d="M560,144.5469 C631.62,144.5469 734.63,144.5469 734.63,144.5469 C734.63,144.5469 734.63,284.2269 734.63,284.2269 C734.63,284.2269 815.46,284.2269 868.5,284.2269" fill="none" id="PatientJourney-Consent" style="stroke:#181818;stroke-width:1;"/><text fill="#000000" font-family="sans-serif" font-size="13" lengthAdjust="spacing" textLength="8.271" x="567.8269" y="158.5624">1</text><text fill="#000000" font-family="sans-serif" font-size="13" lengthAdjust="spacing" textLength="6.5" x="854.5597" y="296.8729">*</text></g><!--link PatientJourney to FormResponse--><g class="link" data-entity-1="ent0004" data-entity-2="ent0006" data-link-type="association" data-source-line="32" id="lnk13"><path codeLine="32" d="M560.29,127.0469 C664.59,127.0469 852.63,127.0469 852.63,127.0469 C852.63,127.0469 852.63,123.3269 852.63,118.5769" fill="none" id="PatientJourney-FormResponse" style="stroke:#181818;stroke-width:1;"/><text fill="#000000" font-family="sans-serif" font-size="13" lengthAdjust="spacing" textLength="24.8066" x="567.9262" y="122.7142">0..1</text><text fill="#000000" font-family="sans-serif" font-size="13" lengthAdjust="spacing" textLength="6.5" x="831.0764" y="137.4313">*</text></g><!--link JournalDraft to GMN14--><g class="link" data-entity-1="ent0007" data-entity-2="ent0015" data-link-type="association" data-source-line="35" id="lnk16"><path d="M89.63,193.7369 C89.63,215.0169 89.63,245.2969 89.63,245.2969 C89.63,245.2969 185.31,245.2969 283.43,245.2969" fill="none" id="JournalDraft-GMN14" style="stroke:#181818;stroke-width:1;stroke-dasharray:7,7;"/></g><!--link GMN14 to GMN17--><g class="link" data-entity-1="ent0015" data-entity-2="ent0018" data-link-type="association" data-source-line="40" id="lnk19"><path d="M492.63,265.7869 C492.63,276.3669 492.63,289.2469 492.63,299.8269" fill="none" id="GMN14-GMN17" style="stroke:#181818;stroke-width:1;stroke-dasharray:7,7;"/></g><?plantuml-src VPFDZjCm4CVlUOfHEAo4b1I4Ai4UAQsqAo5M2ozWx4bjwjYMPzAgGhmxuwJjfXNBAV5y-VUV6T_1qv1J9Bo7vo6mwn5GFkoGG0K36RrY5mDPbwYwW-zno1eXTi1vO7il9W3AUg6IMv2ss2jQ42l6bkcVpbzI8U3nDNSNSq__pLM-k2k1z7Y1_XeD-ghos35mXEosbi6uZBhGLxHp8QciUl0k81-JICXiuyn1LfbuS64BdVA4Cu_sYkYpqhjjZaCmg-XZXeDrZ9Lr1g57gMHeEX1ZnbXk4COaIMgBK9ynLp5Z3M_M7pVBzIVuNS5K7DR9aIZurgrKnelrILelqtYSEdOnFmIIva_2phQDjEqPAScaNl8VftPzoQhZwiyS1mbLrlRSFa7QV5WlDyiPqggK2cFU5HtKxsje6gZVrhU0ryTvu1pvzQZpbRSHxzhs9UXAQHKYusdQifDNWk7gM0Q_ex8RAqK8UwT0oy-3QILmD5rM7OfAil4Gm0NGChB6A5PDNtQiYNlCUuU7DWszRokKHr8WJYW_8tFifUHvuhA1CHkIRyfOr46Qr3MKKBlEQHYVo_ZQh2EE-LYGVc2VX0SNEeREROSyiiqUfp2EG6Y0i2mgepyMO3vbJhotc7y1?></g></svg>