<?plantuml 1.2026.2?><svg xmlns="http://www.w3.org/2000/svg" xmlns:xlink="http://www.w3.org/1999/xlink" contentStyleType="text/css" data-diagram-type="CLASS" height="331px" preserveAspectRatio="none" style="width:903px;height:331px;background:#FFFFFF;" version="1.1" viewBox="0 0 903 331" width="903px" zoomAndPan="magnify"><title>Template Model</title><defs/><g><g class="title" data-source-line="8"><text fill="#000000" font-family="sans-serif" font-size="14" font-weight="bold" lengthAdjust="spacing" textLength="126.8271" x="381.1364" y="22.9951">Template Model</text></g><!--cluster Journey Templates--><g class="cluster" data-qualified-name="Journey Templates" data-source-line="17" id="ent0002"><path d="M172.37,158.2969 L320.9511,158.2969 A3.75,3.75 0 0 1 323.4511,160.7969 L330.4511,180.5938 L637.01,180.5938 A2.5,2.5 0 0 1 639.51,183.0938 L639.51,321.7969 A2.5,2.5 0 0 1 637.01,324.2969 L172.37,324.2969 A2.5,2.5 0 0 1 169.87,321.7969 L169.87,160.7969 A2.5,2.5 0 0 1 172.37,158.2969" fill="#FFF8E1" style="stroke:#000000;stroke-width:1.5;"/><line style="stroke:#000000;stroke-width:1.5;" x1="169.87" x2="330.4511" y1="180.5938" y2="180.5938"/><text fill="#000000" font-family="sans-serif" font-size="14" font-weight="bold" lengthAdjust="spacing" textLength="147.5811" x="173.87" y="173.292">Journey Templates</text></g><!--cluster Reusable Templates--><g class="cluster" data-qualified-name="Reusable Templates" data-source-line="23" id="ent0006"><path d="M670.01,83.2969 L830.6428,83.2969 A3.75,3.75 0 0 1 833.1428,85.7969 L840.1428,105.5938 L893.6,105.5938 A2.5,2.5 0 0 1 896.1,108.0938 L896.1,321.7969 A2.5,2.5 0 0 1 893.6,324.2969 L670.01,324.2969 A2.5,2.5 0 0 1 667.51,321.7969 L667.51,85.7969 A2.5,2.5 0 0 1 670.01,83.2969" fill="#FFF3E0" style="stroke:#000000;stroke-width:1.5;"/><line style="stroke:#000000;stroke-width:1.5;" x1="667.51" x2="840.1428" y1="105.5938" y2="105.5938"/><text fill="#000000" font-family="sans-serif" font-size="14" font-weight="bold" lengthAdjust="spacing" textLength="159.6328" x="671.51" y="98.292">Reusable Templates</text></g><!--cluster Rules--><g class="cluster" data-qualified-name="Rules" data-source-line="29" id="ent0010"><path d="M8.5,205.2969 L52.874,205.2969 A3.75,3.75 0 0 1 55.374,207.7969 L62.374,227.5938 L139.37,227.5938 A2.5,2.5 0 0 1 141.87,230.0938 L141.87,293.7969 A2.5,2.5 0 0 1 139.37,296.2969 L8.5,296.2969 A2.5,2.5 0 0 1 6,293.7969 L6,207.7969 A2.5,2.5 0 0 1 8.5,205.2969" fill="#EDE7F6" style="stroke:#000000;stroke-width:1.5;"/><line style="stroke:#000000;stroke-width:1.5;" x1="6" x2="62.374" y1="227.5938" y2="227.5938"/><text fill="#000000" font-family="sans-serif" font-size="14" font-weight="bold" lengthAdjust="spacing" textLength="43.374" x="10" y="220.292">Rules</text></g><!--cluster Research Config--><g class="cluster" data-qualified-name="Research Config" data-source-line="33" id="ent0012"><path d="M422.84,43.2969 L552.2052,43.2969 A3.75,3.75 0 0 1 554.7052,45.7969 L561.7052,65.5938 L597.9,65.5938 A2.5,2.5 0 0 1 600.4,68.0938 L600.4,131.7969 A2.5,2.5 0 0 1 597.9,134.2969 L422.84,134.2969 A2.5,2.5 0 0 1 420.34,131.7969 L420.34,45.7969 A2.5,2.5 0 0 1 422.84,43.2969" fill="#F3E5F5" style="stroke:#000000;stroke-width:1.5;"/><line style="stroke:#000000;stroke-width:1.5;" x1="420.34" x2="561.7052" y1="65.5938" y2="65.5938"/><text fill="#000000" font-family="sans-serif" font-size="14" font-weight="bold" lengthAdjust="spacing" textLength="128.3652" x="424.34" y="58.292">Research Config</text></g><!--class JourneyTemplate--><g class="entity" data-qualified-name="Journey Templates.JourneyTemplate" data-source-line="18" id="ent0003"><rect fill="#FFFFFF" height="40" rx="2.5" ry="2.5" style="stroke:#181818;stroke-width:0.5;" width="151.3555" x="185.87" y="240.2969"/><ellipse cx="200.87" cy="256.2969" fill="#ADD1B2" rx="11" ry="11" style="stroke:#181818;stroke-width:1;"/><path d="M203.8388,261.9375 Q203.2606,262.2344 202.62,262.375 Q201.9794,262.5313 201.2763,262.5313 Q198.7763,262.5313 197.4481,260.8906 Q196.1356,259.2344 196.1356,256.1094 Q196.1356,252.9844 197.4481,251.3281 Q198.7763,249.6719 201.2763,249.6719 Q201.9794,249.6719 202.62,249.8281 Q203.2763,249.9844 203.8388,250.2813 L203.8388,253 Q203.2138,252.4219 202.62,252.1563 Q202.0263,251.875 201.4013,251.875 Q200.0575,251.875 199.37,252.9531 Q198.6825,254.0156 198.6825,256.1094 Q198.6825,258.2031 199.37,259.2813 Q200.0575,260.3438 201.4013,260.3438 Q202.0263,260.3438 202.62,260.0781 Q203.2138,259.7969 203.8388,259.2188 L203.8388,261.9375 Z " fill="#000000"/><text fill="#000000" font-family="sans-serif" font-size="14" lengthAdjust="spacing" textLength="119.3555" x="214.87" y="261.1436">JourneyTemplate</text><line style="stroke:#181818;stroke-width:0.5;" x1="186.87" x2="336.2255" y1="272.2969" y2="272.2969"/></g><!--class JourneyTemplateEntry--><g class="entity" data-qualified-name="Journey Templates.JourneyTemplateEntry" data-source-line="19" id="ent0004"><rect fill="#FFFFFF" height="40" rx="2.5" ry="2.5" style="stroke:#181818;stroke-width:0.5;" width="188.6045" x="416.07" y="193.2969"/><ellipse cx="431.07" cy="209.2969" fill="#ADD1B2" rx="11" ry="11" style="stroke:#181818;stroke-width:1;"/><path d="M434.0388,214.9375 Q433.4606,215.2344 432.82,215.375 Q432.1794,215.5313 431.4763,215.5313 Q428.9763,215.5313 427.6481,213.8906 Q426.3356,212.2344 426.3356,209.1094 Q426.3356,205.9844 427.6481,204.3281 Q428.9763,202.6719 431.4763,202.6719 Q432.1794,202.6719 432.82,202.8281 Q433.4763,202.9844 434.0388,203.2813 L434.0388,206 Q433.4138,205.4219 432.82,205.1563 Q432.2263,204.875 431.6013,204.875 Q430.2575,204.875 429.57,205.9531 Q428.8825,207.0156 428.8825,209.1094 Q428.8825,211.2031 429.57,212.2813 Q430.2575,213.3438 431.6013,213.3438 Q432.2263,213.3438 432.82,213.0781 Q433.4138,212.7969 434.0388,212.2188 L434.0388,214.9375 Z " fill="#000000"/><text fill="#000000" font-family="sans-serif" font-size="14" lengthAdjust="spacing" textLength="156.6045" x="445.07" y="214.1436">JourneyTemplateEntry</text><line style="stroke:#181818;stroke-width:0.5;" x1="417.07" x2="603.6745" y1="225.2969" y2="225.2969"/></g><!--class JourneyTemplateInstruction--><g class="entity" data-qualified-name="Journey Templates.JourneyTemplateInstruction" data-source-line="20" id="ent0005"><rect fill="#FFFFFF" height="40" rx="2.5" ry="2.5" style="stroke:#181818;stroke-width:0.5;" width="226.2842" x="397.23" y="268.2969"/><ellipse cx="412.23" cy="284.2969" fill="#ADD1B2" rx="11" ry="11" style="stroke:#181818;stroke-width:1;"/><path d="M415.1988,289.9375 Q414.6206,290.2344 413.98,290.375 Q413.3394,290.5313 412.6363,290.5313 Q410.1363,290.5313 408.8081,288.8906 Q407.4956,287.2344 407.4956,284.1094 Q407.4956,280.9844 408.8081,279.3281 Q410.1363,277.6719 412.6363,277.6719 Q413.3394,277.6719 413.98,277.8281 Q414.6363,277.9844 415.1988,278.2813 L415.1988,281 Q414.5738,280.4219 413.98,280.1563 Q413.3863,279.875 412.7613,279.875 Q411.4175,279.875 410.73,280.9531 Q410.0425,282.0156 410.0425,284.1094 Q410.0425,286.2031 410.73,287.2813 Q411.4175,288.3438 412.7613,288.3438 Q413.3863,288.3438 413.98,288.0781 Q414.5738,287.7969 415.1988,287.2188 L415.1988,289.9375 Z " fill="#000000"/><text fill="#000000" font-family="sans-serif" font-size="14" lengthAdjust="spacing" textLength="194.2842" x="426.23" y="289.1436">JourneyTemplateInstruction</text><line style="stroke:#181818;stroke-width:0.5;" x1="398.23" x2="622.5142" y1="300.2969" y2="300.2969"/></g><!--class QuestionnaireTemplate--><g class="entity" data-qualified-name="Reusable Templates.QuestionnaireTemplate" data-source-line="24" id="ent0007"><rect fill="#FFFFFF" height="40" rx="2.5" ry="2.5" style="stroke:#181818;stroke-width:0.5;" width="196.5889" x="683.51" y="193.2969"/><ellipse cx="698.51" cy="209.2969" fill="#ADD1B2" rx="11" ry="11" style="stroke:#181818;stroke-width:1;"/><path d="M701.4788,214.9375 Q700.9006,215.2344 700.26,215.375 Q699.6194,215.5313 698.9163,215.5313 Q696.4163,215.5313 695.0881,213.8906 Q693.7756,212.2344 693.7756,209.1094 Q693.7756,205.9844 695.0881,204.3281 Q696.4163,202.6719 698.9163,202.6719 Q699.6194,202.6719 700.26,202.8281 Q700.9163,202.9844 701.4788,203.2813 L701.4788,206 Q700.8538,205.4219 700.26,205.1563 Q699.6663,204.875 699.0413,204.875 Q697.6975,204.875 697.01,205.9531 Q696.3225,207.0156 696.3225,209.1094 Q696.3225,211.2031 697.01,212.2813 Q697.6975,213.3438 699.0413,213.3438 Q699.6663,213.3438 700.26,213.0781 Q700.8538,212.7969 701.4788,212.2188 L701.4788,214.9375 Z " fill="#000000"/><text fill="#000000" font-family="sans-serif" font-size="14" lengthAdjust="spacing" textLength="164.5889" x="712.51" y="214.1436">QuestionnaireTemplate</text><line style="stroke:#181818;stroke-width:0.5;" x1="684.51" x2="879.0989" y1="225.2969" y2="225.2969"/></g><!--class InstructionTemplate--><g class="entity" data-qualified-name="Reusable Templates.InstructionTemplate" data-source-line="25" id="ent0008"><rect fill="#FFFFFF" height="40" rx="2.5" ry="2.5" style="stroke:#181818;stroke-width:0.5;" width="173.1895" x="695.21" y="268.2969"/><ellipse cx="710.21" cy="284.2969" fill="#ADD1B2" rx="11" ry="11" style="stroke:#181818;stroke-width:1;"/><path d="M713.1788,289.9375 Q712.6006,290.2344 711.96,290.375 Q711.3194,290.5313 710.6163,290.5313 Q708.1163,290.5313 706.7881,288.8906 Q705.4756,287.2344 705.4756,284.1094 Q705.4756,280.9844 706.7881,279.3281 Q708.1163,277.6719 710.6163,277.6719 Q711.3194,277.6719 711.96,277.8281 Q712.6163,277.9844 713.1788,278.2813 L713.1788,281 Q712.5538,280.4219 711.96,280.1563 Q711.3663,279.875 710.7413,279.875 Q709.3975,279.875 708.71,280.9531 Q708.0225,282.0156 708.0225,284.1094 Q708.0225,286.2031 708.71,287.2813 Q709.3975,288.3438 710.7413,288.3438 Q711.3663,288.3438 711.96,288.0781 Q712.5538,287.7969 713.1788,287.2188 L713.1788,289.9375 Z " fill="#000000"/><text fill="#000000" font-family="sans-serif" font-size="14" lengthAdjust="spacing" textLength="141.1895" x="724.21" y="289.1436">InstructionTemplate</text><line style="stroke:#181818;stroke-width:0.5;" x1="696.21" x2="867.3995" y1="300.2969" y2="300.2969"/></g><!--class JournalTemplate--><g class="entity" data-qualified-name="Reusable Templates.JournalTemplate" data-source-line="26" id="ent0009"><rect fill="#FFFFFF" height="40" rx="2.5" ry="2.5" style="stroke:#181818;stroke-width:0.5;" width="146.9258" x="708.34" y="118.2969"/><ellipse cx="723.34" cy="134.2969" fill="#ADD1B2" rx="11" ry="11" style="stroke:#181818;stroke-width:1;"/><path d="M726.3088,139.9375 Q725.7306,140.2344 725.09,140.375 Q724.4494,140.5313 723.7463,140.5313 Q721.2463,140.5313 719.9181,138.8906 Q718.6056,137.2344 718.6056,134.1094 Q718.6056,130.9844 719.9181,129.3281 Q721.2463,127.6719 723.7463,127.6719 Q724.4494,127.6719 725.09,127.8281 Q725.7463,127.9844 726.3088,128.2813 L726.3088,131 Q725.6838,130.4219 725.09,130.1563 Q724.4963,129.875 723.8713,129.875 Q722.5275,129.875 721.84,130.9531 Q721.1525,132.0156 721.1525,134.1094 Q721.1525,136.2031 721.84,137.2813 Q722.5275,138.3438 723.8713,138.3438 Q724.4963,138.3438 725.09,138.0781 Q725.6838,137.7969 726.3088,137.2188 L726.3088,139.9375 Z " fill="#000000"/><text fill="#000000" font-family="sans-serif" font-size="14" lengthAdjust="spacing" textLength="114.9258" x="737.34" y="139.1436">JournalTemplate</text><line style="stroke:#181818;stroke-width:0.5;" x1="709.34" x2="854.2658" y1="150.2969" y2="150.2969"/></g><!--class PolicyRule--><g class="entity" data-qualified-name="Rules.PolicyRule" data-source-line="30" id="ent0011"><rect fill="#FFFFFF" height="40" rx="2.5" ry="2.5" style="stroke:#181818;stroke-width:0.5;" width="103.873" x="22" y="240.2969"/><ellipse cx="37" cy="256.2969" fill="#ADD1B2" rx="11" ry="11" style="stroke:#181818;stroke-width:1;"/><path d="M39.9688,261.9375 Q39.3906,262.2344 38.75,262.375 Q38.1094,262.5313 37.4063,262.5313 Q34.9063,262.5313 33.5781,260.8906 Q32.2656,259.2344 32.2656,256.1094 Q32.2656,252.9844 33.5781,251.3281 Q34.9063,249.6719 37.4063,249.6719 Q38.1094,249.6719 38.75,249.8281 Q39.4063,249.9844 39.9688,250.2813 L39.9688,253 Q39.3438,252.4219 38.75,252.1563 Q38.1563,251.875 37.5313,251.875 Q36.1875,251.875 35.5,252.9531 Q34.8125,254.0156 34.8125,256.1094 Q34.8125,258.2031 35.5,259.2813 Q36.1875,260.3438 37.5313,260.3438 Q38.1563,260.3438 38.75,260.0781 Q39.3438,259.7969 39.9688,259.2188 L39.9688,261.9375 Z " fill="#000000"/><text fill="#000000" font-family="sans-serif" font-size="14" lengthAdjust="spacing" textLength="71.873" x="51" y="261.1436">PolicyRule</text><line style="stroke:#181818;stroke-width:0.5;" x1="23" x2="124.873" y1="272.2969" y2="272.2969"/></g><!--class ResearchModule--><g class="entity" data-qualified-name="Research Config.ResearchModule" data-source-line="34" id="ent0013"><rect fill="#FFFFFF" height="40" rx="2.5" ry="2.5" style="stroke:#181818;stroke-width:0.5;" width="148.0605" x="436.34" y="78.2969"/><ellipse cx="451.34" cy="94.2969" fill="#ADD1B2" rx="11" ry="11" style="stroke:#181818;stroke-width:1;"/><path d="M454.3088,99.9375 Q453.7306,100.2344 453.09,100.375 Q452.4494,100.5313 451.7463,100.5313 Q449.2463,100.5313 447.9181,98.8906 Q446.6056,97.2344 446.6056,94.1094 Q446.6056,90.9844 447.9181,89.3281 Q449.2463,87.6719 451.7463,87.6719 Q452.4494,87.6719 453.09,87.8281 Q453.7463,87.9844 454.3088,88.2813 L454.3088,91 Q453.6838,90.4219 453.09,90.1563 Q452.4963,89.875 451.8713,89.875 Q450.5275,89.875 449.84,90.9531 Q449.1525,92.0156 449.1525,94.1094 Q449.1525,96.2031 449.84,97.2813 Q450.5275,98.3438 451.8713,98.3438 Q452.4963,98.3438 453.09,98.0781 Q453.6838,97.7969 454.3088,97.2188 L454.3088,99.9375 Z " fill="#000000"/><text fill="#000000" font-family="sans-serif" font-size="14" lengthAdjust="spacing" textLength="116.0605" x="465.34" y="99.1436">ResearchModule</text><line style="stroke:#181818;stroke-width:0.5;" x1="437.34" x2="583.4005" y1="110.2969" y2="110.2969"/></g><!--link JourneyTemplate to JourneyTemplateEntry--><g class="link" data-entity-1="ent0003" data-entity-2="ent0004" data-link-type="association" data-source-line="37" id="lnk14"><path codeLine="37" d="M261.1,239.8169 C261.1,227.1569 261.1,213.2969 261.1,213.2969 C261.1,213.2969 345.26,213.2969 415.78,213.2969" fill="none" id="JourneyTemplate-JourneyTemplateEntry" style="stroke:#181818;stroke-width:1;"/><text fill="#000000" font-family="sans-serif" font-size="13" lengthAdjust="spacing" textLength="8.271" x="251.9411" y="229.382">1</text><text fill="#000000" font-family="sans-serif" font-size="13" lengthAdjust="spacing" textLength="6.5" x="401.7188" y="225.9904">*</text></g><!--link JourneyTemplate to JourneyTemplateInstruction--><g class="link" data-entity-1="ent0003" data-entity-2="ent0005" data-link-type="association" data-source-line="38" id="lnk15"><path codeLine="38" d="M337.56,272.2969 C356.28,272.2969 376.73,272.2969 396.81,272.2969" fill="none" id="JourneyTemplate-JourneyTemplateInstruction" style="stroke:#181818;stroke-width:1;"/><text fill="#000000" font-family="sans-serif" font-size="13" lengthAdjust="spacing" textLength="8.271" x="345.1991" y="269.799">1</text><text fill="#000000" font-family="sans-serif" font-size="13" lengthAdjust="spacing" textLength="6.5" x="382.6318" y="283.7708">*</text></g><!--link JourneyTemplate to JourneyTemplate--><g class="link" data-entity-1="ent0003" data-entity-2="ent0003" data-link-type="association" data-source-line="39" id="lnk16"><path codeLine="39" d="M185.48,266.9669 C168.85,266.9669 156.1,266.9669 156.1,266.9669 C156.1,266.9669 156.1,294.2969 156.1,294.2969 C156.1,294.2969 367.1,294.2969 367.1,294.2969 C367.1,294.2969 367.1,276.2969 367.1,276.2969 C367.1,276.2969 354.34,276.2969 337.7,276.2969" fill="none" id="JourneyTemplate-JourneyTemplate" style="stroke:#181818;stroke-width:1;"/><text fill="#000000" font-family="sans-serif" font-size="13" lengthAdjust="spacing" textLength="116.5112" x="134.95" y="312.3638">parentTemplateId</text><text fill="#000000" font-family="sans-serif" font-size="13" lengthAdjust="spacing" textLength="24.8066" x="153.1245" y="280.3907">0..1</text><text fill="#000000" font-family="sans-serif" font-size="13" lengthAdjust="spacing" textLength="6.5" x="345.268" y="290.6099">*</text></g><!--link JourneyTemplateEntry to QuestionnaireTemplate--><g class="link" data-entity-1="ent0004" data-entity-2="ent0007" data-link-type="association" data-source-line="40" id="lnk17"><path codeLine="40" d="M604.92,213.2969 C630.32,213.2969 657.85,213.2969 683.45,213.2969" fill="none" id="JourneyTemplateEntry-QuestionnaireTemplate" style="stroke:#181818;stroke-width:1;"/><text fill="#000000" font-family="sans-serif" font-size="13" lengthAdjust="spacing" textLength="70.77" x="573.18" y="209.3638">templateId</text><text fill="#000000" font-family="sans-serif" font-size="13" lengthAdjust="spacing" textLength="6.5" x="612.7133" y="225.9667">*</text><text fill="#000000" font-family="sans-serif" font-size="13" lengthAdjust="spacing" textLength="24.8066" x="650.6883" y="225.9667">0..1</text></g><!--link JourneyTemplateInstruction to InstructionTemplate--><g class="link" data-entity-1="ent0005" data-entity-2="ent0008" data-link-type="association" data-source-line="41" id="lnk18"><path codeLine="41" d="M623.91,288.2969 C647.59,288.2969 672.2,288.2969 694.74,288.2969" fill="none" id="JourneyTemplateInstruction-InstructionTemplate" style="stroke:#181818;stroke-width:1;"/><text fill="#000000" font-family="sans-serif" font-size="13" lengthAdjust="spacing" textLength="6.5" x="631.3917" y="300.8485">*</text><text fill="#000000" font-family="sans-serif" font-size="13" lengthAdjust="spacing" textLength="8.271" x="678.9258" y="301.014">1</text></g><!--link PolicyRule to JourneyTemplate--><g class="link" data-entity-1="ent0011" data-entity-2="ent0003" data-link-type="association" data-source-line="42" id="lnk19"><path codeLine="42" d="M126.2,253.6269 C144.52,253.6269 165.5,253.6269 185.37,253.6269" fill="none" id="PolicyRule-JourneyTemplate" style="stroke:#181818;stroke-width:1;"/><text fill="#000000" font-family="sans-serif" font-size="13" lengthAdjust="spacing" textLength="122.6938" x="32.79" y="249.6938">journeyTemplateId</text><text fill="#000000" font-family="sans-serif" font-size="13" lengthAdjust="spacing" textLength="6.5" x="134.0066" y="265.8198">*</text><text fill="#000000" font-family="sans-serif" font-size="13" lengthAdjust="spacing" textLength="8.271" x="169.4908" y="249.3054">1</text></g><!--link ResearchModule to QuestionnaireTemplate--><g class="link" data-entity-1="ent0013" data-entity-2="ent0007" data-link-type="association" data-source-line="43" id="lnk20"><path codeLine="43" d="M584.84,98.2969 C636.52,98.2969 696.1,98.2969 696.1,98.2969 C696.1,98.2969 696.1,159.9869 696.1,193.0069" fill="none" id="ResearchModule-QuestionnaireTemplate" style="stroke:#181818;stroke-width:1;"/><text fill="#000000" font-family="sans-serif" font-size="13" lengthAdjust="spacing" textLength="130.1079" x="688.83" y="111.3638">entries[].templateId</text><text fill="#000000" font-family="sans-serif" font-size="13" lengthAdjust="spacing" textLength="6.5" x="592.4905" y="111.1086">*</text><text fill="#000000" font-family="sans-serif" font-size="13" lengthAdjust="spacing" textLength="6.5" x="668.5392" y="183.3161">*</text></g><?plantuml-src ZPB1Qjn038RlVWhX7WA1x2Q4j6MFJMreeP2alPKUr1cjFSbunXt9X2NatJksDyvarouzZgJ_roTfJk2c2wrdsi0FQbgBGe1EW_9kQweke1ZleF6QR7O2ttqN587VWeHEwaqC0N1GQspDcbLD3VBwJqVSgnoQG2lXsQBxwEHezyyqsgLqwwrHWpWJ8vPUsRyDf9cbhO1u2AQg1NG4KJrInW_6jHYm0MiSoQwDmmIfVPBW6hL_DAw2BLgc9ACiCdz2zL05tpbzxQqFy5WReQmscg2XwAHvVB1G8DztY91j5655a7yTnvvuEOTtPLb-B2xWAOEn0-oBNcgMueMJi5jAVd4SJpGE_Pm0t577-3lPs9xWiZXF26xJ4nvn9DxpZ6Yd-9lUdHtQ5P-B3-NxfDtDSCu-VS3AX47LS3rynXxqihWghnBbIqay-rvzi0V8Bt8uEuFyD9_Vt__NfoizKfslLej2s43yGEHaSjBP7CkWxIr6izaZH2zPT4a89wzeD7UlrvMdbSVWzmSTTFPsvPFwT1auJXuCySzVgmJzBm00?></g></svg>