<?plantuml 1.2026.1?><svg xmlns="http://www.w3.org/2000/svg" xmlns:xlink="http://www.w3.org/1999/xlink" contentStyleType="text/css" data-diagram-type="SEQUENCE" height="571px" preserveAspectRatio="none" style="width:1275px;height:571px;background:#FFFFFF;" version="1.1" viewBox="0 0 1275 571" width="1275px" zoomAndPan="magnify"><title>Triage &#8594; Policy Evaluation &#8212; Sequence</title><defs/><g><text fill="#000000" font-family="sans-serif" font-size="14" font-weight="bold" lengthAdjust="spacing" textLength="307.4668" x="482.4021" y="27.9951">Triage &#8594; Policy Evaluation &#8212; Sequence</text><g class="participant-lifeline" data-entity-uid="part1" data-qualified-name="Clinician" id="part1-lifeline"><g><title>Clinician</title><rect fill="#000000" fill-opacity="0.00000" height="372.4609" width="8" x="33.6782" y="118.5938"/><line style="stroke:#181818;stroke-width:0.5;stroke-dasharray:5,5;" x1="37" x2="37" y1="118.5938" y2="491.0547"/></g></g><g class="participant-lifeline" data-entity-uid="part2" data-qualified-name="UI" id="part2-lifeline"><g><title>UI</title><rect fill="#000000" fill-opacity="0.00000" height="372.4609" width="8" x="179.3882" y="118.5938"/><line style="stroke:#181818;stroke-width:0.5;stroke-dasharray:5,5;" x1="183.2002" x2="183.2002" y1="118.5938" y2="491.0547"/></g></g><g class="participant-lifeline" data-entity-uid="part3" data-qualified-name="Client" id="part3-lifeline"><g><title>Client</title><rect fill="#000000" fill-opacity="0.00000" height="372.4609" width="8" x="333.3184" y="118.5938"/><line style="stroke:#181818;stroke-width:0.5;stroke-dasharray:5,5;" x1="337.0532" x2="337.0532" y1="118.5938" y2="491.0547"/></g></g><g class="participant-lifeline" data-entity-uid="part4" data-qualified-name="Service" id="part4-lifeline"><g><title>Service</title><rect fill="#000000" fill-opacity="0.00000" height="372.4609" width="8" x="582.7173" y="118.5938"/><line style="stroke:#181818;stroke-width:0.5;stroke-dasharray:5,5;" x1="585.8467" x2="585.8467" y1="118.5938" y2="491.0547"/></g></g><g class="participant-lifeline" data-entity-uid="part5" data-qualified-name="JR" id="part5-lifeline"><g><title>JourneyResolver</title><rect fill="#000000" fill-opacity="0.00000" height="372.4609" width="8" x="867.8218" y="118.5938"/><line style="stroke:#181818;stroke-width:0.5;stroke-dasharray:5,5;" x1="870.9023" x2="870.9023" y1="118.5938" y2="491.0547"/></g></g><g class="participant-lifeline" data-entity-uid="part6" data-qualified-name="PP" id="part6-lifeline"><g><title>PolicyParser</title><rect fill="#000000" fill-opacity="0.00000" height="372.4609" width="8" x="1100.9707" y="118.5938"/><line style="stroke:#181818;stroke-width:0.5;stroke-dasharray:5,5;" x1="1104.3657" x2="1104.3657" y1="118.5938" y2="491.0547"/></g></g><g class="participant participant-head" data-entity-uid="part1" data-qualified-name="Clinician" id="part1-head"><text fill="#000000" font-family="sans-serif" font-size="14" lengthAdjust="spacing" textLength="59.3564" x="5" y="115.292">Clinician</text><ellipse cx="37.6782" cy="50.7969" fill="#E2E2F0" rx="8" ry="8" style="stroke:#181818;stroke-width:0.5;"/><path d="M37.6782,58.7969 L37.6782,85.7969 M24.6782,66.7969 L50.6782,66.7969 M37.6782,85.7969 L24.6782,100.7969 M37.6782,85.7969 L50.6782,100.7969" fill="none" style="stroke:#181818;stroke-width:0.5;"/></g><g class="participant participant-tail" data-entity-uid="part1" data-qualified-name="Clinician" id="part1-tail"><text fill="#000000" font-family="sans-serif" font-size="14" lengthAdjust="spacing" textLength="59.3564" x="5" y="503.0498">Clinician</text><ellipse cx="37.6782" cy="514.8516" fill="#E2E2F0" rx="8" ry="8" style="stroke:#181818;stroke-width:0.5;"/><path d="M37.6782,522.8516 L37.6782,549.8516 M24.6782,530.8516 L50.6782,530.8516 M37.6782,549.8516 L24.6782,564.8516 M37.6782,549.8516 L50.6782,564.8516" fill="none" style="stroke:#181818;stroke-width:0.5;"/></g><g class="participant participant-head" data-entity-uid="part2" data-qualified-name="UI" id="part2-head"><rect fill="#E2E2F0" height="30.2969" rx="2.5" ry="2.5" style="stroke:#181818;stroke-width:0.5;" width="28.376" x="169.2002" y="87.2969"/><text fill="#000000" font-family="sans-serif" font-size="14" lengthAdjust="spacing" textLength="14.376" x="176.2002" y="107.292">UI</text></g><g class="participant participant-tail" data-entity-uid="part2" data-qualified-name="UI" id="part2-tail"><rect fill="#E2E2F0" height="30.2969" rx="2.5" ry="2.5" style="stroke:#181818;stroke-width:0.5;" width="28.376" x="169.2002" y="490.0547"/><text fill="#000000" font-family="sans-serif" font-size="14" lengthAdjust="spacing" textLength="14.376" x="176.2002" y="510.0498">UI</text></g><g class="participant participant-head" data-entity-uid="part3" data-qualified-name="Client" id="part3-head"><rect fill="#E2E2F0" height="30.2969" rx="2.5" ry="2.5" style="stroke:#181818;stroke-width:0.5;" width="54.5303" x="310.0532" y="87.2969"/><text fill="#000000" font-family="sans-serif" font-size="14" lengthAdjust="spacing" textLength="40.5303" x="317.0532" y="107.292">Client</text></g><g class="participant participant-tail" data-entity-uid="part3" data-qualified-name="Client" id="part3-tail"><rect fill="#E2E2F0" height="30.2969" rx="2.5" ry="2.5" style="stroke:#181818;stroke-width:0.5;" width="54.5303" x="310.0532" y="490.0547"/><text fill="#000000" font-family="sans-serif" font-size="14" lengthAdjust="spacing" textLength="40.5303" x="317.0532" y="510.0498">Client</text></g><g class="participant participant-head" data-entity-uid="part4" data-qualified-name="Service" id="part4-head"><rect fill="#E2E2F0" height="30.2969" rx="2.5" ry="2.5" style="stroke:#181818;stroke-width:0.5;" width="65.7412" x="553.8467" y="87.2969"/><text fill="#000000" font-family="sans-serif" font-size="14" lengthAdjust="spacing" textLength="51.7412" x="560.8467" y="107.292">Service</text></g><g class="participant participant-tail" data-entity-uid="part4" data-qualified-name="Service" id="part4-tail"><rect fill="#E2E2F0" height="30.2969" rx="2.5" ry="2.5" style="stroke:#181818;stroke-width:0.5;" width="65.7412" x="553.8467" y="490.0547"/><text fill="#000000" font-family="sans-serif" font-size="14" lengthAdjust="spacing" textLength="51.7412" x="560.8467" y="510.0498">Service</text></g><g class="participant participant-head" data-entity-uid="part5" data-qualified-name="JR" id="part5-head"><rect fill="#E2E2F0" height="30.2969" rx="2.5" ry="2.5" style="stroke:#181818;stroke-width:0.5;" width="127.8389" x="807.9023" y="87.2969"/><text fill="#000000" font-family="sans-serif" font-size="14" lengthAdjust="spacing" textLength="113.8389" x="814.9023" y="107.292">JourneyResolver</text></g><g class="participant participant-tail" data-entity-uid="part5" data-qualified-name="JR" id="part5-tail"><rect fill="#E2E2F0" height="30.2969" rx="2.5" ry="2.5" style="stroke:#181818;stroke-width:0.5;" width="127.8389" x="807.9023" y="490.0547"/><text fill="#000000" font-family="sans-serif" font-size="14" lengthAdjust="spacing" textLength="113.8389" x="814.9023" y="510.0498">JourneyResolver</text></g><g class="participant participant-head" data-entity-uid="part6" data-qualified-name="PP" id="part6-head"><rect fill="#E2E2F0" height="30.2969" rx="2.5" ry="2.5" style="stroke:#181818;stroke-width:0.5;" width="99.21" x="1055.3657" y="87.2969"/><text fill="#000000" font-family="sans-serif" font-size="14" lengthAdjust="spacing" textLength="85.21" x="1062.3657" y="107.292">PolicyParser</text></g><g class="participant participant-tail" data-entity-uid="part6" data-qualified-name="PP" id="part6-tail"><rect fill="#E2E2F0" height="30.2969" rx="2.5" ry="2.5" style="stroke:#181818;stroke-width:0.5;" width="99.21" x="1055.3657" y="490.0547"/><text fill="#000000" font-family="sans-serif" font-size="14" lengthAdjust="spacing" textLength="85.21" x="1062.3657" y="510.0498">PolicyParser</text></g><g class="message" data-entity-1="part1" data-entity-2="part2" id="msg1"><polygon fill="#181818" points="171.3882,145.7266,181.3882,149.7266,171.3882,153.7266,175.3882,149.7266" style="stroke:#181818;stroke-width:1;"/><line style="stroke:#181818;stroke-width:1;" x1="37.6782" x2="177.3882" y1="149.7266" y2="149.7266"/><text fill="#000000" font-family="sans-serif" font-size="13" lengthAdjust="spacing" textLength="121.71" x="44.6782" y="144.6606">submit triage form</text></g><g class="message" data-entity-1="part2" data-entity-2="part3" id="msg2"><polygon fill="#181818" points="325.3184,174.8594,335.3184,178.8594,325.3184,182.8594,329.3184,178.8594" style="stroke:#181818;stroke-width:1;"/><line style="stroke:#181818;stroke-width:1;" x1="183.3882" x2="331.3184" y1="178.8594" y2="178.8594"/><text fill="#000000" font-family="sans-serif" font-size="13" lengthAdjust="spacing" textLength="129.9302" x="190.3882" y="173.7935">triageCase(request)</text></g><g class="message" data-entity-1="part3" data-entity-2="part4" id="msg3"><polygon fill="#181818" points="574.7173,203.9922,584.7173,207.9922,574.7173,211.9922,578.7173,207.9922" style="stroke:#181818;stroke-width:1;"/><line style="stroke:#181818;stroke-width:1;" x1="337.3184" x2="580.7173" y1="207.9922" y2="207.9922"/><text fill="#000000" font-family="sans-serif" font-size="13" lengthAdjust="spacing" textLength="70.0845" x="344.3184" y="202.9263">triageCase</text></g><g class="message" data-entity-1="part4" data-entity-2="part4" id="msg4"><line style="stroke:#181818;stroke-width:1;" x1="586.7173" x2="628.7173" y1="237.125" y2="237.125"/><line style="stroke:#181818;stroke-width:1;" x1="628.7173" x2="628.7173" y1="237.125" y2="250.125"/><line style="stroke:#181818;stroke-width:1;" x1="587.7173" x2="628.7173" y1="250.125" y2="250.125"/><polygon fill="#181818" points="597.7173,246.125,587.7173,250.125,597.7173,254.125,593.7173,250.125" style="stroke:#181818;stroke-width:1;"/><text fill="#000000" font-family="sans-serif" font-size="13" lengthAdjust="spacing" textLength="190.9375" x="593.7173" y="232.0591">gather latest FormResponses</text></g><g class="message" data-entity-1="part4" data-entity-2="part5" id="msg5"><polygon fill="#181818" points="859.8218,275.2578,869.8218,279.2578,859.8218,283.2578,863.8218,279.2578" style="stroke:#181818;stroke-width:1;"/><line style="stroke:#181818;stroke-width:1;" x1="586.7173" x2="865.8218" y1="279.2578" y2="279.2578"/><text fill="#000000" font-family="sans-serif" font-size="13" lengthAdjust="spacing" textLength="261.1045" x="593.7173" y="274.1919">buildPolicyScopeWithAliases(responses)</text></g><g class="message" data-entity-1="part5" data-entity-2="part6" id="msg6"><polygon fill="#181818" points="1092.9707,304.3906,1102.9707,308.3906,1092.9707,312.3906,1096.9707,308.3906" style="stroke:#181818;stroke-width:1;"/><line style="stroke:#181818;stroke-width:1;" x1="871.8218" x2="1098.9707" y1="308.3906" y2="308.3906"/><text fill="#000000" font-family="sans-serif" font-size="13" lengthAdjust="spacing" textLength="209.1489" x="878.8218" y="303.3247">evaluateExpression(rule, scope)</text></g><g class="message" data-entity-1="part6" data-entity-2="part5" id="msg7"><polygon fill="#181818" points="882.8218,333.5234,872.8218,337.5234,882.8218,341.5234,878.8218,337.5234" style="stroke:#181818;stroke-width:1;"/><line style="stroke:#181818;stroke-width:1;stroke-dasharray:2,2;" x1="876.8218" x2="1103.9707" y1="337.5234" y2="337.5234"/><text fill="#000000" font-family="sans-serif" font-size="13" lengthAdjust="spacing" textLength="109.5732" x="888.8218" y="332.4575">evaluation result</text></g><g class="message" data-entity-1="part5" data-entity-2="part4" id="msg8"><polygon fill="#181818" points="597.7173,362.6563,587.7173,366.6563,597.7173,370.6563,593.7173,366.6563" style="stroke:#181818;stroke-width:1;"/><line style="stroke:#181818;stroke-width:1;stroke-dasharray:2,2;" x1="591.7173" x2="870.8218" y1="366.6563" y2="366.6563"/><text fill="#000000" font-family="sans-serif" font-size="13" lengthAdjust="spacing" textLength="102.5083" x="603.7173" y="361.5903">PolicyWarning[]</text></g><g class="message" data-entity-1="part4" data-entity-2="part3" id="msg9"><polygon fill="#181818" points="348.3184,391.7891,338.3184,395.7891,348.3184,399.7891,344.3184,395.7891" style="stroke:#181818;stroke-width:1;"/><line style="stroke:#181818;stroke-width:1;" x1="342.3184" x2="585.7173" y1="395.7891" y2="395.7891"/><text fill="#000000" font-family="sans-serif" font-size="13" lengthAdjust="spacing" textLength="225.3989" x="354.3184" y="390.7231">updated Case with policyWarnings</text></g><g class="message" data-entity-1="part4" data-entity-2="part4" id="msg10"><line style="stroke:#181818;stroke-width:1;" x1="586.7173" x2="628.7173" y1="424.9219" y2="424.9219"/><line style="stroke:#181818;stroke-width:1;" x1="628.7173" x2="628.7173" y1="424.9219" y2="437.9219"/><line style="stroke:#181818;stroke-width:1;" x1="587.7173" x2="628.7173" y1="437.9219" y2="437.9219"/><polygon fill="#181818" points="597.7173,433.9219,587.7173,437.9219,597.7173,441.9219,593.7173,437.9219" style="stroke:#181818;stroke-width:1;"/><text fill="#000000" font-family="sans-serif" font-size="13" lengthAdjust="spacing" textLength="95.8052" x="593.7173" y="419.856">addAuditEvent</text></g><path d="M1109,450.9219 L1109,475.9219 L1268,475.9219 L1268,460.9219 L1258,450.9219 L1109,450.9219" fill="#FEFFDD" style="stroke:#181818;stroke-width:0.5;"/><path d="M1258,450.9219 L1258,460.9219 L1268,460.9219 L1258,450.9219" fill="#FEFFDD" style="stroke:#181818;stroke-width:0.5;"/><text fill="#000000" font-family="sans-serif" font-size="13" lengthAdjust="spacing" textLength="138.271" x="1115" y="467.9888">src/api/policyParser/*</text><?plantuml-src RP6_RW8n3CRtF8N515KHUuTA2549fXCKCLGTmfq1Io594-TQjavzWAfFo9FKzmTw9tMp_Fq-vtFCn0RXEP0-85o-lY5pXl8pp4jjacPo5YwVFx36juGsHwLqpYx0p92bdBHLNWUMoclBCDWi1g0ZR1Rzjj1ekPQQiY-lCPIKOwstTHzOkXGidbSOdIanrE1orMUQt9aEiGMoJAbRJ1W_IYfuW9Xs9sBWPk6z2oSbVL6RO48qqan778PgwyWZrOg2jVbwdBesU_f1yn436Cqo0fxa9SdldOqOkuRbIjXT8bCq6wnpvt5BV9mQajbHGhIkaH9M75ac3cpkW_CFBq2KEmr3CdWFiVAFb43ZwtJykwMmoN0zg1UsUNkhWoLxU7dj1hnzJFA5F5X0jJAyIqBmNLVy_njqKKnJGJmlgxihwnWXqE78uFQoYbmav1FjQU8x1vpSgLy0?></g></svg>